<?xml version="1.0" encoding="utf-8" standalone="no"?>
<!DOCTYPE svg PUBLIC "-//W3C//DTD SVG 1.1//EN"
  "http://www.w3.org/Graphics/SVG/1.1/DTD/svg11.dtd">
<svg xmlns:xlink="http://www.w3.org/1999/xlink" width="712.442812pt" height="351.034375pt" viewBox="0 0 712.442812 351.034375" xmlns="http://www.w3.org/2000/svg" version="1.1">
 <metadata>
  <rdf:RDF xmlns:dc="http://purl.org/dc/elements/1.1/" xmlns:cc="http://creativecommons.org/ns#" xmlns:rdf="http://www.w3.org/1999/02/22-rdf-syntax-ns#">
   <cc:Work>
    <dc:type rdf:resource="http://purl.org/dc/dcmitype/StillImage"/>
    <dc:date>2026-04-06T12:40:40.812336</dc:date>
    <dc:format>image/svg+xml</dc:format>
    <dc:creator>
     <cc:Agent>
      <dc:title>Matplotlib v3.10.0, https://matplotlib.org/</dc:title>
     </cc:Agent>
    </dc:creator>
   </cc:Work>
  </rdf:RDF>
 </metadata>
 <defs>
  <style type="text/css">*{stroke-linejoin: round; stroke-linecap: butt}</style>
 </defs>
 <g id="figure_1">
  <g id="patch_1">
   <path d="M 0 351.034375 
L 712.442812 351.034375 
L 712.442812 0 
L 0 0 
z
" style="fill: #ffffff"/>
  </g>
  <g id="axes_1">
   <g id="patch_2">
    <path d="M 45.482813 142.378125 
L 705.242813 142.378125 
L 705.242813 22.318125 
L 45.482813 22.318125 
z
" style="fill: #ffffff"/>
   </g>
   <g id="matplotlib.axis_1">
    <g id="xtick_1">
     <g id="line2d_1">
      <path d="M 75.471903 142.378125 
L 75.471903 22.318125 
" clip-path="url(#p84c1cfe2f6)" style="fill: none; stroke: #b0b0b0; stroke-opacity: 0.3; stroke-width: 0.8; stroke-linecap: square"/>
     </g>
     <g id="line2d_2">
      <defs>
       <path id="m0e1108d536" d="M 0 0 
L 0 -3.5 
" style="stroke: #000000; stroke-width: 0.8"/>
      </defs>
      <g>
       <use xlink:href="#m0e1108d536" x="75.471903" y="142.378125" style="stroke: #000000; stroke-width: 0.8"/>
      </g>
     </g>
     <g id="text_1">
      <!-- 0 -->
      <g transform="translate(72.290653 153.476563) scale(0.1 -0.1)">
       <defs>
        <path id="DejaVuSans-30" d="M 2034 4250 
Q 1547 4250 1301 3770 
Q 1056 3291 1056 2328 
Q 1056 1369 1301 889 
Q 1547 409 2034 409 
Q 2525 409 2770 889 
Q 3016 1369 3016 2328 
Q 3016 3291 2770 3770 
Q 2525 4250 2034 4250 
z
M 2034 4750 
Q 2819 4750 3233 4129 
Q 3647 3509 3647 2328 
Q 3647 1150 3233 529 
Q 2819 -91 2034 -91 
Q 1250 -91 836 529 
Q 422 1150 422 2328 
Q 422 3509 836 4129 
Q 1250 4750 2034 4750 
z
" transform="scale(0.015625)"/>
       </defs>
       <use xlink:href="#DejaVuSans-30"/>
      </g>
     </g>
    </g>
    <g id="xtick_2">
     <g id="line2d_3">
      <path d="M 195.628528 142.378125 
L 195.628528 22.318125 
" clip-path="url(#p84c1cfe2f6)" style="fill: none; stroke: #b0b0b0; stroke-opacity: 0.3; stroke-width: 0.8; stroke-linecap: square"/>
     </g>
     <g id="line2d_4">
      <g>
       <use xlink:href="#m0e1108d536" x="195.628528" y="142.378125" style="stroke: #000000; stroke-width: 0.8"/>
      </g>
     </g>
     <g id="text_2">
      <!-- 2 -->
      <g transform="translate(192.447278 153.476563) scale(0.1 -0.1)">
       <defs>
        <path id="DejaVuSans-32" d="M 1228 531 
L 3431 531 
L 3431 0 
L 469 0 
L 469 531 
Q 828 903 1448 1529 
Q 2069 2156 2228 2338 
Q 2531 2678 2651 2914 
Q 2772 3150 2772 3378 
Q 2772 3750 2511 3984 
Q 2250 4219 1831 4219 
Q 1534 4219 1204 4116 
Q 875 4013 500 3803 
L 500 4441 
Q 881 4594 1212 4672 
Q 1544 4750 1819 4750 
Q 2544 4750 2975 4387 
Q 3406 4025 3406 3419 
Q 3406 3131 3298 2873 
Q 3191 2616 2906 2266 
Q 2828 2175 2409 1742 
Q 1991 1309 1228 531 
z
" transform="scale(0.015625)"/>
       </defs>
       <use xlink:href="#DejaVuSans-32"/>
      </g>
     </g>
    </g>
    <g id="xtick_3">
     <g id="line2d_5">
      <path d="M 315.785153 142.378125 
L 315.785153 22.318125 
" clip-path="url(#p84c1cfe2f6)" style="fill: none; stroke: #b0b0b0; stroke-opacity: 0.3; stroke-width: 0.8; stroke-linecap: square"/>
     </g>
     <g id="line2d_6">
      <g>
       <use xlink:href="#m0e1108d536" x="315.785153" y="142.378125" style="stroke: #000000; stroke-width: 0.8"/>
      </g>
     </g>
     <g id="text_3">
      <!-- 4 -->
      <g transform="translate(312.603903 153.476563) scale(0.1 -0.1)">
       <defs>
        <path id="DejaVuSans-34" d="M 2419 4116 
L 825 1625 
L 2419 1625 
L 2419 4116 
z
M 2253 4666 
L 3047 4666 
L 3047 1625 
L 3713 1625 
L 3713 1100 
L 3047 1100 
L 3047 0 
L 2419 0 
L 2419 1100 
L 313 1100 
L 313 1709 
L 2253 4666 
z
" transform="scale(0.015625)"/>
       </defs>
       <use xlink:href="#DejaVuSans-34"/>
      </g>
     </g>
    </g>
    <g id="xtick_4">
     <g id="line2d_7">
      <path d="M 435.941777 142.378125 
L 435.941777 22.318125 
" clip-path="url(#p84c1cfe2f6)" style="fill: none; stroke: #b0b0b0; stroke-opacity: 0.3; stroke-width: 0.8; stroke-linecap: square"/>
     </g>
     <g id="line2d_8">
      <g>
       <use xlink:href="#m0e1108d536" x="435.941777" y="142.378125" style="stroke: #000000; stroke-width: 0.8"/>
      </g>
     </g>
     <g id="text_4">
      <!-- 6 -->
      <g transform="translate(432.760527 153.476563) scale(0.1 -0.1)">
       <defs>
        <path id="DejaVuSans-36" d="M 2113 2584 
Q 1688 2584 1439 2293 
Q 1191 2003 1191 1497 
Q 1191 994 1439 701 
Q 1688 409 2113 409 
Q 2538 409 2786 701 
Q 3034 994 3034 1497 
Q 3034 2003 2786 2293 
Q 2538 2584 2113 2584 
z
M 3366 4563 
L 3366 3988 
Q 3128 4100 2886 4159 
Q 2644 4219 2406 4219 
Q 1781 4219 1451 3797 
Q 1122 3375 1075 2522 
Q 1259 2794 1537 2939 
Q 1816 3084 2150 3084 
Q 2853 3084 3261 2657 
Q 3669 2231 3669 1497 
Q 3669 778 3244 343 
Q 2819 -91 2113 -91 
Q 1303 -91 875 529 
Q 447 1150 447 2328 
Q 447 3434 972 4092 
Q 1497 4750 2381 4750 
Q 2619 4750 2861 4703 
Q 3103 4656 3366 4563 
z
" transform="scale(0.015625)"/>
       </defs>
       <use xlink:href="#DejaVuSans-36"/>
      </g>
     </g>
    </g>
    <g id="xtick_5">
     <g id="line2d_9">
      <path d="M 556.098402 142.378125 
L 556.098402 22.318125 
" clip-path="url(#p84c1cfe2f6)" style="fill: none; stroke: #b0b0b0; stroke-opacity: 0.3; stroke-width: 0.8; stroke-linecap: square"/>
     </g>
     <g id="line2d_10">
      <g>
       <use xlink:href="#m0e1108d536" x="556.098402" y="142.378125" style="stroke: #000000; stroke-width: 0.8"/>
      </g>
     </g>
     <g id="text_5">
      <!-- 8 -->
      <g transform="translate(552.917152 153.476563) scale(0.1 -0.1)">
       <defs>
        <path id="DejaVuSans-38" d="M 2034 2216 
Q 1584 2216 1326 1975 
Q 1069 1734 1069 1313 
Q 1069 891 1326 650 
Q 1584 409 2034 409 
Q 2484 409 2743 651 
Q 3003 894 3003 1313 
Q 3003 1734 2745 1975 
Q 2488 2216 2034 2216 
z
M 1403 2484 
Q 997 2584 770 2862 
Q 544 3141 544 3541 
Q 544 4100 942 4425 
Q 1341 4750 2034 4750 
Q 2731 4750 3128 4425 
Q 3525 4100 3525 3541 
Q 3525 3141 3298 2862 
Q 3072 2584 2669 2484 
Q 3125 2378 3379 2068 
Q 3634 1759 3634 1313 
Q 3634 634 3220 271 
Q 2806 -91 2034 -91 
Q 1263 -91 848 271 
Q 434 634 434 1313 
Q 434 1759 690 2068 
Q 947 2378 1403 2484 
z
M 1172 3481 
Q 1172 3119 1398 2916 
Q 1625 2713 2034 2713 
Q 2441 2713 2670 2916 
Q 2900 3119 2900 3481 
Q 2900 3844 2670 4047 
Q 2441 4250 2034 4250 
Q 1625 4250 1398 4047 
Q 1172 3844 1172 3481 
z
" transform="scale(0.015625)"/>
       </defs>
       <use xlink:href="#DejaVuSans-38"/>
      </g>
     </g>
    </g>
    <g id="xtick_6">
     <g id="line2d_11">
      <path d="M 676.255027 142.378125 
L 676.255027 22.318125 
" clip-path="url(#p84c1cfe2f6)" style="fill: none; stroke: #b0b0b0; stroke-opacity: 0.3; stroke-width: 0.8; stroke-linecap: square"/>
     </g>
     <g id="line2d_12">
      <g>
       <use xlink:href="#m0e1108d536" x="676.255027" y="142.378125" style="stroke: #000000; stroke-width: 0.8"/>
      </g>
     </g>
     <g id="text_6">
      <!-- 10 -->
      <g transform="translate(669.892527 153.476563) scale(0.1 -0.1)">
       <defs>
        <path id="DejaVuSans-31" d="M 794 531 
L 1825 531 
L 1825 4091 
L 703 3866 
L 703 4441 
L 1819 4666 
L 2450 4666 
L 2450 531 
L 3481 531 
L 3481 0 
L 794 0 
L 794 531 
z
" transform="scale(0.015625)"/>
       </defs>
       <use xlink:href="#DejaVuSans-31"/>
       <use xlink:href="#DejaVuSans-30" transform="translate(63.623047 0)"/>
      </g>
     </g>
    </g>
    <g id="text_7">
     <!-- Time (s) -->
     <g transform="translate(355.033906 167.154688) scale(0.1 -0.1)">
      <defs>
       <path id="DejaVuSans-54" d="M -19 4666 
L 3928 4666 
L 3928 4134 
L 2272 4134 
L 2272 0 
L 1638 0 
L 1638 4134 
L -19 4134 
L -19 4666 
z
" transform="scale(0.015625)"/>
       <path id="DejaVuSans-69" d="M 603 3500 
L 1178 3500 
L 1178 0 
L 603 0 
L 603 3500 
z
M 603 4863 
L 1178 4863 
L 1178 4134 
L 603 4134 
L 603 4863 
z
" transform="scale(0.015625)"/>
       <path id="DejaVuSans-6d" d="M 3328 2828 
Q 3544 3216 3844 3400 
Q 4144 3584 4550 3584 
Q 5097 3584 5394 3201 
Q 5691 2819 5691 2113 
L 5691 0 
L 5113 0 
L 5113 2094 
Q 5113 2597 4934 2840 
Q 4756 3084 4391 3084 
Q 3944 3084 3684 2787 
Q 3425 2491 3425 1978 
L 3425 0 
L 2847 0 
L 2847 2094 
Q 2847 2600 2669 2842 
Q 2491 3084 2119 3084 
Q 1678 3084 1418 2786 
Q 1159 2488 1159 1978 
L 1159 0 
L 581 0 
L 581 3500 
L 1159 3500 
L 1159 2956 
Q 1356 3278 1631 3431 
Q 1906 3584 2284 3584 
Q 2666 3584 2933 3390 
Q 3200 3197 3328 2828 
z
" transform="scale(0.015625)"/>
       <path id="DejaVuSans-65" d="M 3597 1894 
L 3597 1613 
L 953 1613 
Q 991 1019 1311 708 
Q 1631 397 2203 397 
Q 2534 397 2845 478 
Q 3156 559 3463 722 
L 3463 178 
Q 3153 47 2828 -22 
Q 2503 -91 2169 -91 
Q 1331 -91 842 396 
Q 353 884 353 1716 
Q 353 2575 817 3079 
Q 1281 3584 2069 3584 
Q 2775 3584 3186 3129 
Q 3597 2675 3597 1894 
z
M 3022 2063 
Q 3016 2534 2758 2815 
Q 2500 3097 2075 3097 
Q 1594 3097 1305 2825 
Q 1016 2553 972 2059 
L 3022 2063 
z
" transform="scale(0.015625)"/>
       <path id="DejaVuSans-20" transform="scale(0.015625)"/>
       <path id="DejaVuSans-28" d="M 1984 4856 
Q 1566 4138 1362 3434 
Q 1159 2731 1159 2009 
Q 1159 1288 1364 580 
Q 1569 -128 1984 -844 
L 1484 -844 
Q 1016 -109 783 600 
Q 550 1309 550 2009 
Q 550 2706 781 3412 
Q 1013 4119 1484 4856 
L 1984 4856 
z
" transform="scale(0.015625)"/>
       <path id="DejaVuSans-73" d="M 2834 3397 
L 2834 2853 
Q 2591 2978 2328 3040 
Q 2066 3103 1784 3103 
Q 1356 3103 1142 2972 
Q 928 2841 928 2578 
Q 928 2378 1081 2264 
Q 1234 2150 1697 2047 
L 1894 2003 
Q 2506 1872 2764 1633 
Q 3022 1394 3022 966 
Q 3022 478 2636 193 
Q 2250 -91 1575 -91 
Q 1294 -91 989 -36 
Q 684 19 347 128 
L 347 722 
Q 666 556 975 473 
Q 1284 391 1588 391 
Q 1994 391 2212 530 
Q 2431 669 2431 922 
Q 2431 1156 2273 1281 
Q 2116 1406 1581 1522 
L 1381 1569 
Q 847 1681 609 1914 
Q 372 2147 372 2553 
Q 372 3047 722 3315 
Q 1072 3584 1716 3584 
Q 2034 3584 2315 3537 
Q 2597 3491 2834 3397 
z
" transform="scale(0.015625)"/>
       <path id="DejaVuSans-29" d="M 513 4856 
L 1013 4856 
Q 1481 4119 1714 3412 
Q 1947 2706 1947 2009 
Q 1947 1309 1714 600 
Q 1481 -109 1013 -844 
L 513 -844 
Q 928 -128 1133 580 
Q 1338 1288 1338 2009 
Q 1338 2731 1133 3434 
Q 928 4138 513 4856 
z
" transform="scale(0.015625)"/>
      </defs>
      <use xlink:href="#DejaVuSans-54"/>
      <use xlink:href="#DejaVuSans-69" transform="translate(57.958984 0)"/>
      <use xlink:href="#DejaVuSans-6d" transform="translate(85.742188 0)"/>
      <use xlink:href="#DejaVuSans-65" transform="translate(183.154297 0)"/>
      <use xlink:href="#DejaVuSans-20" transform="translate(244.677734 0)"/>
      <use xlink:href="#DejaVuSans-28" transform="translate(276.464844 0)"/>
      <use xlink:href="#DejaVuSans-73" transform="translate(315.478516 0)"/>
      <use xlink:href="#DejaVuSans-29" transform="translate(367.578125 0)"/>
     </g>
    </g>
   </g>
   <g id="matplotlib.axis_2">
    <g id="ytick_1">
     <g id="line2d_13">
      <path d="M 45.482813 113.942862 
L 705.242813 113.942862 
" clip-path="url(#p84c1cfe2f6)" style="fill: none; stroke: #b0b0b0; stroke-opacity: 0.3; stroke-width: 0.8; stroke-linecap: square"/>
     </g>
     <g id="line2d_14">
      <defs>
       <path id="m01b5a2cac0" d="M 0 0 
L 3.5 0 
" style="stroke: #000000; stroke-width: 0.8"/>
      </defs>
      <g>
       <use xlink:href="#m01b5a2cac0" x="45.482813" y="113.942862" style="stroke: #000000; stroke-width: 0.8"/>
      </g>
     </g>
     <g id="text_8">
      <!-- −1 -->
      <g transform="translate(27.240625 117.742081) scale(0.1 -0.1)">
       <defs>
        <path id="DejaVuSans-2212" d="M 678 2272 
L 4684 2272 
L 4684 1741 
L 678 1741 
L 678 2272 
z
" transform="scale(0.015625)"/>
       </defs>
       <use xlink:href="#DejaVuSans-2212"/>
       <use xlink:href="#DejaVuSans-31" transform="translate(83.789062 0)"/>
      </g>
     </g>
    </g>
    <g id="ytick_2">
     <g id="line2d_15">
      <path d="M 45.482813 82.348125 
L 705.242813 82.348125 
" clip-path="url(#p84c1cfe2f6)" style="fill: none; stroke: #b0b0b0; stroke-opacity: 0.3; stroke-width: 0.8; stroke-linecap: square"/>
     </g>
     <g id="line2d_16">
      <g>
       <use xlink:href="#m01b5a2cac0" x="45.482813" y="82.348125" style="stroke: #000000; stroke-width: 0.8"/>
      </g>
     </g>
     <g id="text_9">
      <!-- 0 -->
      <g transform="translate(35.620313 86.147344) scale(0.1 -0.1)">
       <use xlink:href="#DejaVuSans-30"/>
      </g>
     </g>
    </g>
    <g id="ytick_3">
     <g id="line2d_17">
      <path d="M 45.482813 50.753388 
L 705.242813 50.753388 
" clip-path="url(#p84c1cfe2f6)" style="fill: none; stroke: #b0b0b0; stroke-opacity: 0.3; stroke-width: 0.8; stroke-linecap: square"/>
     </g>
     <g id="line2d_18">
      <g>
       <use xlink:href="#m01b5a2cac0" x="45.482813" y="50.753388" style="stroke: #000000; stroke-width: 0.8"/>
      </g>
     </g>
     <g id="text_10">
      <!-- 1 -->
      <g transform="translate(35.620313 54.552607) scale(0.1 -0.1)">
       <use xlink:href="#DejaVuSans-31"/>
      </g>
     </g>
    </g>
    <g id="text_11">
     <!-- Voltage (V) -->
     <g transform="translate(21.160938 110.015313) rotate(-90) scale(0.1 -0.1)">
      <defs>
       <path id="DejaVuSans-56" d="M 1831 0 
L 50 4666 
L 709 4666 
L 2188 738 
L 3669 4666 
L 4325 4666 
L 2547 0 
L 1831 0 
z
" transform="scale(0.015625)"/>
       <path id="DejaVuSans-6f" d="M 1959 3097 
Q 1497 3097 1228 2736 
Q 959 2375 959 1747 
Q 959 1119 1226 758 
Q 1494 397 1959 397 
Q 2419 397 2687 759 
Q 2956 1122 2956 1747 
Q 2956 2369 2687 2733 
Q 2419 3097 1959 3097 
z
M 1959 3584 
Q 2709 3584 3137 3096 
Q 3566 2609 3566 1747 
Q 3566 888 3137 398 
Q 2709 -91 1959 -91 
Q 1206 -91 779 398 
Q 353 888 353 1747 
Q 353 2609 779 3096 
Q 1206 3584 1959 3584 
z
" transform="scale(0.015625)"/>
       <path id="DejaVuSans-6c" d="M 603 4863 
L 1178 4863 
L 1178 0 
L 603 0 
L 603 4863 
z
" transform="scale(0.015625)"/>
       <path id="DejaVuSans-74" d="M 1172 4494 
L 1172 3500 
L 2356 3500 
L 2356 3053 
L 1172 3053 
L 1172 1153 
Q 1172 725 1289 603 
Q 1406 481 1766 481 
L 2356 481 
L 2356 0 
L 1766 0 
Q 1100 0 847 248 
Q 594 497 594 1153 
L 594 3053 
L 172 3053 
L 172 3500 
L 594 3500 
L 594 4494 
L 1172 4494 
z
" transform="scale(0.015625)"/>
       <path id="DejaVuSans-61" d="M 2194 1759 
Q 1497 1759 1228 1600 
Q 959 1441 959 1056 
Q 959 750 1161 570 
Q 1363 391 1709 391 
Q 2188 391 2477 730 
Q 2766 1069 2766 1631 
L 2766 1759 
L 2194 1759 
z
M 3341 1997 
L 3341 0 
L 2766 0 
L 2766 531 
Q 2569 213 2275 61 
Q 1981 -91 1556 -91 
Q 1019 -91 701 211 
Q 384 513 384 1019 
Q 384 1609 779 1909 
Q 1175 2209 1959 2209 
L 2766 2209 
L 2766 2266 
Q 2766 2663 2505 2880 
Q 2244 3097 1772 3097 
Q 1472 3097 1187 3025 
Q 903 2953 641 2809 
L 641 3341 
Q 956 3463 1253 3523 
Q 1550 3584 1831 3584 
Q 2591 3584 2966 3190 
Q 3341 2797 3341 1997 
z
" transform="scale(0.015625)"/>
       <path id="DejaVuSans-67" d="M 2906 1791 
Q 2906 2416 2648 2759 
Q 2391 3103 1925 3103 
Q 1463 3103 1205 2759 
Q 947 2416 947 1791 
Q 947 1169 1205 825 
Q 1463 481 1925 481 
Q 2391 481 2648 825 
Q 2906 1169 2906 1791 
z
M 3481 434 
Q 3481 -459 3084 -895 
Q 2688 -1331 1869 -1331 
Q 1566 -1331 1297 -1286 
Q 1028 -1241 775 -1147 
L 775 -588 
Q 1028 -725 1275 -790 
Q 1522 -856 1778 -856 
Q 2344 -856 2625 -561 
Q 2906 -266 2906 331 
L 2906 616 
Q 2728 306 2450 153 
Q 2172 0 1784 0 
Q 1141 0 747 490 
Q 353 981 353 1791 
Q 353 2603 747 3093 
Q 1141 3584 1784 3584 
Q 2172 3584 2450 3431 
Q 2728 3278 2906 2969 
L 2906 3500 
L 3481 3500 
L 3481 434 
z
" transform="scale(0.015625)"/>
      </defs>
      <use xlink:href="#DejaVuSans-56"/>
      <use xlink:href="#DejaVuSans-6f" transform="translate(60.658203 0)"/>
      <use xlink:href="#DejaVuSans-6c" transform="translate(121.839844 0)"/>
      <use xlink:href="#DejaVuSans-74" transform="translate(149.623047 0)"/>
      <use xlink:href="#DejaVuSans-61" transform="translate(188.832031 0)"/>
      <use xlink:href="#DejaVuSans-67" transform="translate(250.111328 0)"/>
      <use xlink:href="#DejaVuSans-65" transform="translate(313.587891 0)"/>
      <use xlink:href="#DejaVuSans-20" transform="translate(375.111328 0)"/>
      <use xlink:href="#DejaVuSans-28" transform="translate(406.898438 0)"/>
      <use xlink:href="#DejaVuSans-56" transform="translate(445.912109 0)"/>
      <use xlink:href="#DejaVuSans-29" transform="translate(514.320312 0)"/>
     </g>
    </g>
   </g>
   <g id="line2d_19">
    <path d="M 75.471903 37.66642 
L 76.473209 60.007272 
L 77.474514 104.688978 
L 78.475819 127.02983 
L 79.477124 104.688978 
L 80.478429 60.007272 
L 81.479735 37.66642 
L 82.48104 60.007272 
L 83.482345 104.688978 
L 84.48365 127.02983 
L 85.484955 104.688978 
L 86.486261 60.007272 
L 87.487566 37.66642 
L 88.488871 60.007272 
L 89.490176 104.688978 
L 90.491481 127.02983 
L 91.492787 104.688978 
L 92.494092 60.007272 
L 93.495397 37.66642 
L 94.496702 60.007272 
L 95.498008 104.688978 
L 96.499313 127.02983 
L 97.500618 104.688978 
L 98.501923 60.007272 
L 99.503228 37.66642 
L 100.504534 60.007272 
L 101.505839 104.688978 
L 102.507144 127.02983 
L 103.508449 104.688978 
L 104.509754 60.007272 
L 105.51106 37.66642 
L 106.512365 60.007272 
L 107.51367 104.688978 
L 108.514975 127.02983 
L 109.51628 104.688978 
L 110.517586 60.007272 
L 111.518891 37.66642 
L 112.520196 60.007272 
L 113.521501 104.688978 
L 114.522806 127.02983 
L 115.524112 104.688978 
L 116.525417 60.007272 
L 117.526722 37.66642 
L 118.528027 60.007272 
L 119.529332 104.688978 
L 120.530638 127.02983 
L 121.531943 104.688978 
L 122.533248 60.007272 
L 123.534553 37.66642 
L 124.535858 60.007272 
L 125.537164 104.688978 
L 126.538469 127.02983 
L 127.539774 104.688978 
L 128.541079 60.007272 
L 129.542385 37.66642 
L 130.54369 60.007272 
L 131.544995 104.688978 
L 132.5463 127.02983 
L 133.547605 104.688978 
L 134.548911 60.007272 
L 135.550216 37.66642 
L 136.551521 60.007272 
L 137.552826 104.688978 
L 138.554131 127.02983 
L 139.555437 104.688978 
L 140.556742 60.007272 
L 141.558047 37.66642 
L 142.559352 60.007272 
L 143.560657 104.688978 
L 144.561963 127.02983 
L 145.563268 104.688978 
L 146.564573 60.007272 
L 147.565878 37.66642 
L 148.567183 60.007272 
L 149.568489 104.688978 
L 150.569794 127.02983 
L 151.571099 104.688978 
L 152.572404 60.007272 
L 153.573709 37.66642 
L 154.575015 60.007272 
L 155.57632 104.688978 
L 156.577625 127.02983 
L 157.57893 104.688978 
L 158.580235 60.007272 
L 159.581541 37.66642 
L 160.582846 60.007272 
L 161.584151 104.688978 
L 162.585456 127.02983 
L 163.586762 104.688978 
L 164.588067 60.007272 
L 165.589372 37.66642 
L 166.590677 60.007272 
L 167.591982 104.688978 
L 168.593288 127.02983 
L 169.594593 104.688978 
L 170.595898 60.007272 
L 171.597203 37.66642 
L 172.598508 60.007272 
L 173.599814 104.688978 
L 174.601119 127.02983 
L 175.602424 104.688978 
L 176.603729 60.007272 
L 177.605034 37.66642 
L 178.60634 60.007272 
L 179.607645 104.688978 
L 180.60895 127.02983 
L 181.610255 104.688978 
L 182.61156 60.007272 
L 183.612866 37.66642 
L 184.614171 60.007272 
L 185.615476 104.688978 
L 186.616781 127.02983 
L 187.618086 104.688978 
L 188.619392 60.007272 
L 189.620697 37.66642 
L 190.622002 60.007272 
L 191.623307 104.688978 
L 192.624612 127.02983 
L 193.625918 104.688978 
L 194.627223 60.007272 
L 195.628528 37.66642 
L 196.629833 60.007272 
L 197.631138 104.688978 
L 198.632444 127.02983 
L 199.633749 104.688978 
L 200.635054 60.007272 
L 201.636359 37.66642 
L 202.637665 60.007272 
L 203.63897 104.688978 
L 204.640275 127.02983 
L 205.64158 104.688978 
L 206.642885 60.007272 
L 207.644191 37.66642 
L 208.645496 60.007272 
L 209.646801 104.688978 
L 210.648106 127.02983 
L 211.649411 104.688978 
L 212.650717 60.007272 
L 213.652022 37.66642 
L 214.653327 60.007272 
L 215.654632 104.688978 
L 216.655937 127.02983 
L 217.657243 104.688978 
L 218.658548 60.007272 
L 219.659853 37.66642 
L 220.661158 60.007272 
L 221.662463 104.688978 
L 222.663769 127.02983 
L 223.665074 104.688978 
L 224.666379 60.007272 
L 225.667684 37.66642 
L 226.668989 60.007272 
L 227.670295 104.688978 
L 228.6716 127.02983 
L 229.672905 104.688978 
L 230.67421 60.007272 
L 231.675515 37.66642 
L 232.676821 60.007272 
L 233.678126 104.688978 
L 234.679431 127.02983 
L 235.680736 104.688978 
L 236.682042 60.007272 
L 237.683347 37.66642 
L 238.684652 60.007272 
L 239.685957 104.688978 
L 240.687262 127.02983 
L 241.688568 104.688978 
L 242.689873 60.007272 
L 243.691178 37.66642 
L 244.692483 60.007272 
L 245.693788 104.688978 
L 246.695094 127.02983 
L 247.696399 104.688978 
L 248.697704 60.007272 
L 249.699009 37.66642 
L 250.700314 60.007272 
L 251.70162 104.688978 
L 252.702925 127.02983 
L 253.70423 104.688978 
L 254.705535 60.007272 
L 255.70684 37.66642 
L 256.708146 60.007272 
L 257.709451 104.688978 
L 258.710756 127.02983 
L 259.712061 104.688978 
L 260.713366 60.007272 
L 261.714672 37.66642 
L 262.715977 60.007272 
L 263.717282 104.688978 
L 264.718587 127.02983 
L 265.719892 104.688978 
L 266.721198 60.007272 
L 267.722503 37.66642 
L 268.723808 60.007272 
L 269.725113 104.688978 
L 270.726419 127.02983 
L 271.727724 104.688978 
L 272.729029 60.007272 
L 273.730334 37.66642 
L 274.731639 60.007272 
L 275.732945 104.688978 
L 276.73425 127.02983 
L 277.735555 104.688978 
L 278.73686 60.007272 
L 279.738165 37.66642 
L 280.739471 60.007272 
L 281.740776 104.688978 
L 282.742081 127.02983 
L 283.743386 104.688978 
L 284.744691 60.007272 
L 285.745997 37.66642 
L 286.747302 60.007272 
L 287.748607 104.688978 
L 288.749912 127.02983 
L 289.751217 104.688978 
L 290.752523 60.007272 
L 291.753828 37.66642 
L 292.755133 60.007272 
L 293.756438 104.688978 
L 294.757743 127.02983 
L 295.759049 104.688978 
L 296.760354 60.007272 
L 297.761659 37.66642 
L 298.762964 60.007272 
L 299.764269 104.688978 
L 300.765575 127.02983 
L 301.76688 104.688978 
L 302.768185 60.007272 
L 303.76949 37.66642 
L 304.770796 60.007272 
L 305.772101 104.688978 
L 306.773406 127.02983 
L 307.774711 104.688978 
L 308.776016 60.007272 
L 309.777322 37.66642 
L 310.778627 60.007272 
L 311.779932 104.688978 
L 312.781237 127.02983 
L 313.782542 104.688978 
L 314.783848 60.007272 
L 315.785153 37.66642 
L 316.786458 60.007272 
L 317.787763 104.688978 
L 318.789068 127.02983 
L 319.790374 104.688978 
L 320.791679 60.007272 
L 321.792984 37.66642 
L 322.794289 60.007272 
L 323.795594 104.688978 
L 324.7969 127.02983 
L 325.798205 104.688978 
L 326.79951 60.007272 
L 327.800815 37.66642 
L 328.80212 60.007272 
L 329.803426 104.688978 
L 330.804731 127.02983 
L 331.806036 104.688978 
L 332.807341 60.007272 
L 333.808646 37.66642 
L 334.809952 60.007272 
L 335.811257 104.688978 
L 336.812562 127.02983 
L 337.813867 104.688978 
L 338.815172 60.007272 
L 339.816478 37.66642 
L 340.817783 60.007272 
L 341.819088 104.688978 
L 342.820393 127.02983 
L 343.821699 104.688978 
L 344.823004 60.007272 
L 345.824309 37.66642 
L 346.825614 60.007272 
L 347.826919 104.688978 
L 348.828225 127.02983 
L 349.82953 104.688978 
L 350.830835 60.007272 
L 351.83214 37.66642 
L 352.833445 60.007272 
L 353.834751 104.688978 
L 354.836056 127.02983 
L 355.837361 104.688978 
L 356.838666 60.007272 
L 357.839971 37.66642 
L 358.841277 60.007272 
L 359.842582 104.688978 
L 360.843887 127.02983 
L 361.845192 104.688978 
L 362.846497 60.007272 
L 363.847803 37.66642 
L 364.849108 60.007272 
L 365.850413 104.688978 
L 366.851718 127.02983 
L 367.853023 104.688978 
L 368.854329 60.007272 
L 369.855634 37.66642 
L 370.856939 60.007272 
L 371.858244 104.688978 
L 372.859549 127.02983 
L 373.860855 104.688978 
L 374.86216 60.007272 
L 375.863465 37.66642 
L 376.86477 60.007272 
L 377.866076 104.688978 
L 378.867381 127.02983 
L 379.868686 104.688978 
L 380.869991 60.007272 
L 381.871296 37.66642 
L 382.872602 60.007272 
L 383.873907 104.688978 
L 384.875212 127.02983 
L 385.876517 104.688978 
L 386.877822 60.007272 
L 387.879128 37.66642 
L 388.880433 60.007272 
L 389.881738 104.688978 
L 390.883043 127.02983 
L 391.884348 104.688978 
L 392.885654 60.007272 
L 393.886959 37.66642 
L 394.888264 60.007272 
L 395.889569 104.688978 
L 396.890874 127.02983 
L 397.89218 104.688978 
L 398.893485 60.007272 
L 399.89479 37.66642 
L 400.896095 60.007272 
L 401.8974 104.688978 
L 402.898706 127.02983 
L 403.900011 104.688978 
L 404.901316 60.007272 
L 405.902621 37.66642 
L 406.903926 60.007272 
L 407.905232 104.688978 
L 408.906537 127.02983 
L 409.907842 104.688978 
L 410.909147 60.007272 
L 411.910453 37.66642 
L 412.911758 60.007272 
L 413.913063 104.688978 
L 414.914368 127.02983 
L 415.915673 104.688978 
L 416.916979 60.007272 
L 417.918284 37.66642 
L 418.919589 60.007272 
L 419.920894 104.688978 
L 420.922199 127.02983 
L 421.923505 104.688978 
L 422.92481 60.007272 
L 423.926115 37.66642 
L 424.92742 60.007272 
L 425.928725 104.688978 
L 426.930031 127.02983 
L 427.931336 104.688978 
L 428.932641 60.007272 
L 429.933946 37.66642 
L 430.935251 60.007272 
L 431.936557 104.688978 
L 432.937862 127.02983 
L 433.939167 104.688978 
L 434.940472 60.007272 
L 435.941777 37.66642 
L 436.943083 60.007272 
L 437.944388 104.688978 
L 438.945693 127.02983 
L 439.946998 104.688978 
L 440.948303 60.007272 
L 441.949609 37.66642 
L 442.950914 60.007272 
L 443.952219 104.688978 
L 444.953524 127.02983 
L 445.954829 104.688978 
L 446.956135 60.007272 
L 447.95744 37.66642 
L 448.958745 60.007272 
L 449.96005 104.688978 
L 450.961356 127.02983 
L 451.962661 104.688978 
L 452.963966 60.007272 
L 453.965271 37.66642 
L 454.966576 60.007272 
L 455.967882 104.688978 
L 456.969187 127.02983 
L 457.970492 104.688978 
L 458.971797 60.007272 
L 459.973102 37.66642 
L 460.974408 60.007272 
L 461.975713 104.688978 
L 462.977018 127.02983 
L 463.978323 104.688978 
L 464.979628 60.007272 
L 465.980934 37.66642 
L 466.982239 60.007272 
L 467.983544 104.688978 
L 468.984849 127.02983 
L 469.986154 104.688978 
L 470.98746 60.007272 
L 471.988765 37.66642 
L 472.99007 60.007272 
L 473.991375 104.688978 
L 474.99268 127.02983 
L 475.993986 104.688978 
L 476.995291 60.007272 
L 477.996596 37.66642 
L 478.997901 60.007272 
L 479.999206 104.688978 
L 481.000512 127.02983 
L 482.001817 104.688978 
L 483.003122 60.007272 
L 484.004427 37.66642 
L 485.005733 60.007272 
L 486.007038 104.688978 
L 487.008343 127.02983 
L 488.009648 104.688978 
L 489.010953 60.007272 
L 490.012259 37.66642 
L 491.013564 60.007272 
L 492.014869 104.688978 
L 493.016174 127.02983 
L 494.017479 104.688978 
L 495.018785 60.007272 
L 496.02009 37.66642 
L 497.021395 60.007272 
L 498.0227 104.688978 
L 499.024005 127.02983 
L 500.025311 104.688978 
L 501.026616 60.007272 
L 502.027921 37.66642 
L 503.029226 60.007272 
L 504.030531 104.688978 
L 505.031837 127.02983 
L 506.033142 104.688978 
L 507.034447 60.007272 
L 508.035752 37.66642 
L 509.037057 60.007272 
L 510.038363 104.688978 
L 511.039668 127.02983 
L 512.040973 104.688978 
L 513.042278 60.007272 
L 514.043583 37.66642 
L 515.044889 60.007272 
L 516.046194 104.688978 
L 517.047499 127.02983 
L 518.048804 104.688978 
L 519.05011 60.007272 
L 520.051415 37.66642 
L 521.05272 60.007272 
L 522.054025 104.688978 
L 523.05533 127.02983 
L 524.056636 104.688978 
L 525.057941 60.007272 
L 526.059246 37.66642 
L 527.060551 60.007272 
L 528.061856 104.688978 
L 529.063162 127.02983 
L 530.064467 104.688978 
L 531.065772 60.007272 
L 532.067077 37.66642 
L 533.068382 60.007272 
L 534.069688 104.688978 
L 535.070993 127.02983 
L 536.072298 104.688978 
L 537.073603 60.007272 
L 538.074908 37.66642 
L 539.076214 60.007272 
L 540.077519 104.688978 
L 541.078824 127.02983 
L 542.080129 104.688978 
L 543.081434 60.007272 
L 544.08274 37.66642 
L 545.084045 60.007272 
L 546.08535 104.688978 
L 547.086655 127.02983 
L 548.08796 104.688978 
L 549.089266 60.007272 
L 550.090571 37.66642 
L 551.091876 60.007272 
L 552.093181 104.688978 
L 553.094487 127.02983 
L 554.095792 104.688978 
L 555.097097 60.007272 
L 556.098402 37.66642 
L 557.099707 60.007272 
L 558.101013 104.688978 
L 559.102318 127.02983 
L 560.103623 104.688978 
L 561.104928 60.007272 
L 562.106233 37.66642 
L 563.107539 60.007272 
L 564.108844 104.688978 
L 565.110149 127.02983 
L 566.111454 104.688978 
L 567.112759 60.007272 
L 568.114065 37.66642 
L 569.11537 60.007272 
L 570.116675 104.688978 
L 571.11798 127.02983 
L 572.119285 104.688978 
L 573.120591 60.007272 
L 574.121896 37.66642 
L 575.123201 60.007272 
L 576.124506 104.688978 
L 577.125811 127.02983 
L 578.127117 104.688978 
L 579.128422 60.007272 
L 580.129727 37.66642 
L 581.131032 60.007272 
L 582.132337 104.688978 
L 583.133643 127.02983 
L 584.134948 104.688978 
L 585.136253 60.007272 
L 586.137558 37.66642 
L 587.138863 60.007272 
L 588.140169 104.688978 
L 589.141474 127.02983 
L 590.142779 104.688978 
L 591.144084 60.007272 
L 592.14539 37.66642 
L 593.146695 60.007272 
L 594.148 104.688978 
L 595.149305 127.02983 
L 596.15061 104.688978 
L 597.151916 60.007272 
L 598.153221 37.66642 
L 599.154526 60.007272 
L 600.155831 104.688978 
L 601.157136 127.02983 
L 602.158442 104.688978 
L 603.159747 60.007272 
L 604.161052 37.66642 
L 605.162357 60.007272 
L 606.163662 104.688978 
L 607.164968 127.02983 
L 608.166273 104.688978 
L 609.167578 60.007272 
L 610.168883 37.66642 
L 611.170188 60.007272 
L 612.171494 104.688978 
L 613.172799 127.02983 
L 614.174104 104.688978 
L 615.175409 60.007272 
L 616.176714 37.66642 
L 617.17802 60.007272 
L 618.179325 104.688978 
L 619.18063 127.02983 
L 620.181935 104.688978 
L 621.18324 60.007272 
L 622.184546 37.66642 
L 623.185851 60.007272 
L 624.187156 104.688978 
L 625.188461 127.02983 
L 626.189767 104.688978 
L 627.191072 60.007272 
L 628.192377 37.66642 
L 629.193682 60.007272 
L 630.194987 104.688978 
L 631.196293 127.02983 
L 632.197598 104.688978 
L 633.198903 60.007272 
L 634.200208 37.66642 
L 635.201513 60.007272 
L 636.202819 104.688978 
L 637.204124 127.02983 
L 638.205429 104.688978 
L 639.206734 60.007272 
L 640.208039 37.66642 
L 641.209345 60.007272 
L 642.21065 104.688978 
L 643.211955 127.02983 
L 644.21326 104.688978 
L 645.214565 60.007272 
L 646.215871 37.66642 
L 647.217176 60.007272 
L 648.218481 104.688978 
L 649.219786 127.02983 
L 650.221091 104.688978 
L 651.222397 60.007272 
L 652.223702 37.66642 
L 653.225007 60.007272 
L 654.226312 104.688978 
L 655.227617 127.02983 
L 656.228923 104.688978 
L 657.230228 60.007272 
L 658.231533 37.66642 
L 659.232838 60.007272 
L 660.234144 104.688978 
L 661.235449 127.02983 
L 662.236754 104.688978 
L 663.238059 60.007272 
L 664.239364 37.66642 
L 665.24067 60.007272 
L 666.241975 104.688978 
L 667.24328 127.02983 
L 668.244585 104.688978 
L 669.24589 60.007272 
L 670.247196 37.66642 
L 671.248501 60.007272 
L 672.249806 104.688978 
L 673.251111 127.02983 
L 674.252416 104.688978 
L 675.253722 60.007272 
L 675.253722 60.007272 
" clip-path="url(#p84c1cfe2f6)" style="fill: none; stroke: #4c72b0; stroke-width: 1.5; stroke-linecap: square"/>
   </g>
   <g id="line2d_20">
    <path d="M 75.471903 37.66642 
L 76.473209 60.007272 
L 77.474514 104.688978 
L 78.475819 127.02983 
L 79.477124 104.688978 
L 80.478429 60.007272 
L 81.479735 37.66642 
L 82.48104 60.007272 
L 83.482345 104.688978 
L 84.48365 127.02983 
L 85.484955 104.688978 
L 86.486261 60.007272 
L 87.487566 37.66642 
L 88.488871 60.007272 
L 89.490176 104.688978 
L 90.491481 127.02983 
L 91.492787 104.688978 
L 92.494092 60.007272 
L 93.495397 37.66642 
L 94.496702 60.007272 
L 95.498008 104.688978 
L 96.499313 127.02983 
L 97.500618 104.688978 
L 98.501923 60.007272 
L 99.503228 37.66642 
L 100.504534 60.007272 
L 101.505839 104.688978 
L 102.507144 127.02983 
L 103.508449 104.688978 
L 104.509754 60.007272 
L 105.51106 37.66642 
L 106.512365 60.007272 
L 107.51367 104.688978 
L 108.514975 127.02983 
L 109.51628 104.688978 
L 110.517586 60.007272 
L 111.518891 37.66642 
L 112.520196 60.007272 
L 113.521501 104.688978 
L 114.522806 127.02983 
L 115.524112 104.688978 
L 116.525417 60.007272 
L 117.526722 37.66642 
L 118.528027 60.007272 
L 119.529332 104.688978 
L 120.530638 127.02983 
L 121.531943 104.688978 
L 122.533248 60.007272 
L 123.534553 37.66642 
L 124.535858 60.007272 
L 125.537164 104.688978 
L 126.538469 127.02983 
L 127.539774 104.688978 
L 128.541079 60.007272 
L 129.542385 37.66642 
L 130.54369 60.007272 
L 131.544995 104.688978 
L 132.5463 127.02983 
L 133.547605 104.688978 
L 134.548911 60.007272 
L 135.550216 37.66642 
L 136.551521 60.007272 
L 137.552826 104.688978 
L 138.554131 127.02983 
L 139.555437 104.688978 
L 140.556742 60.007272 
L 141.558047 37.66642 
L 142.559352 60.007272 
L 143.560657 104.688978 
L 144.561963 127.02983 
L 145.563268 104.688978 
L 146.564573 60.007272 
L 147.565878 37.66642 
L 148.567183 60.007272 
L 149.568489 104.688978 
L 150.569794 127.02983 
L 151.571099 104.688978 
L 152.572404 60.007272 
L 153.573709 37.66642 
L 154.575015 60.007272 
L 155.57632 104.688978 
L 156.577625 127.02983 
L 157.57893 104.688978 
L 158.580235 60.007272 
L 159.581541 37.66642 
L 160.582846 60.007272 
L 161.584151 104.688978 
L 162.585456 127.02983 
L 163.586762 104.688978 
L 164.588067 60.007272 
L 165.589372 37.66642 
L 166.590677 60.007272 
L 167.591982 104.688978 
L 168.593288 127.02983 
L 169.594593 104.688978 
L 170.595898 60.007272 
L 171.597203 37.66642 
L 172.598508 60.007272 
L 173.599814 104.688978 
L 174.601119 127.02983 
L 175.602424 104.688978 
L 176.603729 60.007272 
L 177.605034 37.66642 
L 178.60634 60.007272 
L 179.607645 104.688978 
L 180.60895 127.02983 
L 181.610255 104.688978 
L 182.61156 60.007272 
L 183.612866 37.66642 
L 184.614171 60.007272 
L 185.615476 104.688978 
L 186.616781 127.02983 
L 187.618086 104.688978 
L 188.619392 60.007272 
L 189.620697 37.66642 
L 190.622002 60.007272 
L 191.623307 104.688978 
L 192.624612 127.02983 
L 193.625918 104.688978 
L 194.627223 60.007272 
L 195.628528 37.66642 
L 196.629833 60.007272 
L 197.631138 104.688978 
L 198.632444 127.02983 
L 199.633749 104.688978 
L 200.635054 60.007272 
L 201.636359 37.66642 
L 202.637665 60.007272 
L 203.63897 104.688978 
L 204.640275 127.02983 
L 205.64158 104.688978 
L 206.642885 60.007272 
L 207.644191 37.66642 
L 208.645496 60.007272 
L 209.646801 104.688978 
L 210.648106 127.02983 
L 211.649411 104.688978 
L 212.650717 60.007272 
L 213.652022 37.66642 
L 214.653327 60.007272 
L 215.654632 104.688978 
L 216.655937 127.02983 
L 217.657243 104.688978 
L 218.658548 60.007272 
L 219.659853 37.66642 
L 220.661158 60.007272 
L 221.662463 104.688978 
L 222.663769 127.02983 
L 223.665074 104.688978 
L 224.666379 60.007272 
L 225.667684 37.66642 
L 226.668989 60.007272 
L 227.670295 104.688978 
L 228.6716 127.02983 
L 229.672905 104.688978 
L 230.67421 60.007272 
L 231.675515 37.66642 
L 232.676821 60.007272 
L 233.678126 104.688978 
L 234.679431 127.02983 
L 235.680736 104.688978 
L 236.682042 60.007272 
L 237.683347 37.66642 
L 238.684652 60.007272 
L 239.685957 104.688978 
L 240.687262 127.02983 
L 241.688568 104.688978 
L 242.689873 60.007272 
L 243.691178 37.66642 
L 244.692483 60.007272 
L 245.693788 104.688978 
L 246.695094 127.02983 
L 247.696399 104.688978 
L 248.697704 60.007272 
L 249.699009 37.66642 
L 250.700314 60.007272 
L 251.70162 104.688978 
L 252.702925 127.02983 
L 253.70423 104.688978 
L 254.705535 60.007272 
L 255.70684 37.66642 
L 256.708146 60.007272 
L 257.709451 104.688978 
L 258.710756 127.02983 
L 259.712061 104.688978 
L 260.713366 60.007272 
L 261.714672 37.66642 
L 262.715977 60.007272 
L 263.717282 104.688978 
L 264.718587 127.02983 
L 265.719892 104.688978 
L 266.721198 60.007272 
L 267.722503 37.66642 
L 268.723808 60.007272 
L 269.725113 104.688978 
L 270.726419 127.02983 
L 271.727724 104.688978 
L 272.729029 60.007272 
L 273.730334 37.66642 
L 274.731639 60.007272 
L 275.732945 104.688978 
L 276.73425 127.02983 
L 277.735555 104.688978 
L 278.73686 60.007272 
L 279.738165 37.66642 
L 280.739471 60.007272 
L 281.740776 104.688978 
L 282.742081 127.02983 
L 283.743386 104.688978 
L 284.744691 60.007272 
L 285.745997 37.66642 
L 286.747302 60.007272 
L 287.748607 104.688978 
L 288.749912 127.02983 
L 289.751217 104.688978 
L 290.752523 60.007272 
L 291.753828 37.66642 
L 292.755133 60.007272 
L 293.756438 104.688978 
L 294.757743 127.02983 
L 295.759049 104.688978 
L 296.760354 60.007272 
L 297.761659 37.66642 
L 298.762964 60.007272 
L 299.764269 104.688978 
L 300.765575 127.02983 
L 301.76688 104.688978 
L 302.768185 60.007272 
L 303.76949 37.66642 
L 304.770796 60.007272 
L 305.772101 104.688978 
L 306.773406 127.02983 
L 307.774711 104.688978 
L 308.776016 60.007272 
L 309.777322 37.66642 
L 310.778627 60.007272 
L 311.779932 104.688978 
L 312.781237 127.02983 
L 313.782542 104.688978 
L 314.783848 60.007272 
L 315.785153 37.66642 
L 316.786458 60.007272 
L 317.787763 104.688978 
L 318.789068 127.02983 
L 319.790374 104.688978 
L 320.791679 60.007272 
L 321.792984 37.66642 
L 322.794289 60.007272 
L 323.795594 104.688978 
L 324.7969 127.02983 
L 325.798205 104.688978 
L 326.79951 60.007272 
L 327.800815 37.66642 
L 328.80212 60.007272 
L 329.803426 104.688978 
L 330.804731 127.02983 
L 331.806036 104.688978 
L 332.807341 60.007272 
L 333.808646 37.66642 
L 334.809952 60.007272 
L 335.811257 104.688978 
L 336.812562 127.02983 
L 337.813867 104.688978 
L 338.815172 60.007272 
L 339.816478 37.66642 
L 340.817783 60.007272 
L 341.819088 104.688978 
L 342.820393 127.02983 
L 343.821699 104.688978 
L 344.823004 60.007272 
L 345.824309 37.66642 
L 346.825614 60.007272 
L 347.826919 104.688978 
L 348.828225 127.02983 
L 349.82953 104.688978 
L 350.830835 60.007272 
L 351.83214 37.66642 
L 352.833445 60.007272 
L 353.834751 104.688978 
L 354.836056 127.02983 
L 355.837361 104.688978 
L 356.838666 60.007272 
L 357.839971 37.66642 
L 358.841277 60.007272 
L 359.842582 104.688978 
L 360.843887 127.02983 
L 361.845192 104.688978 
L 362.846497 60.007272 
L 363.847803 37.66642 
L 364.849108 60.007272 
L 365.850413 104.688978 
L 366.851718 127.02983 
L 367.853023 104.688978 
L 368.854329 60.007272 
L 369.855634 37.66642 
L 370.856939 60.007272 
L 371.858244 104.688978 
L 372.859549 127.02983 
L 373.860855 104.688978 
L 374.86216 60.007272 
L 374.86216 60.007272 
" clip-path="url(#p84c1cfe2f6)" style="fill: none; stroke: #55a868; stroke-width: 1.5; stroke-linecap: square"/>
   </g>
   <g id="line2d_21">
    <path d="M 75.471903 37.66642 
L 76.473209 60.007272 
L 77.474514 104.688978 
L 78.475819 127.02983 
L 79.477124 104.688978 
L 80.478429 60.007272 
L 81.479735 37.66642 
L 82.48104 60.007272 
L 83.482345 104.688978 
L 84.48365 127.02983 
L 85.484955 104.688978 
L 86.486261 60.007272 
L 87.487566 37.66642 
L 88.488871 60.007272 
L 89.490176 104.688978 
L 90.491481 127.02983 
L 91.492787 104.688978 
L 92.494092 60.007272 
L 93.495397 37.66642 
L 94.496702 60.007272 
L 95.498008 104.688978 
L 96.499313 127.02983 
L 97.500618 104.688978 
L 98.501923 60.007272 
L 99.503228 37.66642 
L 100.504534 60.007272 
L 101.505839 104.688978 
L 102.507144 127.02983 
L 103.508449 104.688978 
L 104.509754 60.007272 
L 105.51106 37.66642 
L 106.512365 60.007272 
L 107.51367 104.688978 
L 108.514975 127.02983 
L 109.51628 104.688978 
L 110.517586 60.007272 
L 111.518891 37.66642 
L 112.520196 60.007272 
L 113.521501 104.688978 
L 114.522806 127.02983 
L 115.524112 104.688978 
L 116.525417 60.007272 
L 117.526722 37.66642 
L 118.528027 60.007272 
L 119.529332 104.688978 
L 120.530638 127.02983 
L 121.531943 104.688978 
L 122.533248 60.007272 
L 123.534553 37.66642 
L 124.535858 60.007272 
L 125.537164 104.688978 
L 126.538469 127.02983 
L 127.539774 104.688978 
L 128.541079 60.007272 
L 129.542385 37.66642 
L 130.54369 60.007272 
L 131.544995 104.688978 
L 132.5463 127.02983 
L 133.547605 104.688978 
L 134.548911 60.007272 
L 135.550216 37.66642 
L 136.551521 60.007272 
L 137.552826 104.688978 
L 138.554131 127.02983 
L 139.555437 104.688978 
L 140.556742 60.007272 
L 141.558047 37.66642 
L 142.559352 60.007272 
L 143.560657 104.688978 
L 144.561963 127.02983 
L 145.563268 104.688978 
L 146.564573 60.007272 
L 147.565878 37.66642 
L 148.567183 60.007272 
L 149.568489 104.688978 
L 150.569794 127.02983 
L 151.571099 104.688978 
L 152.572404 60.007272 
L 153.573709 37.66642 
L 154.575015 60.007272 
L 155.57632 104.688978 
L 156.577625 127.02983 
L 157.57893 104.688978 
L 158.580235 60.007272 
L 159.581541 37.66642 
L 160.582846 60.007272 
L 161.584151 104.688978 
L 162.585456 127.02983 
L 163.586762 104.688978 
L 164.588067 60.007272 
L 165.589372 37.66642 
L 166.590677 60.007272 
L 167.591982 104.688978 
L 168.593288 127.02983 
L 169.594593 104.688978 
L 170.595898 60.007272 
L 171.597203 37.66642 
L 172.598508 60.007272 
L 173.599814 104.688978 
L 174.601119 127.02983 
L 175.602424 104.688978 
L 176.603729 60.007272 
L 177.605034 37.66642 
L 178.60634 60.007272 
L 179.607645 104.688978 
L 180.60895 127.02983 
L 181.610255 104.688978 
L 182.61156 60.007272 
L 183.612866 37.66642 
L 184.614171 60.007272 
L 185.615476 104.688978 
L 186.616781 127.02983 
L 187.618086 104.688978 
L 188.619392 60.007272 
L 189.620697 37.66642 
L 190.622002 60.007272 
L 191.623307 104.688978 
L 192.624612 127.02983 
L 193.625918 104.688978 
L 194.627223 60.007272 
" clip-path="url(#p84c1cfe2f6)" style="fill: none; stroke: #c44e52; stroke-width: 1.5; stroke-linecap: square"/>
   </g>
   <g id="line2d_22">
    <path d="M 45.482813 50.753388 
L 705.242813 50.753388 
" clip-path="url(#p84c1cfe2f6)" style="fill: none; stroke-dasharray: 5.55,2.4; stroke-dashoffset: 0; stroke: #000000; stroke-width: 1.5"/>
   </g>
   <g id="line2d_23">
    <path d="M 45.482813 113.942862 
L 705.242813 113.942862 
" clip-path="url(#p84c1cfe2f6)" style="fill: none; stroke-dasharray: 5.55,2.4; stroke-dashoffset: 0; stroke: #000000; stroke-width: 1.5"/>
   </g>
   <g id="patch_3">
    <path d="M 45.482813 142.378125 
L 45.482813 22.318125 
" style="fill: none; stroke: #000000; stroke-width: 0.8; stroke-linejoin: miter; stroke-linecap: square"/>
   </g>
   <g id="patch_4">
    <path d="M 705.242813 142.378125 
L 705.242813 22.318125 
" style="fill: none; stroke: #000000; stroke-width: 0.8; stroke-linejoin: miter; stroke-linecap: square"/>
   </g>
   <g id="patch_5">
    <path d="M 45.482813 142.378125 
L 705.242812 142.378125 
" style="fill: none; stroke: #000000; stroke-width: 0.8; stroke-linejoin: miter; stroke-linecap: square"/>
   </g>
   <g id="patch_6">
    <path d="M 45.482813 22.318125 
L 705.242812 22.318125 
" style="fill: none; stroke: #000000; stroke-width: 0.8; stroke-linejoin: miter; stroke-linecap: square"/>
   </g>
   <g id="text_12">
    <!-- x(0) = A = 1.4142 V -->
    <g transform="translate(81.479735 33.691048) scale(0.1 -0.1)">
     <defs>
      <path id="DejaVuSans-78" d="M 3513 3500 
L 2247 1797 
L 3578 0 
L 2900 0 
L 1881 1375 
L 863 0 
L 184 0 
L 1544 1831 
L 300 3500 
L 978 3500 
L 1906 2253 
L 2834 3500 
L 3513 3500 
z
" transform="scale(0.015625)"/>
      <path id="DejaVuSans-3d" d="M 678 2906 
L 4684 2906 
L 4684 2381 
L 678 2381 
L 678 2906 
z
M 678 1631 
L 4684 1631 
L 4684 1100 
L 678 1100 
L 678 1631 
z
" transform="scale(0.015625)"/>
      <path id="DejaVuSans-41" d="M 2188 4044 
L 1331 1722 
L 3047 1722 
L 2188 4044 
z
M 1831 4666 
L 2547 4666 
L 4325 0 
L 3669 0 
L 3244 1197 
L 1141 1197 
L 716 0 
L 50 0 
L 1831 4666 
z
" transform="scale(0.015625)"/>
      <path id="DejaVuSans-2e" d="M 684 794 
L 1344 794 
L 1344 0 
L 684 0 
L 684 794 
z
" transform="scale(0.015625)"/>
     </defs>
     <use xlink:href="#DejaVuSans-78"/>
     <use xlink:href="#DejaVuSans-28" transform="translate(59.179688 0)"/>
     <use xlink:href="#DejaVuSans-30" transform="translate(98.193359 0)"/>
     <use xlink:href="#DejaVuSans-29" transform="translate(161.816406 0)"/>
     <use xlink:href="#DejaVuSans-20" transform="translate(200.830078 0)"/>
     <use xlink:href="#DejaVuSans-3d" transform="translate(232.617188 0)"/>
     <use xlink:href="#DejaVuSans-20" transform="translate(316.40625 0)"/>
     <use xlink:href="#DejaVuSans-41" transform="translate(348.193359 0)"/>
     <use xlink:href="#DejaVuSans-20" transform="translate(416.601562 0)"/>
     <use xlink:href="#DejaVuSans-3d" transform="translate(448.388672 0)"/>
     <use xlink:href="#DejaVuSans-20" transform="translate(532.177734 0)"/>
     <use xlink:href="#DejaVuSans-31" transform="translate(563.964844 0)"/>
     <use xlink:href="#DejaVuSans-2e" transform="translate(627.587891 0)"/>
     <use xlink:href="#DejaVuSans-34" transform="translate(659.375 0)"/>
     <use xlink:href="#DejaVuSans-31" transform="translate(722.998047 0)"/>
     <use xlink:href="#DejaVuSans-34" transform="translate(786.621094 0)"/>
     <use xlink:href="#DejaVuSans-32" transform="translate(850.244141 0)"/>
     <use xlink:href="#DejaVuSans-20" transform="translate(913.867188 0)"/>
     <use xlink:href="#DejaVuSans-56" transform="translate(945.654297 0)"/>
    </g>
   </g>
   <g id="text_13">
    <!-- Static sinusoid at three acquisition lengths -->
    <g transform="translate(247.3125 16.318125) scale(0.12 -0.12)">
     <defs>
      <path id="DejaVuSans-53" d="M 3425 4513 
L 3425 3897 
Q 3066 4069 2747 4153 
Q 2428 4238 2131 4238 
Q 1616 4238 1336 4038 
Q 1056 3838 1056 3469 
Q 1056 3159 1242 3001 
Q 1428 2844 1947 2747 
L 2328 2669 
Q 3034 2534 3370 2195 
Q 3706 1856 3706 1288 
Q 3706 609 3251 259 
Q 2797 -91 1919 -91 
Q 1588 -91 1214 -16 
Q 841 59 441 206 
L 441 856 
Q 825 641 1194 531 
Q 1563 422 1919 422 
Q 2459 422 2753 634 
Q 3047 847 3047 1241 
Q 3047 1584 2836 1778 
Q 2625 1972 2144 2069 
L 1759 2144 
Q 1053 2284 737 2584 
Q 422 2884 422 3419 
Q 422 4038 858 4394 
Q 1294 4750 2059 4750 
Q 2388 4750 2728 4690 
Q 3069 4631 3425 4513 
z
" transform="scale(0.015625)"/>
      <path id="DejaVuSans-63" d="M 3122 3366 
L 3122 2828 
Q 2878 2963 2633 3030 
Q 2388 3097 2138 3097 
Q 1578 3097 1268 2742 
Q 959 2388 959 1747 
Q 959 1106 1268 751 
Q 1578 397 2138 397 
Q 2388 397 2633 464 
Q 2878 531 3122 666 
L 3122 134 
Q 2881 22 2623 -34 
Q 2366 -91 2075 -91 
Q 1284 -91 818 406 
Q 353 903 353 1747 
Q 353 2603 823 3093 
Q 1294 3584 2113 3584 
Q 2378 3584 2631 3529 
Q 2884 3475 3122 3366 
z
" transform="scale(0.015625)"/>
      <path id="DejaVuSans-6e" d="M 3513 2113 
L 3513 0 
L 2938 0 
L 2938 2094 
Q 2938 2591 2744 2837 
Q 2550 3084 2163 3084 
Q 1697 3084 1428 2787 
Q 1159 2491 1159 1978 
L 1159 0 
L 581 0 
L 581 3500 
L 1159 3500 
L 1159 2956 
Q 1366 3272 1645 3428 
Q 1925 3584 2291 3584 
Q 2894 3584 3203 3211 
Q 3513 2838 3513 2113 
z
" transform="scale(0.015625)"/>
      <path id="DejaVuSans-75" d="M 544 1381 
L 544 3500 
L 1119 3500 
L 1119 1403 
Q 1119 906 1312 657 
Q 1506 409 1894 409 
Q 2359 409 2629 706 
Q 2900 1003 2900 1516 
L 2900 3500 
L 3475 3500 
L 3475 0 
L 2900 0 
L 2900 538 
Q 2691 219 2414 64 
Q 2138 -91 1772 -91 
Q 1169 -91 856 284 
Q 544 659 544 1381 
z
M 1991 3584 
L 1991 3584 
z
" transform="scale(0.015625)"/>
      <path id="DejaVuSans-64" d="M 2906 2969 
L 2906 4863 
L 3481 4863 
L 3481 0 
L 2906 0 
L 2906 525 
Q 2725 213 2448 61 
Q 2172 -91 1784 -91 
Q 1150 -91 751 415 
Q 353 922 353 1747 
Q 353 2572 751 3078 
Q 1150 3584 1784 3584 
Q 2172 3584 2448 3432 
Q 2725 3281 2906 2969 
z
M 947 1747 
Q 947 1113 1208 752 
Q 1469 391 1925 391 
Q 2381 391 2643 752 
Q 2906 1113 2906 1747 
Q 2906 2381 2643 2742 
Q 2381 3103 1925 3103 
Q 1469 3103 1208 2742 
Q 947 2381 947 1747 
z
" transform="scale(0.015625)"/>
      <path id="DejaVuSans-68" d="M 3513 2113 
L 3513 0 
L 2938 0 
L 2938 2094 
Q 2938 2591 2744 2837 
Q 2550 3084 2163 3084 
Q 1697 3084 1428 2787 
Q 1159 2491 1159 1978 
L 1159 0 
L 581 0 
L 581 4863 
L 1159 4863 
L 1159 2956 
Q 1366 3272 1645 3428 
Q 1925 3584 2291 3584 
Q 2894 3584 3203 3211 
Q 3513 2838 3513 2113 
z
" transform="scale(0.015625)"/>
      <path id="DejaVuSans-72" d="M 2631 2963 
Q 2534 3019 2420 3045 
Q 2306 3072 2169 3072 
Q 1681 3072 1420 2755 
Q 1159 2438 1159 1844 
L 1159 0 
L 581 0 
L 581 3500 
L 1159 3500 
L 1159 2956 
Q 1341 3275 1631 3429 
Q 1922 3584 2338 3584 
Q 2397 3584 2469 3576 
Q 2541 3569 2628 3553 
L 2631 2963 
z
" transform="scale(0.015625)"/>
      <path id="DejaVuSans-71" d="M 947 1747 
Q 947 1113 1208 752 
Q 1469 391 1925 391 
Q 2381 391 2643 752 
Q 2906 1113 2906 1747 
Q 2906 2381 2643 2742 
Q 2381 3103 1925 3103 
Q 1469 3103 1208 2742 
Q 947 2381 947 1747 
z
M 2906 525 
Q 2725 213 2448 61 
Q 2172 -91 1784 -91 
Q 1150 -91 751 415 
Q 353 922 353 1747 
Q 353 2572 751 3078 
Q 1150 3584 1784 3584 
Q 2172 3584 2448 3432 
Q 2725 3281 2906 2969 
L 2906 3500 
L 3481 3500 
L 3481 -1331 
L 2906 -1331 
L 2906 525 
z
" transform="scale(0.015625)"/>
     </defs>
     <use xlink:href="#DejaVuSans-53"/>
     <use xlink:href="#DejaVuSans-74" transform="translate(63.476562 0)"/>
     <use xlink:href="#DejaVuSans-61" transform="translate(102.685547 0)"/>
     <use xlink:href="#DejaVuSans-74" transform="translate(163.964844 0)"/>
     <use xlink:href="#DejaVuSans-69" transform="translate(203.173828 0)"/>
     <use xlink:href="#DejaVuSans-63" transform="translate(230.957031 0)"/>
     <use xlink:href="#DejaVuSans-20" transform="translate(285.9375 0)"/>
     <use xlink:href="#DejaVuSans-73" transform="translate(317.724609 0)"/>
     <use xlink:href="#DejaVuSans-69" transform="translate(369.824219 0)"/>
     <use xlink:href="#DejaVuSans-6e" transform="translate(397.607422 0)"/>
     <use xlink:href="#DejaVuSans-75" transform="translate(460.986328 0)"/>
     <use xlink:href="#DejaVuSans-73" transform="translate(524.365234 0)"/>
     <use xlink:href="#DejaVuSans-6f" transform="translate(576.464844 0)"/>
     <use xlink:href="#DejaVuSans-69" transform="translate(637.646484 0)"/>
     <use xlink:href="#DejaVuSans-64" transform="translate(665.429688 0)"/>
     <use xlink:href="#DejaVuSans-20" transform="translate(728.90625 0)"/>
     <use xlink:href="#DejaVuSans-61" transform="translate(760.693359 0)"/>
     <use xlink:href="#DejaVuSans-74" transform="translate(821.972656 0)"/>
     <use xlink:href="#DejaVuSans-20" transform="translate(861.181641 0)"/>
     <use xlink:href="#DejaVuSans-74" transform="translate(892.96875 0)"/>
     <use xlink:href="#DejaVuSans-68" transform="translate(932.177734 0)"/>
     <use xlink:href="#DejaVuSans-72" transform="translate(995.556641 0)"/>
     <use xlink:href="#DejaVuSans-65" transform="translate(1034.419922 0)"/>
     <use xlink:href="#DejaVuSans-65" transform="translate(1095.943359 0)"/>
     <use xlink:href="#DejaVuSans-20" transform="translate(1157.466797 0)"/>
     <use xlink:href="#DejaVuSans-61" transform="translate(1189.253906 0)"/>
     <use xlink:href="#DejaVuSans-63" transform="translate(1250.533203 0)"/>
     <use xlink:href="#DejaVuSans-71" transform="translate(1305.513672 0)"/>
     <use xlink:href="#DejaVuSans-75" transform="translate(1368.990234 0)"/>
     <use xlink:href="#DejaVuSans-69" transform="translate(1432.369141 0)"/>
     <use xlink:href="#DejaVuSans-73" transform="translate(1460.152344 0)"/>
     <use xlink:href="#DejaVuSans-69" transform="translate(1512.251953 0)"/>
     <use xlink:href="#DejaVuSans-74" transform="translate(1540.035156 0)"/>
     <use xlink:href="#DejaVuSans-69" transform="translate(1579.244141 0)"/>
     <use xlink:href="#DejaVuSans-6f" transform="translate(1607.027344 0)"/>
     <use xlink:href="#DejaVuSans-6e" transform="translate(1668.208984 0)"/>
     <use xlink:href="#DejaVuSans-20" transform="translate(1731.587891 0)"/>
     <use xlink:href="#DejaVuSans-6c" transform="translate(1763.375 0)"/>
     <use xlink:href="#DejaVuSans-65" transform="translate(1791.158203 0)"/>
     <use xlink:href="#DejaVuSans-6e" transform="translate(1852.681641 0)"/>
     <use xlink:href="#DejaVuSans-67" transform="translate(1916.060547 0)"/>
     <use xlink:href="#DejaVuSans-74" transform="translate(1979.537109 0)"/>
     <use xlink:href="#DejaVuSans-68" transform="translate(2018.746094 0)"/>
     <use xlink:href="#DejaVuSans-73" transform="translate(2082.125 0)"/>
    </g>
   </g>
   <g id="line2d_24">
    <path d="M 75.471903 37.66642 
" style="fill: none; stroke: #000000; stroke-width: 1.5; stroke-linecap: square"/>
    <defs>
     <path id="m7fe92cb020" d="M 0 2.5 
C 0.663008 2.5 1.29895 2.236584 1.767767 1.767767 
C 2.236584 1.29895 2.5 0.663008 2.5 0 
C 2.5 -0.663008 2.236584 -1.29895 1.767767 -1.767767 
C 1.29895 -2.236584 0.663008 -2.5 0 -2.5 
C -0.663008 -2.5 -1.29895 -2.236584 -1.767767 -1.767767 
C -2.236584 -1.29895 -2.5 -0.663008 -2.5 0 
C -2.5 0.663008 -2.236584 1.29895 -1.767767 1.767767 
C -1.29895 2.236584 -0.663008 2.5 0 2.5 
z
" style="stroke: #000000"/>
    </defs>
    <g>
     <use xlink:href="#m7fe92cb020" x="75.471903" y="37.66642" style="stroke: #000000"/>
    </g>
   </g>
   <g id="legend_1">
    <g id="patch_7">
     <path d="M 546.892812 89.030625 
L 698.242813 89.030625 
Q 700.242813 89.030625 700.242813 87.030625 
L 700.242813 29.318125 
Q 700.242813 27.318125 698.242813 27.318125 
L 546.892812 27.318125 
Q 544.892812 27.318125 544.892812 29.318125 
L 544.892812 87.030625 
Q 544.892812 89.030625 546.892812 89.030625 
z
" style="fill: #ffffff; opacity: 0.8; stroke: #cccccc; stroke-linejoin: miter"/>
    </g>
    <g id="line2d_25">
     <path d="M 548.892812 35.416563 
L 558.892812 35.416563 
L 568.892812 35.416563 
" style="fill: none; stroke: #4c72b0; stroke-width: 1.5; stroke-linecap: square"/>
    </g>
    <g id="text_14">
     <!-- T = 10.0 s -->
     <g transform="translate(576.892812 38.916563) scale(0.1 -0.1)">
      <use xlink:href="#DejaVuSans-54"/>
      <use xlink:href="#DejaVuSans-20" transform="translate(61.083984 0)"/>
      <use xlink:href="#DejaVuSans-3d" transform="translate(92.871094 0)"/>
      <use xlink:href="#DejaVuSans-20" transform="translate(176.660156 0)"/>
      <use xlink:href="#DejaVuSans-31" transform="translate(208.447266 0)"/>
      <use xlink:href="#DejaVuSans-30" transform="translate(272.070312 0)"/>
      <use xlink:href="#DejaVuSans-2e" transform="translate(335.693359 0)"/>
      <use xlink:href="#DejaVuSans-30" transform="translate(367.480469 0)"/>
      <use xlink:href="#DejaVuSans-20" transform="translate(431.103516 0)"/>
      <use xlink:href="#DejaVuSans-73" transform="translate(462.890625 0)"/>
     </g>
    </g>
    <g id="line2d_26">
     <path d="M 548.892812 50.094688 
L 558.892812 50.094688 
L 568.892812 50.094688 
" style="fill: none; stroke: #55a868; stroke-width: 1.5; stroke-linecap: square"/>
    </g>
    <g id="text_15">
     <!-- T = 5.0 s -->
     <g transform="translate(576.892812 53.594688) scale(0.1 -0.1)">
      <defs>
       <path id="DejaVuSans-35" d="M 691 4666 
L 3169 4666 
L 3169 4134 
L 1269 4134 
L 1269 2991 
Q 1406 3038 1543 3061 
Q 1681 3084 1819 3084 
Q 2600 3084 3056 2656 
Q 3513 2228 3513 1497 
Q 3513 744 3044 326 
Q 2575 -91 1722 -91 
Q 1428 -91 1123 -41 
Q 819 9 494 109 
L 494 744 
Q 775 591 1075 516 
Q 1375 441 1709 441 
Q 2250 441 2565 725 
Q 2881 1009 2881 1497 
Q 2881 1984 2565 2268 
Q 2250 2553 1709 2553 
Q 1456 2553 1204 2497 
Q 953 2441 691 2322 
L 691 4666 
z
" transform="scale(0.015625)"/>
      </defs>
      <use xlink:href="#DejaVuSans-54"/>
      <use xlink:href="#DejaVuSans-20" transform="translate(61.083984 0)"/>
      <use xlink:href="#DejaVuSans-3d" transform="translate(92.871094 0)"/>
      <use xlink:href="#DejaVuSans-20" transform="translate(176.660156 0)"/>
      <use xlink:href="#DejaVuSans-35" transform="translate(208.447266 0)"/>
      <use xlink:href="#DejaVuSans-2e" transform="translate(272.070312 0)"/>
      <use xlink:href="#DejaVuSans-30" transform="translate(303.857422 0)"/>
      <use xlink:href="#DejaVuSans-20" transform="translate(367.480469 0)"/>
      <use xlink:href="#DejaVuSans-73" transform="translate(399.267578 0)"/>
     </g>
    </g>
    <g id="line2d_27">
     <path d="M 548.892812 64.772813 
L 558.892812 64.772813 
L 568.892812 64.772813 
" style="fill: none; stroke: #c44e52; stroke-width: 1.5; stroke-linecap: square"/>
    </g>
    <g id="text_16">
     <!-- T = 2.0 s -->
     <g transform="translate(576.892812 68.272813) scale(0.1 -0.1)">
      <use xlink:href="#DejaVuSans-54"/>
      <use xlink:href="#DejaVuSans-20" transform="translate(61.083984 0)"/>
      <use xlink:href="#DejaVuSans-3d" transform="translate(92.871094 0)"/>
      <use xlink:href="#DejaVuSans-20" transform="translate(176.660156 0)"/>
      <use xlink:href="#DejaVuSans-32" transform="translate(208.447266 0)"/>
      <use xlink:href="#DejaVuSans-2e" transform="translate(272.070312 0)"/>
      <use xlink:href="#DejaVuSans-30" transform="translate(303.857422 0)"/>
      <use xlink:href="#DejaVuSans-20" transform="translate(367.480469 0)"/>
      <use xlink:href="#DejaVuSans-73" transform="translate(399.267578 0)"/>
     </g>
    </g>
    <g id="line2d_28">
     <path d="M 548.892812 79.450938 
L 558.892812 79.450938 
L 568.892812 79.450938 
" style="fill: none; stroke-dasharray: 5.55,2.4; stroke-dashoffset: 0; stroke: #000000; stroke-width: 1.5"/>
    </g>
    <g id="text_17">
     <!-- RMS = A/√2 = 1.0000 V -->
     <g transform="translate(576.892812 82.950938) scale(0.1 -0.1)">
      <defs>
       <path id="DejaVuSans-52" d="M 2841 2188 
Q 3044 2119 3236 1894 
Q 3428 1669 3622 1275 
L 4263 0 
L 3584 0 
L 2988 1197 
Q 2756 1666 2539 1819 
Q 2322 1972 1947 1972 
L 1259 1972 
L 1259 0 
L 628 0 
L 628 4666 
L 2053 4666 
Q 2853 4666 3247 4331 
Q 3641 3997 3641 3322 
Q 3641 2881 3436 2590 
Q 3231 2300 2841 2188 
z
M 1259 4147 
L 1259 2491 
L 2053 2491 
Q 2509 2491 2742 2702 
Q 2975 2913 2975 3322 
Q 2975 3731 2742 3939 
Q 2509 4147 2053 4147 
L 1259 4147 
z
" transform="scale(0.015625)"/>
       <path id="DejaVuSans-4d" d="M 628 4666 
L 1569 4666 
L 2759 1491 
L 3956 4666 
L 4897 4666 
L 4897 0 
L 4281 0 
L 4281 4097 
L 3078 897 
L 2444 897 
L 1241 4097 
L 1241 0 
L 628 0 
L 628 4666 
z
" transform="scale(0.015625)"/>
       <path id="DejaVuSans-2f" d="M 1625 4666 
L 2156 4666 
L 531 -594 
L 0 -594 
L 1625 4666 
z
" transform="scale(0.015625)"/>
       <path id="DejaVuSans-221a" d="M 3488 5191 
L 4078 5191 
L 4078 4891 
L 3719 4891 
L 1863 -128 
L 1656 -128 
L 659 2631 
L 269 2491 
L 191 2741 
L 1075 3047 
L 1875 831 
L 3488 5191 
z
" transform="scale(0.015625)"/>
      </defs>
      <use xlink:href="#DejaVuSans-52"/>
      <use xlink:href="#DejaVuSans-4d" transform="translate(69.482422 0)"/>
      <use xlink:href="#DejaVuSans-53" transform="translate(155.761719 0)"/>
      <use xlink:href="#DejaVuSans-20" transform="translate(219.238281 0)"/>
      <use xlink:href="#DejaVuSans-3d" transform="translate(251.025391 0)"/>
      <use xlink:href="#DejaVuSans-20" transform="translate(334.814453 0)"/>
      <use xlink:href="#DejaVuSans-41" transform="translate(366.601562 0)"/>
      <use xlink:href="#DejaVuSans-2f" transform="translate(435.009766 0)"/>
      <use xlink:href="#DejaVuSans-221a" transform="translate(468.701172 0)"/>
      <use xlink:href="#DejaVuSans-32" transform="translate(532.421875 0)"/>
      <use xlink:href="#DejaVuSans-20" transform="translate(596.044922 0)"/>
      <use xlink:href="#DejaVuSans-3d" transform="translate(627.832031 0)"/>
      <use xlink:href="#DejaVuSans-20" transform="translate(711.621094 0)"/>
      <use xlink:href="#DejaVuSans-31" transform="translate(743.408203 0)"/>
      <use xlink:href="#DejaVuSans-2e" transform="translate(807.03125 0)"/>
      <use xlink:href="#DejaVuSans-30" transform="translate(838.818359 0)"/>
      <use xlink:href="#DejaVuSans-30" transform="translate(902.441406 0)"/>
      <use xlink:href="#DejaVuSans-30" transform="translate(966.064453 0)"/>
      <use xlink:href="#DejaVuSans-30" transform="translate(1029.6875 0)"/>
      <use xlink:href="#DejaVuSans-20" transform="translate(1093.310547 0)"/>
      <use xlink:href="#DejaVuSans-56" transform="translate(1125.097656 0)"/>
     </g>
    </g>
   </g>
  </g>
  <g id="axes_2">
   <g id="patch_8">
    <path d="M 45.482813 316.978125 
L 705.242813 316.978125 
L 705.242813 196.918125 
L 45.482813 196.918125 
z
" style="fill: #ffffff"/>
   </g>
   <g id="matplotlib.axis_3">
    <g id="xtick_7">
     <g id="line2d_29">
      <path d="M 75.471903 316.978125 
L 75.471903 196.918125 
" clip-path="url(#p6227106bd6)" style="fill: none; stroke: #b0b0b0; stroke-opacity: 0.3; stroke-width: 0.8; stroke-linecap: square"/>
     </g>
     <g id="line2d_30">
      <g>
       <use xlink:href="#m0e1108d536" x="75.471903" y="316.978125" style="stroke: #000000; stroke-width: 0.8"/>
      </g>
     </g>
     <g id="text_18">
      <!-- 0 -->
      <g transform="translate(72.290653 328.076563) scale(0.1 -0.1)">
       <use xlink:href="#DejaVuSans-30"/>
      </g>
     </g>
    </g>
    <g id="xtick_8">
     <g id="line2d_31">
      <path d="M 195.628528 316.978125 
L 195.628528 196.918125 
" clip-path="url(#p6227106bd6)" style="fill: none; stroke: #b0b0b0; stroke-opacity: 0.3; stroke-width: 0.8; stroke-linecap: square"/>
     </g>
     <g id="line2d_32">
      <g>
       <use xlink:href="#m0e1108d536" x="195.628528" y="316.978125" style="stroke: #000000; stroke-width: 0.8"/>
      </g>
     </g>
     <g id="text_19">
      <!-- 2 -->
      <g transform="translate(192.447278 328.076563) scale(0.1 -0.1)">
       <use xlink:href="#DejaVuSans-32"/>
      </g>
     </g>
    </g>
    <g id="xtick_9">
     <g id="line2d_33">
      <path d="M 315.785153 316.978125 
L 315.785153 196.918125 
" clip-path="url(#p6227106bd6)" style="fill: none; stroke: #b0b0b0; stroke-opacity: 0.3; stroke-width: 0.8; stroke-linecap: square"/>
     </g>
     <g id="line2d_34">
      <g>
       <use xlink:href="#m0e1108d536" x="315.785153" y="316.978125" style="stroke: #000000; stroke-width: 0.8"/>
      </g>
     </g>
     <g id="text_20">
      <!-- 4 -->
      <g transform="translate(312.603903 328.076563) scale(0.1 -0.1)">
       <use xlink:href="#DejaVuSans-34"/>
      </g>
     </g>
    </g>
    <g id="xtick_10">
     <g id="line2d_35">
      <path d="M 435.941777 316.978125 
L 435.941777 196.918125 
" clip-path="url(#p6227106bd6)" style="fill: none; stroke: #b0b0b0; stroke-opacity: 0.3; stroke-width: 0.8; stroke-linecap: square"/>
     </g>
     <g id="line2d_36">
      <g>
       <use xlink:href="#m0e1108d536" x="435.941777" y="316.978125" style="stroke: #000000; stroke-width: 0.8"/>
      </g>
     </g>
     <g id="text_21">
      <!-- 6 -->
      <g transform="translate(432.760527 328.076563) scale(0.1 -0.1)">
       <use xlink:href="#DejaVuSans-36"/>
      </g>
     </g>
    </g>
    <g id="xtick_11">
     <g id="line2d_37">
      <path d="M 556.098402 316.978125 
L 556.098402 196.918125 
" clip-path="url(#p6227106bd6)" style="fill: none; stroke: #b0b0b0; stroke-opacity: 0.3; stroke-width: 0.8; stroke-linecap: square"/>
     </g>
     <g id="line2d_38">
      <g>
       <use xlink:href="#m0e1108d536" x="556.098402" y="316.978125" style="stroke: #000000; stroke-width: 0.8"/>
      </g>
     </g>
     <g id="text_22">
      <!-- 8 -->
      <g transform="translate(552.917152 328.076563) scale(0.1 -0.1)">
       <use xlink:href="#DejaVuSans-38"/>
      </g>
     </g>
    </g>
    <g id="xtick_12">
     <g id="line2d_39">
      <path d="M 676.255027 316.978125 
L 676.255027 196.918125 
" clip-path="url(#p6227106bd6)" style="fill: none; stroke: #b0b0b0; stroke-opacity: 0.3; stroke-width: 0.8; stroke-linecap: square"/>
     </g>
     <g id="line2d_40">
      <g>
       <use xlink:href="#m0e1108d536" x="676.255027" y="316.978125" style="stroke: #000000; stroke-width: 0.8"/>
      </g>
     </g>
     <g id="text_23">
      <!-- 10 -->
      <g transform="translate(669.892527 328.076563) scale(0.1 -0.1)">
       <use xlink:href="#DejaVuSans-31"/>
       <use xlink:href="#DejaVuSans-30" transform="translate(63.623047 0)"/>
      </g>
     </g>
    </g>
    <g id="text_24">
     <!-- Time (s) -->
     <g transform="translate(355.033906 341.754687) scale(0.1 -0.1)">
      <use xlink:href="#DejaVuSans-54"/>
      <use xlink:href="#DejaVuSans-69" transform="translate(57.958984 0)"/>
      <use xlink:href="#DejaVuSans-6d" transform="translate(85.742188 0)"/>
      <use xlink:href="#DejaVuSans-65" transform="translate(183.154297 0)"/>
      <use xlink:href="#DejaVuSans-20" transform="translate(244.677734 0)"/>
      <use xlink:href="#DejaVuSans-28" transform="translate(276.464844 0)"/>
      <use xlink:href="#DejaVuSans-73" transform="translate(315.478516 0)"/>
      <use xlink:href="#DejaVuSans-29" transform="translate(367.578125 0)"/>
     </g>
    </g>
   </g>
   <g id="matplotlib.axis_4">
    <g id="ytick_4">
     <g id="line2d_41">
      <path d="M 45.482813 290.298125 
L 705.242813 290.298125 
" clip-path="url(#p6227106bd6)" style="fill: none; stroke: #b0b0b0; stroke-opacity: 0.3; stroke-width: 0.8; stroke-linecap: square"/>
     </g>
     <g id="line2d_42">
      <g>
       <use xlink:href="#m01b5a2cac0" x="45.482813" y="290.298125" style="stroke: #000000; stroke-width: 0.8"/>
      </g>
     </g>
     <g id="text_25">
      <!-- −10 -->
      <g transform="translate(20.878125 294.097344) scale(0.1 -0.1)">
       <use xlink:href="#DejaVuSans-2212"/>
       <use xlink:href="#DejaVuSans-31" transform="translate(83.789062 0)"/>
       <use xlink:href="#DejaVuSans-30" transform="translate(147.412109 0)"/>
      </g>
     </g>
    </g>
    <g id="ytick_5">
     <g id="line2d_43">
      <path d="M 45.482813 256.948125 
L 705.242813 256.948125 
" clip-path="url(#p6227106bd6)" style="fill: none; stroke: #b0b0b0; stroke-opacity: 0.3; stroke-width: 0.8; stroke-linecap: square"/>
     </g>
     <g id="line2d_44">
      <g>
       <use xlink:href="#m01b5a2cac0" x="45.482813" y="256.948125" style="stroke: #000000; stroke-width: 0.8"/>
      </g>
     </g>
     <g id="text_26">
      <!-- 0 -->
      <g transform="translate(35.620313 260.747344) scale(0.1 -0.1)">
       <use xlink:href="#DejaVuSans-30"/>
      </g>
     </g>
    </g>
    <g id="ytick_6">
     <g id="line2d_45">
      <path d="M 45.482813 223.598125 
L 705.242813 223.598125 
" clip-path="url(#p6227106bd6)" style="fill: none; stroke: #b0b0b0; stroke-opacity: 0.3; stroke-width: 0.8; stroke-linecap: square"/>
     </g>
     <g id="line2d_46">
      <g>
       <use xlink:href="#m01b5a2cac0" x="45.482813" y="223.598125" style="stroke: #000000; stroke-width: 0.8"/>
      </g>
     </g>
     <g id="text_27">
      <!-- 10 -->
      <g transform="translate(29.257813 227.397344) scale(0.1 -0.1)">
       <use xlink:href="#DejaVuSans-31"/>
       <use xlink:href="#DejaVuSans-30" transform="translate(63.623047 0)"/>
      </g>
     </g>
    </g>
    <g id="text_28">
     <!-- Voltage (V) -->
     <g transform="translate(14.798438 284.615312) rotate(-90) scale(0.1 -0.1)">
      <use xlink:href="#DejaVuSans-56"/>
      <use xlink:href="#DejaVuSans-6f" transform="translate(60.658203 0)"/>
      <use xlink:href="#DejaVuSans-6c" transform="translate(121.839844 0)"/>
      <use xlink:href="#DejaVuSans-74" transform="translate(149.623047 0)"/>
      <use xlink:href="#DejaVuSans-61" transform="translate(188.832031 0)"/>
      <use xlink:href="#DejaVuSans-67" transform="translate(250.111328 0)"/>
      <use xlink:href="#DejaVuSans-65" transform="translate(313.587891 0)"/>
      <use xlink:href="#DejaVuSans-20" transform="translate(375.111328 0)"/>
      <use xlink:href="#DejaVuSans-28" transform="translate(406.898438 0)"/>
      <use xlink:href="#DejaVuSans-56" transform="translate(445.912109 0)"/>
      <use xlink:href="#DejaVuSans-29" transform="translate(514.320312 0)"/>
     </g>
    </g>
   </g>
   <g id="line2d_47">
    <path d="M 75.471903 206.923125 
L 76.473209 233.155499 
L 77.474514 279.580371 
L 78.475819 300.005042 
L 79.477124 277.426628 
L 80.478429 237.46837 
L 81.479735 219.888694 
L 82.48104 239.322114 
L 83.482345 273.714505 
L 84.48365 288.845473 
L 85.484955 272.118973 
L 86.486261 242.517168 
L 87.487566 229.493823 
L 88.488871 243.890455 
L 89.490176 269.368965 
L 90.491481 280.578262 
L 91.492787 268.186966 
L 92.494092 246.257409 
L 93.495397 236.609478 
L 94.496702 247.274765 
L 95.498008 266.14971 
L 96.499313 274.453761 
L 97.500618 265.274063 
L 98.501923 249.028248 
L 99.503228 241.880885 
L 100.504534 249.781924 
L 101.505839 263.764826 
L 102.507144 269.916619 
L 103.508449 263.116132 
L 104.509754 251.080936 
L 105.51106 245.786039 
L 106.512365 251.639273 
L 107.51367 261.998062 
L 108.514975 266.555422 
L 109.51628 261.517497 
L 110.517586 252.601604 
L 111.518891 248.679048 
L 112.520196 253.01523 
L 113.521501 260.68921 
L 114.522806 264.065385 
L 115.524112 260.333199 
L 116.525417 253.728143 
L 117.526722 250.822242 
L 118.528027 254.034565 
L 119.529332 259.719589 
L 120.530638 262.220721 
L 121.531943 259.455849 
L 122.533248 254.562704 
L 123.534553 252.409959 
L 124.535858 254.789707 
L 125.537164 259.001276 
L 126.538469 260.85416 
L 127.539774 258.805893 
L 128.541079 255.180962 
L 129.542385 253.586169 
L 130.54369 255.349129 
L 131.544995 258.469137 
L 132.5463 259.841787 
L 133.547605 258.324393 
L 134.548911 255.638978 
L 135.550216 254.457527 
L 136.551521 255.76356 
L 137.552826 258.074918 
L 138.554131 259.091803 
L 139.555437 257.96769 
L 140.556742 255.978285 
L 141.558047 255.103045 
L 142.559352 256.070578 
L 143.560657 257.782874 
L 144.561963 258.5362 
L 145.563268 257.703437 
L 146.564573 256.22965 
L 147.565878 255.581256 
L 148.567183 256.298022 
L 149.568489 257.566522 
L 150.569794 258.1246 
L 151.571099 257.507674 
L 152.572404 256.415866 
L 153.573709 255.935523 
L 154.575015 256.466517 
L 155.57632 257.406245 
L 156.577625 257.819679 
L 157.57893 257.362649 
L 158.580235 256.553818 
L 159.581541 256.197971 
L 160.582846 256.591341 
L 161.584151 257.287509 
L 162.585456 257.593788 
L 163.586762 257.255212 
L 164.588067 256.656015 
L 165.589372 256.392397 
L 166.590677 256.683813 
L 167.591982 257.199547 
L 168.593288 257.426444 
L 169.594593 257.175621 
L 170.595898 256.731724 
L 171.597203 256.536432 
L 172.598508 256.752318 
L 173.599814 257.134383 
L 174.601119 257.302473 
L 175.602424 257.116658 
L 176.603729 256.787812 
L 177.605034 256.643135 
L 178.60634 256.803067 
L 179.607645 257.086108 
L 180.60895 257.210632 
L 183.612866 256.722183 
L 186.616781 257.142595 
L 189.620697 256.780743 
L 192.624612 257.092192 
L 196.629833 256.889149 
L 198.632444 257.054852 
L 202.637665 256.904434 
L 204.640275 257.027191 
L 208.645496 256.915758 
L 210.648106 257.006698 
L 214.653327 256.924147 
L 217.657243 256.968763 
L 220.661158 256.930362 
L 223.665074 256.963414 
L 226.668989 256.934966 
L 230.67421 256.937351 
L 239.685957 256.954995 
L 254.705535 256.94488 
L 291.753828 256.947105 
L 501.026616 256.948125 
L 675.253722 256.948125 
L 675.253722 256.948125 
" clip-path="url(#p6227106bd6)" style="fill: none; stroke: #4c72b0; stroke-width: 1.5; stroke-linecap: square"/>
   </g>
   <g id="line2d_48">
    <path d="M 45.482813 252.149546 
L 705.242813 252.149546 
" clip-path="url(#p6227106bd6)" style="fill: none; stroke-dasharray: 5.55,2.4; stroke-dashoffset: 0; stroke: #4c72b0; stroke-opacity: 0.8; stroke-width: 1.5"/>
   </g>
   <g id="line2d_49">
    <path d="M 75.471903 206.923125 
L 76.473209 233.155499 
L 77.474514 279.580371 
L 78.475819 300.005042 
L 79.477124 277.426628 
L 80.478429 237.46837 
L 81.479735 219.888694 
L 82.48104 239.322114 
L 83.482345 273.714505 
L 84.48365 288.845473 
L 85.484955 272.118973 
L 86.486261 242.517168 
L 87.487566 229.493823 
L 88.488871 243.890455 
L 89.490176 269.368965 
L 90.491481 280.578262 
L 91.492787 268.186966 
L 92.494092 246.257409 
L 93.495397 236.609478 
L 94.496702 247.274765 
L 95.498008 266.14971 
L 96.499313 274.453761 
L 97.500618 265.274063 
L 98.501923 249.028248 
L 99.503228 241.880885 
L 100.504534 249.781924 
L 101.505839 263.764826 
L 102.507144 269.916619 
L 103.508449 263.116132 
L 104.509754 251.080936 
L 105.51106 245.786039 
L 106.512365 251.639273 
L 107.51367 261.998062 
L 108.514975 266.555422 
L 109.51628 261.517497 
L 110.517586 252.601604 
L 111.518891 248.679048 
L 112.520196 253.01523 
L 113.521501 260.68921 
L 114.522806 264.065385 
L 115.524112 260.333199 
L 116.525417 253.728143 
L 117.526722 250.822242 
L 118.528027 254.034565 
L 119.529332 259.719589 
L 120.530638 262.220721 
L 121.531943 259.455849 
L 122.533248 254.562704 
L 123.534553 252.409959 
L 124.535858 254.789707 
L 125.537164 259.001276 
L 126.538469 260.85416 
L 127.539774 258.805893 
L 128.541079 255.180962 
L 129.542385 253.586169 
L 130.54369 255.349129 
L 131.544995 258.469137 
L 132.5463 259.841787 
L 133.547605 258.324393 
L 134.548911 255.638978 
L 135.550216 254.457527 
L 136.551521 255.76356 
L 137.552826 258.074918 
L 138.554131 259.091803 
L 139.555437 257.96769 
L 140.556742 255.978285 
L 141.558047 255.103045 
L 142.559352 256.070578 
L 143.560657 257.782874 
L 144.561963 258.5362 
L 145.563268 257.703437 
L 146.564573 256.22965 
L 147.565878 255.581256 
L 148.567183 256.298022 
L 149.568489 257.566522 
L 150.569794 258.1246 
L 151.571099 257.507674 
L 152.572404 256.415866 
L 153.573709 255.935523 
L 154.575015 256.466517 
L 155.57632 257.406245 
L 156.577625 257.819679 
L 157.57893 257.362649 
L 158.580235 256.553818 
L 159.581541 256.197971 
L 160.582846 256.591341 
L 161.584151 257.287509 
L 162.585456 257.593788 
L 163.586762 257.255212 
L 164.588067 256.656015 
L 165.589372 256.392397 
L 166.590677 256.683813 
L 167.591982 257.199547 
L 168.593288 257.426444 
L 169.594593 257.175621 
L 170.595898 256.731724 
L 171.597203 256.536432 
L 172.598508 256.752318 
L 173.599814 257.134383 
L 174.601119 257.302473 
L 175.602424 257.116658 
L 176.603729 256.787812 
L 177.605034 256.643135 
L 178.60634 256.803067 
L 179.607645 257.086108 
L 180.60895 257.210632 
L 183.612866 256.722183 
L 186.616781 257.142595 
L 189.620697 256.780743 
L 192.624612 257.092192 
L 196.629833 256.889149 
L 198.632444 257.054852 
L 202.637665 256.904434 
L 204.640275 257.027191 
L 208.645496 256.915758 
L 210.648106 257.006698 
L 214.653327 256.924147 
L 217.657243 256.968763 
L 220.661158 256.930362 
L 223.665074 256.963414 
L 226.668989 256.934966 
L 230.67421 256.937351 
L 239.685957 256.954995 
L 254.705535 256.94488 
L 291.753828 256.947105 
L 374.86216 256.948117 
L 374.86216 256.948117 
" clip-path="url(#p6227106bd6)" style="fill: none; stroke: #55a868; stroke-width: 1.5; stroke-linecap: square"/>
   </g>
   <g id="line2d_50">
    <path d="M 45.482813 250.161909 
L 705.242813 250.161909 
" clip-path="url(#p6227106bd6)" style="fill: none; stroke-dasharray: 5.55,2.4; stroke-dashoffset: 0; stroke: #55a868; stroke-opacity: 0.8; stroke-width: 1.5"/>
   </g>
   <g id="line2d_51">
    <path d="M 75.471903 206.923125 
L 76.473209 233.155499 
L 77.474514 279.580371 
L 78.475819 300.005042 
L 79.477124 277.426628 
L 80.478429 237.46837 
L 81.479735 219.888694 
L 82.48104 239.322114 
L 83.482345 273.714505 
L 84.48365 288.845473 
L 85.484955 272.118973 
L 86.486261 242.517168 
L 87.487566 229.493823 
L 88.488871 243.890455 
L 89.490176 269.368965 
L 90.491481 280.578262 
L 91.492787 268.186966 
L 92.494092 246.257409 
L 93.495397 236.609478 
L 94.496702 247.274765 
L 95.498008 266.14971 
L 96.499313 274.453761 
L 97.500618 265.274063 
L 98.501923 249.028248 
L 99.503228 241.880885 
L 100.504534 249.781924 
L 101.505839 263.764826 
L 102.507144 269.916619 
L 103.508449 263.116132 
L 104.509754 251.080936 
L 105.51106 245.786039 
L 106.512365 251.639273 
L 107.51367 261.998062 
L 108.514975 266.555422 
L 109.51628 261.517497 
L 110.517586 252.601604 
L 111.518891 248.679048 
L 112.520196 253.01523 
L 113.521501 260.68921 
L 114.522806 264.065385 
L 115.524112 260.333199 
L 116.525417 253.728143 
L 117.526722 250.822242 
L 118.528027 254.034565 
L 119.529332 259.719589 
L 120.530638 262.220721 
L 121.531943 259.455849 
L 122.533248 254.562704 
L 123.534553 252.409959 
L 124.535858 254.789707 
L 125.537164 259.001276 
L 126.538469 260.85416 
L 127.539774 258.805893 
L 128.541079 255.180962 
L 129.542385 253.586169 
L 130.54369 255.349129 
L 131.544995 258.469137 
L 132.5463 259.841787 
L 133.547605 258.324393 
L 134.548911 255.638978 
L 135.550216 254.457527 
L 136.551521 255.76356 
L 137.552826 258.074918 
L 138.554131 259.091803 
L 139.555437 257.96769 
L 140.556742 255.978285 
L 141.558047 255.103045 
L 142.559352 256.070578 
L 143.560657 257.782874 
L 144.561963 258.5362 
L 145.563268 257.703437 
L 146.564573 256.22965 
L 147.565878 255.581256 
L 148.567183 256.298022 
L 149.568489 257.566522 
L 150.569794 258.1246 
L 151.571099 257.507674 
L 152.572404 256.415866 
L 153.573709 255.935523 
L 154.575015 256.466517 
L 155.57632 257.406245 
L 156.577625 257.819679 
L 157.57893 257.362649 
L 158.580235 256.553818 
L 159.581541 256.197971 
L 160.582846 256.591341 
L 161.584151 257.287509 
L 162.585456 257.593788 
L 163.586762 257.255212 
L 164.588067 256.656015 
L 165.589372 256.392397 
L 166.590677 256.683813 
L 167.591982 257.199547 
L 168.593288 257.426444 
L 169.594593 257.175621 
L 170.595898 256.731724 
L 171.597203 256.536432 
L 172.598508 256.752318 
L 173.599814 257.134383 
L 174.601119 257.302473 
L 175.602424 257.116658 
L 176.603729 256.787812 
L 177.605034 256.643135 
L 178.60634 256.803067 
L 179.607645 257.086108 
L 180.60895 257.210632 
L 181.610255 257.072977 
L 182.61156 256.829362 
L 183.612866 256.722183 
L 184.614171 256.840664 
L 185.615476 257.050345 
L 186.616781 257.142595 
L 187.618086 257.040618 
L 188.619392 256.860143 
L 189.620697 256.780743 
L 190.622002 256.868516 
L 191.623307 257.023852 
L 192.624612 257.092192 
L 193.625918 257.016645 
L 194.627223 256.882946 
" clip-path="url(#p6227106bd6)" style="fill: none; stroke: #c44e52; stroke-width: 1.5; stroke-linecap: square"/>
   </g>
   <g id="line2d_52">
    <path d="M 45.482813 246.218209 
L 705.242813 246.218209 
" clip-path="url(#p6227106bd6)" style="fill: none; stroke-dasharray: 5.55,2.4; stroke-dashoffset: 0; stroke: #c44e52; stroke-opacity: 0.8; stroke-width: 1.5"/>
   </g>
   <g id="patch_9">
    <path d="M 45.482813 316.978125 
L 45.482813 196.918125 
" style="fill: none; stroke: #000000; stroke-width: 0.8; stroke-linejoin: miter; stroke-linecap: square"/>
   </g>
   <g id="patch_10">
    <path d="M 705.242813 316.978125 
L 705.242813 196.918125 
" style="fill: none; stroke: #000000; stroke-width: 0.8; stroke-linejoin: miter; stroke-linecap: square"/>
   </g>
   <g id="patch_11">
    <path d="M 45.482813 316.978125 
L 705.242812 316.978125 
" style="fill: none; stroke: #000000; stroke-width: 0.8; stroke-linejoin: miter; stroke-linecap: square"/>
   </g>
   <g id="patch_12">
    <path d="M 45.482813 196.918125 
L 705.242812 196.918125 
" style="fill: none; stroke: #000000; stroke-width: 0.8; stroke-linejoin: miter; stroke-linecap: square"/>
   </g>
   <g id="text_29">
    <!-- x(0) = A = 15.00 V -->
    <g transform="translate(81.479735 208.3485) scale(0.1 -0.1)">
     <use xlink:href="#DejaVuSans-78"/>
     <use xlink:href="#DejaVuSans-28" transform="translate(59.179688 0)"/>
     <use xlink:href="#DejaVuSans-30" transform="translate(98.193359 0)"/>
     <use xlink:href="#DejaVuSans-29" transform="translate(161.816406 0)"/>
     <use xlink:href="#DejaVuSans-20" transform="translate(200.830078 0)"/>
     <use xlink:href="#DejaVuSans-3d" transform="translate(232.617188 0)"/>
     <use xlink:href="#DejaVuSans-20" transform="translate(316.40625 0)"/>
     <use xlink:href="#DejaVuSans-41" transform="translate(348.193359 0)"/>
     <use xlink:href="#DejaVuSans-20" transform="translate(416.601562 0)"/>
     <use xlink:href="#DejaVuSans-3d" transform="translate(448.388672 0)"/>
     <use xlink:href="#DejaVuSans-20" transform="translate(532.177734 0)"/>
     <use xlink:href="#DejaVuSans-31" transform="translate(563.964844 0)"/>
     <use xlink:href="#DejaVuSans-35" transform="translate(627.587891 0)"/>
     <use xlink:href="#DejaVuSans-2e" transform="translate(691.210938 0)"/>
     <use xlink:href="#DejaVuSans-30" transform="translate(722.998047 0)"/>
     <use xlink:href="#DejaVuSans-30" transform="translate(786.621094 0)"/>
     <use xlink:href="#DejaVuSans-20" transform="translate(850.244141 0)"/>
     <use xlink:href="#DejaVuSans-56" transform="translate(882.03125 0)"/>
    </g>
   </g>
   <g id="text_30">
    <!-- Decaying sinusoid at three acquisition lengths -->
    <g transform="translate(236.35125 190.918125) scale(0.12 -0.12)">
     <defs>
      <path id="DejaVuSans-44" d="M 1259 4147 
L 1259 519 
L 2022 519 
Q 2988 519 3436 956 
Q 3884 1394 3884 2338 
Q 3884 3275 3436 3711 
Q 2988 4147 2022 4147 
L 1259 4147 
z
M 628 4666 
L 1925 4666 
Q 3281 4666 3915 4102 
Q 4550 3538 4550 2338 
Q 4550 1131 3912 565 
Q 3275 0 1925 0 
L 628 0 
L 628 4666 
z
" transform="scale(0.015625)"/>
      <path id="DejaVuSans-79" d="M 2059 -325 
Q 1816 -950 1584 -1140 
Q 1353 -1331 966 -1331 
L 506 -1331 
L 506 -850 
L 844 -850 
Q 1081 -850 1212 -737 
Q 1344 -625 1503 -206 
L 1606 56 
L 191 3500 
L 800 3500 
L 1894 763 
L 2988 3500 
L 3597 3500 
L 2059 -325 
z
" transform="scale(0.015625)"/>
     </defs>
     <use xlink:href="#DejaVuSans-44"/>
     <use xlink:href="#DejaVuSans-65" transform="translate(77.001953 0)"/>
     <use xlink:href="#DejaVuSans-63" transform="translate(138.525391 0)"/>
     <use xlink:href="#DejaVuSans-61" transform="translate(193.505859 0)"/>
     <use xlink:href="#DejaVuSans-79" transform="translate(254.785156 0)"/>
     <use xlink:href="#DejaVuSans-69" transform="translate(313.964844 0)"/>
     <use xlink:href="#DejaVuSans-6e" transform="translate(341.748047 0)"/>
     <use xlink:href="#DejaVuSans-67" transform="translate(405.126953 0)"/>
     <use xlink:href="#DejaVuSans-20" transform="translate(468.603516 0)"/>
     <use xlink:href="#DejaVuSans-73" transform="translate(500.390625 0)"/>
     <use xlink:href="#DejaVuSans-69" transform="translate(552.490234 0)"/>
     <use xlink:href="#DejaVuSans-6e" transform="translate(580.273438 0)"/>
     <use xlink:href="#DejaVuSans-75" transform="translate(643.652344 0)"/>
     <use xlink:href="#DejaVuSans-73" transform="translate(707.03125 0)"/>
     <use xlink:href="#DejaVuSans-6f" transform="translate(759.130859 0)"/>
     <use xlink:href="#DejaVuSans-69" transform="translate(820.3125 0)"/>
     <use xlink:href="#DejaVuSans-64" transform="translate(848.095703 0)"/>
     <use xlink:href="#DejaVuSans-20" transform="translate(911.572266 0)"/>
     <use xlink:href="#DejaVuSans-61" transform="translate(943.359375 0)"/>
     <use xlink:href="#DejaVuSans-74" transform="translate(1004.638672 0)"/>
     <use xlink:href="#DejaVuSans-20" transform="translate(1043.847656 0)"/>
     <use xlink:href="#DejaVuSans-74" transform="translate(1075.634766 0)"/>
     <use xlink:href="#DejaVuSans-68" transform="translate(1114.84375 0)"/>
     <use xlink:href="#DejaVuSans-72" transform="translate(1178.222656 0)"/>
     <use xlink:href="#DejaVuSans-65" transform="translate(1217.085938 0)"/>
     <use xlink:href="#DejaVuSans-65" transform="translate(1278.609375 0)"/>
     <use xlink:href="#DejaVuSans-20" transform="translate(1340.132812 0)"/>
     <use xlink:href="#DejaVuSans-61" transform="translate(1371.919922 0)"/>
     <use xlink:href="#DejaVuSans-63" transform="translate(1433.199219 0)"/>
     <use xlink:href="#DejaVuSans-71" transform="translate(1488.179688 0)"/>
     <use xlink:href="#DejaVuSans-75" transform="translate(1551.65625 0)"/>
     <use xlink:href="#DejaVuSans-69" transform="translate(1615.035156 0)"/>
     <use xlink:href="#DejaVuSans-73" transform="translate(1642.818359 0)"/>
     <use xlink:href="#DejaVuSans-69" transform="translate(1694.917969 0)"/>
     <use xlink:href="#DejaVuSans-74" transform="translate(1722.701172 0)"/>
     <use xlink:href="#DejaVuSans-69" transform="translate(1761.910156 0)"/>
     <use xlink:href="#DejaVuSans-6f" transform="translate(1789.693359 0)"/>
     <use xlink:href="#DejaVuSans-6e" transform="translate(1850.875 0)"/>
     <use xlink:href="#DejaVuSans-20" transform="translate(1914.253906 0)"/>
     <use xlink:href="#DejaVuSans-6c" transform="translate(1946.041016 0)"/>
     <use xlink:href="#DejaVuSans-65" transform="translate(1973.824219 0)"/>
     <use xlink:href="#DejaVuSans-6e" transform="translate(2035.347656 0)"/>
     <use xlink:href="#DejaVuSans-67" transform="translate(2098.726562 0)"/>
     <use xlink:href="#DejaVuSans-74" transform="translate(2162.203125 0)"/>
     <use xlink:href="#DejaVuSans-68" transform="translate(2201.412109 0)"/>
     <use xlink:href="#DejaVuSans-73" transform="translate(2264.791016 0)"/>
    </g>
   </g>
   <g id="line2d_53">
    <path d="M 75.471903 206.923125 
" style="fill: none; stroke: #000000; stroke-width: 1.5; stroke-linecap: square"/>
    <g>
     <use xlink:href="#m7fe92cb020" x="75.471903" y="206.923125" style="stroke: #000000"/>
    </g>
   </g>
   <g id="legend_2">
    <g id="patch_13">
     <path d="M 536.26625 311.978125 
L 698.242813 311.978125 
Q 700.242813 311.978125 700.242813 309.978125 
L 700.242813 266.94375 
Q 700.242813 264.94375 698.242813 264.94375 
L 536.26625 264.94375 
Q 534.26625 264.94375 534.26625 266.94375 
L 534.26625 309.978125 
Q 534.26625 311.978125 536.26625 311.978125 
z
" style="fill: #ffffff; opacity: 0.8; stroke: #cccccc; stroke-linejoin: miter"/>
    </g>
    <g id="line2d_54">
     <path d="M 538.26625 273.042188 
L 548.26625 273.042188 
L 558.26625 273.042188 
" style="fill: none; stroke: #4c72b0; stroke-width: 1.5; stroke-linecap: square"/>
    </g>
    <g id="text_31">
     <!-- T = 10.0 s,  RMS = 1.44 V -->
     <g transform="translate(566.26625 276.542188) scale(0.1 -0.1)">
      <defs>
       <path id="DejaVuSans-2c" d="M 750 794 
L 1409 794 
L 1409 256 
L 897 -744 
L 494 -744 
L 750 256 
L 750 794 
z
" transform="scale(0.015625)"/>
      </defs>
      <use xlink:href="#DejaVuSans-54"/>
      <use xlink:href="#DejaVuSans-20" transform="translate(61.083984 0)"/>
      <use xlink:href="#DejaVuSans-3d" transform="translate(92.871094 0)"/>
      <use xlink:href="#DejaVuSans-20" transform="translate(176.660156 0)"/>
      <use xlink:href="#DejaVuSans-31" transform="translate(208.447266 0)"/>
      <use xlink:href="#DejaVuSans-30" transform="translate(272.070312 0)"/>
      <use xlink:href="#DejaVuSans-2e" transform="translate(335.693359 0)"/>
      <use xlink:href="#DejaVuSans-30" transform="translate(367.480469 0)"/>
      <use xlink:href="#DejaVuSans-20" transform="translate(431.103516 0)"/>
      <use xlink:href="#DejaVuSans-73" transform="translate(462.890625 0)"/>
      <use xlink:href="#DejaVuSans-2c" transform="translate(514.990234 0)"/>
      <use xlink:href="#DejaVuSans-20" transform="translate(546.777344 0)"/>
      <use xlink:href="#DejaVuSans-20" transform="translate(578.564453 0)"/>
      <use xlink:href="#DejaVuSans-52" transform="translate(610.351562 0)"/>
      <use xlink:href="#DejaVuSans-4d" transform="translate(679.833984 0)"/>
      <use xlink:href="#DejaVuSans-53" transform="translate(766.113281 0)"/>
      <use xlink:href="#DejaVuSans-20" transform="translate(829.589844 0)"/>
      <use xlink:href="#DejaVuSans-3d" transform="translate(861.376953 0)"/>
      <use xlink:href="#DejaVuSans-20" transform="translate(945.166016 0)"/>
      <use xlink:href="#DejaVuSans-31" transform="translate(976.953125 0)"/>
      <use xlink:href="#DejaVuSans-2e" transform="translate(1040.576172 0)"/>
      <use xlink:href="#DejaVuSans-34" transform="translate(1072.363281 0)"/>
      <use xlink:href="#DejaVuSans-34" transform="translate(1135.986328 0)"/>
      <use xlink:href="#DejaVuSans-20" transform="translate(1199.609375 0)"/>
      <use xlink:href="#DejaVuSans-56" transform="translate(1231.396484 0)"/>
     </g>
    </g>
    <g id="line2d_55">
     <path d="M 538.26625 287.720313 
L 548.26625 287.720313 
L 558.26625 287.720313 
" style="fill: none; stroke: #55a868; stroke-width: 1.5; stroke-linecap: square"/>
    </g>
    <g id="text_32">
     <!-- T = 5.0 s,  RMS = 2.03 V -->
     <g transform="translate(566.26625 291.220313) scale(0.1 -0.1)">
      <defs>
       <path id="DejaVuSans-33" d="M 2597 2516 
Q 3050 2419 3304 2112 
Q 3559 1806 3559 1356 
Q 3559 666 3084 287 
Q 2609 -91 1734 -91 
Q 1441 -91 1130 -33 
Q 819 25 488 141 
L 488 750 
Q 750 597 1062 519 
Q 1375 441 1716 441 
Q 2309 441 2620 675 
Q 2931 909 2931 1356 
Q 2931 1769 2642 2001 
Q 2353 2234 1838 2234 
L 1294 2234 
L 1294 2753 
L 1863 2753 
Q 2328 2753 2575 2939 
Q 2822 3125 2822 3475 
Q 2822 3834 2567 4026 
Q 2313 4219 1838 4219 
Q 1578 4219 1281 4162 
Q 984 4106 628 3988 
L 628 4550 
Q 988 4650 1302 4700 
Q 1616 4750 1894 4750 
Q 2613 4750 3031 4423 
Q 3450 4097 3450 3541 
Q 3450 3153 3228 2886 
Q 3006 2619 2597 2516 
z
" transform="scale(0.015625)"/>
      </defs>
      <use xlink:href="#DejaVuSans-54"/>
      <use xlink:href="#DejaVuSans-20" transform="translate(61.083984 0)"/>
      <use xlink:href="#DejaVuSans-3d" transform="translate(92.871094 0)"/>
      <use xlink:href="#DejaVuSans-20" transform="translate(176.660156 0)"/>
      <use xlink:href="#DejaVuSans-35" transform="translate(208.447266 0)"/>
      <use xlink:href="#DejaVuSans-2e" transform="translate(272.070312 0)"/>
      <use xlink:href="#DejaVuSans-30" transform="translate(303.857422 0)"/>
      <use xlink:href="#DejaVuSans-20" transform="translate(367.480469 0)"/>
      <use xlink:href="#DejaVuSans-73" transform="translate(399.267578 0)"/>
      <use xlink:href="#DejaVuSans-2c" transform="translate(451.367188 0)"/>
      <use xlink:href="#DejaVuSans-20" transform="translate(483.154297 0)"/>
      <use xlink:href="#DejaVuSans-20" transform="translate(514.941406 0)"/>
      <use xlink:href="#DejaVuSans-52" transform="translate(546.728516 0)"/>
      <use xlink:href="#DejaVuSans-4d" transform="translate(616.210938 0)"/>
      <use xlink:href="#DejaVuSans-53" transform="translate(702.490234 0)"/>
      <use xlink:href="#DejaVuSans-20" transform="translate(765.966797 0)"/>
      <use xlink:href="#DejaVuSans-3d" transform="translate(797.753906 0)"/>
      <use xlink:href="#DejaVuSans-20" transform="translate(881.542969 0)"/>
      <use xlink:href="#DejaVuSans-32" transform="translate(913.330078 0)"/>
      <use xlink:href="#DejaVuSans-2e" transform="translate(976.953125 0)"/>
      <use xlink:href="#DejaVuSans-30" transform="translate(1008.740234 0)"/>
      <use xlink:href="#DejaVuSans-33" transform="translate(1072.363281 0)"/>
      <use xlink:href="#DejaVuSans-20" transform="translate(1135.986328 0)"/>
      <use xlink:href="#DejaVuSans-56" transform="translate(1167.773438 0)"/>
     </g>
    </g>
    <g id="line2d_56">
     <path d="M 538.26625 302.398438 
L 548.26625 302.398438 
L 558.26625 302.398438 
" style="fill: none; stroke: #c44e52; stroke-width: 1.5; stroke-linecap: square"/>
    </g>
    <g id="text_33">
     <!-- T = 2.0 s,  RMS = 3.22 V -->
     <g transform="translate(566.26625 305.898438) scale(0.1 -0.1)">
      <use xlink:href="#DejaVuSans-54"/>
      <use xlink:href="#DejaVuSans-20" transform="translate(61.083984 0)"/>
      <use xlink:href="#DejaVuSans-3d" transform="translate(92.871094 0)"/>
      <use xlink:href="#DejaVuSans-20" transform="translate(176.660156 0)"/>
      <use xlink:href="#DejaVuSans-32" transform="translate(208.447266 0)"/>
      <use xlink:href="#DejaVuSans-2e" transform="translate(272.070312 0)"/>
      <use xlink:href="#DejaVuSans-30" transform="translate(303.857422 0)"/>
      <use xlink:href="#DejaVuSans-20" transform="translate(367.480469 0)"/>
      <use xlink:href="#DejaVuSans-73" transform="translate(399.267578 0)"/>
      <use xlink:href="#DejaVuSans-2c" transform="translate(451.367188 0)"/>
      <use xlink:href="#DejaVuSans-20" transform="translate(483.154297 0)"/>
      <use xlink:href="#DejaVuSans-20" transform="translate(514.941406 0)"/>
      <use xlink:href="#DejaVuSans-52" transform="translate(546.728516 0)"/>
      <use xlink:href="#DejaVuSans-4d" transform="translate(616.210938 0)"/>
      <use xlink:href="#DejaVuSans-53" transform="translate(702.490234 0)"/>
      <use xlink:href="#DejaVuSans-20" transform="translate(765.966797 0)"/>
      <use xlink:href="#DejaVuSans-3d" transform="translate(797.753906 0)"/>
      <use xlink:href="#DejaVuSans-20" transform="translate(881.542969 0)"/>
      <use xlink:href="#DejaVuSans-33" transform="translate(913.330078 0)"/>
      <use xlink:href="#DejaVuSans-2e" transform="translate(976.953125 0)"/>
      <use xlink:href="#DejaVuSans-32" transform="translate(1008.740234 0)"/>
      <use xlink:href="#DejaVuSans-32" transform="translate(1072.363281 0)"/>
      <use xlink:href="#DejaVuSans-20" transform="translate(1135.986328 0)"/>
      <use xlink:href="#DejaVuSans-56" transform="translate(1167.773438 0)"/>
     </g>
    </g>
   </g>
  </g>
 </g>
 <defs>
  <clipPath id="p84c1cfe2f6">
   <rect x="45.482813" y="22.318125" width="659.76" height="120.06"/>
  </clipPath>
  <clipPath id="p6227106bd6">
   <rect x="45.482813" y="196.918125" width="659.76" height="120.06"/>
  </clipPath>
 </defs>
</svg>
