<?xml version="1.0" encoding="utf-8" standalone="no"?>
<!DOCTYPE svg PUBLIC "-//W3C//DTD SVG 1.1//EN"
  "http://www.w3.org/Graphics/SVG/1.1/DTD/svg11.dtd">
<svg xmlns:xlink="http://www.w3.org/1999/xlink" width="712.495625pt" height="422.84425pt" viewBox="0 0 712.495625 422.84425" xmlns="http://www.w3.org/2000/svg" version="1.1">
 <metadata>
  <rdf:RDF xmlns:dc="http://purl.org/dc/elements/1.1/" xmlns:cc="http://creativecommons.org/ns#" xmlns:rdf="http://www.w3.org/1999/02/22-rdf-syntax-ns#">
   <cc:Work>
    <dc:type rdf:resource="http://purl.org/dc/dcmitype/StillImage"/>
    <dc:date>2026-04-07T21:24:51.164650</dc:date>
    <dc:format>image/svg+xml</dc:format>
    <dc:creator>
     <cc:Agent>
      <dc:title>Matplotlib v3.10.0, https://matplotlib.org/</dc:title>
     </cc:Agent>
    </dc:creator>
   </cc:Work>
  </rdf:RDF>
 </metadata>
 <defs>
  <style type="text/css">*{stroke-linejoin: round; stroke-linecap: butt}</style>
 </defs>
 <g id="figure_1">
  <g id="patch_1">
   <path d="M 0 422.84425 
L 712.495625 422.84425 
L 712.495625 0 
L 0 0 
z
" style="fill: #ffffff"/>
  </g>
  <g id="axes_1">
   <g id="patch_2">
    <path d="M 43.465625 205.554 
L 705.295625 205.554 
L 705.295625 49.2 
L 43.465625 49.2 
z
" style="fill: #ffffff"/>
   </g>
   <g id="matplotlib.axis_1">
    <g id="xtick_1">
     <g id="line2d_1">
      <path d="M 195.911278 205.554 
L 195.911278 49.2 
" clip-path="url(#p0e85854218)" style="fill: none; stroke: #b0b0b0; stroke-opacity: 0.3; stroke-width: 0.8; stroke-linecap: square"/>
     </g>
     <g id="line2d_2">
      <defs>
       <path id="m8a175274c8" d="M 0 0 
L 0 -3.5 
" style="stroke: #000000; stroke-width: 0.8"/>
      </defs>
      <g>
       <use xlink:href="#m8a175274c8" x="195.911278" y="205.554" style="stroke: #000000; stroke-width: 0.8"/>
      </g>
     </g>
    </g>
    <g id="xtick_2">
     <g id="line2d_3">
      <path d="M 349.65615 205.554 
L 349.65615 49.2 
" clip-path="url(#p0e85854218)" style="fill: none; stroke: #b0b0b0; stroke-opacity: 0.3; stroke-width: 0.8; stroke-linecap: square"/>
     </g>
     <g id="line2d_4">
      <g>
       <use xlink:href="#m8a175274c8" x="349.65615" y="205.554" style="stroke: #000000; stroke-width: 0.8"/>
      </g>
     </g>
    </g>
    <g id="xtick_3">
     <g id="line2d_5">
      <path d="M 503.401022 205.554 
L 503.401022 49.2 
" clip-path="url(#p0e85854218)" style="fill: none; stroke: #b0b0b0; stroke-opacity: 0.3; stroke-width: 0.8; stroke-linecap: square"/>
     </g>
     <g id="line2d_6">
      <g>
       <use xlink:href="#m8a175274c8" x="503.401022" y="205.554" style="stroke: #000000; stroke-width: 0.8"/>
      </g>
     </g>
    </g>
    <g id="xtick_4">
     <g id="line2d_7">
      <path d="M 657.145895 205.554 
L 657.145895 49.2 
" clip-path="url(#p0e85854218)" style="fill: none; stroke: #b0b0b0; stroke-opacity: 0.3; stroke-width: 0.8; stroke-linecap: square"/>
     </g>
     <g id="line2d_8">
      <g>
       <use xlink:href="#m8a175274c8" x="657.145895" y="205.554" style="stroke: #000000; stroke-width: 0.8"/>
      </g>
     </g>
    </g>
    <g id="xtick_5">
     <g id="line2d_9">
      <defs>
       <path id="madd456f270" d="M 0 0 
L 0 -2 
" style="stroke: #000000; stroke-width: 0.6"/>
      </defs>
      <g>
       <use xlink:href="#madd456f270" x="88.448224" y="205.554" style="stroke: #000000; stroke-width: 0.6"/>
      </g>
     </g>
    </g>
    <g id="xtick_6">
     <g id="line2d_10">
      <g>
       <use xlink:href="#madd456f270" x="115.521352" y="205.554" style="stroke: #000000; stroke-width: 0.6"/>
      </g>
     </g>
    </g>
    <g id="xtick_7">
     <g id="line2d_11">
      <g>
       <use xlink:href="#madd456f270" x="134.730043" y="205.554" style="stroke: #000000; stroke-width: 0.6"/>
      </g>
     </g>
    </g>
    <g id="xtick_8">
     <g id="line2d_12">
      <g>
       <use xlink:href="#madd456f270" x="149.62946" y="205.554" style="stroke: #000000; stroke-width: 0.6"/>
      </g>
     </g>
    </g>
    <g id="xtick_9">
     <g id="line2d_13">
      <g>
       <use xlink:href="#madd456f270" x="161.803171" y="205.554" style="stroke: #000000; stroke-width: 0.6"/>
      </g>
     </g>
    </g>
    <g id="xtick_10">
     <g id="line2d_14">
      <g>
       <use xlink:href="#madd456f270" x="172.095896" y="205.554" style="stroke: #000000; stroke-width: 0.6"/>
      </g>
     </g>
    </g>
    <g id="xtick_11">
     <g id="line2d_15">
      <g>
       <use xlink:href="#madd456f270" x="181.011861" y="205.554" style="stroke: #000000; stroke-width: 0.6"/>
      </g>
     </g>
    </g>
    <g id="xtick_12">
     <g id="line2d_16">
      <g>
       <use xlink:href="#madd456f270" x="188.876299" y="205.554" style="stroke: #000000; stroke-width: 0.6"/>
      </g>
     </g>
    </g>
    <g id="xtick_13">
     <g id="line2d_17">
      <g>
       <use xlink:href="#madd456f270" x="242.193096" y="205.554" style="stroke: #000000; stroke-width: 0.6"/>
      </g>
     </g>
    </g>
    <g id="xtick_14">
     <g id="line2d_18">
      <g>
       <use xlink:href="#madd456f270" x="269.266225" y="205.554" style="stroke: #000000; stroke-width: 0.6"/>
      </g>
     </g>
    </g>
    <g id="xtick_15">
     <g id="line2d_19">
      <g>
       <use xlink:href="#madd456f270" x="288.474915" y="205.554" style="stroke: #000000; stroke-width: 0.6"/>
      </g>
     </g>
    </g>
    <g id="xtick_16">
     <g id="line2d_20">
      <g>
       <use xlink:href="#madd456f270" x="303.374332" y="205.554" style="stroke: #000000; stroke-width: 0.6"/>
      </g>
     </g>
    </g>
    <g id="xtick_17">
     <g id="line2d_21">
      <g>
       <use xlink:href="#madd456f270" x="315.548043" y="205.554" style="stroke: #000000; stroke-width: 0.6"/>
      </g>
     </g>
    </g>
    <g id="xtick_18">
     <g id="line2d_22">
      <g>
       <use xlink:href="#madd456f270" x="325.840768" y="205.554" style="stroke: #000000; stroke-width: 0.6"/>
      </g>
     </g>
    </g>
    <g id="xtick_19">
     <g id="line2d_23">
      <g>
       <use xlink:href="#madd456f270" x="334.756733" y="205.554" style="stroke: #000000; stroke-width: 0.6"/>
      </g>
     </g>
    </g>
    <g id="xtick_20">
     <g id="line2d_24">
      <g>
       <use xlink:href="#madd456f270" x="342.621171" y="205.554" style="stroke: #000000; stroke-width: 0.6"/>
      </g>
     </g>
    </g>
    <g id="xtick_21">
     <g id="line2d_25">
      <g>
       <use xlink:href="#madd456f270" x="395.937969" y="205.554" style="stroke: #000000; stroke-width: 0.6"/>
      </g>
     </g>
    </g>
    <g id="xtick_22">
     <g id="line2d_26">
      <g>
       <use xlink:href="#madd456f270" x="423.011097" y="205.554" style="stroke: #000000; stroke-width: 0.6"/>
      </g>
     </g>
    </g>
    <g id="xtick_23">
     <g id="line2d_27">
      <g>
       <use xlink:href="#madd456f270" x="442.219787" y="205.554" style="stroke: #000000; stroke-width: 0.6"/>
      </g>
     </g>
    </g>
    <g id="xtick_24">
     <g id="line2d_28">
      <g>
       <use xlink:href="#madd456f270" x="457.119204" y="205.554" style="stroke: #000000; stroke-width: 0.6"/>
      </g>
     </g>
    </g>
    <g id="xtick_25">
     <g id="line2d_29">
      <g>
       <use xlink:href="#madd456f270" x="469.292915" y="205.554" style="stroke: #000000; stroke-width: 0.6"/>
      </g>
     </g>
    </g>
    <g id="xtick_26">
     <g id="line2d_30">
      <g>
       <use xlink:href="#madd456f270" x="479.58564" y="205.554" style="stroke: #000000; stroke-width: 0.6"/>
      </g>
     </g>
    </g>
    <g id="xtick_27">
     <g id="line2d_31">
      <g>
       <use xlink:href="#madd456f270" x="488.501605" y="205.554" style="stroke: #000000; stroke-width: 0.6"/>
      </g>
     </g>
    </g>
    <g id="xtick_28">
     <g id="line2d_32">
      <g>
       <use xlink:href="#madd456f270" x="496.366043" y="205.554" style="stroke: #000000; stroke-width: 0.6"/>
      </g>
     </g>
    </g>
    <g id="xtick_29">
     <g id="line2d_33">
      <g>
       <use xlink:href="#madd456f270" x="549.682841" y="205.554" style="stroke: #000000; stroke-width: 0.6"/>
      </g>
     </g>
    </g>
    <g id="xtick_30">
     <g id="line2d_34">
      <g>
       <use xlink:href="#madd456f270" x="576.755969" y="205.554" style="stroke: #000000; stroke-width: 0.6"/>
      </g>
     </g>
    </g>
    <g id="xtick_31">
     <g id="line2d_35">
      <g>
       <use xlink:href="#madd456f270" x="595.964659" y="205.554" style="stroke: #000000; stroke-width: 0.6"/>
      </g>
     </g>
    </g>
    <g id="xtick_32">
     <g id="line2d_36">
      <g>
       <use xlink:href="#madd456f270" x="610.864076" y="205.554" style="stroke: #000000; stroke-width: 0.6"/>
      </g>
     </g>
    </g>
    <g id="xtick_33">
     <g id="line2d_37">
      <g>
       <use xlink:href="#madd456f270" x="623.037787" y="205.554" style="stroke: #000000; stroke-width: 0.6"/>
      </g>
     </g>
    </g>
    <g id="xtick_34">
     <g id="line2d_38">
      <g>
       <use xlink:href="#madd456f270" x="633.330513" y="205.554" style="stroke: #000000; stroke-width: 0.6"/>
      </g>
     </g>
    </g>
    <g id="xtick_35">
     <g id="line2d_39">
      <g>
       <use xlink:href="#madd456f270" x="642.246477" y="205.554" style="stroke: #000000; stroke-width: 0.6"/>
      </g>
     </g>
    </g>
    <g id="xtick_36">
     <g id="line2d_40">
      <g>
       <use xlink:href="#madd456f270" x="650.110915" y="205.554" style="stroke: #000000; stroke-width: 0.6"/>
      </g>
     </g>
    </g>
    <g id="xtick_37">
     <g id="line2d_41">
      <g>
       <use xlink:href="#madd456f270" x="703.427713" y="205.554" style="stroke: #000000; stroke-width: 0.6"/>
      </g>
     </g>
    </g>
   </g>
   <g id="matplotlib.axis_2">
    <g id="ytick_1">
     <g id="line2d_42">
      <path d="M 43.465625 198.447 
L 705.295625 198.447 
" clip-path="url(#p0e85854218)" style="fill: none; stroke: #b0b0b0; stroke-opacity: 0.3; stroke-width: 0.8; stroke-linecap: square"/>
     </g>
     <g id="line2d_43">
      <defs>
       <path id="m6028f50a74" d="M 0 0 
L 3.5 0 
" style="stroke: #000000; stroke-width: 0.8"/>
      </defs>
      <g>
       <use xlink:href="#m6028f50a74" x="43.465625" y="198.447" style="stroke: #000000; stroke-width: 0.8"/>
      </g>
     </g>
     <g id="text_1">
      <!-- 0 -->
      <g transform="translate(33.603125 202.246219) scale(0.1 -0.1)">
       <defs>
        <path id="DejaVuSans-30" d="M 2034 4250 
Q 1547 4250 1301 3770 
Q 1056 3291 1056 2328 
Q 1056 1369 1301 889 
Q 1547 409 2034 409 
Q 2525 409 2770 889 
Q 3016 1369 3016 2328 
Q 3016 3291 2770 3770 
Q 2525 4250 2034 4250 
z
M 2034 4750 
Q 2819 4750 3233 4129 
Q 3647 3509 3647 2328 
Q 3647 1150 3233 529 
Q 2819 -91 2034 -91 
Q 1250 -91 836 529 
Q 422 1150 422 2328 
Q 422 3509 836 4129 
Q 1250 4750 2034 4750 
z
" transform="scale(0.015625)"/>
       </defs>
       <use xlink:href="#DejaVuSans-30"/>
      </g>
     </g>
    </g>
    <g id="ytick_2">
     <g id="line2d_44">
      <path d="M 43.465625 170.019 
L 705.295625 170.019 
" clip-path="url(#p0e85854218)" style="fill: none; stroke: #b0b0b0; stroke-opacity: 0.3; stroke-width: 0.8; stroke-linecap: square"/>
     </g>
     <g id="line2d_45">
      <g>
       <use xlink:href="#m6028f50a74" x="43.465625" y="170.019" style="stroke: #000000; stroke-width: 0.8"/>
      </g>
     </g>
     <g id="text_2">
      <!-- 20 -->
      <g transform="translate(27.240625 173.818219) scale(0.1 -0.1)">
       <defs>
        <path id="DejaVuSans-32" d="M 1228 531 
L 3431 531 
L 3431 0 
L 469 0 
L 469 531 
Q 828 903 1448 1529 
Q 2069 2156 2228 2338 
Q 2531 2678 2651 2914 
Q 2772 3150 2772 3378 
Q 2772 3750 2511 3984 
Q 2250 4219 1831 4219 
Q 1534 4219 1204 4116 
Q 875 4013 500 3803 
L 500 4441 
Q 881 4594 1212 4672 
Q 1544 4750 1819 4750 
Q 2544 4750 2975 4387 
Q 3406 4025 3406 3419 
Q 3406 3131 3298 2873 
Q 3191 2616 2906 2266 
Q 2828 2175 2409 1742 
Q 1991 1309 1228 531 
z
" transform="scale(0.015625)"/>
       </defs>
       <use xlink:href="#DejaVuSans-32"/>
       <use xlink:href="#DejaVuSans-30" transform="translate(63.623047 0)"/>
      </g>
     </g>
    </g>
    <g id="ytick_3">
     <g id="line2d_46">
      <path d="M 43.465625 141.591 
L 705.295625 141.591 
" clip-path="url(#p0e85854218)" style="fill: none; stroke: #b0b0b0; stroke-opacity: 0.3; stroke-width: 0.8; stroke-linecap: square"/>
     </g>
     <g id="line2d_47">
      <g>
       <use xlink:href="#m6028f50a74" x="43.465625" y="141.591" style="stroke: #000000; stroke-width: 0.8"/>
      </g>
     </g>
     <g id="text_3">
      <!-- 40 -->
      <g transform="translate(27.240625 145.390219) scale(0.1 -0.1)">
       <defs>
        <path id="DejaVuSans-34" d="M 2419 4116 
L 825 1625 
L 2419 1625 
L 2419 4116 
z
M 2253 4666 
L 3047 4666 
L 3047 1625 
L 3713 1625 
L 3713 1100 
L 3047 1100 
L 3047 0 
L 2419 0 
L 2419 1100 
L 313 1100 
L 313 1709 
L 2253 4666 
z
" transform="scale(0.015625)"/>
       </defs>
       <use xlink:href="#DejaVuSans-34"/>
       <use xlink:href="#DejaVuSans-30" transform="translate(63.623047 0)"/>
      </g>
     </g>
    </g>
    <g id="ytick_4">
     <g id="line2d_48">
      <path d="M 43.465625 113.163 
L 705.295625 113.163 
" clip-path="url(#p0e85854218)" style="fill: none; stroke: #b0b0b0; stroke-opacity: 0.3; stroke-width: 0.8; stroke-linecap: square"/>
     </g>
     <g id="line2d_49">
      <g>
       <use xlink:href="#m6028f50a74" x="43.465625" y="113.163" style="stroke: #000000; stroke-width: 0.8"/>
      </g>
     </g>
     <g id="text_4">
      <!-- 60 -->
      <g transform="translate(27.240625 116.962219) scale(0.1 -0.1)">
       <defs>
        <path id="DejaVuSans-36" d="M 2113 2584 
Q 1688 2584 1439 2293 
Q 1191 2003 1191 1497 
Q 1191 994 1439 701 
Q 1688 409 2113 409 
Q 2538 409 2786 701 
Q 3034 994 3034 1497 
Q 3034 2003 2786 2293 
Q 2538 2584 2113 2584 
z
M 3366 4563 
L 3366 3988 
Q 3128 4100 2886 4159 
Q 2644 4219 2406 4219 
Q 1781 4219 1451 3797 
Q 1122 3375 1075 2522 
Q 1259 2794 1537 2939 
Q 1816 3084 2150 3084 
Q 2853 3084 3261 2657 
Q 3669 2231 3669 1497 
Q 3669 778 3244 343 
Q 2819 -91 2113 -91 
Q 1303 -91 875 529 
Q 447 1150 447 2328 
Q 447 3434 972 4092 
Q 1497 4750 2381 4750 
Q 2619 4750 2861 4703 
Q 3103 4656 3366 4563 
z
" transform="scale(0.015625)"/>
       </defs>
       <use xlink:href="#DejaVuSans-36"/>
       <use xlink:href="#DejaVuSans-30" transform="translate(63.623047 0)"/>
      </g>
     </g>
    </g>
    <g id="ytick_5">
     <g id="line2d_50">
      <path d="M 43.465625 84.735 
L 705.295625 84.735 
" clip-path="url(#p0e85854218)" style="fill: none; stroke: #b0b0b0; stroke-opacity: 0.3; stroke-width: 0.8; stroke-linecap: square"/>
     </g>
     <g id="line2d_51">
      <g>
       <use xlink:href="#m6028f50a74" x="43.465625" y="84.735" style="stroke: #000000; stroke-width: 0.8"/>
      </g>
     </g>
     <g id="text_5">
      <!-- 80 -->
      <g transform="translate(27.240625 88.534219) scale(0.1 -0.1)">
       <defs>
        <path id="DejaVuSans-38" d="M 2034 2216 
Q 1584 2216 1326 1975 
Q 1069 1734 1069 1313 
Q 1069 891 1326 650 
Q 1584 409 2034 409 
Q 2484 409 2743 651 
Q 3003 894 3003 1313 
Q 3003 1734 2745 1975 
Q 2488 2216 2034 2216 
z
M 1403 2484 
Q 997 2584 770 2862 
Q 544 3141 544 3541 
Q 544 4100 942 4425 
Q 1341 4750 2034 4750 
Q 2731 4750 3128 4425 
Q 3525 4100 3525 3541 
Q 3525 3141 3298 2862 
Q 3072 2584 2669 2484 
Q 3125 2378 3379 2068 
Q 3634 1759 3634 1313 
Q 3634 634 3220 271 
Q 2806 -91 2034 -91 
Q 1263 -91 848 271 
Q 434 634 434 1313 
Q 434 1759 690 2068 
Q 947 2378 1403 2484 
z
M 1172 3481 
Q 1172 3119 1398 2916 
Q 1625 2713 2034 2713 
Q 2441 2713 2670 2916 
Q 2900 3119 2900 3481 
Q 2900 3844 2670 4047 
Q 2441 4250 2034 4250 
Q 1625 4250 1398 4047 
Q 1172 3844 1172 3481 
z
" transform="scale(0.015625)"/>
       </defs>
       <use xlink:href="#DejaVuSans-38"/>
       <use xlink:href="#DejaVuSans-30" transform="translate(63.623047 0)"/>
      </g>
     </g>
    </g>
    <g id="ytick_6">
     <g id="line2d_52">
      <path d="M 43.465625 56.307 
L 705.295625 56.307 
" clip-path="url(#p0e85854218)" style="fill: none; stroke: #b0b0b0; stroke-opacity: 0.3; stroke-width: 0.8; stroke-linecap: square"/>
     </g>
     <g id="line2d_53">
      <g>
       <use xlink:href="#m6028f50a74" x="43.465625" y="56.307" style="stroke: #000000; stroke-width: 0.8"/>
      </g>
     </g>
     <g id="text_6">
      <!-- 100 -->
      <g transform="translate(20.878125 60.106219) scale(0.1 -0.1)">
       <defs>
        <path id="DejaVuSans-31" d="M 794 531 
L 1825 531 
L 1825 4091 
L 703 3866 
L 703 4441 
L 1819 4666 
L 2450 4666 
L 2450 531 
L 3481 531 
L 3481 0 
L 794 0 
L 794 531 
z
" transform="scale(0.015625)"/>
       </defs>
       <use xlink:href="#DejaVuSans-31"/>
       <use xlink:href="#DejaVuSans-30" transform="translate(63.623047 0)"/>
       <use xlink:href="#DejaVuSans-30" transform="translate(127.246094 0)"/>
      </g>
     </g>
    </g>
    <g id="text_7">
     <!-- Model share of residual (%) -->
     <g transform="translate(14.798438 195.884813) rotate(-90) scale(0.1 -0.1)">
      <defs>
       <path id="DejaVuSans-4d" d="M 628 4666 
L 1569 4666 
L 2759 1491 
L 3956 4666 
L 4897 4666 
L 4897 0 
L 4281 0 
L 4281 4097 
L 3078 897 
L 2444 897 
L 1241 4097 
L 1241 0 
L 628 0 
L 628 4666 
z
" transform="scale(0.015625)"/>
       <path id="DejaVuSans-6f" d="M 1959 3097 
Q 1497 3097 1228 2736 
Q 959 2375 959 1747 
Q 959 1119 1226 758 
Q 1494 397 1959 397 
Q 2419 397 2687 759 
Q 2956 1122 2956 1747 
Q 2956 2369 2687 2733 
Q 2419 3097 1959 3097 
z
M 1959 3584 
Q 2709 3584 3137 3096 
Q 3566 2609 3566 1747 
Q 3566 888 3137 398 
Q 2709 -91 1959 -91 
Q 1206 -91 779 398 
Q 353 888 353 1747 
Q 353 2609 779 3096 
Q 1206 3584 1959 3584 
z
" transform="scale(0.015625)"/>
       <path id="DejaVuSans-64" d="M 2906 2969 
L 2906 4863 
L 3481 4863 
L 3481 0 
L 2906 0 
L 2906 525 
Q 2725 213 2448 61 
Q 2172 -91 1784 -91 
Q 1150 -91 751 415 
Q 353 922 353 1747 
Q 353 2572 751 3078 
Q 1150 3584 1784 3584 
Q 2172 3584 2448 3432 
Q 2725 3281 2906 2969 
z
M 947 1747 
Q 947 1113 1208 752 
Q 1469 391 1925 391 
Q 2381 391 2643 752 
Q 2906 1113 2906 1747 
Q 2906 2381 2643 2742 
Q 2381 3103 1925 3103 
Q 1469 3103 1208 2742 
Q 947 2381 947 1747 
z
" transform="scale(0.015625)"/>
       <path id="DejaVuSans-65" d="M 3597 1894 
L 3597 1613 
L 953 1613 
Q 991 1019 1311 708 
Q 1631 397 2203 397 
Q 2534 397 2845 478 
Q 3156 559 3463 722 
L 3463 178 
Q 3153 47 2828 -22 
Q 2503 -91 2169 -91 
Q 1331 -91 842 396 
Q 353 884 353 1716 
Q 353 2575 817 3079 
Q 1281 3584 2069 3584 
Q 2775 3584 3186 3129 
Q 3597 2675 3597 1894 
z
M 3022 2063 
Q 3016 2534 2758 2815 
Q 2500 3097 2075 3097 
Q 1594 3097 1305 2825 
Q 1016 2553 972 2059 
L 3022 2063 
z
" transform="scale(0.015625)"/>
       <path id="DejaVuSans-6c" d="M 603 4863 
L 1178 4863 
L 1178 0 
L 603 0 
L 603 4863 
z
" transform="scale(0.015625)"/>
       <path id="DejaVuSans-20" transform="scale(0.015625)"/>
       <path id="DejaVuSans-73" d="M 2834 3397 
L 2834 2853 
Q 2591 2978 2328 3040 
Q 2066 3103 1784 3103 
Q 1356 3103 1142 2972 
Q 928 2841 928 2578 
Q 928 2378 1081 2264 
Q 1234 2150 1697 2047 
L 1894 2003 
Q 2506 1872 2764 1633 
Q 3022 1394 3022 966 
Q 3022 478 2636 193 
Q 2250 -91 1575 -91 
Q 1294 -91 989 -36 
Q 684 19 347 128 
L 347 722 
Q 666 556 975 473 
Q 1284 391 1588 391 
Q 1994 391 2212 530 
Q 2431 669 2431 922 
Q 2431 1156 2273 1281 
Q 2116 1406 1581 1522 
L 1381 1569 
Q 847 1681 609 1914 
Q 372 2147 372 2553 
Q 372 3047 722 3315 
Q 1072 3584 1716 3584 
Q 2034 3584 2315 3537 
Q 2597 3491 2834 3397 
z
" transform="scale(0.015625)"/>
       <path id="DejaVuSans-68" d="M 3513 2113 
L 3513 0 
L 2938 0 
L 2938 2094 
Q 2938 2591 2744 2837 
Q 2550 3084 2163 3084 
Q 1697 3084 1428 2787 
Q 1159 2491 1159 1978 
L 1159 0 
L 581 0 
L 581 4863 
L 1159 4863 
L 1159 2956 
Q 1366 3272 1645 3428 
Q 1925 3584 2291 3584 
Q 2894 3584 3203 3211 
Q 3513 2838 3513 2113 
z
" transform="scale(0.015625)"/>
       <path id="DejaVuSans-61" d="M 2194 1759 
Q 1497 1759 1228 1600 
Q 959 1441 959 1056 
Q 959 750 1161 570 
Q 1363 391 1709 391 
Q 2188 391 2477 730 
Q 2766 1069 2766 1631 
L 2766 1759 
L 2194 1759 
z
M 3341 1997 
L 3341 0 
L 2766 0 
L 2766 531 
Q 2569 213 2275 61 
Q 1981 -91 1556 -91 
Q 1019 -91 701 211 
Q 384 513 384 1019 
Q 384 1609 779 1909 
Q 1175 2209 1959 2209 
L 2766 2209 
L 2766 2266 
Q 2766 2663 2505 2880 
Q 2244 3097 1772 3097 
Q 1472 3097 1187 3025 
Q 903 2953 641 2809 
L 641 3341 
Q 956 3463 1253 3523 
Q 1550 3584 1831 3584 
Q 2591 3584 2966 3190 
Q 3341 2797 3341 1997 
z
" transform="scale(0.015625)"/>
       <path id="DejaVuSans-72" d="M 2631 2963 
Q 2534 3019 2420 3045 
Q 2306 3072 2169 3072 
Q 1681 3072 1420 2755 
Q 1159 2438 1159 1844 
L 1159 0 
L 581 0 
L 581 3500 
L 1159 3500 
L 1159 2956 
Q 1341 3275 1631 3429 
Q 1922 3584 2338 3584 
Q 2397 3584 2469 3576 
Q 2541 3569 2628 3553 
L 2631 2963 
z
" transform="scale(0.015625)"/>
       <path id="DejaVuSans-66" d="M 2375 4863 
L 2375 4384 
L 1825 4384 
Q 1516 4384 1395 4259 
Q 1275 4134 1275 3809 
L 1275 3500 
L 2222 3500 
L 2222 3053 
L 1275 3053 
L 1275 0 
L 697 0 
L 697 3053 
L 147 3053 
L 147 3500 
L 697 3500 
L 697 3744 
Q 697 4328 969 4595 
Q 1241 4863 1831 4863 
L 2375 4863 
z
" transform="scale(0.015625)"/>
       <path id="DejaVuSans-69" d="M 603 3500 
L 1178 3500 
L 1178 0 
L 603 0 
L 603 3500 
z
M 603 4863 
L 1178 4863 
L 1178 4134 
L 603 4134 
L 603 4863 
z
" transform="scale(0.015625)"/>
       <path id="DejaVuSans-75" d="M 544 1381 
L 544 3500 
L 1119 3500 
L 1119 1403 
Q 1119 906 1312 657 
Q 1506 409 1894 409 
Q 2359 409 2629 706 
Q 2900 1003 2900 1516 
L 2900 3500 
L 3475 3500 
L 3475 0 
L 2900 0 
L 2900 538 
Q 2691 219 2414 64 
Q 2138 -91 1772 -91 
Q 1169 -91 856 284 
Q 544 659 544 1381 
z
M 1991 3584 
L 1991 3584 
z
" transform="scale(0.015625)"/>
       <path id="DejaVuSans-28" d="M 1984 4856 
Q 1566 4138 1362 3434 
Q 1159 2731 1159 2009 
Q 1159 1288 1364 580 
Q 1569 -128 1984 -844 
L 1484 -844 
Q 1016 -109 783 600 
Q 550 1309 550 2009 
Q 550 2706 781 3412 
Q 1013 4119 1484 4856 
L 1984 4856 
z
" transform="scale(0.015625)"/>
       <path id="DejaVuSans-25" d="M 4653 2053 
Q 4381 2053 4226 1822 
Q 4072 1591 4072 1178 
Q 4072 772 4226 539 
Q 4381 306 4653 306 
Q 4919 306 5073 539 
Q 5228 772 5228 1178 
Q 5228 1588 5073 1820 
Q 4919 2053 4653 2053 
z
M 4653 2450 
Q 5147 2450 5437 2106 
Q 5728 1763 5728 1178 
Q 5728 594 5436 251 
Q 5144 -91 4653 -91 
Q 4153 -91 3862 251 
Q 3572 594 3572 1178 
Q 3572 1766 3864 2108 
Q 4156 2450 4653 2450 
z
M 1428 4353 
Q 1159 4353 1004 4120 
Q 850 3888 850 3481 
Q 850 3069 1003 2837 
Q 1156 2606 1428 2606 
Q 1700 2606 1854 2837 
Q 2009 3069 2009 3481 
Q 2009 3884 1853 4118 
Q 1697 4353 1428 4353 
z
M 4250 4750 
L 4750 4750 
L 1831 -91 
L 1331 -91 
L 4250 4750 
z
M 1428 4750 
Q 1922 4750 2215 4408 
Q 2509 4066 2509 3481 
Q 2509 2891 2217 2550 
Q 1925 2209 1428 2209 
Q 931 2209 642 2551 
Q 353 2894 353 3481 
Q 353 4063 643 4406 
Q 934 4750 1428 4750 
z
" transform="scale(0.015625)"/>
       <path id="DejaVuSans-29" d="M 513 4856 
L 1013 4856 
Q 1481 4119 1714 3412 
Q 1947 2706 1947 2009 
Q 1947 1309 1714 600 
Q 1481 -109 1013 -844 
L 513 -844 
Q 928 -128 1133 580 
Q 1338 1288 1338 2009 
Q 1338 2731 1133 3434 
Q 928 4138 513 4856 
z
" transform="scale(0.015625)"/>
      </defs>
      <use xlink:href="#DejaVuSans-4d"/>
      <use xlink:href="#DejaVuSans-6f" transform="translate(86.279297 0)"/>
      <use xlink:href="#DejaVuSans-64" transform="translate(147.460938 0)"/>
      <use xlink:href="#DejaVuSans-65" transform="translate(210.9375 0)"/>
      <use xlink:href="#DejaVuSans-6c" transform="translate(272.460938 0)"/>
      <use xlink:href="#DejaVuSans-20" transform="translate(300.244141 0)"/>
      <use xlink:href="#DejaVuSans-73" transform="translate(332.03125 0)"/>
      <use xlink:href="#DejaVuSans-68" transform="translate(384.130859 0)"/>
      <use xlink:href="#DejaVuSans-61" transform="translate(447.509766 0)"/>
      <use xlink:href="#DejaVuSans-72" transform="translate(508.789062 0)"/>
      <use xlink:href="#DejaVuSans-65" transform="translate(547.652344 0)"/>
      <use xlink:href="#DejaVuSans-20" transform="translate(609.175781 0)"/>
      <use xlink:href="#DejaVuSans-6f" transform="translate(640.962891 0)"/>
      <use xlink:href="#DejaVuSans-66" transform="translate(702.144531 0)"/>
      <use xlink:href="#DejaVuSans-20" transform="translate(737.349609 0)"/>
      <use xlink:href="#DejaVuSans-72" transform="translate(769.136719 0)"/>
      <use xlink:href="#DejaVuSans-65" transform="translate(808 0)"/>
      <use xlink:href="#DejaVuSans-73" transform="translate(869.523438 0)"/>
      <use xlink:href="#DejaVuSans-69" transform="translate(921.623047 0)"/>
      <use xlink:href="#DejaVuSans-64" transform="translate(949.40625 0)"/>
      <use xlink:href="#DejaVuSans-75" transform="translate(1012.882812 0)"/>
      <use xlink:href="#DejaVuSans-61" transform="translate(1076.261719 0)"/>
      <use xlink:href="#DejaVuSans-6c" transform="translate(1137.541016 0)"/>
      <use xlink:href="#DejaVuSans-20" transform="translate(1165.324219 0)"/>
      <use xlink:href="#DejaVuSans-28" transform="translate(1197.111328 0)"/>
      <use xlink:href="#DejaVuSans-25" transform="translate(1236.125 0)"/>
      <use xlink:href="#DejaVuSans-29" transform="translate(1331.144531 0)"/>
     </g>
    </g>
   </g>
   <g id="line2d_54">
    <path d="M 43.465625 198.447 
L 705.295625 198.447 
" clip-path="url(#p0e85854218)" style="fill: none; stroke-dasharray: 1.5,2.475; stroke-dashoffset: 0; stroke: #808080; stroke-width: 1.5"/>
   </g>
   <g id="line2d_55">
    <path d="M 43.465625 56.307 
L 705.295625 56.307 
" clip-path="url(#p0e85854218)" style="fill: none; stroke-dasharray: 1.5,2.475; stroke-dashoffset: 0; stroke: #808080; stroke-width: 1.5"/>
   </g>
   <g id="line2d_56">
    <path d="M 73.548807 104.998104 
L 94.812137 105.65612 
L 119.830625 106.201772 
L 144.062024 106.575777 
L 166.112443 106.823022 
L 188.876299 107.010064 
L 212.394261 107.14958 
L 235.895921 107.249203 
L 258.67608 107.31827 
L 281.809856 107.368435 
L 304.957898 107.404151 
L 328.091674 107.429503 
L 351.239716 107.447499 
L 374.373492 107.460245 
L 397.521534 107.469277 
L 420.655311 107.475668 
L 443.803352 107.480193 
L 466.937129 107.483393 
L 490.08517 107.485658 
L 513.230474 107.48726 
L 536.366989 107.488392 
L 559.506529 107.489193 
L 582.648807 107.489759 
L 605.788347 107.49016 
L 628.930625 107.490443 
L 652.071606 107.490643 
L 675.212443 107.490785 
" clip-path="url(#p0e85854218)" style="fill: none; stroke: #4c72b0; stroke-width: 1.5; stroke-linecap: square"/>
   </g>
   <g id="line2d_57">
    <path d="M 73.548807 135.530015 
L 94.812137 141.301503 
L 119.830625 148.433623 
L 144.062024 154.260414 
L 166.112443 159.417486 
L 188.876299 164.087851 
L 212.394261 168.582547 
L 235.895921 172.536058 
L 258.67608 175.999972 
L 281.809856 179.088606 
L 304.957898 181.825391 
L 328.091674 184.209468 
L 351.239716 186.284577 
L 374.373492 188.079915 
L 397.521534 189.628614 
L 420.655311 190.958052 
L 443.803352 192.097085 
L 466.937129 193.069135 
L 490.08517 193.897775 
L 513.230474 194.602147 
L 536.366989 195.199906 
L 559.506529 195.706553 
L 582.648807 196.13554 
L 605.788347 196.498252 
L 628.930625 196.804746 
L 652.071606 197.063493 
L 675.212443 197.281814 
" clip-path="url(#p0e85854218)" style="fill: none; stroke: #55a868; stroke-width: 1.5; stroke-linecap: square"/>
   </g>
   <g id="line2d_58">
    <path d="M 73.548807 147.188034 
L 94.812137 155.030052 
L 119.830625 159.992742 
L 144.062024 165.995083 
L 166.112443 169.751444 
L 188.876299 173.900943 
L 212.394261 177.208401 
L 235.895921 180.36719 
L 258.67608 182.866948 
L 281.809856 185.177424 
L 304.957898 187.111809 
L 328.091674 188.804142 
L 351.239716 190.25748 
L 374.373492 191.500745 
L 397.521534 192.563075 
L 420.655311 193.46775 
L 443.803352 194.237669 
L 466.937129 194.891017 
L 490.08517 195.445336 
L 513.230474 195.9149 
L 536.366989 196.311588 
L 559.506529 196.647168 
L 582.648807 196.930468 
L 605.788347 197.169598 
L 628.930625 197.371326 
L 652.071606 197.541398 
L 675.212443 197.684707 
" clip-path="url(#p0e85854218)" style="fill: none; stroke: #c44e52; stroke-width: 1.5; stroke-linecap: square"/>
   </g>
   <g id="line2d_59">
    <path d="M 73.548807 179.138649 
L 94.812137 182.35214 
L 119.830625 184.716067 
L 144.062024 187.076867 
L 166.112443 188.64624 
L 188.876299 190.190891 
L 212.394261 191.445646 
L 235.895921 192.56461 
L 258.67608 193.450106 
L 281.809856 194.234349 
L 304.957898 194.88642 
L 328.091674 195.443148 
L 351.239716 195.914101 
L 374.373492 196.311773 
L 397.521534 196.647795 
L 420.655311 196.931225 
L 443.803352 197.170472 
L 466.937129 197.372087 
L 490.08517 197.542132 
L 513.230474 197.685429 
L 536.366989 197.806022 
L 559.506529 197.907638 
L 582.648807 197.99318 
L 605.788347 198.065191 
L 628.930625 198.125807 
L 652.071606 198.176817 
L 675.212443 198.219735 
" clip-path="url(#p0e85854218)" style="fill: none; stroke: #8172b2; stroke-width: 1.5; stroke-linecap: square"/>
   </g>
   <g id="line2d_60">
    <path d="M 73.548807 195.380545 
L 94.812137 195.935708 
L 119.830625 196.339186 
L 144.062024 196.724889 
L 166.112443 196.978082 
L 188.876299 197.220564 
L 212.394261 197.415365 
L 235.895921 197.585904 
L 258.67608 197.719627 
L 281.809856 197.836621 
L 304.957898 197.933201 
L 328.091674 198.014998 
L 351.239716 198.083767 
L 374.373492 198.141532 
L 397.521534 198.190127 
L 420.655311 198.230963 
L 443.803352 198.265325 
L 466.937129 198.294205 
L 490.08517 198.318509 
L 513.230474 198.33895 
L 536.366989 198.356126 
L 559.506529 198.37058 
L 582.648807 198.382733 
L 605.788347 198.392954 
L 628.930625 198.401551 
L 652.071606 198.408781 
L 675.212443 198.41486 
" clip-path="url(#p0e85854218)" style="fill: none; stroke: #937860; stroke-width: 1.5; stroke-linecap: square"/>
   </g>
   <g id="line2d_61">
    <path d="M 73.548807 198.120434 
L 94.812137 198.180484 
L 119.830625 198.223883 
L 144.062024 198.265151 
L 166.112443 198.292138 
L 188.876299 198.317898 
L 212.394261 198.338539 
L 235.895921 198.356565 
L 258.67608 198.370674 
L 281.809856 198.382998 
L 304.957898 198.393158 
L 328.091674 198.401753 
L 351.239716 198.408972 
L 374.373492 198.415031 
L 397.521534 198.420125 
L 420.655311 198.424403 
L 443.803352 198.428002 
L 466.937129 198.431025 
L 490.08517 198.433568 
L 513.230474 198.435706 
L 536.366989 198.437502 
L 559.506529 198.439014 
L 582.648807 198.440284 
L 605.788347 198.441353 
L 628.930625 198.442251 
L 652.071606 198.443007 
L 675.212443 198.443642 
" clip-path="url(#p0e85854218)" style="fill: none; stroke: #da8bc3; stroke-width: 1.5; stroke-linecap: square"/>
   </g>
   <g id="patch_3">
    <path d="M 43.465625 205.554 
L 43.465625 49.2 
" style="fill: none; stroke: #000000; stroke-width: 0.8; stroke-linejoin: miter; stroke-linecap: square"/>
   </g>
   <g id="patch_4">
    <path d="M 705.295625 205.554 
L 705.295625 49.2 
" style="fill: none; stroke: #000000; stroke-width: 0.8; stroke-linejoin: miter; stroke-linecap: square"/>
   </g>
   <g id="patch_5">
    <path d="M 43.465625 205.554 
L 705.295625 205.554 
" style="fill: none; stroke: #000000; stroke-width: 0.8; stroke-linejoin: miter; stroke-linecap: square"/>
   </g>
   <g id="patch_6">
    <path d="M 43.465625 49.2 
L 705.295625 49.2 
" style="fill: none; stroke: #000000; stroke-width: 0.8; stroke-linejoin: miter; stroke-linecap: square"/>
   </g>
   <g id="text_8">
    <!-- Noise limited -->
    <g style="fill: #808080" transform="translate(73.548807 193.524513) scale(0.1 -0.1)">
     <defs>
      <path id="DejaVuSans-4e" d="M 628 4666 
L 1478 4666 
L 3547 763 
L 3547 4666 
L 4159 4666 
L 4159 0 
L 3309 0 
L 1241 3903 
L 1241 0 
L 628 0 
L 628 4666 
z
" transform="scale(0.015625)"/>
      <path id="DejaVuSans-6d" d="M 3328 2828 
Q 3544 3216 3844 3400 
Q 4144 3584 4550 3584 
Q 5097 3584 5394 3201 
Q 5691 2819 5691 2113 
L 5691 0 
L 5113 0 
L 5113 2094 
Q 5113 2597 4934 2840 
Q 4756 3084 4391 3084 
Q 3944 3084 3684 2787 
Q 3425 2491 3425 1978 
L 3425 0 
L 2847 0 
L 2847 2094 
Q 2847 2600 2669 2842 
Q 2491 3084 2119 3084 
Q 1678 3084 1418 2786 
Q 1159 2488 1159 1978 
L 1159 0 
L 581 0 
L 581 3500 
L 1159 3500 
L 1159 2956 
Q 1356 3278 1631 3431 
Q 1906 3584 2284 3584 
Q 2666 3584 2933 3390 
Q 3200 3197 3328 2828 
z
" transform="scale(0.015625)"/>
      <path id="DejaVuSans-74" d="M 1172 4494 
L 1172 3500 
L 2356 3500 
L 2356 3053 
L 1172 3053 
L 1172 1153 
Q 1172 725 1289 603 
Q 1406 481 1766 481 
L 2356 481 
L 2356 0 
L 1766 0 
Q 1100 0 847 248 
Q 594 497 594 1153 
L 594 3053 
L 172 3053 
L 172 3500 
L 594 3500 
L 594 4494 
L 1172 4494 
z
" transform="scale(0.015625)"/>
     </defs>
     <use xlink:href="#DejaVuSans-4e"/>
     <use xlink:href="#DejaVuSans-6f" transform="translate(74.804688 0)"/>
     <use xlink:href="#DejaVuSans-69" transform="translate(135.986328 0)"/>
     <use xlink:href="#DejaVuSans-73" transform="translate(163.769531 0)"/>
     <use xlink:href="#DejaVuSans-65" transform="translate(215.869141 0)"/>
     <use xlink:href="#DejaVuSans-20" transform="translate(277.392578 0)"/>
     <use xlink:href="#DejaVuSans-6c" transform="translate(309.179688 0)"/>
     <use xlink:href="#DejaVuSans-69" transform="translate(336.962891 0)"/>
     <use xlink:href="#DejaVuSans-6d" transform="translate(364.746094 0)"/>
     <use xlink:href="#DejaVuSans-69" transform="translate(462.158203 0)"/>
     <use xlink:href="#DejaVuSans-74" transform="translate(489.941406 0)"/>
     <use xlink:href="#DejaVuSans-65" transform="translate(529.150391 0)"/>
     <use xlink:href="#DejaVuSans-64" transform="translate(590.673828 0)"/>
    </g>
   </g>
   <g id="text_9">
    <!-- Model limited -->
    <g style="fill: #808080" transform="translate(607.510881 66.748238) scale(0.1 -0.1)">
     <use xlink:href="#DejaVuSans-4d"/>
     <use xlink:href="#DejaVuSans-6f" transform="translate(86.279297 0)"/>
     <use xlink:href="#DejaVuSans-64" transform="translate(147.460938 0)"/>
     <use xlink:href="#DejaVuSans-65" transform="translate(210.9375 0)"/>
     <use xlink:href="#DejaVuSans-6c" transform="translate(272.460938 0)"/>
     <use xlink:href="#DejaVuSans-20" transform="translate(300.244141 0)"/>
     <use xlink:href="#DejaVuSans-6c" transform="translate(332.03125 0)"/>
     <use xlink:href="#DejaVuSans-69" transform="translate(359.814453 0)"/>
     <use xlink:href="#DejaVuSans-6d" transform="translate(387.597656 0)"/>
     <use xlink:href="#DejaVuSans-69" transform="translate(485.009766 0)"/>
     <use xlink:href="#DejaVuSans-74" transform="translate(512.792969 0)"/>
     <use xlink:href="#DejaVuSans-65" transform="translate(552.001953 0)"/>
     <use xlink:href="#DejaVuSans-64" transform="translate(613.525391 0)"/>
    </g>
   </g>
   <g id="text_10">
    <!-- σ = 0.1·A -->
    <g transform="translate(346.183438 43.2) scale(0.12 -0.12)">
     <defs>
      <path id="DejaVuSans-3c3" d="M 1959 3044 
Q 1484 3044 1228 2700 
Q 959 2341 959 1747 
Q 959 1119 1226 758 
Q 1494 397 1959 397 
Q 2419 397 2687 759 
Q 2956 1122 2956 1747 
Q 2956 2319 2688 2700 
Q 2441 3044 1959 3044 
z
M 1959 3500 
L 3869 3500 
L 3869 2925 
L 3225 2925 
Q 3566 2438 3566 1747 
Q 3566 888 3138 400 
Q 2709 -91 1959 -91 
Q 1206 -91 781 400 
Q 353 888 353 1747 
Q 353 2613 781 3097 
Q 1134 3500 1959 3500 
z
" transform="scale(0.015625)"/>
      <path id="DejaVuSans-3d" d="M 678 2906 
L 4684 2906 
L 4684 2381 
L 678 2381 
L 678 2906 
z
M 678 1631 
L 4684 1631 
L 4684 1100 
L 678 1100 
L 678 1631 
z
" transform="scale(0.015625)"/>
      <path id="DejaVuSans-2e" d="M 684 794 
L 1344 794 
L 1344 0 
L 684 0 
L 684 794 
z
" transform="scale(0.015625)"/>
      <path id="DejaVuSans-b7" d="M 684 2619 
L 1344 2619 
L 1344 1825 
L 684 1825 
L 684 2619 
z
" transform="scale(0.015625)"/>
      <path id="DejaVuSans-41" d="M 2188 4044 
L 1331 1722 
L 3047 1722 
L 2188 4044 
z
M 1831 4666 
L 2547 4666 
L 4325 0 
L 3669 0 
L 3244 1197 
L 1141 1197 
L 716 0 
L 50 0 
L 1831 4666 
z
" transform="scale(0.015625)"/>
     </defs>
     <use xlink:href="#DejaVuSans-3c3"/>
     <use xlink:href="#DejaVuSans-20" transform="translate(63.378906 0)"/>
     <use xlink:href="#DejaVuSans-3d" transform="translate(95.166016 0)"/>
     <use xlink:href="#DejaVuSans-20" transform="translate(178.955078 0)"/>
     <use xlink:href="#DejaVuSans-30" transform="translate(210.742188 0)"/>
     <use xlink:href="#DejaVuSans-2e" transform="translate(274.365234 0)"/>
     <use xlink:href="#DejaVuSans-31" transform="translate(306.152344 0)"/>
     <use xlink:href="#DejaVuSans-b7" transform="translate(369.775391 0)"/>
     <use xlink:href="#DejaVuSans-41" transform="translate(401.5625 0)"/>
    </g>
   </g>
   <g id="legend_1">
    <g id="patch_7">
     <path d="M 262.281406 101.234375 
L 486.479844 101.234375 
Q 488.479844 101.234375 488.479844 99.234375 
L 488.479844 56.2 
Q 488.479844 54.2 486.479844 54.2 
L 262.281406 54.2 
Q 260.281406 54.2 260.281406 56.2 
L 260.281406 99.234375 
Q 260.281406 101.234375 262.281406 101.234375 
z
" style="fill: #ffffff; opacity: 0.8; stroke: #cccccc; stroke-linejoin: miter"/>
    </g>
    <g id="line2d_62">
     <path d="M 264.281406 62.298437 
L 274.281406 62.298437 
L 284.281406 62.298437 
" style="fill: none; stroke: #4c72b0; stroke-width: 1.5; stroke-linecap: square"/>
    </g>
    <g id="text_11">
     <!-- ★ None -->
     <g transform="translate(292.281406 65.798437) scale(0.1 -0.1)">
      <defs>
       <path id="DejaVuSans-2605" d="M 416 2850 
L 2288 2850 
L 2869 4628 
L 3453 2850 
L 5322 2850 
L 3809 1747 
L 4391 -28 
L 2869 1072 
L 1350 -28 
L 1928 1747 
L 416 2850 
z
" transform="scale(0.015625)"/>
       <path id="DejaVuSans-6e" d="M 3513 2113 
L 3513 0 
L 2938 0 
L 2938 2094 
Q 2938 2591 2744 2837 
Q 2550 3084 2163 3084 
Q 1697 3084 1428 2787 
Q 1159 2491 1159 1978 
L 1159 0 
L 581 0 
L 581 3500 
L 1159 3500 
L 1159 2956 
Q 1366 3272 1645 3428 
Q 1925 3584 2291 3584 
Q 2894 3584 3203 3211 
Q 3513 2838 3513 2113 
z
" transform="scale(0.015625)"/>
      </defs>
      <use xlink:href="#DejaVuSans-2605"/>
      <use xlink:href="#DejaVuSans-20" transform="translate(89.648438 0)"/>
      <use xlink:href="#DejaVuSans-4e" transform="translate(121.435547 0)"/>
      <use xlink:href="#DejaVuSans-6f" transform="translate(196.240234 0)"/>
      <use xlink:href="#DejaVuSans-6e" transform="translate(257.421875 0)"/>
      <use xlink:href="#DejaVuSans-65" transform="translate(320.800781 0)"/>
     </g>
    </g>
    <g id="line2d_63">
     <path d="M 264.281406 76.976562 
L 274.281406 76.976562 
L 284.281406 76.976562 
" style="fill: none; stroke: #55a868; stroke-width: 1.5; stroke-linecap: square"/>
    </g>
    <g id="text_12">
     <!-- ★ Window -->
     <g transform="translate(292.281406 80.476562) scale(0.1 -0.1)">
      <defs>
       <path id="DejaVuSans-57" d="M 213 4666 
L 850 4666 
L 1831 722 
L 2809 4666 
L 3519 4666 
L 4500 722 
L 5478 4666 
L 6119 4666 
L 4947 0 
L 4153 0 
L 3169 4050 
L 2175 0 
L 1381 0 
L 213 4666 
z
" transform="scale(0.015625)"/>
       <path id="DejaVuSans-77" d="M 269 3500 
L 844 3500 
L 1563 769 
L 2278 3500 
L 2956 3500 
L 3675 769 
L 4391 3500 
L 4966 3500 
L 4050 0 
L 3372 0 
L 2619 2869 
L 1863 0 
L 1184 0 
L 269 3500 
z
" transform="scale(0.015625)"/>
      </defs>
      <use xlink:href="#DejaVuSans-2605"/>
      <use xlink:href="#DejaVuSans-20" transform="translate(89.648438 0)"/>
      <use xlink:href="#DejaVuSans-57" transform="translate(121.435547 0)"/>
      <use xlink:href="#DejaVuSans-69" transform="translate(218.0625 0)"/>
      <use xlink:href="#DejaVuSans-6e" transform="translate(245.845703 0)"/>
      <use xlink:href="#DejaVuSans-64" transform="translate(309.224609 0)"/>
      <use xlink:href="#DejaVuSans-6f" transform="translate(372.701172 0)"/>
      <use xlink:href="#DejaVuSans-77" transform="translate(433.882812 0)"/>
     </g>
    </g>
    <g id="line2d_64">
     <path d="M 264.281406 91.654687 
L 274.281406 91.654687 
L 284.281406 91.654687 
" style="fill: none; stroke: #c44e52; stroke-width: 1.5; stroke-linecap: square"/>
    </g>
    <g id="text_13">
     <!-- ★ Baseline -->
     <g transform="translate(292.281406 95.154687) scale(0.1 -0.1)">
      <defs>
       <path id="DejaVuSans-42" d="M 1259 2228 
L 1259 519 
L 2272 519 
Q 2781 519 3026 730 
Q 3272 941 3272 1375 
Q 3272 1813 3026 2020 
Q 2781 2228 2272 2228 
L 1259 2228 
z
M 1259 4147 
L 1259 2741 
L 2194 2741 
Q 2656 2741 2882 2914 
Q 3109 3088 3109 3444 
Q 3109 3797 2882 3972 
Q 2656 4147 2194 4147 
L 1259 4147 
z
M 628 4666 
L 2241 4666 
Q 2963 4666 3353 4366 
Q 3744 4066 3744 3513 
Q 3744 3084 3544 2831 
Q 3344 2578 2956 2516 
Q 3422 2416 3680 2098 
Q 3938 1781 3938 1306 
Q 3938 681 3513 340 
Q 3088 0 2303 0 
L 628 0 
L 628 4666 
z
" transform="scale(0.015625)"/>
      </defs>
      <use xlink:href="#DejaVuSans-2605"/>
      <use xlink:href="#DejaVuSans-20" transform="translate(89.648438 0)"/>
      <use xlink:href="#DejaVuSans-42" transform="translate(121.435547 0)"/>
      <use xlink:href="#DejaVuSans-61" transform="translate(190.039062 0)"/>
      <use xlink:href="#DejaVuSans-73" transform="translate(251.318359 0)"/>
      <use xlink:href="#DejaVuSans-65" transform="translate(303.417969 0)"/>
      <use xlink:href="#DejaVuSans-6c" transform="translate(364.941406 0)"/>
      <use xlink:href="#DejaVuSans-69" transform="translate(392.724609 0)"/>
      <use xlink:href="#DejaVuSans-6e" transform="translate(420.507812 0)"/>
      <use xlink:href="#DejaVuSans-65" transform="translate(483.886719 0)"/>
     </g>
    </g>
    <g id="line2d_65">
     <path d="M 366.823594 62.298437 
L 376.823594 62.298437 
L 386.823594 62.298437 
" style="fill: none; stroke: #8172b2; stroke-width: 1.5; stroke-linecap: square"/>
    </g>
    <g id="text_14">
     <!-- ★ All (order=1) -->
     <g transform="translate(394.823594 65.798437) scale(0.1 -0.1)">
      <use xlink:href="#DejaVuSans-2605"/>
      <use xlink:href="#DejaVuSans-20" transform="translate(89.648438 0)"/>
      <use xlink:href="#DejaVuSans-41" transform="translate(121.435547 0)"/>
      <use xlink:href="#DejaVuSans-6c" transform="translate(189.84375 0)"/>
      <use xlink:href="#DejaVuSans-6c" transform="translate(217.626953 0)"/>
      <use xlink:href="#DejaVuSans-20" transform="translate(245.410156 0)"/>
      <use xlink:href="#DejaVuSans-28" transform="translate(277.197266 0)"/>
      <use xlink:href="#DejaVuSans-6f" transform="translate(316.210938 0)"/>
      <use xlink:href="#DejaVuSans-72" transform="translate(377.392578 0)"/>
      <use xlink:href="#DejaVuSans-64" transform="translate(416.755859 0)"/>
      <use xlink:href="#DejaVuSans-65" transform="translate(480.232422 0)"/>
      <use xlink:href="#DejaVuSans-72" transform="translate(541.755859 0)"/>
      <use xlink:href="#DejaVuSans-3d" transform="translate(582.869141 0)"/>
      <use xlink:href="#DejaVuSans-31" transform="translate(666.658203 0)"/>
      <use xlink:href="#DejaVuSans-29" transform="translate(730.28125 0)"/>
     </g>
    </g>
    <g id="line2d_66">
     <path d="M 366.823594 76.976562 
L 376.823594 76.976562 
L 386.823594 76.976562 
" style="fill: none; stroke: #937860; stroke-width: 1.5; stroke-linecap: square"/>
    </g>
    <g id="text_15">
     <!-- ★ All (order=10) -->
     <g transform="translate(394.823594 80.476562) scale(0.1 -0.1)">
      <use xlink:href="#DejaVuSans-2605"/>
      <use xlink:href="#DejaVuSans-20" transform="translate(89.648438 0)"/>
      <use xlink:href="#DejaVuSans-41" transform="translate(121.435547 0)"/>
      <use xlink:href="#DejaVuSans-6c" transform="translate(189.84375 0)"/>
      <use xlink:href="#DejaVuSans-6c" transform="translate(217.626953 0)"/>
      <use xlink:href="#DejaVuSans-20" transform="translate(245.410156 0)"/>
      <use xlink:href="#DejaVuSans-28" transform="translate(277.197266 0)"/>
      <use xlink:href="#DejaVuSans-6f" transform="translate(316.210938 0)"/>
      <use xlink:href="#DejaVuSans-72" transform="translate(377.392578 0)"/>
      <use xlink:href="#DejaVuSans-64" transform="translate(416.755859 0)"/>
      <use xlink:href="#DejaVuSans-65" transform="translate(480.232422 0)"/>
      <use xlink:href="#DejaVuSans-72" transform="translate(541.755859 0)"/>
      <use xlink:href="#DejaVuSans-3d" transform="translate(582.869141 0)"/>
      <use xlink:href="#DejaVuSans-31" transform="translate(666.658203 0)"/>
      <use xlink:href="#DejaVuSans-30" transform="translate(730.28125 0)"/>
      <use xlink:href="#DejaVuSans-29" transform="translate(793.904297 0)"/>
     </g>
    </g>
    <g id="line2d_67">
     <path d="M 366.823594 91.654687 
L 376.823594 91.654687 
L 386.823594 91.654687 
" style="fill: none; stroke: #da8bc3; stroke-width: 1.5; stroke-linecap: square"/>
    </g>
    <g id="text_16">
     <!-- ★ All (order=100) -->
     <g transform="translate(394.823594 95.154687) scale(0.1 -0.1)">
      <use xlink:href="#DejaVuSans-2605"/>
      <use xlink:href="#DejaVuSans-20" transform="translate(89.648438 0)"/>
      <use xlink:href="#DejaVuSans-41" transform="translate(121.435547 0)"/>
      <use xlink:href="#DejaVuSans-6c" transform="translate(189.84375 0)"/>
      <use xlink:href="#DejaVuSans-6c" transform="translate(217.626953 0)"/>
      <use xlink:href="#DejaVuSans-20" transform="translate(245.410156 0)"/>
      <use xlink:href="#DejaVuSans-28" transform="translate(277.197266 0)"/>
      <use xlink:href="#DejaVuSans-6f" transform="translate(316.210938 0)"/>
      <use xlink:href="#DejaVuSans-72" transform="translate(377.392578 0)"/>
      <use xlink:href="#DejaVuSans-64" transform="translate(416.755859 0)"/>
      <use xlink:href="#DejaVuSans-65" transform="translate(480.232422 0)"/>
      <use xlink:href="#DejaVuSans-72" transform="translate(541.755859 0)"/>
      <use xlink:href="#DejaVuSans-3d" transform="translate(582.869141 0)"/>
      <use xlink:href="#DejaVuSans-31" transform="translate(666.658203 0)"/>
      <use xlink:href="#DejaVuSans-30" transform="translate(730.28125 0)"/>
      <use xlink:href="#DejaVuSans-30" transform="translate(793.904297 0)"/>
      <use xlink:href="#DejaVuSans-29" transform="translate(857.527344 0)"/>
     </g>
    </g>
   </g>
  </g>
  <g id="axes_2">
   <g id="patch_8">
    <path d="M 43.465625 388.788 
L 705.295625 388.788 
L 705.295625 232.434 
L 43.465625 232.434 
z
" style="fill: #ffffff"/>
   </g>
   <g id="matplotlib.axis_3">
    <g id="xtick_38">
     <g id="line2d_68">
      <path d="M 195.911278 388.788 
L 195.911278 232.434 
" clip-path="url(#pe9a8c6b908)" style="fill: none; stroke: #b0b0b0; stroke-opacity: 0.3; stroke-width: 0.8; stroke-linecap: square"/>
     </g>
     <g id="line2d_69">
      <g>
       <use xlink:href="#m8a175274c8" x="195.911278" y="388.788" style="stroke: #000000; stroke-width: 0.8"/>
      </g>
     </g>
     <g id="text_17">
      <!-- $\mathdefault{10^{2}}$ -->
      <g transform="translate(187.111278 399.886437) scale(0.1 -0.1)">
       <use xlink:href="#DejaVuSans-31" transform="translate(0 0.765625)"/>
       <use xlink:href="#DejaVuSans-30" transform="translate(63.623047 0.765625)"/>
       <use xlink:href="#DejaVuSans-32" transform="translate(128.203125 39.046875) scale(0.7)"/>
      </g>
     </g>
    </g>
    <g id="xtick_39">
     <g id="line2d_70">
      <path d="M 349.65615 388.788 
L 349.65615 232.434 
" clip-path="url(#pe9a8c6b908)" style="fill: none; stroke: #b0b0b0; stroke-opacity: 0.3; stroke-width: 0.8; stroke-linecap: square"/>
     </g>
     <g id="line2d_71">
      <g>
       <use xlink:href="#m8a175274c8" x="349.65615" y="388.788" style="stroke: #000000; stroke-width: 0.8"/>
      </g>
     </g>
     <g id="text_18">
      <!-- $\mathdefault{10^{3}}$ -->
      <g transform="translate(340.85615 399.886437) scale(0.1 -0.1)">
       <defs>
        <path id="DejaVuSans-33" d="M 2597 2516 
Q 3050 2419 3304 2112 
Q 3559 1806 3559 1356 
Q 3559 666 3084 287 
Q 2609 -91 1734 -91 
Q 1441 -91 1130 -33 
Q 819 25 488 141 
L 488 750 
Q 750 597 1062 519 
Q 1375 441 1716 441 
Q 2309 441 2620 675 
Q 2931 909 2931 1356 
Q 2931 1769 2642 2001 
Q 2353 2234 1838 2234 
L 1294 2234 
L 1294 2753 
L 1863 2753 
Q 2328 2753 2575 2939 
Q 2822 3125 2822 3475 
Q 2822 3834 2567 4026 
Q 2313 4219 1838 4219 
Q 1578 4219 1281 4162 
Q 984 4106 628 3988 
L 628 4550 
Q 988 4650 1302 4700 
Q 1616 4750 1894 4750 
Q 2613 4750 3031 4423 
Q 3450 4097 3450 3541 
Q 3450 3153 3228 2886 
Q 3006 2619 2597 2516 
z
" transform="scale(0.015625)"/>
       </defs>
       <use xlink:href="#DejaVuSans-31" transform="translate(0 0.765625)"/>
       <use xlink:href="#DejaVuSans-30" transform="translate(63.623047 0.765625)"/>
       <use xlink:href="#DejaVuSans-33" transform="translate(128.203125 39.046875) scale(0.7)"/>
      </g>
     </g>
    </g>
    <g id="xtick_40">
     <g id="line2d_72">
      <path d="M 503.401022 388.788 
L 503.401022 232.434 
" clip-path="url(#pe9a8c6b908)" style="fill: none; stroke: #b0b0b0; stroke-opacity: 0.3; stroke-width: 0.8; stroke-linecap: square"/>
     </g>
     <g id="line2d_73">
      <g>
       <use xlink:href="#m8a175274c8" x="503.401022" y="388.788" style="stroke: #000000; stroke-width: 0.8"/>
      </g>
     </g>
     <g id="text_19">
      <!-- $\mathdefault{10^{4}}$ -->
      <g transform="translate(494.601022 399.886437) scale(0.1 -0.1)">
       <use xlink:href="#DejaVuSans-31" transform="translate(0 0.684375)"/>
       <use xlink:href="#DejaVuSans-30" transform="translate(63.623047 0.684375)"/>
       <use xlink:href="#DejaVuSans-34" transform="translate(128.203125 38.965625) scale(0.7)"/>
      </g>
     </g>
    </g>
    <g id="xtick_41">
     <g id="line2d_74">
      <path d="M 657.145895 388.788 
L 657.145895 232.434 
" clip-path="url(#pe9a8c6b908)" style="fill: none; stroke: #b0b0b0; stroke-opacity: 0.3; stroke-width: 0.8; stroke-linecap: square"/>
     </g>
     <g id="line2d_75">
      <g>
       <use xlink:href="#m8a175274c8" x="657.145895" y="388.788" style="stroke: #000000; stroke-width: 0.8"/>
      </g>
     </g>
     <g id="text_20">
      <!-- $\mathdefault{10^{5}}$ -->
      <g transform="translate(648.345895 399.886437) scale(0.1 -0.1)">
       <defs>
        <path id="DejaVuSans-35" d="M 691 4666 
L 3169 4666 
L 3169 4134 
L 1269 4134 
L 1269 2991 
Q 1406 3038 1543 3061 
Q 1681 3084 1819 3084 
Q 2600 3084 3056 2656 
Q 3513 2228 3513 1497 
Q 3513 744 3044 326 
Q 2575 -91 1722 -91 
Q 1428 -91 1123 -41 
Q 819 9 494 109 
L 494 744 
Q 775 591 1075 516 
Q 1375 441 1709 441 
Q 2250 441 2565 725 
Q 2881 1009 2881 1497 
Q 2881 1984 2565 2268 
Q 2250 2553 1709 2553 
Q 1456 2553 1204 2497 
Q 953 2441 691 2322 
L 691 4666 
z
" transform="scale(0.015625)"/>
       </defs>
       <use xlink:href="#DejaVuSans-31" transform="translate(0 0.684375)"/>
       <use xlink:href="#DejaVuSans-30" transform="translate(63.623047 0.684375)"/>
       <use xlink:href="#DejaVuSans-35" transform="translate(128.203125 38.965625) scale(0.7)"/>
      </g>
     </g>
    </g>
    <g id="xtick_42">
     <g id="line2d_76">
      <g>
       <use xlink:href="#madd456f270" x="88.448224" y="388.788" style="stroke: #000000; stroke-width: 0.6"/>
      </g>
     </g>
    </g>
    <g id="xtick_43">
     <g id="line2d_77">
      <g>
       <use xlink:href="#madd456f270" x="115.521352" y="388.788" style="stroke: #000000; stroke-width: 0.6"/>
      </g>
     </g>
    </g>
    <g id="xtick_44">
     <g id="line2d_78">
      <g>
       <use xlink:href="#madd456f270" x="134.730043" y="388.788" style="stroke: #000000; stroke-width: 0.6"/>
      </g>
     </g>
    </g>
    <g id="xtick_45">
     <g id="line2d_79">
      <g>
       <use xlink:href="#madd456f270" x="149.62946" y="388.788" style="stroke: #000000; stroke-width: 0.6"/>
      </g>
     </g>
    </g>
    <g id="xtick_46">
     <g id="line2d_80">
      <g>
       <use xlink:href="#madd456f270" x="161.803171" y="388.788" style="stroke: #000000; stroke-width: 0.6"/>
      </g>
     </g>
    </g>
    <g id="xtick_47">
     <g id="line2d_81">
      <g>
       <use xlink:href="#madd456f270" x="172.095896" y="388.788" style="stroke: #000000; stroke-width: 0.6"/>
      </g>
     </g>
    </g>
    <g id="xtick_48">
     <g id="line2d_82">
      <g>
       <use xlink:href="#madd456f270" x="181.011861" y="388.788" style="stroke: #000000; stroke-width: 0.6"/>
      </g>
     </g>
    </g>
    <g id="xtick_49">
     <g id="line2d_83">
      <g>
       <use xlink:href="#madd456f270" x="188.876299" y="388.788" style="stroke: #000000; stroke-width: 0.6"/>
      </g>
     </g>
    </g>
    <g id="xtick_50">
     <g id="line2d_84">
      <g>
       <use xlink:href="#madd456f270" x="242.193096" y="388.788" style="stroke: #000000; stroke-width: 0.6"/>
      </g>
     </g>
    </g>
    <g id="xtick_51">
     <g id="line2d_85">
      <g>
       <use xlink:href="#madd456f270" x="269.266225" y="388.788" style="stroke: #000000; stroke-width: 0.6"/>
      </g>
     </g>
    </g>
    <g id="xtick_52">
     <g id="line2d_86">
      <g>
       <use xlink:href="#madd456f270" x="288.474915" y="388.788" style="stroke: #000000; stroke-width: 0.6"/>
      </g>
     </g>
    </g>
    <g id="xtick_53">
     <g id="line2d_87">
      <g>
       <use xlink:href="#madd456f270" x="303.374332" y="388.788" style="stroke: #000000; stroke-width: 0.6"/>
      </g>
     </g>
    </g>
    <g id="xtick_54">
     <g id="line2d_88">
      <g>
       <use xlink:href="#madd456f270" x="315.548043" y="388.788" style="stroke: #000000; stroke-width: 0.6"/>
      </g>
     </g>
    </g>
    <g id="xtick_55">
     <g id="line2d_89">
      <g>
       <use xlink:href="#madd456f270" x="325.840768" y="388.788" style="stroke: #000000; stroke-width: 0.6"/>
      </g>
     </g>
    </g>
    <g id="xtick_56">
     <g id="line2d_90">
      <g>
       <use xlink:href="#madd456f270" x="334.756733" y="388.788" style="stroke: #000000; stroke-width: 0.6"/>
      </g>
     </g>
    </g>
    <g id="xtick_57">
     <g id="line2d_91">
      <g>
       <use xlink:href="#madd456f270" x="342.621171" y="388.788" style="stroke: #000000; stroke-width: 0.6"/>
      </g>
     </g>
    </g>
    <g id="xtick_58">
     <g id="line2d_92">
      <g>
       <use xlink:href="#madd456f270" x="395.937969" y="388.788" style="stroke: #000000; stroke-width: 0.6"/>
      </g>
     </g>
    </g>
    <g id="xtick_59">
     <g id="line2d_93">
      <g>
       <use xlink:href="#madd456f270" x="423.011097" y="388.788" style="stroke: #000000; stroke-width: 0.6"/>
      </g>
     </g>
    </g>
    <g id="xtick_60">
     <g id="line2d_94">
      <g>
       <use xlink:href="#madd456f270" x="442.219787" y="388.788" style="stroke: #000000; stroke-width: 0.6"/>
      </g>
     </g>
    </g>
    <g id="xtick_61">
     <g id="line2d_95">
      <g>
       <use xlink:href="#madd456f270" x="457.119204" y="388.788" style="stroke: #000000; stroke-width: 0.6"/>
      </g>
     </g>
    </g>
    <g id="xtick_62">
     <g id="line2d_96">
      <g>
       <use xlink:href="#madd456f270" x="469.292915" y="388.788" style="stroke: #000000; stroke-width: 0.6"/>
      </g>
     </g>
    </g>
    <g id="xtick_63">
     <g id="line2d_97">
      <g>
       <use xlink:href="#madd456f270" x="479.58564" y="388.788" style="stroke: #000000; stroke-width: 0.6"/>
      </g>
     </g>
    </g>
    <g id="xtick_64">
     <g id="line2d_98">
      <g>
       <use xlink:href="#madd456f270" x="488.501605" y="388.788" style="stroke: #000000; stroke-width: 0.6"/>
      </g>
     </g>
    </g>
    <g id="xtick_65">
     <g id="line2d_99">
      <g>
       <use xlink:href="#madd456f270" x="496.366043" y="388.788" style="stroke: #000000; stroke-width: 0.6"/>
      </g>
     </g>
    </g>
    <g id="xtick_66">
     <g id="line2d_100">
      <g>
       <use xlink:href="#madd456f270" x="549.682841" y="388.788" style="stroke: #000000; stroke-width: 0.6"/>
      </g>
     </g>
    </g>
    <g id="xtick_67">
     <g id="line2d_101">
      <g>
       <use xlink:href="#madd456f270" x="576.755969" y="388.788" style="stroke: #000000; stroke-width: 0.6"/>
      </g>
     </g>
    </g>
    <g id="xtick_68">
     <g id="line2d_102">
      <g>
       <use xlink:href="#madd456f270" x="595.964659" y="388.788" style="stroke: #000000; stroke-width: 0.6"/>
      </g>
     </g>
    </g>
    <g id="xtick_69">
     <g id="line2d_103">
      <g>
       <use xlink:href="#madd456f270" x="610.864076" y="388.788" style="stroke: #000000; stroke-width: 0.6"/>
      </g>
     </g>
    </g>
    <g id="xtick_70">
     <g id="line2d_104">
      <g>
       <use xlink:href="#madd456f270" x="623.037787" y="388.788" style="stroke: #000000; stroke-width: 0.6"/>
      </g>
     </g>
    </g>
    <g id="xtick_71">
     <g id="line2d_105">
      <g>
       <use xlink:href="#madd456f270" x="633.330513" y="388.788" style="stroke: #000000; stroke-width: 0.6"/>
      </g>
     </g>
    </g>
    <g id="xtick_72">
     <g id="line2d_106">
      <g>
       <use xlink:href="#madd456f270" x="642.246477" y="388.788" style="stroke: #000000; stroke-width: 0.6"/>
      </g>
     </g>
    </g>
    <g id="xtick_73">
     <g id="line2d_107">
      <g>
       <use xlink:href="#madd456f270" x="650.110915" y="388.788" style="stroke: #000000; stroke-width: 0.6"/>
      </g>
     </g>
    </g>
    <g id="xtick_74">
     <g id="line2d_108">
      <g>
       <use xlink:href="#madd456f270" x="703.427713" y="388.788" style="stroke: #000000; stroke-width: 0.6"/>
      </g>
     </g>
    </g>
    <g id="text_21">
     <!-- N (samples) -->
     <g transform="translate(344.365781 413.564562) scale(0.1 -0.1)">
      <defs>
       <path id="DejaVuSans-70" d="M 1159 525 
L 1159 -1331 
L 581 -1331 
L 581 3500 
L 1159 3500 
L 1159 2969 
Q 1341 3281 1617 3432 
Q 1894 3584 2278 3584 
Q 2916 3584 3314 3078 
Q 3713 2572 3713 1747 
Q 3713 922 3314 415 
Q 2916 -91 2278 -91 
Q 1894 -91 1617 61 
Q 1341 213 1159 525 
z
M 3116 1747 
Q 3116 2381 2855 2742 
Q 2594 3103 2138 3103 
Q 1681 3103 1420 2742 
Q 1159 2381 1159 1747 
Q 1159 1113 1420 752 
Q 1681 391 2138 391 
Q 2594 391 2855 752 
Q 3116 1113 3116 1747 
z
" transform="scale(0.015625)"/>
      </defs>
      <use xlink:href="#DejaVuSans-4e"/>
      <use xlink:href="#DejaVuSans-20" transform="translate(74.804688 0)"/>
      <use xlink:href="#DejaVuSans-28" transform="translate(106.591797 0)"/>
      <use xlink:href="#DejaVuSans-73" transform="translate(145.605469 0)"/>
      <use xlink:href="#DejaVuSans-61" transform="translate(197.705078 0)"/>
      <use xlink:href="#DejaVuSans-6d" transform="translate(258.984375 0)"/>
      <use xlink:href="#DejaVuSans-70" transform="translate(356.396484 0)"/>
      <use xlink:href="#DejaVuSans-6c" transform="translate(419.873047 0)"/>
      <use xlink:href="#DejaVuSans-65" transform="translate(447.65625 0)"/>
      <use xlink:href="#DejaVuSans-73" transform="translate(509.179688 0)"/>
      <use xlink:href="#DejaVuSans-29" transform="translate(561.279297 0)"/>
     </g>
    </g>
   </g>
   <g id="matplotlib.axis_4">
    <g id="ytick_7">
     <g id="line2d_109">
      <path d="M 43.465625 381.681 
L 705.295625 381.681 
" clip-path="url(#pe9a8c6b908)" style="fill: none; stroke: #b0b0b0; stroke-opacity: 0.3; stroke-width: 0.8; stroke-linecap: square"/>
     </g>
     <g id="line2d_110">
      <g>
       <use xlink:href="#m6028f50a74" x="43.465625" y="381.681" style="stroke: #000000; stroke-width: 0.8"/>
      </g>
     </g>
     <g id="text_22">
      <!-- 0 -->
      <g transform="translate(33.603125 385.480219) scale(0.1 -0.1)">
       <use xlink:href="#DejaVuSans-30"/>
      </g>
     </g>
    </g>
    <g id="ytick_8">
     <g id="line2d_111">
      <path d="M 43.465625 353.253 
L 705.295625 353.253 
" clip-path="url(#pe9a8c6b908)" style="fill: none; stroke: #b0b0b0; stroke-opacity: 0.3; stroke-width: 0.8; stroke-linecap: square"/>
     </g>
     <g id="line2d_112">
      <g>
       <use xlink:href="#m6028f50a74" x="43.465625" y="353.253" style="stroke: #000000; stroke-width: 0.8"/>
      </g>
     </g>
     <g id="text_23">
      <!-- 20 -->
      <g transform="translate(27.240625 357.052219) scale(0.1 -0.1)">
       <use xlink:href="#DejaVuSans-32"/>
       <use xlink:href="#DejaVuSans-30" transform="translate(63.623047 0)"/>
      </g>
     </g>
    </g>
    <g id="ytick_9">
     <g id="line2d_113">
      <path d="M 43.465625 324.825 
L 705.295625 324.825 
" clip-path="url(#pe9a8c6b908)" style="fill: none; stroke: #b0b0b0; stroke-opacity: 0.3; stroke-width: 0.8; stroke-linecap: square"/>
     </g>
     <g id="line2d_114">
      <g>
       <use xlink:href="#m6028f50a74" x="43.465625" y="324.825" style="stroke: #000000; stroke-width: 0.8"/>
      </g>
     </g>
     <g id="text_24">
      <!-- 40 -->
      <g transform="translate(27.240625 328.624219) scale(0.1 -0.1)">
       <use xlink:href="#DejaVuSans-34"/>
       <use xlink:href="#DejaVuSans-30" transform="translate(63.623047 0)"/>
      </g>
     </g>
    </g>
    <g id="ytick_10">
     <g id="line2d_115">
      <path d="M 43.465625 296.397 
L 705.295625 296.397 
" clip-path="url(#pe9a8c6b908)" style="fill: none; stroke: #b0b0b0; stroke-opacity: 0.3; stroke-width: 0.8; stroke-linecap: square"/>
     </g>
     <g id="line2d_116">
      <g>
       <use xlink:href="#m6028f50a74" x="43.465625" y="296.397" style="stroke: #000000; stroke-width: 0.8"/>
      </g>
     </g>
     <g id="text_25">
      <!-- 60 -->
      <g transform="translate(27.240625 300.196219) scale(0.1 -0.1)">
       <use xlink:href="#DejaVuSans-36"/>
       <use xlink:href="#DejaVuSans-30" transform="translate(63.623047 0)"/>
      </g>
     </g>
    </g>
    <g id="ytick_11">
     <g id="line2d_117">
      <path d="M 43.465625 267.969 
L 705.295625 267.969 
" clip-path="url(#pe9a8c6b908)" style="fill: none; stroke: #b0b0b0; stroke-opacity: 0.3; stroke-width: 0.8; stroke-linecap: square"/>
     </g>
     <g id="line2d_118">
      <g>
       <use xlink:href="#m6028f50a74" x="43.465625" y="267.969" style="stroke: #000000; stroke-width: 0.8"/>
      </g>
     </g>
     <g id="text_26">
      <!-- 80 -->
      <g transform="translate(27.240625 271.768219) scale(0.1 -0.1)">
       <use xlink:href="#DejaVuSans-38"/>
       <use xlink:href="#DejaVuSans-30" transform="translate(63.623047 0)"/>
      </g>
     </g>
    </g>
    <g id="ytick_12">
     <g id="line2d_119">
      <path d="M 43.465625 239.541 
L 705.295625 239.541 
" clip-path="url(#pe9a8c6b908)" style="fill: none; stroke: #b0b0b0; stroke-opacity: 0.3; stroke-width: 0.8; stroke-linecap: square"/>
     </g>
     <g id="line2d_120">
      <g>
       <use xlink:href="#m6028f50a74" x="43.465625" y="239.541" style="stroke: #000000; stroke-width: 0.8"/>
      </g>
     </g>
     <g id="text_27">
      <!-- 100 -->
      <g transform="translate(20.878125 243.340219) scale(0.1 -0.1)">
       <use xlink:href="#DejaVuSans-31"/>
       <use xlink:href="#DejaVuSans-30" transform="translate(63.623047 0)"/>
       <use xlink:href="#DejaVuSans-30" transform="translate(127.246094 0)"/>
      </g>
     </g>
    </g>
    <g id="text_28">
     <!-- Model share of residual (%) -->
     <g transform="translate(14.798438 379.118812) rotate(-90) scale(0.1 -0.1)">
      <use xlink:href="#DejaVuSans-4d"/>
      <use xlink:href="#DejaVuSans-6f" transform="translate(86.279297 0)"/>
      <use xlink:href="#DejaVuSans-64" transform="translate(147.460938 0)"/>
      <use xlink:href="#DejaVuSans-65" transform="translate(210.9375 0)"/>
      <use xlink:href="#DejaVuSans-6c" transform="translate(272.460938 0)"/>
      <use xlink:href="#DejaVuSans-20" transform="translate(300.244141 0)"/>
      <use xlink:href="#DejaVuSans-73" transform="translate(332.03125 0)"/>
      <use xlink:href="#DejaVuSans-68" transform="translate(384.130859 0)"/>
      <use xlink:href="#DejaVuSans-61" transform="translate(447.509766 0)"/>
      <use xlink:href="#DejaVuSans-72" transform="translate(508.789062 0)"/>
      <use xlink:href="#DejaVuSans-65" transform="translate(547.652344 0)"/>
      <use xlink:href="#DejaVuSans-20" transform="translate(609.175781 0)"/>
      <use xlink:href="#DejaVuSans-6f" transform="translate(640.962891 0)"/>
      <use xlink:href="#DejaVuSans-66" transform="translate(702.144531 0)"/>
      <use xlink:href="#DejaVuSans-20" transform="translate(737.349609 0)"/>
      <use xlink:href="#DejaVuSans-72" transform="translate(769.136719 0)"/>
      <use xlink:href="#DejaVuSans-65" transform="translate(808 0)"/>
      <use xlink:href="#DejaVuSans-73" transform="translate(869.523438 0)"/>
      <use xlink:href="#DejaVuSans-69" transform="translate(921.623047 0)"/>
      <use xlink:href="#DejaVuSans-64" transform="translate(949.40625 0)"/>
      <use xlink:href="#DejaVuSans-75" transform="translate(1012.882812 0)"/>
      <use xlink:href="#DejaVuSans-61" transform="translate(1076.261719 0)"/>
      <use xlink:href="#DejaVuSans-6c" transform="translate(1137.541016 0)"/>
      <use xlink:href="#DejaVuSans-20" transform="translate(1165.324219 0)"/>
      <use xlink:href="#DejaVuSans-28" transform="translate(1197.111328 0)"/>
      <use xlink:href="#DejaVuSans-25" transform="translate(1236.125 0)"/>
      <use xlink:href="#DejaVuSans-29" transform="translate(1331.144531 0)"/>
     </g>
    </g>
   </g>
   <g id="line2d_121">
    <path d="M 43.465625 381.681 
L 705.295625 381.681 
" clip-path="url(#pe9a8c6b908)" style="fill: none; stroke-dasharray: 1.5,2.475; stroke-dashoffset: 0; stroke: #808080; stroke-width: 1.5"/>
   </g>
   <g id="line2d_122">
    <path d="M 43.465625 239.541 
L 705.295625 239.541 
" clip-path="url(#pe9a8c6b908)" style="fill: none; stroke-dasharray: 1.5,2.475; stroke-dashoffset: 0; stroke: #808080; stroke-width: 1.5"/>
   </g>
   <g id="line2d_123">
    <path d="M 73.548807 240.277775 
L 94.812137 240.292946 
L 119.830625 240.305689 
L 144.062024 240.314509 
L 166.112443 240.320379 
L 188.876299 240.32484 
L 212.394261 240.328179 
L 235.895921 240.33057 
L 258.67608 240.33223 
L 281.809856 240.333438 
L 304.957898 240.334298 
L 328.091674 240.33491 
L 351.239716 240.335344 
L 374.373492 240.335651 
L 397.521534 240.335869 
L 420.655311 240.336023 
L 443.803352 240.336133 
L 466.937129 240.33621 
L 490.08517 240.336265 
L 513.230474 240.336303 
L 536.366989 240.336331 
L 559.506529 240.33635 
L 582.648807 240.336364 
L 605.788347 240.336373 
L 628.930625 240.33638 
L 652.071606 240.336385 
L 675.212443 240.336388 
" clip-path="url(#pe9a8c6b908)" style="fill: none; stroke: #4c72b0; stroke-width: 1.5; stroke-linecap: square"/>
   </g>
   <g id="line2d_124">
    <path d="M 73.548807 241.308524 
L 94.812137 241.624115 
L 119.830625 242.111918 
L 144.062024 242.623642 
L 166.112443 243.199487 
L 188.876299 243.864162 
L 212.394261 244.69114 
L 235.895921 245.643263 
L 258.67608 246.736563 
L 281.809856 248.018606 
L 304.957898 249.521081 
L 328.091674 251.257553 
L 351.239716 253.264623 
L 374.373492 255.570525 
L 397.521534 258.208333 
L 420.655311 261.202921 
L 443.803352 264.582079 
L 466.937129 268.359337 
L 490.08517 272.548113 
L 513.230474 277.142389 
L 536.366989 282.125428 
L 559.506529 287.465851 
L 582.648807 293.116719 
L 605.788347 299.012206 
L 628.930625 305.077042 
L 652.071606 311.223602 
L 675.212443 317.361089 
" clip-path="url(#pe9a8c6b908)" style="fill: none; stroke: #55a868; stroke-width: 1.5; stroke-linecap: square"/>
   </g>
   <g id="line2d_125">
    <path d="M 73.548807 242.017209 
L 94.812137 242.701174 
L 119.830625 243.272951 
L 144.062024 244.188279 
L 166.112443 244.94663 
L 188.876299 246.039253 
L 212.394261 247.196569 
L 235.895921 248.668091 
L 258.67608 250.219857 
L 281.809856 252.123284 
L 304.957898 254.246563 
L 328.091674 256.712259 
L 351.239716 259.521766 
L 374.373492 262.69838 
L 397.521534 266.267664 
L 420.655311 270.239263 
L 443.803352 274.621935 
L 466.937129 279.401454 
L 490.08517 284.560141 
L 513.230474 290.057711 
L 536.366989 295.828629 
L 559.506529 301.815422 
L 582.648807 307.929005 
L 605.788347 314.083077 
L 628.930625 320.1859 
L 652.071606 326.148106 
L 675.212443 331.888337 
" clip-path="url(#pe9a8c6b908)" style="fill: none; stroke: #c44e52; stroke-width: 1.5; stroke-linecap: square"/>
   </g>
   <g id="line2d_126">
    <path d="M 73.548807 248.042521 
L 94.812137 249.864097 
L 119.830625 251.696868 
L 144.062024 254.20252 
L 166.112443 256.450783 
L 188.876299 259.37462 
L 212.394261 262.537771 
L 235.895921 266.273569 
L 258.67608 270.151124 
L 281.809856 274.600472 
L 304.957898 279.363458 
L 328.091674 284.537253 
L 351.239716 290.047243 
L 374.373492 295.831618 
L 397.521534 301.827776 
L 420.655311 307.946907 
L 443.803352 314.107548 
L 466.937129 320.210775 
L 490.08517 326.175724 
L 513.230474 331.919165 
L 536.366989 337.366775 
L 559.506529 342.4736 
L 582.648807 347.198398 
L 605.788347 351.52063 
L 628.930625 355.43354 
L 652.071606 358.941769 
L 675.212443 362.060217 
" clip-path="url(#pe9a8c6b908)" style="fill: none; stroke: #8172b2; stroke-width: 1.5; stroke-linecap: square"/>
   </g>
   <g id="line2d_127">
    <path d="M 73.548807 283.891618 
L 94.812137 290.331585 
L 119.830625 296.278178 
L 144.062024 303.383448 
L 166.112443 309.073566 
L 188.876299 315.537635 
L 212.394261 321.650911 
L 235.895921 327.854096 
L 258.67608 333.402312 
L 281.809856 338.851215 
L 304.957898 343.842077 
L 328.091674 348.472762 
L 351.239716 352.691683 
L 374.373492 356.4931 
L 397.521534 359.891976 
L 420.655311 362.902829 
L 443.803352 365.554133 
L 466.937129 367.871181 
L 490.08517 369.887342 
L 513.230474 371.632256 
L 536.366989 373.134556 
L 559.506529 374.425159 
L 582.648807 375.529653 
L 605.788347 376.472499 
L 628.930625 377.275585 
L 652.071606 377.958188 
L 675.212443 378.537394 
" clip-path="url(#pe9a8c6b908)" style="fill: none; stroke: #937860; stroke-width: 1.5; stroke-linecap: square"/>
   </g>
   <g id="line2d_128">
    <path d="M 73.548807 355.075803 
L 94.812137 359.202118 
L 119.830625 362.370213 
L 144.062024 365.540411 
L 166.112443 367.702535 
L 188.876299 369.83594 
L 212.394261 371.596677 
L 235.895921 373.173406 
L 258.67608 374.433685 
L 281.809856 375.553911 
L 304.957898 376.491388 
L 328.091674 377.29452 
L 351.239716 377.976324 
L 374.373492 378.553758 
L 397.521534 379.0429 
L 420.655311 379.456354 
L 443.803352 379.805977 
L 466.937129 380.101046 
L 490.08517 380.350227 
L 513.230474 380.560427 
L 536.366989 380.737488 
L 559.506529 380.886794 
L 582.648807 381.012564 
L 605.788347 381.118494 
L 628.930625 381.207702 
L 652.071606 381.282799 
L 675.212443 381.346004 
" clip-path="url(#pe9a8c6b908)" style="fill: none; stroke: #da8bc3; stroke-width: 1.5; stroke-linecap: square"/>
   </g>
   <g id="patch_9">
    <path d="M 43.465625 388.788 
L 43.465625 232.434 
" style="fill: none; stroke: #000000; stroke-width: 0.8; stroke-linejoin: miter; stroke-linecap: square"/>
   </g>
   <g id="patch_10">
    <path d="M 705.295625 388.788 
L 705.295625 232.434 
" style="fill: none; stroke: #000000; stroke-width: 0.8; stroke-linejoin: miter; stroke-linecap: square"/>
   </g>
   <g id="patch_11">
    <path d="M 43.465625 388.788 
L 705.295625 388.788 
" style="fill: none; stroke: #000000; stroke-width: 0.8; stroke-linejoin: miter; stroke-linecap: square"/>
   </g>
   <g id="patch_12">
    <path d="M 43.465625 232.434 
L 705.295625 232.434 
" style="fill: none; stroke: #000000; stroke-width: 0.8; stroke-linejoin: miter; stroke-linecap: square"/>
   </g>
   <g id="text_29">
    <!-- Noise limited -->
    <g style="fill: #808080" transform="translate(73.548807 376.758512) scale(0.1 -0.1)">
     <use xlink:href="#DejaVuSans-4e"/>
     <use xlink:href="#DejaVuSans-6f" transform="translate(74.804688 0)"/>
     <use xlink:href="#DejaVuSans-69" transform="translate(135.986328 0)"/>
     <use xlink:href="#DejaVuSans-73" transform="translate(163.769531 0)"/>
     <use xlink:href="#DejaVuSans-65" transform="translate(215.869141 0)"/>
     <use xlink:href="#DejaVuSans-20" transform="translate(277.392578 0)"/>
     <use xlink:href="#DejaVuSans-6c" transform="translate(309.179688 0)"/>
     <use xlink:href="#DejaVuSans-69" transform="translate(336.962891 0)"/>
     <use xlink:href="#DejaVuSans-6d" transform="translate(364.746094 0)"/>
     <use xlink:href="#DejaVuSans-69" transform="translate(462.158203 0)"/>
     <use xlink:href="#DejaVuSans-74" transform="translate(489.941406 0)"/>
     <use xlink:href="#DejaVuSans-65" transform="translate(529.150391 0)"/>
     <use xlink:href="#DejaVuSans-64" transform="translate(590.673828 0)"/>
    </g>
   </g>
   <g id="text_30">
    <!-- Model limited -->
    <g style="fill: #808080" transform="translate(607.510881 249.982237) scale(0.1 -0.1)">
     <use xlink:href="#DejaVuSans-4d"/>
     <use xlink:href="#DejaVuSans-6f" transform="translate(86.279297 0)"/>
     <use xlink:href="#DejaVuSans-64" transform="translate(147.460938 0)"/>
     <use xlink:href="#DejaVuSans-65" transform="translate(210.9375 0)"/>
     <use xlink:href="#DejaVuSans-6c" transform="translate(272.460938 0)"/>
     <use xlink:href="#DejaVuSans-20" transform="translate(300.244141 0)"/>
     <use xlink:href="#DejaVuSans-6c" transform="translate(332.03125 0)"/>
     <use xlink:href="#DejaVuSans-69" transform="translate(359.814453 0)"/>
     <use xlink:href="#DejaVuSans-6d" transform="translate(387.597656 0)"/>
     <use xlink:href="#DejaVuSans-69" transform="translate(485.009766 0)"/>
     <use xlink:href="#DejaVuSans-74" transform="translate(512.792969 0)"/>
     <use xlink:href="#DejaVuSans-65" transform="translate(552.001953 0)"/>
     <use xlink:href="#DejaVuSans-64" transform="translate(613.525391 0)"/>
    </g>
   </g>
   <g id="text_31">
    <!-- σ = 0.001·A -->
    <g transform="translate(338.548438 226.434) scale(0.12 -0.12)">
     <use xlink:href="#DejaVuSans-3c3"/>
     <use xlink:href="#DejaVuSans-20" transform="translate(63.378906 0)"/>
     <use xlink:href="#DejaVuSans-3d" transform="translate(95.166016 0)"/>
     <use xlink:href="#DejaVuSans-20" transform="translate(178.955078 0)"/>
     <use xlink:href="#DejaVuSans-30" transform="translate(210.742188 0)"/>
     <use xlink:href="#DejaVuSans-2e" transform="translate(274.365234 0)"/>
     <use xlink:href="#DejaVuSans-30" transform="translate(306.152344 0)"/>
     <use xlink:href="#DejaVuSans-30" transform="translate(369.775391 0)"/>
     <use xlink:href="#DejaVuSans-31" transform="translate(433.398438 0)"/>
     <use xlink:href="#DejaVuSans-b7" transform="translate(497.021484 0)"/>
     <use xlink:href="#DejaVuSans-41" transform="translate(528.808594 0)"/>
    </g>
   </g>
  </g>
  <g id="text_32">
   <!-- SAMPLING correction importance vs N — rectangular window -->
   <g transform="translate(172.743125 16.318125) scale(0.12 -0.12)">
    <defs>
     <path id="DejaVuSans-53" d="M 3425 4513 
L 3425 3897 
Q 3066 4069 2747 4153 
Q 2428 4238 2131 4238 
Q 1616 4238 1336 4038 
Q 1056 3838 1056 3469 
Q 1056 3159 1242 3001 
Q 1428 2844 1947 2747 
L 2328 2669 
Q 3034 2534 3370 2195 
Q 3706 1856 3706 1288 
Q 3706 609 3251 259 
Q 2797 -91 1919 -91 
Q 1588 -91 1214 -16 
Q 841 59 441 206 
L 441 856 
Q 825 641 1194 531 
Q 1563 422 1919 422 
Q 2459 422 2753 634 
Q 3047 847 3047 1241 
Q 3047 1584 2836 1778 
Q 2625 1972 2144 2069 
L 1759 2144 
Q 1053 2284 737 2584 
Q 422 2884 422 3419 
Q 422 4038 858 4394 
Q 1294 4750 2059 4750 
Q 2388 4750 2728 4690 
Q 3069 4631 3425 4513 
z
" transform="scale(0.015625)"/>
     <path id="DejaVuSans-50" d="M 1259 4147 
L 1259 2394 
L 2053 2394 
Q 2494 2394 2734 2622 
Q 2975 2850 2975 3272 
Q 2975 3691 2734 3919 
Q 2494 4147 2053 4147 
L 1259 4147 
z
M 628 4666 
L 2053 4666 
Q 2838 4666 3239 4311 
Q 3641 3956 3641 3272 
Q 3641 2581 3239 2228 
Q 2838 1875 2053 1875 
L 1259 1875 
L 1259 0 
L 628 0 
L 628 4666 
z
" transform="scale(0.015625)"/>
     <path id="DejaVuSans-4c" d="M 628 4666 
L 1259 4666 
L 1259 531 
L 3531 531 
L 3531 0 
L 628 0 
L 628 4666 
z
" transform="scale(0.015625)"/>
     <path id="DejaVuSans-49" d="M 628 4666 
L 1259 4666 
L 1259 0 
L 628 0 
L 628 4666 
z
" transform="scale(0.015625)"/>
     <path id="DejaVuSans-47" d="M 3809 666 
L 3809 1919 
L 2778 1919 
L 2778 2438 
L 4434 2438 
L 4434 434 
Q 4069 175 3628 42 
Q 3188 -91 2688 -91 
Q 1594 -91 976 548 
Q 359 1188 359 2328 
Q 359 3472 976 4111 
Q 1594 4750 2688 4750 
Q 3144 4750 3555 4637 
Q 3966 4525 4313 4306 
L 4313 3634 
Q 3963 3931 3569 4081 
Q 3175 4231 2741 4231 
Q 1884 4231 1454 3753 
Q 1025 3275 1025 2328 
Q 1025 1384 1454 906 
Q 1884 428 2741 428 
Q 3075 428 3337 486 
Q 3600 544 3809 666 
z
" transform="scale(0.015625)"/>
     <path id="DejaVuSans-63" d="M 3122 3366 
L 3122 2828 
Q 2878 2963 2633 3030 
Q 2388 3097 2138 3097 
Q 1578 3097 1268 2742 
Q 959 2388 959 1747 
Q 959 1106 1268 751 
Q 1578 397 2138 397 
Q 2388 397 2633 464 
Q 2878 531 3122 666 
L 3122 134 
Q 2881 22 2623 -34 
Q 2366 -91 2075 -91 
Q 1284 -91 818 406 
Q 353 903 353 1747 
Q 353 2603 823 3093 
Q 1294 3584 2113 3584 
Q 2378 3584 2631 3529 
Q 2884 3475 3122 3366 
z
" transform="scale(0.015625)"/>
     <path id="DejaVuSans-76" d="M 191 3500 
L 800 3500 
L 1894 563 
L 2988 3500 
L 3597 3500 
L 2284 0 
L 1503 0 
L 191 3500 
z
" transform="scale(0.015625)"/>
     <path id="DejaVuSans-2014" d="M 313 1978 
L 6088 1978 
L 6088 1528 
L 313 1528 
L 313 1978 
z
" transform="scale(0.015625)"/>
     <path id="DejaVuSans-67" d="M 2906 1791 
Q 2906 2416 2648 2759 
Q 2391 3103 1925 3103 
Q 1463 3103 1205 2759 
Q 947 2416 947 1791 
Q 947 1169 1205 825 
Q 1463 481 1925 481 
Q 2391 481 2648 825 
Q 2906 1169 2906 1791 
z
M 3481 434 
Q 3481 -459 3084 -895 
Q 2688 -1331 1869 -1331 
Q 1566 -1331 1297 -1286 
Q 1028 -1241 775 -1147 
L 775 -588 
Q 1028 -725 1275 -790 
Q 1522 -856 1778 -856 
Q 2344 -856 2625 -561 
Q 2906 -266 2906 331 
L 2906 616 
Q 2728 306 2450 153 
Q 2172 0 1784 0 
Q 1141 0 747 490 
Q 353 981 353 1791 
Q 353 2603 747 3093 
Q 1141 3584 1784 3584 
Q 2172 3584 2450 3431 
Q 2728 3278 2906 2969 
L 2906 3500 
L 3481 3500 
L 3481 434 
z
" transform="scale(0.015625)"/>
    </defs>
    <use xlink:href="#DejaVuSans-53"/>
    <use xlink:href="#DejaVuSans-41" transform="translate(65.351562 0)"/>
    <use xlink:href="#DejaVuSans-4d" transform="translate(133.759766 0)"/>
    <use xlink:href="#DejaVuSans-50" transform="translate(220.039062 0)"/>
    <use xlink:href="#DejaVuSans-4c" transform="translate(280.341797 0)"/>
    <use xlink:href="#DejaVuSans-49" transform="translate(336.054688 0)"/>
    <use xlink:href="#DejaVuSans-4e" transform="translate(365.546875 0)"/>
    <use xlink:href="#DejaVuSans-47" transform="translate(440.351562 0)"/>
    <use xlink:href="#DejaVuSans-20" transform="translate(517.841797 0)"/>
    <use xlink:href="#DejaVuSans-63" transform="translate(549.628906 0)"/>
    <use xlink:href="#DejaVuSans-6f" transform="translate(604.609375 0)"/>
    <use xlink:href="#DejaVuSans-72" transform="translate(665.791016 0)"/>
    <use xlink:href="#DejaVuSans-72" transform="translate(705.154297 0)"/>
    <use xlink:href="#DejaVuSans-65" transform="translate(744.017578 0)"/>
    <use xlink:href="#DejaVuSans-63" transform="translate(805.541016 0)"/>
    <use xlink:href="#DejaVuSans-74" transform="translate(860.521484 0)"/>
    <use xlink:href="#DejaVuSans-69" transform="translate(899.730469 0)"/>
    <use xlink:href="#DejaVuSans-6f" transform="translate(927.513672 0)"/>
    <use xlink:href="#DejaVuSans-6e" transform="translate(988.695312 0)"/>
    <use xlink:href="#DejaVuSans-20" transform="translate(1052.074219 0)"/>
    <use xlink:href="#DejaVuSans-69" transform="translate(1083.861328 0)"/>
    <use xlink:href="#DejaVuSans-6d" transform="translate(1111.644531 0)"/>
    <use xlink:href="#DejaVuSans-70" transform="translate(1209.056641 0)"/>
    <use xlink:href="#DejaVuSans-6f" transform="translate(1272.533203 0)"/>
    <use xlink:href="#DejaVuSans-72" transform="translate(1333.714844 0)"/>
    <use xlink:href="#DejaVuSans-74" transform="translate(1374.828125 0)"/>
    <use xlink:href="#DejaVuSans-61" transform="translate(1414.037109 0)"/>
    <use xlink:href="#DejaVuSans-6e" transform="translate(1475.316406 0)"/>
    <use xlink:href="#DejaVuSans-63" transform="translate(1538.695312 0)"/>
    <use xlink:href="#DejaVuSans-65" transform="translate(1593.675781 0)"/>
    <use xlink:href="#DejaVuSans-20" transform="translate(1655.199219 0)"/>
    <use xlink:href="#DejaVuSans-76" transform="translate(1686.986328 0)"/>
    <use xlink:href="#DejaVuSans-73" transform="translate(1746.166016 0)"/>
    <use xlink:href="#DejaVuSans-20" transform="translate(1798.265625 0)"/>
    <use xlink:href="#DejaVuSans-4e" transform="translate(1830.052734 0)"/>
    <use xlink:href="#DejaVuSans-20" transform="translate(1904.857422 0)"/>
    <use xlink:href="#DejaVuSans-2014" transform="translate(1936.644531 0)"/>
    <use xlink:href="#DejaVuSans-20" transform="translate(2036.644531 0)"/>
    <use xlink:href="#DejaVuSans-72" transform="translate(2068.431641 0)"/>
    <use xlink:href="#DejaVuSans-65" transform="translate(2107.294922 0)"/>
    <use xlink:href="#DejaVuSans-63" transform="translate(2168.818359 0)"/>
    <use xlink:href="#DejaVuSans-74" transform="translate(2223.798828 0)"/>
    <use xlink:href="#DejaVuSans-61" transform="translate(2263.007812 0)"/>
    <use xlink:href="#DejaVuSans-6e" transform="translate(2324.287109 0)"/>
    <use xlink:href="#DejaVuSans-67" transform="translate(2387.666016 0)"/>
    <use xlink:href="#DejaVuSans-75" transform="translate(2451.142578 0)"/>
    <use xlink:href="#DejaVuSans-6c" transform="translate(2514.521484 0)"/>
    <use xlink:href="#DejaVuSans-61" transform="translate(2542.304688 0)"/>
    <use xlink:href="#DejaVuSans-72" transform="translate(2603.583984 0)"/>
    <use xlink:href="#DejaVuSans-20" transform="translate(2644.697266 0)"/>
    <use xlink:href="#DejaVuSans-77" transform="translate(2676.484375 0)"/>
    <use xlink:href="#DejaVuSans-69" transform="translate(2758.271484 0)"/>
    <use xlink:href="#DejaVuSans-6e" transform="translate(2786.054688 0)"/>
    <use xlink:href="#DejaVuSans-64" transform="translate(2849.433594 0)"/>
    <use xlink:href="#DejaVuSans-6f" transform="translate(2912.910156 0)"/>
    <use xlink:href="#DejaVuSans-77" transform="translate(2974.091797 0)"/>
   </g>
  </g>
 </g>
 <defs>
  <clipPath id="p0e85854218">
   <rect x="43.465625" y="49.2" width="661.83" height="156.354"/>
  </clipPath>
  <clipPath id="pe9a8c6b908">
   <rect x="43.465625" y="232.434" width="661.83" height="156.354"/>
  </clipPath>
 </defs>
</svg>
