<?xml version="1.0" encoding="utf-8" standalone="no"?>
<!DOCTYPE svg PUBLIC "-//W3C//DTD SVG 1.1//EN"
  "http://www.w3.org/Graphics/SVG/1.1/DTD/svg11.dtd">
<svg xmlns:xlink="http://www.w3.org/1999/xlink" width="711.781071pt" height="275.722375pt" viewBox="0 0 711.781071 275.722375" xmlns="http://www.w3.org/2000/svg" version="1.1">
 <metadata>
  <rdf:RDF xmlns:dc="http://purl.org/dc/elements/1.1/" xmlns:cc="http://creativecommons.org/ns#" xmlns:rdf="http://www.w3.org/1999/02/22-rdf-syntax-ns#">
   <cc:Work>
    <dc:type rdf:resource="http://purl.org/dc/dcmitype/StillImage"/>
    <dc:date>2026-04-06T12:44:20.813989</dc:date>
    <dc:format>image/svg+xml</dc:format>
    <dc:creator>
     <cc:Agent>
      <dc:title>Matplotlib v3.10.0, https://matplotlib.org/</dc:title>
     </cc:Agent>
    </dc:creator>
   </cc:Work>
  </rdf:RDF>
 </metadata>
 <defs>
  <style type="text/css">*{stroke-linejoin: round; stroke-linecap: butt}</style>
 </defs>
 <g id="figure_1">
  <g id="patch_1">
   <path d="M 0 275.722375 
L 711.781071 275.722375 
L 711.781071 0 
L 0 0 
z
" style="fill: #ffffff"/>
  </g>
  <g id="axes_1">
   <g id="patch_2">
    <path d="M 47.878125 241.666125 
L 704.581071 241.666125 
L 704.581071 22.318125 
L 47.878125 22.318125 
z
" style="fill: #ffffff"/>
   </g>
   <g id="matplotlib.axis_1">
    <g id="xtick_1">
     <g id="line2d_1">
      <path d="M 54.103947 241.666125 
L 54.103947 22.318125 
" clip-path="url(#p26887f6ec7)" style="fill: none; stroke: #b0b0b0; stroke-opacity: 0.3; stroke-width: 0.8; stroke-linecap: square"/>
     </g>
     <g id="line2d_2">
      <defs>
       <path id="me06b456a55" d="M 0 0 
L 0 -3.5 
" style="stroke: #000000; stroke-width: 0.8"/>
      </defs>
      <g>
       <use xlink:href="#me06b456a55" x="54.103947" y="241.666125" style="stroke: #000000; stroke-width: 0.8"/>
      </g>
     </g>
     <g id="text_1">
      <!-- $\mathdefault{10^{2}}$ -->
      <g transform="translate(45.303947 252.764563) scale(0.1 -0.1)">
       <defs>
        <path id="DejaVuSans-31" d="M 794 531 
L 1825 531 
L 1825 4091 
L 703 3866 
L 703 4441 
L 1819 4666 
L 2450 4666 
L 2450 531 
L 3481 531 
L 3481 0 
L 794 0 
L 794 531 
z
" transform="scale(0.015625)"/>
        <path id="DejaVuSans-30" d="M 2034 4250 
Q 1547 4250 1301 3770 
Q 1056 3291 1056 2328 
Q 1056 1369 1301 889 
Q 1547 409 2034 409 
Q 2525 409 2770 889 
Q 3016 1369 3016 2328 
Q 3016 3291 2770 3770 
Q 2525 4250 2034 4250 
z
M 2034 4750 
Q 2819 4750 3233 4129 
Q 3647 3509 3647 2328 
Q 3647 1150 3233 529 
Q 2819 -91 2034 -91 
Q 1250 -91 836 529 
Q 422 1150 422 2328 
Q 422 3509 836 4129 
Q 1250 4750 2034 4750 
z
" transform="scale(0.015625)"/>
        <path id="DejaVuSans-32" d="M 1228 531 
L 3431 531 
L 3431 0 
L 469 0 
L 469 531 
Q 828 903 1448 1529 
Q 2069 2156 2228 2338 
Q 2531 2678 2651 2914 
Q 2772 3150 2772 3378 
Q 2772 3750 2511 3984 
Q 2250 4219 1831 4219 
Q 1534 4219 1204 4116 
Q 875 4013 500 3803 
L 500 4441 
Q 881 4594 1212 4672 
Q 1544 4750 1819 4750 
Q 2544 4750 2975 4387 
Q 3406 4025 3406 3419 
Q 3406 3131 3298 2873 
Q 3191 2616 2906 2266 
Q 2828 2175 2409 1742 
Q 1991 1309 1228 531 
z
" transform="scale(0.015625)"/>
       </defs>
       <use xlink:href="#DejaVuSans-31" transform="translate(0 0.765625)"/>
       <use xlink:href="#DejaVuSans-30" transform="translate(63.623047 0.765625)"/>
       <use xlink:href="#DejaVuSans-32" transform="translate(128.203125 39.046875) scale(0.7)"/>
      </g>
     </g>
    </g>
    <g id="xtick_2">
     <g id="line2d_3">
      <path d="M 274.459499 241.666125 
L 274.459499 22.318125 
" clip-path="url(#p26887f6ec7)" style="fill: none; stroke: #b0b0b0; stroke-opacity: 0.3; stroke-width: 0.8; stroke-linecap: square"/>
     </g>
     <g id="line2d_4">
      <g>
       <use xlink:href="#me06b456a55" x="274.459499" y="241.666125" style="stroke: #000000; stroke-width: 0.8"/>
      </g>
     </g>
     <g id="text_2">
      <!-- $\mathdefault{10^{3}}$ -->
      <g transform="translate(265.659499 252.764563) scale(0.1 -0.1)">
       <defs>
        <path id="DejaVuSans-33" d="M 2597 2516 
Q 3050 2419 3304 2112 
Q 3559 1806 3559 1356 
Q 3559 666 3084 287 
Q 2609 -91 1734 -91 
Q 1441 -91 1130 -33 
Q 819 25 488 141 
L 488 750 
Q 750 597 1062 519 
Q 1375 441 1716 441 
Q 2309 441 2620 675 
Q 2931 909 2931 1356 
Q 2931 1769 2642 2001 
Q 2353 2234 1838 2234 
L 1294 2234 
L 1294 2753 
L 1863 2753 
Q 2328 2753 2575 2939 
Q 2822 3125 2822 3475 
Q 2822 3834 2567 4026 
Q 2313 4219 1838 4219 
Q 1578 4219 1281 4162 
Q 984 4106 628 3988 
L 628 4550 
Q 988 4650 1302 4700 
Q 1616 4750 1894 4750 
Q 2613 4750 3031 4423 
Q 3450 4097 3450 3541 
Q 3450 3153 3228 2886 
Q 3006 2619 2597 2516 
z
" transform="scale(0.015625)"/>
       </defs>
       <use xlink:href="#DejaVuSans-31" transform="translate(0 0.765625)"/>
       <use xlink:href="#DejaVuSans-30" transform="translate(63.623047 0.765625)"/>
       <use xlink:href="#DejaVuSans-33" transform="translate(128.203125 39.046875) scale(0.7)"/>
      </g>
     </g>
    </g>
    <g id="xtick_3">
     <g id="line2d_5">
      <path d="M 494.815051 241.666125 
L 494.815051 22.318125 
" clip-path="url(#p26887f6ec7)" style="fill: none; stroke: #b0b0b0; stroke-opacity: 0.3; stroke-width: 0.8; stroke-linecap: square"/>
     </g>
     <g id="line2d_6">
      <g>
       <use xlink:href="#me06b456a55" x="494.815051" y="241.666125" style="stroke: #000000; stroke-width: 0.8"/>
      </g>
     </g>
     <g id="text_3">
      <!-- $\mathdefault{10^{4}}$ -->
      <g transform="translate(486.015051 252.764563) scale(0.1 -0.1)">
       <defs>
        <path id="DejaVuSans-34" d="M 2419 4116 
L 825 1625 
L 2419 1625 
L 2419 4116 
z
M 2253 4666 
L 3047 4666 
L 3047 1625 
L 3713 1625 
L 3713 1100 
L 3047 1100 
L 3047 0 
L 2419 0 
L 2419 1100 
L 313 1100 
L 313 1709 
L 2253 4666 
z
" transform="scale(0.015625)"/>
       </defs>
       <use xlink:href="#DejaVuSans-31" transform="translate(0 0.684375)"/>
       <use xlink:href="#DejaVuSans-30" transform="translate(63.623047 0.684375)"/>
       <use xlink:href="#DejaVuSans-34" transform="translate(128.203125 38.965625) scale(0.7)"/>
      </g>
     </g>
    </g>
    <g id="xtick_4">
     <g id="line2d_7">
      <defs>
       <path id="m2c5840ea22" d="M 0 0 
L 0 -2 
" style="stroke: #000000; stroke-width: 0.6"/>
      </defs>
      <g>
       <use xlink:href="#m2c5840ea22" x="120.437578" y="241.666125" style="stroke: #000000; stroke-width: 0.6"/>
      </g>
     </g>
    </g>
    <g id="xtick_5">
     <g id="line2d_8">
      <g>
       <use xlink:href="#m2c5840ea22" x="159.240264" y="241.666125" style="stroke: #000000; stroke-width: 0.6"/>
      </g>
     </g>
    </g>
    <g id="xtick_6">
     <g id="line2d_9">
      <g>
       <use xlink:href="#m2c5840ea22" x="186.771209" y="241.666125" style="stroke: #000000; stroke-width: 0.6"/>
      </g>
     </g>
    </g>
    <g id="xtick_7">
     <g id="line2d_10">
      <g>
       <use xlink:href="#m2c5840ea22" x="208.125868" y="241.666125" style="stroke: #000000; stroke-width: 0.6"/>
      </g>
     </g>
    </g>
    <g id="xtick_8">
     <g id="line2d_11">
      <g>
       <use xlink:href="#m2c5840ea22" x="225.573895" y="241.666125" style="stroke: #000000; stroke-width: 0.6"/>
      </g>
     </g>
    </g>
    <g id="xtick_9">
     <g id="line2d_12">
      <g>
       <use xlink:href="#m2c5840ea22" x="240.325992" y="241.666125" style="stroke: #000000; stroke-width: 0.6"/>
      </g>
     </g>
    </g>
    <g id="xtick_10">
     <g id="line2d_13">
      <g>
       <use xlink:href="#m2c5840ea22" x="253.10484" y="241.666125" style="stroke: #000000; stroke-width: 0.6"/>
      </g>
     </g>
    </g>
    <g id="xtick_11">
     <g id="line2d_14">
      <g>
       <use xlink:href="#m2c5840ea22" x="264.376582" y="241.666125" style="stroke: #000000; stroke-width: 0.6"/>
      </g>
     </g>
    </g>
    <g id="xtick_12">
     <g id="line2d_15">
      <g>
       <use xlink:href="#m2c5840ea22" x="340.79313" y="241.666125" style="stroke: #000000; stroke-width: 0.6"/>
      </g>
     </g>
    </g>
    <g id="xtick_13">
     <g id="line2d_16">
      <g>
       <use xlink:href="#m2c5840ea22" x="379.595817" y="241.666125" style="stroke: #000000; stroke-width: 0.6"/>
      </g>
     </g>
    </g>
    <g id="xtick_14">
     <g id="line2d_17">
      <g>
       <use xlink:href="#m2c5840ea22" x="407.126761" y="241.666125" style="stroke: #000000; stroke-width: 0.6"/>
      </g>
     </g>
    </g>
    <g id="xtick_15">
     <g id="line2d_18">
      <g>
       <use xlink:href="#m2c5840ea22" x="428.48142" y="241.666125" style="stroke: #000000; stroke-width: 0.6"/>
      </g>
     </g>
    </g>
    <g id="xtick_16">
     <g id="line2d_19">
      <g>
       <use xlink:href="#m2c5840ea22" x="445.929447" y="241.666125" style="stroke: #000000; stroke-width: 0.6"/>
      </g>
     </g>
    </g>
    <g id="xtick_17">
     <g id="line2d_20">
      <g>
       <use xlink:href="#m2c5840ea22" x="460.681544" y="241.666125" style="stroke: #000000; stroke-width: 0.6"/>
      </g>
     </g>
    </g>
    <g id="xtick_18">
     <g id="line2d_21">
      <g>
       <use xlink:href="#m2c5840ea22" x="473.460392" y="241.666125" style="stroke: #000000; stroke-width: 0.6"/>
      </g>
     </g>
    </g>
    <g id="xtick_19">
     <g id="line2d_22">
      <g>
       <use xlink:href="#m2c5840ea22" x="484.732134" y="241.666125" style="stroke: #000000; stroke-width: 0.6"/>
      </g>
     </g>
    </g>
    <g id="xtick_20">
     <g id="line2d_23">
      <g>
       <use xlink:href="#m2c5840ea22" x="561.148682" y="241.666125" style="stroke: #000000; stroke-width: 0.6"/>
      </g>
     </g>
    </g>
    <g id="xtick_21">
     <g id="line2d_24">
      <g>
       <use xlink:href="#m2c5840ea22" x="599.951369" y="241.666125" style="stroke: #000000; stroke-width: 0.6"/>
      </g>
     </g>
    </g>
    <g id="xtick_22">
     <g id="line2d_25">
      <g>
       <use xlink:href="#m2c5840ea22" x="627.482313" y="241.666125" style="stroke: #000000; stroke-width: 0.6"/>
      </g>
     </g>
    </g>
    <g id="xtick_23">
     <g id="line2d_26">
      <g>
       <use xlink:href="#m2c5840ea22" x="648.836972" y="241.666125" style="stroke: #000000; stroke-width: 0.6"/>
      </g>
     </g>
    </g>
    <g id="xtick_24">
     <g id="line2d_27">
      <g>
       <use xlink:href="#m2c5840ea22" x="666.285" y="241.666125" style="stroke: #000000; stroke-width: 0.6"/>
      </g>
     </g>
    </g>
    <g id="xtick_25">
     <g id="line2d_28">
      <g>
       <use xlink:href="#m2c5840ea22" x="681.037096" y="241.666125" style="stroke: #000000; stroke-width: 0.6"/>
      </g>
     </g>
    </g>
    <g id="xtick_26">
     <g id="line2d_29">
      <g>
       <use xlink:href="#m2c5840ea22" x="693.815944" y="241.666125" style="stroke: #000000; stroke-width: 0.6"/>
      </g>
     </g>
    </g>
    <g id="text_4">
     <!-- N (samples) -->
     <g transform="translate(346.214754 266.442687) scale(0.1 -0.1)">
      <defs>
       <path id="DejaVuSans-4e" d="M 628 4666 
L 1478 4666 
L 3547 763 
L 3547 4666 
L 4159 4666 
L 4159 0 
L 3309 0 
L 1241 3903 
L 1241 0 
L 628 0 
L 628 4666 
z
" transform="scale(0.015625)"/>
       <path id="DejaVuSans-20" transform="scale(0.015625)"/>
       <path id="DejaVuSans-28" d="M 1984 4856 
Q 1566 4138 1362 3434 
Q 1159 2731 1159 2009 
Q 1159 1288 1364 580 
Q 1569 -128 1984 -844 
L 1484 -844 
Q 1016 -109 783 600 
Q 550 1309 550 2009 
Q 550 2706 781 3412 
Q 1013 4119 1484 4856 
L 1984 4856 
z
" transform="scale(0.015625)"/>
       <path id="DejaVuSans-73" d="M 2834 3397 
L 2834 2853 
Q 2591 2978 2328 3040 
Q 2066 3103 1784 3103 
Q 1356 3103 1142 2972 
Q 928 2841 928 2578 
Q 928 2378 1081 2264 
Q 1234 2150 1697 2047 
L 1894 2003 
Q 2506 1872 2764 1633 
Q 3022 1394 3022 966 
Q 3022 478 2636 193 
Q 2250 -91 1575 -91 
Q 1294 -91 989 -36 
Q 684 19 347 128 
L 347 722 
Q 666 556 975 473 
Q 1284 391 1588 391 
Q 1994 391 2212 530 
Q 2431 669 2431 922 
Q 2431 1156 2273 1281 
Q 2116 1406 1581 1522 
L 1381 1569 
Q 847 1681 609 1914 
Q 372 2147 372 2553 
Q 372 3047 722 3315 
Q 1072 3584 1716 3584 
Q 2034 3584 2315 3537 
Q 2597 3491 2834 3397 
z
" transform="scale(0.015625)"/>
       <path id="DejaVuSans-61" d="M 2194 1759 
Q 1497 1759 1228 1600 
Q 959 1441 959 1056 
Q 959 750 1161 570 
Q 1363 391 1709 391 
Q 2188 391 2477 730 
Q 2766 1069 2766 1631 
L 2766 1759 
L 2194 1759 
z
M 3341 1997 
L 3341 0 
L 2766 0 
L 2766 531 
Q 2569 213 2275 61 
Q 1981 -91 1556 -91 
Q 1019 -91 701 211 
Q 384 513 384 1019 
Q 384 1609 779 1909 
Q 1175 2209 1959 2209 
L 2766 2209 
L 2766 2266 
Q 2766 2663 2505 2880 
Q 2244 3097 1772 3097 
Q 1472 3097 1187 3025 
Q 903 2953 641 2809 
L 641 3341 
Q 956 3463 1253 3523 
Q 1550 3584 1831 3584 
Q 2591 3584 2966 3190 
Q 3341 2797 3341 1997 
z
" transform="scale(0.015625)"/>
       <path id="DejaVuSans-6d" d="M 3328 2828 
Q 3544 3216 3844 3400 
Q 4144 3584 4550 3584 
Q 5097 3584 5394 3201 
Q 5691 2819 5691 2113 
L 5691 0 
L 5113 0 
L 5113 2094 
Q 5113 2597 4934 2840 
Q 4756 3084 4391 3084 
Q 3944 3084 3684 2787 
Q 3425 2491 3425 1978 
L 3425 0 
L 2847 0 
L 2847 2094 
Q 2847 2600 2669 2842 
Q 2491 3084 2119 3084 
Q 1678 3084 1418 2786 
Q 1159 2488 1159 1978 
L 1159 0 
L 581 0 
L 581 3500 
L 1159 3500 
L 1159 2956 
Q 1356 3278 1631 3431 
Q 1906 3584 2284 3584 
Q 2666 3584 2933 3390 
Q 3200 3197 3328 2828 
z
" transform="scale(0.015625)"/>
       <path id="DejaVuSans-70" d="M 1159 525 
L 1159 -1331 
L 581 -1331 
L 581 3500 
L 1159 3500 
L 1159 2969 
Q 1341 3281 1617 3432 
Q 1894 3584 2278 3584 
Q 2916 3584 3314 3078 
Q 3713 2572 3713 1747 
Q 3713 922 3314 415 
Q 2916 -91 2278 -91 
Q 1894 -91 1617 61 
Q 1341 213 1159 525 
z
M 3116 1747 
Q 3116 2381 2855 2742 
Q 2594 3103 2138 3103 
Q 1681 3103 1420 2742 
Q 1159 2381 1159 1747 
Q 1159 1113 1420 752 
Q 1681 391 2138 391 
Q 2594 391 2855 752 
Q 3116 1113 3116 1747 
z
" transform="scale(0.015625)"/>
       <path id="DejaVuSans-6c" d="M 603 4863 
L 1178 4863 
L 1178 0 
L 603 0 
L 603 4863 
z
" transform="scale(0.015625)"/>
       <path id="DejaVuSans-65" d="M 3597 1894 
L 3597 1613 
L 953 1613 
Q 991 1019 1311 708 
Q 1631 397 2203 397 
Q 2534 397 2845 478 
Q 3156 559 3463 722 
L 3463 178 
Q 3153 47 2828 -22 
Q 2503 -91 2169 -91 
Q 1331 -91 842 396 
Q 353 884 353 1716 
Q 353 2575 817 3079 
Q 1281 3584 2069 3584 
Q 2775 3584 3186 3129 
Q 3597 2675 3597 1894 
z
M 3022 2063 
Q 3016 2534 2758 2815 
Q 2500 3097 2075 3097 
Q 1594 3097 1305 2825 
Q 1016 2553 972 2059 
L 3022 2063 
z
" transform="scale(0.015625)"/>
       <path id="DejaVuSans-29" d="M 513 4856 
L 1013 4856 
Q 1481 4119 1714 3412 
Q 1947 2706 1947 2009 
Q 1947 1309 1714 600 
Q 1481 -109 1013 -844 
L 513 -844 
Q 928 -128 1133 580 
Q 1338 1288 1338 2009 
Q 1338 2731 1133 3434 
Q 928 4138 513 4856 
z
" transform="scale(0.015625)"/>
      </defs>
      <use xlink:href="#DejaVuSans-4e"/>
      <use xlink:href="#DejaVuSans-20" transform="translate(74.804688 0)"/>
      <use xlink:href="#DejaVuSans-28" transform="translate(106.591797 0)"/>
      <use xlink:href="#DejaVuSans-73" transform="translate(145.605469 0)"/>
      <use xlink:href="#DejaVuSans-61" transform="translate(197.705078 0)"/>
      <use xlink:href="#DejaVuSans-6d" transform="translate(258.984375 0)"/>
      <use xlink:href="#DejaVuSans-70" transform="translate(356.396484 0)"/>
      <use xlink:href="#DejaVuSans-6c" transform="translate(419.873047 0)"/>
      <use xlink:href="#DejaVuSans-65" transform="translate(447.65625 0)"/>
      <use xlink:href="#DejaVuSans-73" transform="translate(509.179688 0)"/>
      <use xlink:href="#DejaVuSans-29" transform="translate(561.279297 0)"/>
     </g>
    </g>
   </g>
   <g id="matplotlib.axis_2">
    <g id="ytick_1">
     <g id="line2d_30">
      <path d="M 47.878125 209.111294 
L 704.581071 209.111294 
" clip-path="url(#p26887f6ec7)" style="fill: none; stroke: #b0b0b0; stroke-opacity: 0.3; stroke-width: 0.8; stroke-linecap: square"/>
     </g>
     <g id="line2d_31">
      <defs>
       <path id="m2ef460dd9b" d="M 0 0 
L 3.5 0 
" style="stroke: #000000; stroke-width: 0.8"/>
      </defs>
      <g>
       <use xlink:href="#m2ef460dd9b" x="47.878125" y="209.111294" style="stroke: #000000; stroke-width: 0.8"/>
      </g>
     </g>
     <g id="text_5">
      <!-- $\mathdefault{10^{-4}}$ -->
      <g transform="translate(20.878125 212.910513) scale(0.1 -0.1)">
       <defs>
        <path id="DejaVuSans-2212" d="M 678 2272 
L 4684 2272 
L 4684 1741 
L 678 1741 
L 678 2272 
z
" transform="scale(0.015625)"/>
       </defs>
       <use xlink:href="#DejaVuSans-31" transform="translate(0 0.684375)"/>
       <use xlink:href="#DejaVuSans-30" transform="translate(63.623047 0.684375)"/>
       <use xlink:href="#DejaVuSans-2212" transform="translate(128.203125 38.965625) scale(0.7)"/>
       <use xlink:href="#DejaVuSans-34" transform="translate(186.855469 38.965625) scale(0.7)"/>
      </g>
     </g>
    </g>
    <g id="ytick_2">
     <g id="line2d_32">
      <path d="M 47.878125 157.313379 
L 704.581071 157.313379 
" clip-path="url(#p26887f6ec7)" style="fill: none; stroke: #b0b0b0; stroke-opacity: 0.3; stroke-width: 0.8; stroke-linecap: square"/>
     </g>
     <g id="line2d_33">
      <g>
       <use xlink:href="#m2ef460dd9b" x="47.878125" y="157.313379" style="stroke: #000000; stroke-width: 0.8"/>
      </g>
     </g>
     <g id="text_6">
      <!-- $\mathdefault{10^{-3}}$ -->
      <g transform="translate(20.878125 161.112597) scale(0.1 -0.1)">
       <use xlink:href="#DejaVuSans-31" transform="translate(0 0.765625)"/>
       <use xlink:href="#DejaVuSans-30" transform="translate(63.623047 0.765625)"/>
       <use xlink:href="#DejaVuSans-2212" transform="translate(128.203125 39.046875) scale(0.7)"/>
       <use xlink:href="#DejaVuSans-33" transform="translate(186.855469 39.046875) scale(0.7)"/>
      </g>
     </g>
    </g>
    <g id="ytick_3">
     <g id="line2d_34">
      <path d="M 47.878125 105.515463 
L 704.581071 105.515463 
" clip-path="url(#p26887f6ec7)" style="fill: none; stroke: #b0b0b0; stroke-opacity: 0.3; stroke-width: 0.8; stroke-linecap: square"/>
     </g>
     <g id="line2d_35">
      <g>
       <use xlink:href="#m2ef460dd9b" x="47.878125" y="105.515463" style="stroke: #000000; stroke-width: 0.8"/>
      </g>
     </g>
     <g id="text_7">
      <!-- $\mathdefault{10^{-2}}$ -->
      <g transform="translate(20.878125 109.314682) scale(0.1 -0.1)">
       <use xlink:href="#DejaVuSans-31" transform="translate(0 0.765625)"/>
       <use xlink:href="#DejaVuSans-30" transform="translate(63.623047 0.765625)"/>
       <use xlink:href="#DejaVuSans-2212" transform="translate(128.203125 39.046875) scale(0.7)"/>
       <use xlink:href="#DejaVuSans-32" transform="translate(186.855469 39.046875) scale(0.7)"/>
      </g>
     </g>
    </g>
    <g id="ytick_4">
     <g id="line2d_36">
      <path d="M 47.878125 53.717548 
L 704.581071 53.717548 
" clip-path="url(#p26887f6ec7)" style="fill: none; stroke: #b0b0b0; stroke-opacity: 0.3; stroke-width: 0.8; stroke-linecap: square"/>
     </g>
     <g id="line2d_37">
      <g>
       <use xlink:href="#m2ef460dd9b" x="47.878125" y="53.717548" style="stroke: #000000; stroke-width: 0.8"/>
      </g>
     </g>
     <g id="text_8">
      <!-- $\mathdefault{10^{-1}}$ -->
      <g transform="translate(20.878125 57.516766) scale(0.1 -0.1)">
       <use xlink:href="#DejaVuSans-31" transform="translate(0 0.684375)"/>
       <use xlink:href="#DejaVuSans-30" transform="translate(63.623047 0.684375)"/>
       <use xlink:href="#DejaVuSans-2212" transform="translate(128.203125 38.965625) scale(0.7)"/>
       <use xlink:href="#DejaVuSans-31" transform="translate(186.855469 38.965625) scale(0.7)"/>
      </g>
     </g>
    </g>
    <g id="ytick_5">
     <g id="line2d_38">
      <defs>
       <path id="mb16c5828bf" d="M 0 0 
L 2 0 
" style="stroke: #000000; stroke-width: 0.6"/>
      </defs>
      <g>
       <use xlink:href="#mb16c5828bf" x="47.878125" y="236.195323" style="stroke: #000000; stroke-width: 0.6"/>
      </g>
     </g>
    </g>
    <g id="ytick_6">
     <g id="line2d_39">
      <g>
       <use xlink:href="#mb16c5828bf" x="47.878125" y="229.723757" style="stroke: #000000; stroke-width: 0.6"/>
      </g>
     </g>
    </g>
    <g id="ytick_7">
     <g id="line2d_40">
      <g>
       <use xlink:href="#mb16c5828bf" x="47.878125" y="224.70402" style="stroke: #000000; stroke-width: 0.6"/>
      </g>
     </g>
    </g>
    <g id="ytick_8">
     <g id="line2d_41">
      <g>
       <use xlink:href="#mb16c5828bf" x="47.878125" y="220.602597" style="stroke: #000000; stroke-width: 0.6"/>
      </g>
     </g>
    </g>
    <g id="ytick_9">
     <g id="line2d_42">
      <g>
       <use xlink:href="#mb16c5828bf" x="47.878125" y="217.134893" style="stroke: #000000; stroke-width: 0.6"/>
      </g>
     </g>
    </g>
    <g id="ytick_10">
     <g id="line2d_43">
      <g>
       <use xlink:href="#mb16c5828bf" x="47.878125" y="214.131031" style="stroke: #000000; stroke-width: 0.6"/>
      </g>
     </g>
    </g>
    <g id="ytick_11">
     <g id="line2d_44">
      <g>
       <use xlink:href="#mb16c5828bf" x="47.878125" y="211.481437" style="stroke: #000000; stroke-width: 0.6"/>
      </g>
     </g>
    </g>
    <g id="ytick_12">
     <g id="line2d_45">
      <g>
       <use xlink:href="#mb16c5828bf" x="47.878125" y="193.518568" style="stroke: #000000; stroke-width: 0.6"/>
      </g>
     </g>
    </g>
    <g id="ytick_13">
     <g id="line2d_46">
      <g>
       <use xlink:href="#mb16c5828bf" x="47.878125" y="184.397408" style="stroke: #000000; stroke-width: 0.6"/>
      </g>
     </g>
    </g>
    <g id="ytick_14">
     <g id="line2d_47">
      <g>
       <use xlink:href="#mb16c5828bf" x="47.878125" y="177.925842" style="stroke: #000000; stroke-width: 0.6"/>
      </g>
     </g>
    </g>
    <g id="ytick_15">
     <g id="line2d_48">
      <g>
       <use xlink:href="#mb16c5828bf" x="47.878125" y="172.906105" style="stroke: #000000; stroke-width: 0.6"/>
      </g>
     </g>
    </g>
    <g id="ytick_16">
     <g id="line2d_49">
      <g>
       <use xlink:href="#mb16c5828bf" x="47.878125" y="168.804681" style="stroke: #000000; stroke-width: 0.6"/>
      </g>
     </g>
    </g>
    <g id="ytick_17">
     <g id="line2d_50">
      <g>
       <use xlink:href="#mb16c5828bf" x="47.878125" y="165.336977" style="stroke: #000000; stroke-width: 0.6"/>
      </g>
     </g>
    </g>
    <g id="ytick_18">
     <g id="line2d_51">
      <g>
       <use xlink:href="#mb16c5828bf" x="47.878125" y="162.333115" style="stroke: #000000; stroke-width: 0.6"/>
      </g>
     </g>
    </g>
    <g id="ytick_19">
     <g id="line2d_52">
      <g>
       <use xlink:href="#mb16c5828bf" x="47.878125" y="159.683521" style="stroke: #000000; stroke-width: 0.6"/>
      </g>
     </g>
    </g>
    <g id="ytick_20">
     <g id="line2d_53">
      <g>
       <use xlink:href="#mb16c5828bf" x="47.878125" y="141.720652" style="stroke: #000000; stroke-width: 0.6"/>
      </g>
     </g>
    </g>
    <g id="ytick_21">
     <g id="line2d_54">
      <g>
       <use xlink:href="#mb16c5828bf" x="47.878125" y="132.599492" style="stroke: #000000; stroke-width: 0.6"/>
      </g>
     </g>
    </g>
    <g id="ytick_22">
     <g id="line2d_55">
      <g>
       <use xlink:href="#mb16c5828bf" x="47.878125" y="126.127926" style="stroke: #000000; stroke-width: 0.6"/>
      </g>
     </g>
    </g>
    <g id="ytick_23">
     <g id="line2d_56">
      <g>
       <use xlink:href="#mb16c5828bf" x="47.878125" y="121.108189" style="stroke: #000000; stroke-width: 0.6"/>
      </g>
     </g>
    </g>
    <g id="ytick_24">
     <g id="line2d_57">
      <g>
       <use xlink:href="#mb16c5828bf" x="47.878125" y="117.006766" style="stroke: #000000; stroke-width: 0.6"/>
      </g>
     </g>
    </g>
    <g id="ytick_25">
     <g id="line2d_58">
      <g>
       <use xlink:href="#mb16c5828bf" x="47.878125" y="113.539062" style="stroke: #000000; stroke-width: 0.6"/>
      </g>
     </g>
    </g>
    <g id="ytick_26">
     <g id="line2d_59">
      <g>
       <use xlink:href="#mb16c5828bf" x="47.878125" y="110.5352" style="stroke: #000000; stroke-width: 0.6"/>
      </g>
     </g>
    </g>
    <g id="ytick_27">
     <g id="line2d_60">
      <g>
       <use xlink:href="#mb16c5828bf" x="47.878125" y="107.885606" style="stroke: #000000; stroke-width: 0.6"/>
      </g>
     </g>
    </g>
    <g id="ytick_28">
     <g id="line2d_61">
      <g>
       <use xlink:href="#mb16c5828bf" x="47.878125" y="89.922737" style="stroke: #000000; stroke-width: 0.6"/>
      </g>
     </g>
    </g>
    <g id="ytick_29">
     <g id="line2d_62">
      <g>
       <use xlink:href="#mb16c5828bf" x="47.878125" y="80.801577" style="stroke: #000000; stroke-width: 0.6"/>
      </g>
     </g>
    </g>
    <g id="ytick_30">
     <g id="line2d_63">
      <g>
       <use xlink:href="#mb16c5828bf" x="47.878125" y="74.33001" style="stroke: #000000; stroke-width: 0.6"/>
      </g>
     </g>
    </g>
    <g id="ytick_31">
     <g id="line2d_64">
      <g>
       <use xlink:href="#mb16c5828bf" x="47.878125" y="69.310274" style="stroke: #000000; stroke-width: 0.6"/>
      </g>
     </g>
    </g>
    <g id="ytick_32">
     <g id="line2d_65">
      <g>
       <use xlink:href="#mb16c5828bf" x="47.878125" y="65.20885" style="stroke: #000000; stroke-width: 0.6"/>
      </g>
     </g>
    </g>
    <g id="ytick_33">
     <g id="line2d_66">
      <g>
       <use xlink:href="#mb16c5828bf" x="47.878125" y="61.741146" style="stroke: #000000; stroke-width: 0.6"/>
      </g>
     </g>
    </g>
    <g id="ytick_34">
     <g id="line2d_67">
      <g>
       <use xlink:href="#mb16c5828bf" x="47.878125" y="58.737284" style="stroke: #000000; stroke-width: 0.6"/>
      </g>
     </g>
    </g>
    <g id="ytick_35">
     <g id="line2d_68">
      <g>
       <use xlink:href="#mb16c5828bf" x="47.878125" y="56.08769" style="stroke: #000000; stroke-width: 0.6"/>
      </g>
     </g>
    </g>
    <g id="ytick_36">
     <g id="line2d_69">
      <g>
       <use xlink:href="#mb16c5828bf" x="47.878125" y="38.124821" style="stroke: #000000; stroke-width: 0.6"/>
      </g>
     </g>
    </g>
    <g id="ytick_37">
     <g id="line2d_70">
      <g>
       <use xlink:href="#mb16c5828bf" x="47.878125" y="29.003661" style="stroke: #000000; stroke-width: 0.6"/>
      </g>
     </g>
    </g>
    <g id="ytick_38">
     <g id="line2d_71">
      <g>
       <use xlink:href="#mb16c5828bf" x="47.878125" y="22.532095" style="stroke: #000000; stroke-width: 0.6"/>
      </g>
     </g>
    </g>
    <g id="text_9">
     <!-- RMS residual / Amplitude (V/V) -->
     <g transform="translate(14.798438 208.853844) rotate(-90) scale(0.1 -0.1)">
      <defs>
       <path id="DejaVuSans-52" d="M 2841 2188 
Q 3044 2119 3236 1894 
Q 3428 1669 3622 1275 
L 4263 0 
L 3584 0 
L 2988 1197 
Q 2756 1666 2539 1819 
Q 2322 1972 1947 1972 
L 1259 1972 
L 1259 0 
L 628 0 
L 628 4666 
L 2053 4666 
Q 2853 4666 3247 4331 
Q 3641 3997 3641 3322 
Q 3641 2881 3436 2590 
Q 3231 2300 2841 2188 
z
M 1259 4147 
L 1259 2491 
L 2053 2491 
Q 2509 2491 2742 2702 
Q 2975 2913 2975 3322 
Q 2975 3731 2742 3939 
Q 2509 4147 2053 4147 
L 1259 4147 
z
" transform="scale(0.015625)"/>
       <path id="DejaVuSans-4d" d="M 628 4666 
L 1569 4666 
L 2759 1491 
L 3956 4666 
L 4897 4666 
L 4897 0 
L 4281 0 
L 4281 4097 
L 3078 897 
L 2444 897 
L 1241 4097 
L 1241 0 
L 628 0 
L 628 4666 
z
" transform="scale(0.015625)"/>
       <path id="DejaVuSans-53" d="M 3425 4513 
L 3425 3897 
Q 3066 4069 2747 4153 
Q 2428 4238 2131 4238 
Q 1616 4238 1336 4038 
Q 1056 3838 1056 3469 
Q 1056 3159 1242 3001 
Q 1428 2844 1947 2747 
L 2328 2669 
Q 3034 2534 3370 2195 
Q 3706 1856 3706 1288 
Q 3706 609 3251 259 
Q 2797 -91 1919 -91 
Q 1588 -91 1214 -16 
Q 841 59 441 206 
L 441 856 
Q 825 641 1194 531 
Q 1563 422 1919 422 
Q 2459 422 2753 634 
Q 3047 847 3047 1241 
Q 3047 1584 2836 1778 
Q 2625 1972 2144 2069 
L 1759 2144 
Q 1053 2284 737 2584 
Q 422 2884 422 3419 
Q 422 4038 858 4394 
Q 1294 4750 2059 4750 
Q 2388 4750 2728 4690 
Q 3069 4631 3425 4513 
z
" transform="scale(0.015625)"/>
       <path id="DejaVuSans-72" d="M 2631 2963 
Q 2534 3019 2420 3045 
Q 2306 3072 2169 3072 
Q 1681 3072 1420 2755 
Q 1159 2438 1159 1844 
L 1159 0 
L 581 0 
L 581 3500 
L 1159 3500 
L 1159 2956 
Q 1341 3275 1631 3429 
Q 1922 3584 2338 3584 
Q 2397 3584 2469 3576 
Q 2541 3569 2628 3553 
L 2631 2963 
z
" transform="scale(0.015625)"/>
       <path id="DejaVuSans-69" d="M 603 3500 
L 1178 3500 
L 1178 0 
L 603 0 
L 603 3500 
z
M 603 4863 
L 1178 4863 
L 1178 4134 
L 603 4134 
L 603 4863 
z
" transform="scale(0.015625)"/>
       <path id="DejaVuSans-64" d="M 2906 2969 
L 2906 4863 
L 3481 4863 
L 3481 0 
L 2906 0 
L 2906 525 
Q 2725 213 2448 61 
Q 2172 -91 1784 -91 
Q 1150 -91 751 415 
Q 353 922 353 1747 
Q 353 2572 751 3078 
Q 1150 3584 1784 3584 
Q 2172 3584 2448 3432 
Q 2725 3281 2906 2969 
z
M 947 1747 
Q 947 1113 1208 752 
Q 1469 391 1925 391 
Q 2381 391 2643 752 
Q 2906 1113 2906 1747 
Q 2906 2381 2643 2742 
Q 2381 3103 1925 3103 
Q 1469 3103 1208 2742 
Q 947 2381 947 1747 
z
" transform="scale(0.015625)"/>
       <path id="DejaVuSans-75" d="M 544 1381 
L 544 3500 
L 1119 3500 
L 1119 1403 
Q 1119 906 1312 657 
Q 1506 409 1894 409 
Q 2359 409 2629 706 
Q 2900 1003 2900 1516 
L 2900 3500 
L 3475 3500 
L 3475 0 
L 2900 0 
L 2900 538 
Q 2691 219 2414 64 
Q 2138 -91 1772 -91 
Q 1169 -91 856 284 
Q 544 659 544 1381 
z
M 1991 3584 
L 1991 3584 
z
" transform="scale(0.015625)"/>
       <path id="DejaVuSans-2f" d="M 1625 4666 
L 2156 4666 
L 531 -594 
L 0 -594 
L 1625 4666 
z
" transform="scale(0.015625)"/>
       <path id="DejaVuSans-41" d="M 2188 4044 
L 1331 1722 
L 3047 1722 
L 2188 4044 
z
M 1831 4666 
L 2547 4666 
L 4325 0 
L 3669 0 
L 3244 1197 
L 1141 1197 
L 716 0 
L 50 0 
L 1831 4666 
z
" transform="scale(0.015625)"/>
       <path id="DejaVuSans-74" d="M 1172 4494 
L 1172 3500 
L 2356 3500 
L 2356 3053 
L 1172 3053 
L 1172 1153 
Q 1172 725 1289 603 
Q 1406 481 1766 481 
L 2356 481 
L 2356 0 
L 1766 0 
Q 1100 0 847 248 
Q 594 497 594 1153 
L 594 3053 
L 172 3053 
L 172 3500 
L 594 3500 
L 594 4494 
L 1172 4494 
z
" transform="scale(0.015625)"/>
       <path id="DejaVuSans-56" d="M 1831 0 
L 50 4666 
L 709 4666 
L 2188 738 
L 3669 4666 
L 4325 4666 
L 2547 0 
L 1831 0 
z
" transform="scale(0.015625)"/>
      </defs>
      <use xlink:href="#DejaVuSans-52"/>
      <use xlink:href="#DejaVuSans-4d" transform="translate(69.482422 0)"/>
      <use xlink:href="#DejaVuSans-53" transform="translate(155.761719 0)"/>
      <use xlink:href="#DejaVuSans-20" transform="translate(219.238281 0)"/>
      <use xlink:href="#DejaVuSans-72" transform="translate(251.025391 0)"/>
      <use xlink:href="#DejaVuSans-65" transform="translate(289.888672 0)"/>
      <use xlink:href="#DejaVuSans-73" transform="translate(351.412109 0)"/>
      <use xlink:href="#DejaVuSans-69" transform="translate(403.511719 0)"/>
      <use xlink:href="#DejaVuSans-64" transform="translate(431.294922 0)"/>
      <use xlink:href="#DejaVuSans-75" transform="translate(494.771484 0)"/>
      <use xlink:href="#DejaVuSans-61" transform="translate(558.150391 0)"/>
      <use xlink:href="#DejaVuSans-6c" transform="translate(619.429688 0)"/>
      <use xlink:href="#DejaVuSans-20" transform="translate(647.212891 0)"/>
      <use xlink:href="#DejaVuSans-2f" transform="translate(679 0)"/>
      <use xlink:href="#DejaVuSans-20" transform="translate(712.691406 0)"/>
      <use xlink:href="#DejaVuSans-41" transform="translate(744.478516 0)"/>
      <use xlink:href="#DejaVuSans-6d" transform="translate(812.886719 0)"/>
      <use xlink:href="#DejaVuSans-70" transform="translate(910.298828 0)"/>
      <use xlink:href="#DejaVuSans-6c" transform="translate(973.775391 0)"/>
      <use xlink:href="#DejaVuSans-69" transform="translate(1001.558594 0)"/>
      <use xlink:href="#DejaVuSans-74" transform="translate(1029.341797 0)"/>
      <use xlink:href="#DejaVuSans-75" transform="translate(1068.550781 0)"/>
      <use xlink:href="#DejaVuSans-64" transform="translate(1131.929688 0)"/>
      <use xlink:href="#DejaVuSans-65" transform="translate(1195.40625 0)"/>
      <use xlink:href="#DejaVuSans-20" transform="translate(1256.929688 0)"/>
      <use xlink:href="#DejaVuSans-28" transform="translate(1288.716797 0)"/>
      <use xlink:href="#DejaVuSans-56" transform="translate(1327.730469 0)"/>
      <use xlink:href="#DejaVuSans-2f" transform="translate(1396.138672 0)"/>
      <use xlink:href="#DejaVuSans-56" transform="translate(1429.830078 0)"/>
      <use xlink:href="#DejaVuSans-29" transform="translate(1498.238281 0)"/>
     </g>
    </g>
   </g>
   <g id="line2d_72">
    <path d="M 77.728259 32.288489 
L 82.112195 32.617149 
L 96.660024 32.464036 
L 101.445982 32.812922 
L 106.003948 32.479445 
L 110.884852 32.439112 
L 115.528851 32.581973 
L 129.558686 32.602208 
L 138.679794 32.803261 
L 152.978876 32.641528 
L 157.631837 32.810225 
L 162.378224 32.644435 
L 166.900288 32.754816 
L 171.779564 32.760348 
L 176.422091 32.644248 
L 181.103963 32.854709 
L 190.5246 32.7006 
L 195.237588 32.735935 
L 199.938047 32.888319 
L 223.47762 32.759187 
L 242.221088 32.784546 
L 256.397029 32.760887 
L 261.022168 32.843655 
L 270.453128 32.784355 
L 289.238935 32.861733 
L 298.68007 32.806325 
L 303.391698 32.893376 
L 308.084451 32.777442 
L 326.858946 32.926841 
L 336.286501 32.789489 
L 345.689894 32.877408 
L 359.783769 32.841095 
L 505.498031 32.834484 
L 524.304401 32.806773 
L 529.004048 32.901895 
L 538.408363 32.80788 
L 543.109325 32.897787 
L 547.810413 32.841155 
L 561.91123 32.928981 
L 566.612051 32.809109 
L 571.312431 32.926922 
L 576.014184 32.823644 
L 580.714375 32.901214 
L 590.11624 32.814566 
L 594.8174 32.969859 
L 599.516546 32.961092 
L 604.218681 32.81837 
L 608.918654 32.956344 
L 613.620056 32.813867 
L 618.320046 32.903803 
L 623.020814 32.815487 
L 637.123998 32.906426 
L 641.826135 32.831741 
L 651.226174 32.857704 
L 660.627908 32.813768 
L 665.329635 32.947484 
L 670.030722 32.819054 
L 674.730937 32.8837 
L 674.730937 32.8837 
" clip-path="url(#p26887f6ec7)" style="fill: none; stroke: #4c72b0; stroke-width: 1.5; stroke-linecap: square"/>
   </g>
   <g id="line2d_73">
    <path d="M 77.728259 68.030061 
L 82.112195 75.472276 
L 86.985207 66.496588 
L 91.622061 74.354187 
L 96.660024 67.192272 
L 101.445982 73.81459 
L 106.003948 75.275422 
L 110.884852 71.707039 
L 115.528851 69.715381 
L 124.649959 70.452658 
L 129.558686 76.553206 
L 134.227865 80.809248 
L 138.679794 73.33317 
L 143.687333 82.404545 
L 148.088071 73.329558 
L 152.978876 73.888276 
L 157.631837 75.702188 
L 162.378224 74.939115 
L 166.900288 75.777218 
L 171.779564 84.676229 
L 176.422091 77.567613 
L 181.103963 78.309682 
L 185.8094 80.177327 
L 190.5246 78.331965 
L 195.237588 84.474459 
L 199.938047 80.422404 
L 204.617154 87.470323 
L 209.267423 88.695234 
L 214.062605 80.932691 
L 218.800288 90.042961 
L 223.47762 91.214052 
L 228.092441 92.081015 
L 232.791207 84.425751 
L 237.551908 89.170074 
L 242.221088 88.096078 
L 246.928555 87.955224 
L 251.658477 86.031246 
L 256.397029 94.644296 
L 261.022168 87.073098 
L 265.749015 87.050393 
L 270.453128 97.113804 
L 275.12706 98.304619 
L 279.855052 89.319779 
L 284.532846 89.770137 
L 289.238935 95.121984 
L 293.958865 90.524865 
L 298.68007 93.409611 
L 303.391698 96.48046 
L 308.084451 100.38569 
L 312.750424 93.349924 
L 317.444035 99.776112 
L 322.151014 93.800073 
L 326.858946 98.676004 
L 331.557114 100.661122 
L 336.286501 103.811054 
L 340.984337 101.471902 
L 345.689894 100.347428 
L 350.391542 100.440712 
L 355.07927 101.627247 
L 359.783769 108.276435 
L 364.492178 98.659866 
L 369.193369 102.163411 
L 373.877789 102.744035 
L 378.569542 103.804924 
L 383.287842 107.901064 
L 387.98917 101.94603 
L 392.693131 102.986777 
L 397.388802 102.472353 
L 406.791226 111.412355 
L 411.47641 105.652498 
L 416.182597 113.211871 
L 420.896332 112.435504 
L 425.586228 109.237434 
L 430.282647 114.377103 
L 434.992068 113.289403 
L 439.685086 117.551833 
L 444.385879 109.696732 
L 449.098273 108.621959 
L 453.79537 115.538316 
L 458.496726 115.183113 
L 463.191212 110.353496 
L 467.89463 111.812722 
L 472.5952 111.558305 
L 477.294265 117.759232 
L 481.992446 121.4218 
L 486.700175 113.167019 
L 491.395641 114.568035 
L 496.098348 120.66433 
L 500.796749 124.417563 
L 505.498031 123.664198 
L 510.199404 123.849897 
L 514.905828 117.918516 
L 519.606033 116.978354 
L 529.004048 121.852989 
L 533.707015 127.903292 
L 538.408363 126.931169 
L 543.109325 119.728421 
L 547.810413 120.165322 
L 552.511543 126.339768 
L 557.212139 131.538691 
L 561.91123 123.185114 
L 566.612051 130.151745 
L 571.312431 132.870536 
L 576.014184 127.692385 
L 580.714375 131.442074 
L 585.413823 127.59396 
L 590.11624 125.126926 
L 594.8174 132.093612 
L 599.516546 136.317041 
L 604.218681 135.416934 
L 608.918654 128.296132 
L 613.620056 128.011887 
L 618.320046 132.338358 
L 623.020814 131.896047 
L 627.723649 137.794026 
L 632.424529 137.663736 
L 637.123998 130.79308 
L 641.826135 132.392802 
L 646.525908 135.551851 
L 651.226174 134.313793 
L 655.926995 133.877023 
L 660.627908 141.793846 
L 665.329635 134.20613 
L 670.030722 143.146417 
L 674.730937 136.797041 
L 674.730937 136.797041 
" clip-path="url(#p26887f6ec7)" style="fill: none; stroke: #55a868; stroke-width: 1.5; stroke-linecap: square"/>
   </g>
   <g id="line2d_74">
    <path d="M 77.728259 90.644796 
L 82.112195 96.221092 
L 86.985207 90.89928 
L 91.622061 95.412555 
L 96.660024 91.256479 
L 101.445982 97.165999 
L 106.003948 96.674994 
L 110.884852 94.418936 
L 115.528851 93.573346 
L 119.957882 94.451455 
L 124.649959 94.562993 
L 129.558686 98.418641 
L 134.227865 102.61714 
L 138.679794 97.758982 
L 143.687333 103.919146 
L 148.088071 97.302125 
L 152.978876 98.277672 
L 157.631837 100.122119 
L 162.378224 99.254813 
L 166.900288 99.586191 
L 171.779564 106.824873 
L 176.422091 101.064309 
L 185.8094 104.4606 
L 190.5246 102.693549 
L 195.237588 106.254876 
L 199.938047 104.860794 
L 204.617154 110.186491 
L 209.267423 111.060632 
L 214.062605 105.102914 
L 218.800288 112.286436 
L 223.47762 111.969668 
L 228.092441 112.808465 
L 232.791207 108.870402 
L 237.551908 112.73445 
L 242.221088 112.121416 
L 246.928555 110.620044 
L 251.658477 109.699375 
L 256.397029 115.524664 
L 261.022168 111.525869 
L 265.749015 111.138255 
L 270.453128 118.751726 
L 275.12706 119.368252 
L 279.855052 112.999289 
L 284.532846 113.501367 
L 289.238935 118.726932 
L 293.958865 114.908226 
L 298.68007 117.705643 
L 303.391698 118.48328 
L 308.084451 121.346444 
L 312.750424 116.947017 
L 317.444035 122.900383 
L 322.151014 117.775116 
L 326.858946 120.869015 
L 331.557114 122.364255 
L 336.286501 124.74128 
L 340.984337 123.28141 
L 345.689894 122.72746 
L 350.391542 122.982714 
L 355.07927 123.945468 
L 359.783769 129.298012 
L 364.492178 122.744151 
L 369.193369 126.375655 
L 373.877789 126.949256 
L 378.569542 126.327463 
L 383.287842 129.236344 
L 387.98917 126.38903 
L 397.388802 126.654292 
L 402.092031 130.922602 
L 406.791226 132.524038 
L 411.47641 130.074327 
L 416.182597 135.478625 
L 420.896332 135.349167 
L 425.586228 133.358065 
L 430.282647 135.434657 
L 434.992068 136.530988 
L 439.685086 138.242099 
L 444.385879 132.907819 
L 449.098273 132.951452 
L 453.79537 138.764393 
L 458.496726 138.733699 
L 463.191212 134.345386 
L 467.89463 135.30079 
L 472.5952 135.955959 
L 477.294265 141.184801 
L 481.992446 143.417324 
L 486.700175 137.11897 
L 491.395641 139.018299 
L 496.098348 143.830568 
L 500.796749 145.097425 
L 505.498031 145.956871 
L 510.199404 144.884109 
L 514.905828 141.157209 
L 519.606033 141.343412 
L 524.304401 142.526488 
L 529.004048 144.242978 
L 533.707015 149.640854 
L 538.408363 148.030252 
L 543.109325 143.736318 
L 547.810413 144.309827 
L 552.511543 149.854818 
L 557.212139 152.442764 
L 561.91123 147.61938 
L 566.612051 151.27817 
L 571.312431 153.547433 
L 576.014184 151.627787 
L 580.714375 154.258028 
L 590.11624 149.381176 
L 594.8174 155.327465 
L 599.516546 157.005394 
L 604.218681 156.313444 
L 608.918654 152.748592 
L 613.620056 152.370895 
L 618.320046 154.732926 
L 623.020814 156.126535 
L 627.723649 160.211152 
L 632.424529 158.856273 
L 637.123998 154.788094 
L 641.826135 155.819098 
L 646.525908 157.982485 
L 651.226174 158.685079 
L 655.926995 157.380469 
L 660.627908 162.755701 
L 665.329635 158.126141 
L 670.030722 164.044188 
L 674.730937 161.200418 
L 674.730937 161.200418 
" clip-path="url(#p26887f6ec7)" style="fill: none; stroke: #c44e52; stroke-width: 1.5; stroke-linecap: square"/>
   </g>
   <g id="line2d_75">
    <path d="M 77.728259 114.567962 
L 82.112195 120.298248 
L 86.985207 114.787157 
L 91.622061 119.446448 
L 96.660024 115.127086 
L 101.445982 121.197435 
L 106.003948 120.660773 
L 110.884852 118.334264 
L 115.528851 117.436281 
L 119.957882 118.330846 
L 124.649959 118.432552 
L 129.558686 122.371951 
L 134.227865 126.73999 
L 138.679794 121.666967 
L 143.687333 128.029913 
L 148.088071 121.171005 
L 152.978876 122.152285 
L 157.631837 124.033975 
L 162.378224 123.12904 
L 166.900288 123.456755 
L 171.779564 130.933889 
L 176.422091 124.937782 
L 185.8094 128.403536 
L 190.5246 126.570612 
L 195.237588 130.21708 
L 199.938047 128.766121 
L 204.617154 134.261643 
L 209.267423 135.159238 
L 214.062605 128.971036 
L 218.800288 136.389673 
L 223.47762 136.034559 
L 228.092441 136.876997 
L 232.791207 132.780336 
L 237.551908 136.75965 
L 242.221088 136.09955 
L 246.928555 134.530152 
L 251.658477 133.569435 
L 256.397029 139.568148 
L 261.022168 135.416583 
L 265.749015 135.004945 
L 270.453128 142.867012 
L 275.12706 143.486706 
L 279.855052 136.869347 
L 284.532846 137.370275 
L 289.238935 142.748009 
L 293.958865 138.786161 
L 298.68007 141.649518 
L 303.391698 142.432604 
L 308.084451 145.380827 
L 312.750424 140.819449 
L 317.444035 146.954566 
L 322.151014 141.64067 
L 326.858946 144.80659 
L 331.557114 146.335734 
L 336.286501 148.779432 
L 340.984337 147.243988 
L 345.689894 146.6541 
L 350.391542 146.900339 
L 355.07927 147.875744 
L 359.783769 153.41947 
L 364.492178 146.609739 
L 369.193369 150.332023 
L 373.877789 150.90594 
L 378.569542 150.246282 
L 383.287842 153.236091 
L 387.98917 150.278304 
L 397.388802 150.521465 
L 402.092031 154.902121 
L 406.791226 156.54388 
L 411.47641 153.990058 
L 416.182597 159.577997 
L 420.896332 159.417406 
L 425.586228 157.326475 
L 430.282647 159.459296 
L 434.992068 160.578102 
L 439.685086 162.341528 
L 444.385879 156.794275 
L 449.098273 156.824172 
L 453.79537 162.813043 
L 458.496726 162.758362 
L 463.191212 158.211406 
L 467.89463 159.176946 
L 472.5952 159.83503 
L 477.294265 165.218856 
L 481.992446 167.525546 
L 486.700175 160.985235 
L 491.395641 162.920897 
L 496.098348 167.883122 
L 500.796749 169.181504 
L 505.498031 170.054626 
L 510.199404 168.911305 
L 514.905828 165.042482 
L 519.606033 165.218832 
L 524.304401 166.418816 
L 529.004048 168.169695 
L 533.707015 173.756171 
L 538.408363 172.051075 
L 543.109325 167.602121 
L 547.810413 168.176252 
L 552.511543 173.882065 
L 557.212139 176.560305 
L 561.91123 171.531118 
L 566.612051 175.29631 
L 571.312431 177.638535 
L 576.014184 175.617054 
L 580.714375 178.331315 
L 590.11624 173.250111 
L 594.8174 179.375319 
L 599.516546 181.103173 
L 604.218681 180.356288 
L 608.918654 176.648832 
L 613.620056 176.24569 
L 618.320046 178.659331 
L 623.020814 180.079901 
L 627.723649 184.303881 
L 632.424529 182.868101 
L 637.123998 178.653978 
L 641.826135 179.697385 
L 646.525908 181.906782 
L 651.226174 182.614052 
L 655.926995 181.256271 
L 660.627908 186.790835 
L 665.329635 181.992642 
L 670.030722 188.086894 
L 674.730937 185.121779 
L 674.730937 185.121779 
" clip-path="url(#p26887f6ec7)" style="fill: none; stroke: #8172b2; stroke-width: 1.5; stroke-linecap: square"/>
   </g>
   <g id="line2d_76">
    <path d="M 77.728259 158.159372 
L 82.112195 163.912166 
L 86.985207 158.373439 
L 91.622061 163.054036 
L 96.660024 158.710875 
L 101.445982 164.804633 
L 106.003948 164.261283 
L 110.884852 161.924534 
L 115.528851 161.018959 
L 119.957882 161.915904 
L 124.649959 162.01619 
L 129.558686 165.967728 
L 134.227865 170.360699 
L 138.679794 165.256163 
L 143.687333 171.648811 
L 148.088071 164.754545 
L 152.978876 165.736652 
L 157.631837 167.623732 
L 162.378224 166.713352 
L 166.900288 167.040539 
L 171.779564 174.552545 
L 176.422091 168.521981 
L 185.8094 171.997809 
L 190.5246 170.155333 
L 195.237588 173.814157 
L 199.938047 172.354933 
L 204.617154 177.875284 
L 209.267423 178.776351 
L 214.062605 172.554466 
L 218.800288 180.00747 
L 223.47762 179.646696 
L 228.092441 180.489662 
L 232.791207 176.369817 
L 237.551908 180.365948 
L 242.221088 179.698955 
L 246.928555 178.119656 
L 251.658477 177.153143 
L 256.397029 183.177126 
L 261.022168 179.003278 
L 265.749015 178.588168 
L 270.453128 186.486586 
L 275.12706 187.10675 
L 279.855052 180.453055 
L 284.532846 180.953818 
L 289.238935 186.353702 
L 293.958865 182.371008 
L 298.68007 185.243931 
L 303.391698 186.027808 
L 308.084451 188.98847 
L 312.750424 184.4035 
L 317.444035 190.565121 
L 322.151014 185.223728 
L 326.858946 188.400084 
L 331.557114 189.934169 
L 336.286501 192.387629 
L 340.984337 190.841124 
L 345.689894 190.246005 
L 350.391542 190.490935 
L 355.07927 191.468177 
L 359.783769 197.039963 
L 364.492178 190.192802 
L 369.193369 193.928254 
L 373.877789 194.502216 
L 378.569542 193.837051 
L 383.287842 196.838658 
L 387.98917 193.864792 
L 397.388802 194.104758 
L 402.092031 198.501729 
L 406.791226 200.149391 
L 411.47641 197.58038 
L 416.182597 203.19522 
L 420.896332 203.030033 
L 425.586228 200.924461 
L 430.282647 203.065509 
L 434.992068 204.187617 
L 439.685086 205.958759 
L 444.385879 200.380355 
L 449.098273 200.408265 
L 453.79537 206.422785 
L 458.496726 206.36458 
L 463.191212 201.794531 
L 467.89463 202.761535 
L 472.5952 203.420041 
L 477.294265 208.826452 
L 481.992446 211.144077 
L 486.700175 204.568397 
L 491.395641 206.509314 
L 496.098348 211.493438 
L 500.796749 212.796467 
L 505.498031 213.671609 
L 510.199404 212.517894 
L 514.905828 208.628391 
L 519.606033 208.803316 
L 524.304401 210.005746 
L 529.004048 211.761612 
L 533.707015 217.375752 
L 538.408363 215.656729 
L 543.109325 211.185215 
L 547.810413 211.759436 
L 552.511543 217.488662 
L 557.212139 220.180216 
L 561.91123 215.12086 
L 566.612051 218.90157 
L 571.312431 221.254535 
L 576.014184 219.218087 
L 580.714375 221.944685 
L 590.11624 216.833658 
L 594.8174 222.984944 
L 599.516546 224.72016 
L 604.218681 223.965176 
L 608.918654 220.236907 
L 613.620056 219.830084 
L 618.320046 222.251202 
L 623.020814 223.675695 
L 627.723649 227.920121 
L 632.424529 226.472436 
L 637.123998 222.237084 
L 641.826135 223.282283 
L 646.525908 225.498347 
L 651.226174 226.206296 
L 655.926995 224.84081 
L 660.627908 230.398589 
L 665.329635 225.575838 
L 670.030722 231.695761 
L 674.730937 228.712918 
L 674.730937 228.712918 
" clip-path="url(#p26887f6ec7)" style="fill: none; stroke: #937860; stroke-width: 1.5; stroke-linecap: square"/>
   </g>
   <g id="line2d_77">
    <path d="M 47.878125 53.717548 
L 704.581071 53.717548 
" clip-path="url(#p26887f6ec7)" style="fill: none; stroke-dasharray: 2.96,1.28; stroke-dashoffset: 0; stroke: #808080; stroke-width: 0.8"/>
   </g>
   <g id="line2d_78">
    <path d="M 47.878125 105.515463 
L 704.581071 105.515463 
" clip-path="url(#p26887f6ec7)" style="fill: none; stroke-dasharray: 2.96,1.28; stroke-dashoffset: 0; stroke: #808080; stroke-width: 0.8"/>
   </g>
   <g id="line2d_79">
    <path d="M 47.878125 157.313379 
L 704.581071 157.313379 
" clip-path="url(#p26887f6ec7)" style="fill: none; stroke-dasharray: 2.96,1.28; stroke-dashoffset: 0; stroke: #808080; stroke-width: 0.8"/>
   </g>
   <g id="line2d_80">
    <path d="M 47.878125 209.111294 
L 704.581071 209.111294 
" clip-path="url(#p26887f6ec7)" style="fill: none; stroke-dasharray: 2.96,1.28; stroke-dashoffset: 0; stroke: #808080; stroke-width: 0.8"/>
   </g>
   <g id="patch_3">
    <path d="M 47.878125 241.666125 
L 47.878125 22.318125 
" style="fill: none; stroke: #000000; stroke-width: 0.8; stroke-linejoin: miter; stroke-linecap: square"/>
   </g>
   <g id="patch_4">
    <path d="M 704.581071 241.666125 
L 704.581071 22.318125 
" style="fill: none; stroke: #000000; stroke-width: 0.8; stroke-linejoin: miter; stroke-linecap: square"/>
   </g>
   <g id="patch_5">
    <path d="M 47.878125 241.666125 
L 704.581071 241.666125 
" style="fill: none; stroke: #000000; stroke-width: 0.8; stroke-linejoin: miter; stroke-linecap: square"/>
   </g>
   <g id="patch_6">
    <path d="M 47.878125 22.318125 
L 704.581071 22.318125 
" style="fill: none; stroke: #000000; stroke-width: 0.8; stroke-linejoin: miter; stroke-linecap: square"/>
   </g>
   <g id="text_10">
    <!--  σ/A = 0.1 -->
    <g style="fill: #808080" transform="translate(624.366875 47.536437) scale(0.1 -0.1)">
     <defs>
      <path id="DejaVuSans-3c3" d="M 1959 3044 
Q 1484 3044 1228 2700 
Q 959 2341 959 1747 
Q 959 1119 1226 758 
Q 1494 397 1959 397 
Q 2419 397 2687 759 
Q 2956 1122 2956 1747 
Q 2956 2319 2688 2700 
Q 2441 3044 1959 3044 
z
M 1959 3500 
L 3869 3500 
L 3869 2925 
L 3225 2925 
Q 3566 2438 3566 1747 
Q 3566 888 3138 400 
Q 2709 -91 1959 -91 
Q 1206 -91 781 400 
Q 353 888 353 1747 
Q 353 2613 781 3097 
Q 1134 3500 1959 3500 
z
" transform="scale(0.015625)"/>
      <path id="DejaVuSans-3d" d="M 678 2906 
L 4684 2906 
L 4684 2381 
L 678 2381 
L 678 2906 
z
M 678 1631 
L 4684 1631 
L 4684 1100 
L 678 1100 
L 678 1631 
z
" transform="scale(0.015625)"/>
      <path id="DejaVuSans-2e" d="M 684 794 
L 1344 794 
L 1344 0 
L 684 0 
L 684 794 
z
" transform="scale(0.015625)"/>
     </defs>
     <use xlink:href="#DejaVuSans-20"/>
     <use xlink:href="#DejaVuSans-3c3" transform="translate(31.787109 0)"/>
     <use xlink:href="#DejaVuSans-2f" transform="translate(95.166016 0)"/>
     <use xlink:href="#DejaVuSans-41" transform="translate(128.857422 0)"/>
     <use xlink:href="#DejaVuSans-20" transform="translate(197.265625 0)"/>
     <use xlink:href="#DejaVuSans-3d" transform="translate(229.052734 0)"/>
     <use xlink:href="#DejaVuSans-20" transform="translate(312.841797 0)"/>
     <use xlink:href="#DejaVuSans-30" transform="translate(344.628906 0)"/>
     <use xlink:href="#DejaVuSans-2e" transform="translate(408.251953 0)"/>
     <use xlink:href="#DejaVuSans-31" transform="translate(440.039062 0)"/>
    </g>
   </g>
   <g id="text_11">
    <!--  σ/A = 0.01 -->
    <g style="fill: #808080" transform="translate(618.004375 99.334352) scale(0.1 -0.1)">
     <use xlink:href="#DejaVuSans-20"/>
     <use xlink:href="#DejaVuSans-3c3" transform="translate(31.787109 0)"/>
     <use xlink:href="#DejaVuSans-2f" transform="translate(95.166016 0)"/>
     <use xlink:href="#DejaVuSans-41" transform="translate(128.857422 0)"/>
     <use xlink:href="#DejaVuSans-20" transform="translate(197.265625 0)"/>
     <use xlink:href="#DejaVuSans-3d" transform="translate(229.052734 0)"/>
     <use xlink:href="#DejaVuSans-20" transform="translate(312.841797 0)"/>
     <use xlink:href="#DejaVuSans-30" transform="translate(344.628906 0)"/>
     <use xlink:href="#DejaVuSans-2e" transform="translate(408.251953 0)"/>
     <use xlink:href="#DejaVuSans-30" transform="translate(440.039062 0)"/>
     <use xlink:href="#DejaVuSans-31" transform="translate(503.662109 0)"/>
    </g>
   </g>
   <g id="text_12">
    <!--  σ/A = 0.001 -->
    <g style="fill: #808080" transform="translate(611.641875 151.132268) scale(0.1 -0.1)">
     <use xlink:href="#DejaVuSans-20"/>
     <use xlink:href="#DejaVuSans-3c3" transform="translate(31.787109 0)"/>
     <use xlink:href="#DejaVuSans-2f" transform="translate(95.166016 0)"/>
     <use xlink:href="#DejaVuSans-41" transform="translate(128.857422 0)"/>
     <use xlink:href="#DejaVuSans-20" transform="translate(197.265625 0)"/>
     <use xlink:href="#DejaVuSans-3d" transform="translate(229.052734 0)"/>
     <use xlink:href="#DejaVuSans-20" transform="translate(312.841797 0)"/>
     <use xlink:href="#DejaVuSans-30" transform="translate(344.628906 0)"/>
     <use xlink:href="#DejaVuSans-2e" transform="translate(408.251953 0)"/>
     <use xlink:href="#DejaVuSans-30" transform="translate(440.039062 0)"/>
     <use xlink:href="#DejaVuSans-30" transform="translate(503.662109 0)"/>
     <use xlink:href="#DejaVuSans-31" transform="translate(567.285156 0)"/>
    </g>
   </g>
   <g id="text_13">
    <!--  σ/A = 0.0001 -->
    <g style="fill: #808080" transform="translate(605.279375 202.930183) scale(0.1 -0.1)">
     <use xlink:href="#DejaVuSans-20"/>
     <use xlink:href="#DejaVuSans-3c3" transform="translate(31.787109 0)"/>
     <use xlink:href="#DejaVuSans-2f" transform="translate(95.166016 0)"/>
     <use xlink:href="#DejaVuSans-41" transform="translate(128.857422 0)"/>
     <use xlink:href="#DejaVuSans-20" transform="translate(197.265625 0)"/>
     <use xlink:href="#DejaVuSans-3d" transform="translate(229.052734 0)"/>
     <use xlink:href="#DejaVuSans-20" transform="translate(312.841797 0)"/>
     <use xlink:href="#DejaVuSans-30" transform="translate(344.628906 0)"/>
     <use xlink:href="#DejaVuSans-2e" transform="translate(408.251953 0)"/>
     <use xlink:href="#DejaVuSans-30" transform="translate(440.039062 0)"/>
     <use xlink:href="#DejaVuSans-30" transform="translate(503.662109 0)"/>
     <use xlink:href="#DejaVuSans-30" transform="translate(567.285156 0)"/>
     <use xlink:href="#DejaVuSans-31" transform="translate(630.908203 0)"/>
    </g>
   </g>
   <g id="text_14">
    <!-- SAMPLING correction importance vs N — 10.37 Hz, rectangular window -->
    <g transform="translate(162.318348 16.318125) scale(0.12 -0.12)">
     <defs>
      <path id="DejaVuSans-50" d="M 1259 4147 
L 1259 2394 
L 2053 2394 
Q 2494 2394 2734 2622 
Q 2975 2850 2975 3272 
Q 2975 3691 2734 3919 
Q 2494 4147 2053 4147 
L 1259 4147 
z
M 628 4666 
L 2053 4666 
Q 2838 4666 3239 4311 
Q 3641 3956 3641 3272 
Q 3641 2581 3239 2228 
Q 2838 1875 2053 1875 
L 1259 1875 
L 1259 0 
L 628 0 
L 628 4666 
z
" transform="scale(0.015625)"/>
      <path id="DejaVuSans-4c" d="M 628 4666 
L 1259 4666 
L 1259 531 
L 3531 531 
L 3531 0 
L 628 0 
L 628 4666 
z
" transform="scale(0.015625)"/>
      <path id="DejaVuSans-49" d="M 628 4666 
L 1259 4666 
L 1259 0 
L 628 0 
L 628 4666 
z
" transform="scale(0.015625)"/>
      <path id="DejaVuSans-47" d="M 3809 666 
L 3809 1919 
L 2778 1919 
L 2778 2438 
L 4434 2438 
L 4434 434 
Q 4069 175 3628 42 
Q 3188 -91 2688 -91 
Q 1594 -91 976 548 
Q 359 1188 359 2328 
Q 359 3472 976 4111 
Q 1594 4750 2688 4750 
Q 3144 4750 3555 4637 
Q 3966 4525 4313 4306 
L 4313 3634 
Q 3963 3931 3569 4081 
Q 3175 4231 2741 4231 
Q 1884 4231 1454 3753 
Q 1025 3275 1025 2328 
Q 1025 1384 1454 906 
Q 1884 428 2741 428 
Q 3075 428 3337 486 
Q 3600 544 3809 666 
z
" transform="scale(0.015625)"/>
      <path id="DejaVuSans-63" d="M 3122 3366 
L 3122 2828 
Q 2878 2963 2633 3030 
Q 2388 3097 2138 3097 
Q 1578 3097 1268 2742 
Q 959 2388 959 1747 
Q 959 1106 1268 751 
Q 1578 397 2138 397 
Q 2388 397 2633 464 
Q 2878 531 3122 666 
L 3122 134 
Q 2881 22 2623 -34 
Q 2366 -91 2075 -91 
Q 1284 -91 818 406 
Q 353 903 353 1747 
Q 353 2603 823 3093 
Q 1294 3584 2113 3584 
Q 2378 3584 2631 3529 
Q 2884 3475 3122 3366 
z
" transform="scale(0.015625)"/>
      <path id="DejaVuSans-6f" d="M 1959 3097 
Q 1497 3097 1228 2736 
Q 959 2375 959 1747 
Q 959 1119 1226 758 
Q 1494 397 1959 397 
Q 2419 397 2687 759 
Q 2956 1122 2956 1747 
Q 2956 2369 2687 2733 
Q 2419 3097 1959 3097 
z
M 1959 3584 
Q 2709 3584 3137 3096 
Q 3566 2609 3566 1747 
Q 3566 888 3137 398 
Q 2709 -91 1959 -91 
Q 1206 -91 779 398 
Q 353 888 353 1747 
Q 353 2609 779 3096 
Q 1206 3584 1959 3584 
z
" transform="scale(0.015625)"/>
      <path id="DejaVuSans-6e" d="M 3513 2113 
L 3513 0 
L 2938 0 
L 2938 2094 
Q 2938 2591 2744 2837 
Q 2550 3084 2163 3084 
Q 1697 3084 1428 2787 
Q 1159 2491 1159 1978 
L 1159 0 
L 581 0 
L 581 3500 
L 1159 3500 
L 1159 2956 
Q 1366 3272 1645 3428 
Q 1925 3584 2291 3584 
Q 2894 3584 3203 3211 
Q 3513 2838 3513 2113 
z
" transform="scale(0.015625)"/>
      <path id="DejaVuSans-76" d="M 191 3500 
L 800 3500 
L 1894 563 
L 2988 3500 
L 3597 3500 
L 2284 0 
L 1503 0 
L 191 3500 
z
" transform="scale(0.015625)"/>
      <path id="DejaVuSans-2014" d="M 313 1978 
L 6088 1978 
L 6088 1528 
L 313 1528 
L 313 1978 
z
" transform="scale(0.015625)"/>
      <path id="DejaVuSans-37" d="M 525 4666 
L 3525 4666 
L 3525 4397 
L 1831 0 
L 1172 0 
L 2766 4134 
L 525 4134 
L 525 4666 
z
" transform="scale(0.015625)"/>
      <path id="DejaVuSans-48" d="M 628 4666 
L 1259 4666 
L 1259 2753 
L 3553 2753 
L 3553 4666 
L 4184 4666 
L 4184 0 
L 3553 0 
L 3553 2222 
L 1259 2222 
L 1259 0 
L 628 0 
L 628 4666 
z
" transform="scale(0.015625)"/>
      <path id="DejaVuSans-7a" d="M 353 3500 
L 3084 3500 
L 3084 2975 
L 922 459 
L 3084 459 
L 3084 0 
L 275 0 
L 275 525 
L 2438 3041 
L 353 3041 
L 353 3500 
z
" transform="scale(0.015625)"/>
      <path id="DejaVuSans-2c" d="M 750 794 
L 1409 794 
L 1409 256 
L 897 -744 
L 494 -744 
L 750 256 
L 750 794 
z
" transform="scale(0.015625)"/>
      <path id="DejaVuSans-67" d="M 2906 1791 
Q 2906 2416 2648 2759 
Q 2391 3103 1925 3103 
Q 1463 3103 1205 2759 
Q 947 2416 947 1791 
Q 947 1169 1205 825 
Q 1463 481 1925 481 
Q 2391 481 2648 825 
Q 2906 1169 2906 1791 
z
M 3481 434 
Q 3481 -459 3084 -895 
Q 2688 -1331 1869 -1331 
Q 1566 -1331 1297 -1286 
Q 1028 -1241 775 -1147 
L 775 -588 
Q 1028 -725 1275 -790 
Q 1522 -856 1778 -856 
Q 2344 -856 2625 -561 
Q 2906 -266 2906 331 
L 2906 616 
Q 2728 306 2450 153 
Q 2172 0 1784 0 
Q 1141 0 747 490 
Q 353 981 353 1791 
Q 353 2603 747 3093 
Q 1141 3584 1784 3584 
Q 2172 3584 2450 3431 
Q 2728 3278 2906 2969 
L 2906 3500 
L 3481 3500 
L 3481 434 
z
" transform="scale(0.015625)"/>
      <path id="DejaVuSans-77" d="M 269 3500 
L 844 3500 
L 1563 769 
L 2278 3500 
L 2956 3500 
L 3675 769 
L 4391 3500 
L 4966 3500 
L 4050 0 
L 3372 0 
L 2619 2869 
L 1863 0 
L 1184 0 
L 269 3500 
z
" transform="scale(0.015625)"/>
     </defs>
     <use xlink:href="#DejaVuSans-53"/>
     <use xlink:href="#DejaVuSans-41" transform="translate(65.351562 0)"/>
     <use xlink:href="#DejaVuSans-4d" transform="translate(133.759766 0)"/>
     <use xlink:href="#DejaVuSans-50" transform="translate(220.039062 0)"/>
     <use xlink:href="#DejaVuSans-4c" transform="translate(280.341797 0)"/>
     <use xlink:href="#DejaVuSans-49" transform="translate(336.054688 0)"/>
     <use xlink:href="#DejaVuSans-4e" transform="translate(365.546875 0)"/>
     <use xlink:href="#DejaVuSans-47" transform="translate(440.351562 0)"/>
     <use xlink:href="#DejaVuSans-20" transform="translate(517.841797 0)"/>
     <use xlink:href="#DejaVuSans-63" transform="translate(549.628906 0)"/>
     <use xlink:href="#DejaVuSans-6f" transform="translate(604.609375 0)"/>
     <use xlink:href="#DejaVuSans-72" transform="translate(665.791016 0)"/>
     <use xlink:href="#DejaVuSans-72" transform="translate(705.154297 0)"/>
     <use xlink:href="#DejaVuSans-65" transform="translate(744.017578 0)"/>
     <use xlink:href="#DejaVuSans-63" transform="translate(805.541016 0)"/>
     <use xlink:href="#DejaVuSans-74" transform="translate(860.521484 0)"/>
     <use xlink:href="#DejaVuSans-69" transform="translate(899.730469 0)"/>
     <use xlink:href="#DejaVuSans-6f" transform="translate(927.513672 0)"/>
     <use xlink:href="#DejaVuSans-6e" transform="translate(988.695312 0)"/>
     <use xlink:href="#DejaVuSans-20" transform="translate(1052.074219 0)"/>
     <use xlink:href="#DejaVuSans-69" transform="translate(1083.861328 0)"/>
     <use xlink:href="#DejaVuSans-6d" transform="translate(1111.644531 0)"/>
     <use xlink:href="#DejaVuSans-70" transform="translate(1209.056641 0)"/>
     <use xlink:href="#DejaVuSans-6f" transform="translate(1272.533203 0)"/>
     <use xlink:href="#DejaVuSans-72" transform="translate(1333.714844 0)"/>
     <use xlink:href="#DejaVuSans-74" transform="translate(1374.828125 0)"/>
     <use xlink:href="#DejaVuSans-61" transform="translate(1414.037109 0)"/>
     <use xlink:href="#DejaVuSans-6e" transform="translate(1475.316406 0)"/>
     <use xlink:href="#DejaVuSans-63" transform="translate(1538.695312 0)"/>
     <use xlink:href="#DejaVuSans-65" transform="translate(1593.675781 0)"/>
     <use xlink:href="#DejaVuSans-20" transform="translate(1655.199219 0)"/>
     <use xlink:href="#DejaVuSans-76" transform="translate(1686.986328 0)"/>
     <use xlink:href="#DejaVuSans-73" transform="translate(1746.166016 0)"/>
     <use xlink:href="#DejaVuSans-20" transform="translate(1798.265625 0)"/>
     <use xlink:href="#DejaVuSans-4e" transform="translate(1830.052734 0)"/>
     <use xlink:href="#DejaVuSans-20" transform="translate(1904.857422 0)"/>
     <use xlink:href="#DejaVuSans-2014" transform="translate(1936.644531 0)"/>
     <use xlink:href="#DejaVuSans-20" transform="translate(2036.644531 0)"/>
     <use xlink:href="#DejaVuSans-31" transform="translate(2068.431641 0)"/>
     <use xlink:href="#DejaVuSans-30" transform="translate(2132.054688 0)"/>
     <use xlink:href="#DejaVuSans-2e" transform="translate(2195.677734 0)"/>
     <use xlink:href="#DejaVuSans-33" transform="translate(2227.464844 0)"/>
     <use xlink:href="#DejaVuSans-37" transform="translate(2291.087891 0)"/>
     <use xlink:href="#DejaVuSans-20" transform="translate(2354.710938 0)"/>
     <use xlink:href="#DejaVuSans-48" transform="translate(2386.498047 0)"/>
     <use xlink:href="#DejaVuSans-7a" transform="translate(2461.693359 0)"/>
     <use xlink:href="#DejaVuSans-2c" transform="translate(2514.183594 0)"/>
     <use xlink:href="#DejaVuSans-20" transform="translate(2545.970703 0)"/>
     <use xlink:href="#DejaVuSans-72" transform="translate(2577.757812 0)"/>
     <use xlink:href="#DejaVuSans-65" transform="translate(2616.621094 0)"/>
     <use xlink:href="#DejaVuSans-63" transform="translate(2678.144531 0)"/>
     <use xlink:href="#DejaVuSans-74" transform="translate(2733.125 0)"/>
     <use xlink:href="#DejaVuSans-61" transform="translate(2772.333984 0)"/>
     <use xlink:href="#DejaVuSans-6e" transform="translate(2833.613281 0)"/>
     <use xlink:href="#DejaVuSans-67" transform="translate(2896.992188 0)"/>
     <use xlink:href="#DejaVuSans-75" transform="translate(2960.46875 0)"/>
     <use xlink:href="#DejaVuSans-6c" transform="translate(3023.847656 0)"/>
     <use xlink:href="#DejaVuSans-61" transform="translate(3051.630859 0)"/>
     <use xlink:href="#DejaVuSans-72" transform="translate(3112.910156 0)"/>
     <use xlink:href="#DejaVuSans-20" transform="translate(3154.023438 0)"/>
     <use xlink:href="#DejaVuSans-77" transform="translate(3185.810547 0)"/>
     <use xlink:href="#DejaVuSans-69" transform="translate(3267.597656 0)"/>
     <use xlink:href="#DejaVuSans-6e" transform="translate(3295.380859 0)"/>
     <use xlink:href="#DejaVuSans-64" transform="translate(3358.759766 0)"/>
     <use xlink:href="#DejaVuSans-6f" transform="translate(3422.236328 0)"/>
     <use xlink:href="#DejaVuSans-77" transform="translate(3483.417969 0)"/>
    </g>
   </g>
   <g id="legend_1">
    <g id="patch_7">
     <path d="M 54.878125 236.666125 
L 196.082813 236.666125 
Q 198.082813 236.666125 198.082813 234.666125 
L 198.082813 162.2755 
Q 198.082813 160.2755 196.082813 160.2755 
L 54.878125 160.2755 
Q 52.878125 160.2755 52.878125 162.2755 
L 52.878125 234.666125 
Q 52.878125 236.666125 54.878125 236.666125 
z
" style="fill: #ffffff; opacity: 0.8; stroke: #cccccc; stroke-linejoin: miter"/>
    </g>
    <g id="line2d_81">
     <path d="M 56.878125 168.373938 
L 66.878125 168.373938 
L 76.878125 168.373938 
" style="fill: none; stroke: #4c72b0; stroke-width: 1.5; stroke-linecap: square"/>
    </g>
    <g id="text_15">
     <!-- NONE -->
     <g transform="translate(84.878125 171.873938) scale(0.1 -0.1)">
      <defs>
       <path id="DejaVuSans-4f" d="M 2522 4238 
Q 1834 4238 1429 3725 
Q 1025 3213 1025 2328 
Q 1025 1447 1429 934 
Q 1834 422 2522 422 
Q 3209 422 3611 934 
Q 4013 1447 4013 2328 
Q 4013 3213 3611 3725 
Q 3209 4238 2522 4238 
z
M 2522 4750 
Q 3503 4750 4090 4092 
Q 4678 3434 4678 2328 
Q 4678 1225 4090 567 
Q 3503 -91 2522 -91 
Q 1538 -91 948 565 
Q 359 1222 359 2328 
Q 359 3434 948 4092 
Q 1538 4750 2522 4750 
z
" transform="scale(0.015625)"/>
       <path id="DejaVuSans-45" d="M 628 4666 
L 3578 4666 
L 3578 4134 
L 1259 4134 
L 1259 2753 
L 3481 2753 
L 3481 2222 
L 1259 2222 
L 1259 531 
L 3634 531 
L 3634 0 
L 628 0 
L 628 4666 
z
" transform="scale(0.015625)"/>
      </defs>
      <use xlink:href="#DejaVuSans-4e"/>
      <use xlink:href="#DejaVuSans-4f" transform="translate(74.804688 0)"/>
      <use xlink:href="#DejaVuSans-4e" transform="translate(153.515625 0)"/>
      <use xlink:href="#DejaVuSans-45" transform="translate(228.320312 0)"/>
     </g>
    </g>
    <g id="line2d_82">
     <path d="M 56.878125 183.052063 
L 66.878125 183.052063 
L 76.878125 183.052063 
" style="fill: none; stroke: #55a868; stroke-width: 1.5; stroke-linecap: square"/>
    </g>
    <g id="text_16">
     <!-- WINDOW only -->
     <g transform="translate(84.878125 186.552063) scale(0.1 -0.1)">
      <defs>
       <path id="DejaVuSans-57" d="M 213 4666 
L 850 4666 
L 1831 722 
L 2809 4666 
L 3519 4666 
L 4500 722 
L 5478 4666 
L 6119 4666 
L 4947 0 
L 4153 0 
L 3169 4050 
L 2175 0 
L 1381 0 
L 213 4666 
z
" transform="scale(0.015625)"/>
       <path id="DejaVuSans-44" d="M 1259 4147 
L 1259 519 
L 2022 519 
Q 2988 519 3436 956 
Q 3884 1394 3884 2338 
Q 3884 3275 3436 3711 
Q 2988 4147 2022 4147 
L 1259 4147 
z
M 628 4666 
L 1925 4666 
Q 3281 4666 3915 4102 
Q 4550 3538 4550 2338 
Q 4550 1131 3912 565 
Q 3275 0 1925 0 
L 628 0 
L 628 4666 
z
" transform="scale(0.015625)"/>
       <path id="DejaVuSans-79" d="M 2059 -325 
Q 1816 -950 1584 -1140 
Q 1353 -1331 966 -1331 
L 506 -1331 
L 506 -850 
L 844 -850 
Q 1081 -850 1212 -737 
Q 1344 -625 1503 -206 
L 1606 56 
L 191 3500 
L 800 3500 
L 1894 763 
L 2988 3500 
L 3597 3500 
L 2059 -325 
z
" transform="scale(0.015625)"/>
      </defs>
      <use xlink:href="#DejaVuSans-57"/>
      <use xlink:href="#DejaVuSans-49" transform="translate(98.876953 0)"/>
      <use xlink:href="#DejaVuSans-4e" transform="translate(128.369141 0)"/>
      <use xlink:href="#DejaVuSans-44" transform="translate(203.173828 0)"/>
      <use xlink:href="#DejaVuSans-4f" transform="translate(280.175781 0)"/>
      <use xlink:href="#DejaVuSans-57" transform="translate(358.886719 0)"/>
      <use xlink:href="#DejaVuSans-20" transform="translate(457.763672 0)"/>
      <use xlink:href="#DejaVuSans-6f" transform="translate(489.550781 0)"/>
      <use xlink:href="#DejaVuSans-6e" transform="translate(550.732422 0)"/>
      <use xlink:href="#DejaVuSans-6c" transform="translate(614.111328 0)"/>
      <use xlink:href="#DejaVuSans-79" transform="translate(641.894531 0)"/>
     </g>
    </g>
    <g id="line2d_83">
     <path d="M 56.878125 197.730187 
L 66.878125 197.730187 
L 76.878125 197.730187 
" style="fill: none; stroke: #c44e52; stroke-width: 1.5; stroke-linecap: square"/>
    </g>
    <g id="text_17">
     <!-- WINDOW + BASELINE -->
     <g transform="translate(84.878125 201.230187) scale(0.1 -0.1)">
      <defs>
       <path id="DejaVuSans-2b" d="M 2944 4013 
L 2944 2272 
L 4684 2272 
L 4684 1741 
L 2944 1741 
L 2944 0 
L 2419 0 
L 2419 1741 
L 678 1741 
L 678 2272 
L 2419 2272 
L 2419 4013 
L 2944 4013 
z
" transform="scale(0.015625)"/>
       <path id="DejaVuSans-42" d="M 1259 2228 
L 1259 519 
L 2272 519 
Q 2781 519 3026 730 
Q 3272 941 3272 1375 
Q 3272 1813 3026 2020 
Q 2781 2228 2272 2228 
L 1259 2228 
z
M 1259 4147 
L 1259 2741 
L 2194 2741 
Q 2656 2741 2882 2914 
Q 3109 3088 3109 3444 
Q 3109 3797 2882 3972 
Q 2656 4147 2194 4147 
L 1259 4147 
z
M 628 4666 
L 2241 4666 
Q 2963 4666 3353 4366 
Q 3744 4066 3744 3513 
Q 3744 3084 3544 2831 
Q 3344 2578 2956 2516 
Q 3422 2416 3680 2098 
Q 3938 1781 3938 1306 
Q 3938 681 3513 340 
Q 3088 0 2303 0 
L 628 0 
L 628 4666 
z
" transform="scale(0.015625)"/>
      </defs>
      <use xlink:href="#DejaVuSans-57"/>
      <use xlink:href="#DejaVuSans-49" transform="translate(98.876953 0)"/>
      <use xlink:href="#DejaVuSans-4e" transform="translate(128.369141 0)"/>
      <use xlink:href="#DejaVuSans-44" transform="translate(203.173828 0)"/>
      <use xlink:href="#DejaVuSans-4f" transform="translate(280.175781 0)"/>
      <use xlink:href="#DejaVuSans-57" transform="translate(358.886719 0)"/>
      <use xlink:href="#DejaVuSans-20" transform="translate(457.763672 0)"/>
      <use xlink:href="#DejaVuSans-2b" transform="translate(489.550781 0)"/>
      <use xlink:href="#DejaVuSans-20" transform="translate(573.339844 0)"/>
      <use xlink:href="#DejaVuSans-42" transform="translate(605.126953 0)"/>
      <use xlink:href="#DejaVuSans-41" transform="translate(673.730469 0)"/>
      <use xlink:href="#DejaVuSans-53" transform="translate(742.138672 0)"/>
      <use xlink:href="#DejaVuSans-45" transform="translate(805.615234 0)"/>
      <use xlink:href="#DejaVuSans-4c" transform="translate(868.798828 0)"/>
      <use xlink:href="#DejaVuSans-49" transform="translate(924.511719 0)"/>
      <use xlink:href="#DejaVuSans-4e" transform="translate(954.003906 0)"/>
      <use xlink:href="#DejaVuSans-45" transform="translate(1028.808594 0)"/>
     </g>
    </g>
    <g id="line2d_84">
     <path d="M 56.878125 212.408312 
L 66.878125 212.408312 
L 76.878125 212.408312 
" style="fill: none; stroke: #8172b2; stroke-width: 1.5; stroke-linecap: square"/>
    </g>
    <g id="text_18">
     <!-- ALL  (order = 1) -->
     <g transform="translate(84.878125 215.908312) scale(0.1 -0.1)">
      <use xlink:href="#DejaVuSans-41"/>
      <use xlink:href="#DejaVuSans-4c" transform="translate(68.408203 0)"/>
      <use xlink:href="#DejaVuSans-4c" transform="translate(124.121094 0)"/>
      <use xlink:href="#DejaVuSans-20" transform="translate(179.833984 0)"/>
      <use xlink:href="#DejaVuSans-20" transform="translate(211.621094 0)"/>
      <use xlink:href="#DejaVuSans-28" transform="translate(243.408203 0)"/>
      <use xlink:href="#DejaVuSans-6f" transform="translate(282.421875 0)"/>
      <use xlink:href="#DejaVuSans-72" transform="translate(343.603516 0)"/>
      <use xlink:href="#DejaVuSans-64" transform="translate(382.966797 0)"/>
      <use xlink:href="#DejaVuSans-65" transform="translate(446.443359 0)"/>
      <use xlink:href="#DejaVuSans-72" transform="translate(507.966797 0)"/>
      <use xlink:href="#DejaVuSans-20" transform="translate(549.080078 0)"/>
      <use xlink:href="#DejaVuSans-3d" transform="translate(580.867188 0)"/>
      <use xlink:href="#DejaVuSans-20" transform="translate(664.65625 0)"/>
      <use xlink:href="#DejaVuSans-31" transform="translate(696.443359 0)"/>
      <use xlink:href="#DejaVuSans-29" transform="translate(760.066406 0)"/>
     </g>
    </g>
    <g id="line2d_85">
     <path d="M 56.878125 227.086437 
L 66.878125 227.086437 
L 76.878125 227.086437 
" style="fill: none; stroke: #937860; stroke-width: 1.5; stroke-linecap: square"/>
    </g>
    <g id="text_19">
     <!-- ALL  (order = 10) -->
     <g transform="translate(84.878125 230.586437) scale(0.1 -0.1)">
      <use xlink:href="#DejaVuSans-41"/>
      <use xlink:href="#DejaVuSans-4c" transform="translate(68.408203 0)"/>
      <use xlink:href="#DejaVuSans-4c" transform="translate(124.121094 0)"/>
      <use xlink:href="#DejaVuSans-20" transform="translate(179.833984 0)"/>
      <use xlink:href="#DejaVuSans-20" transform="translate(211.621094 0)"/>
      <use xlink:href="#DejaVuSans-28" transform="translate(243.408203 0)"/>
      <use xlink:href="#DejaVuSans-6f" transform="translate(282.421875 0)"/>
      <use xlink:href="#DejaVuSans-72" transform="translate(343.603516 0)"/>
      <use xlink:href="#DejaVuSans-64" transform="translate(382.966797 0)"/>
      <use xlink:href="#DejaVuSans-65" transform="translate(446.443359 0)"/>
      <use xlink:href="#DejaVuSans-72" transform="translate(507.966797 0)"/>
      <use xlink:href="#DejaVuSans-20" transform="translate(549.080078 0)"/>
      <use xlink:href="#DejaVuSans-3d" transform="translate(580.867188 0)"/>
      <use xlink:href="#DejaVuSans-20" transform="translate(664.65625 0)"/>
      <use xlink:href="#DejaVuSans-31" transform="translate(696.443359 0)"/>
      <use xlink:href="#DejaVuSans-30" transform="translate(760.066406 0)"/>
      <use xlink:href="#DejaVuSans-29" transform="translate(823.689453 0)"/>
     </g>
    </g>
   </g>
  </g>
 </g>
 <defs>
  <clipPath id="p26887f6ec7">
   <rect x="47.878125" y="22.318125" width="656.702946" height="219.348"/>
  </clipPath>
 </defs>
</svg>
