<?xml version="1.0" encoding="utf-8" standalone="no"?>
<!DOCTYPE svg PUBLIC "-//W3C//DTD SVG 1.1//EN"
  "http://www.w3.org/Graphics/SVG/1.1/DTD/svg11.dtd">
<svg xmlns:xlink="http://www.w3.org/1999/xlink" width="712.351875pt" height="351.034375pt" viewBox="0 0 712.351875 351.034375" xmlns="http://www.w3.org/2000/svg" version="1.1">
 <metadata>
  <rdf:RDF xmlns:dc="http://purl.org/dc/elements/1.1/" xmlns:cc="http://creativecommons.org/ns#" xmlns:rdf="http://www.w3.org/1999/02/22-rdf-syntax-ns#">
   <cc:Work>
    <dc:type rdf:resource="http://purl.org/dc/dcmitype/StillImage"/>
    <dc:date>2026-04-08T19:05:52.053907</dc:date>
    <dc:format>image/svg+xml</dc:format>
    <dc:creator>
     <cc:Agent>
      <dc:title>Matplotlib v3.10.0, https://matplotlib.org/</dc:title>
     </cc:Agent>
    </dc:creator>
   </cc:Work>
  </rdf:RDF>
 </metadata>
 <defs>
  <style type="text/css">*{stroke-linejoin: round; stroke-linecap: butt}</style>
 </defs>
 <g id="figure_1">
  <g id="patch_1">
   <path d="M 0 351.034375 
L 712.351875 351.034375 
L 712.351875 0 
L 0 0 
z
" style="fill: #ffffff"/>
  </g>
  <g id="axes_1">
   <g id="patch_2">
    <path d="M 41.071875 316.978125 
L 705.151875 316.978125 
L 705.151875 22.318125 
L 41.071875 22.318125 
z
" style="fill: #ffffff"/>
   </g>
   <g id="matplotlib.axis_1">
    <g id="xtick_1">
     <g id="line2d_1">
      <path d="M 71.25733 316.978125 
L 71.25733 22.318125 
" clip-path="url(#pef7e3e8015)" style="fill: none; stroke: #b0b0b0; stroke-opacity: 0.3; stroke-width: 0.8; stroke-linecap: square"/>
     </g>
     <g id="line2d_2">
      <defs>
       <path id="m679c9c3c3c" d="M 0 0 
L 0 -3.5 
" style="stroke: #000000; stroke-width: 0.8"/>
      </defs>
      <g>
       <use xlink:href="#m679c9c3c3c" x="71.25733" y="316.978125" style="stroke: #000000; stroke-width: 0.8"/>
      </g>
     </g>
     <g id="text_1">
      <!-- 7 -->
      <g transform="translate(68.07608 328.076563) scale(0.1 -0.1)">
       <defs>
        <path id="DejaVuSans-37" d="M 525 4666 
L 3525 4666 
L 3525 4397 
L 1831 0 
L 1172 0 
L 2766 4134 
L 525 4134 
L 525 4666 
z
" transform="scale(0.015625)"/>
       </defs>
       <use xlink:href="#DejaVuSans-37"/>
      </g>
     </g>
    </g>
    <g id="xtick_2">
     <g id="line2d_3">
      <path d="M 158.751401 316.978125 
L 158.751401 22.318125 
" clip-path="url(#pef7e3e8015)" style="fill: none; stroke: #b0b0b0; stroke-opacity: 0.3; stroke-width: 0.8; stroke-linecap: square"/>
     </g>
     <g id="line2d_4">
      <g>
       <use xlink:href="#m679c9c3c3c" x="158.751401" y="316.978125" style="stroke: #000000; stroke-width: 0.8"/>
      </g>
     </g>
     <g id="text_2">
      <!-- 8 -->
      <g transform="translate(155.570151 328.076563) scale(0.1 -0.1)">
       <defs>
        <path id="DejaVuSans-38" d="M 2034 2216 
Q 1584 2216 1326 1975 
Q 1069 1734 1069 1313 
Q 1069 891 1326 650 
Q 1584 409 2034 409 
Q 2484 409 2743 651 
Q 3003 894 3003 1313 
Q 3003 1734 2745 1975 
Q 2488 2216 2034 2216 
z
M 1403 2484 
Q 997 2584 770 2862 
Q 544 3141 544 3541 
Q 544 4100 942 4425 
Q 1341 4750 2034 4750 
Q 2731 4750 3128 4425 
Q 3525 4100 3525 3541 
Q 3525 3141 3298 2862 
Q 3072 2584 2669 2484 
Q 3125 2378 3379 2068 
Q 3634 1759 3634 1313 
Q 3634 634 3220 271 
Q 2806 -91 2034 -91 
Q 1263 -91 848 271 
Q 434 634 434 1313 
Q 434 1759 690 2068 
Q 947 2378 1403 2484 
z
M 1172 3481 
Q 1172 3119 1398 2916 
Q 1625 2713 2034 2713 
Q 2441 2713 2670 2916 
Q 2900 3119 2900 3481 
Q 2900 3844 2670 4047 
Q 2441 4250 2034 4250 
Q 1625 4250 1398 4047 
Q 1172 3844 1172 3481 
z
" transform="scale(0.015625)"/>
       </defs>
       <use xlink:href="#DejaVuSans-38"/>
      </g>
     </g>
    </g>
    <g id="xtick_3">
     <g id="line2d_5">
      <path d="M 246.245472 316.978125 
L 246.245472 22.318125 
" clip-path="url(#pef7e3e8015)" style="fill: none; stroke: #b0b0b0; stroke-opacity: 0.3; stroke-width: 0.8; stroke-linecap: square"/>
     </g>
     <g id="line2d_6">
      <g>
       <use xlink:href="#m679c9c3c3c" x="246.245472" y="316.978125" style="stroke: #000000; stroke-width: 0.8"/>
      </g>
     </g>
     <g id="text_3">
      <!-- 9 -->
      <g transform="translate(243.064222 328.076563) scale(0.1 -0.1)">
       <defs>
        <path id="DejaVuSans-39" d="M 703 97 
L 703 672 
Q 941 559 1184 500 
Q 1428 441 1663 441 
Q 2288 441 2617 861 
Q 2947 1281 2994 2138 
Q 2813 1869 2534 1725 
Q 2256 1581 1919 1581 
Q 1219 1581 811 2004 
Q 403 2428 403 3163 
Q 403 3881 828 4315 
Q 1253 4750 1959 4750 
Q 2769 4750 3195 4129 
Q 3622 3509 3622 2328 
Q 3622 1225 3098 567 
Q 2575 -91 1691 -91 
Q 1453 -91 1209 -44 
Q 966 3 703 97 
z
M 1959 2075 
Q 2384 2075 2632 2365 
Q 2881 2656 2881 3163 
Q 2881 3666 2632 3958 
Q 2384 4250 1959 4250 
Q 1534 4250 1286 3958 
Q 1038 3666 1038 3163 
Q 1038 2656 1286 2365 
Q 1534 2075 1959 2075 
z
" transform="scale(0.015625)"/>
       </defs>
       <use xlink:href="#DejaVuSans-39"/>
      </g>
     </g>
    </g>
    <g id="xtick_4">
     <g id="line2d_7">
      <path d="M 333.739543 316.978125 
L 333.739543 22.318125 
" clip-path="url(#pef7e3e8015)" style="fill: none; stroke: #b0b0b0; stroke-opacity: 0.3; stroke-width: 0.8; stroke-linecap: square"/>
     </g>
     <g id="line2d_8">
      <g>
       <use xlink:href="#m679c9c3c3c" x="333.739543" y="316.978125" style="stroke: #000000; stroke-width: 0.8"/>
      </g>
     </g>
     <g id="text_4">
      <!-- 10 -->
      <g transform="translate(327.377043 328.076563) scale(0.1 -0.1)">
       <defs>
        <path id="DejaVuSans-31" d="M 794 531 
L 1825 531 
L 1825 4091 
L 703 3866 
L 703 4441 
L 1819 4666 
L 2450 4666 
L 2450 531 
L 3481 531 
L 3481 0 
L 794 0 
L 794 531 
z
" transform="scale(0.015625)"/>
        <path id="DejaVuSans-30" d="M 2034 4250 
Q 1547 4250 1301 3770 
Q 1056 3291 1056 2328 
Q 1056 1369 1301 889 
Q 1547 409 2034 409 
Q 2525 409 2770 889 
Q 3016 1369 3016 2328 
Q 3016 3291 2770 3770 
Q 2525 4250 2034 4250 
z
M 2034 4750 
Q 2819 4750 3233 4129 
Q 3647 3509 3647 2328 
Q 3647 1150 3233 529 
Q 2819 -91 2034 -91 
Q 1250 -91 836 529 
Q 422 1150 422 2328 
Q 422 3509 836 4129 
Q 1250 4750 2034 4750 
z
" transform="scale(0.015625)"/>
       </defs>
       <use xlink:href="#DejaVuSans-31"/>
       <use xlink:href="#DejaVuSans-30" transform="translate(63.623047 0)"/>
      </g>
     </g>
    </g>
    <g id="xtick_5">
     <g id="line2d_9">
      <path d="M 421.233614 316.978125 
L 421.233614 22.318125 
" clip-path="url(#pef7e3e8015)" style="fill: none; stroke: #b0b0b0; stroke-opacity: 0.3; stroke-width: 0.8; stroke-linecap: square"/>
     </g>
     <g id="line2d_10">
      <g>
       <use xlink:href="#m679c9c3c3c" x="421.233614" y="316.978125" style="stroke: #000000; stroke-width: 0.8"/>
      </g>
     </g>
     <g id="text_5">
      <!-- 11 -->
      <g transform="translate(414.871114 328.076563) scale(0.1 -0.1)">
       <use xlink:href="#DejaVuSans-31"/>
       <use xlink:href="#DejaVuSans-31" transform="translate(63.623047 0)"/>
      </g>
     </g>
    </g>
    <g id="xtick_6">
     <g id="line2d_11">
      <path d="M 508.727685 316.978125 
L 508.727685 22.318125 
" clip-path="url(#pef7e3e8015)" style="fill: none; stroke: #b0b0b0; stroke-opacity: 0.3; stroke-width: 0.8; stroke-linecap: square"/>
     </g>
     <g id="line2d_12">
      <g>
       <use xlink:href="#m679c9c3c3c" x="508.727685" y="316.978125" style="stroke: #000000; stroke-width: 0.8"/>
      </g>
     </g>
     <g id="text_6">
      <!-- 12 -->
      <g transform="translate(502.365185 328.076563) scale(0.1 -0.1)">
       <defs>
        <path id="DejaVuSans-32" d="M 1228 531 
L 3431 531 
L 3431 0 
L 469 0 
L 469 531 
Q 828 903 1448 1529 
Q 2069 2156 2228 2338 
Q 2531 2678 2651 2914 
Q 2772 3150 2772 3378 
Q 2772 3750 2511 3984 
Q 2250 4219 1831 4219 
Q 1534 4219 1204 4116 
Q 875 4013 500 3803 
L 500 4441 
Q 881 4594 1212 4672 
Q 1544 4750 1819 4750 
Q 2544 4750 2975 4387 
Q 3406 4025 3406 3419 
Q 3406 3131 3298 2873 
Q 3191 2616 2906 2266 
Q 2828 2175 2409 1742 
Q 1991 1309 1228 531 
z
" transform="scale(0.015625)"/>
       </defs>
       <use xlink:href="#DejaVuSans-31"/>
       <use xlink:href="#DejaVuSans-32" transform="translate(63.623047 0)"/>
      </g>
     </g>
    </g>
    <g id="xtick_7">
     <g id="line2d_13">
      <path d="M 596.221756 316.978125 
L 596.221756 22.318125 
" clip-path="url(#pef7e3e8015)" style="fill: none; stroke: #b0b0b0; stroke-opacity: 0.3; stroke-width: 0.8; stroke-linecap: square"/>
     </g>
     <g id="line2d_14">
      <g>
       <use xlink:href="#m679c9c3c3c" x="596.221756" y="316.978125" style="stroke: #000000; stroke-width: 0.8"/>
      </g>
     </g>
     <g id="text_7">
      <!-- 13 -->
      <g transform="translate(589.859256 328.076563) scale(0.1 -0.1)">
       <defs>
        <path id="DejaVuSans-33" d="M 2597 2516 
Q 3050 2419 3304 2112 
Q 3559 1806 3559 1356 
Q 3559 666 3084 287 
Q 2609 -91 1734 -91 
Q 1441 -91 1130 -33 
Q 819 25 488 141 
L 488 750 
Q 750 597 1062 519 
Q 1375 441 1716 441 
Q 2309 441 2620 675 
Q 2931 909 2931 1356 
Q 2931 1769 2642 2001 
Q 2353 2234 1838 2234 
L 1294 2234 
L 1294 2753 
L 1863 2753 
Q 2328 2753 2575 2939 
Q 2822 3125 2822 3475 
Q 2822 3834 2567 4026 
Q 2313 4219 1838 4219 
Q 1578 4219 1281 4162 
Q 984 4106 628 3988 
L 628 4550 
Q 988 4650 1302 4700 
Q 1616 4750 1894 4750 
Q 2613 4750 3031 4423 
Q 3450 4097 3450 3541 
Q 3450 3153 3228 2886 
Q 3006 2619 2597 2516 
z
" transform="scale(0.015625)"/>
       </defs>
       <use xlink:href="#DejaVuSans-31"/>
       <use xlink:href="#DejaVuSans-33" transform="translate(63.623047 0)"/>
      </g>
     </g>
    </g>
    <g id="xtick_8">
     <g id="line2d_15">
      <path d="M 683.715828 316.978125 
L 683.715828 22.318125 
" clip-path="url(#pef7e3e8015)" style="fill: none; stroke: #b0b0b0; stroke-opacity: 0.3; stroke-width: 0.8; stroke-linecap: square"/>
     </g>
     <g id="line2d_16">
      <g>
       <use xlink:href="#m679c9c3c3c" x="683.715828" y="316.978125" style="stroke: #000000; stroke-width: 0.8"/>
      </g>
     </g>
     <g id="text_8">
      <!-- 14 -->
      <g transform="translate(677.353328 328.076563) scale(0.1 -0.1)">
       <defs>
        <path id="DejaVuSans-34" d="M 2419 4116 
L 825 1625 
L 2419 1625 
L 2419 4116 
z
M 2253 4666 
L 3047 4666 
L 3047 1625 
L 3713 1625 
L 3713 1100 
L 3047 1100 
L 3047 0 
L 2419 0 
L 2419 1100 
L 313 1100 
L 313 1709 
L 2253 4666 
z
" transform="scale(0.015625)"/>
       </defs>
       <use xlink:href="#DejaVuSans-31"/>
       <use xlink:href="#DejaVuSans-34" transform="translate(63.623047 0)"/>
      </g>
     </g>
    </g>
    <g id="text_9">
     <!-- Frequency (Hz) -->
     <g transform="translate(335.407188 341.754687) scale(0.1 -0.1)">
      <defs>
       <path id="DejaVuSans-46" d="M 628 4666 
L 3309 4666 
L 3309 4134 
L 1259 4134 
L 1259 2759 
L 3109 2759 
L 3109 2228 
L 1259 2228 
L 1259 0 
L 628 0 
L 628 4666 
z
" transform="scale(0.015625)"/>
       <path id="DejaVuSans-72" d="M 2631 2963 
Q 2534 3019 2420 3045 
Q 2306 3072 2169 3072 
Q 1681 3072 1420 2755 
Q 1159 2438 1159 1844 
L 1159 0 
L 581 0 
L 581 3500 
L 1159 3500 
L 1159 2956 
Q 1341 3275 1631 3429 
Q 1922 3584 2338 3584 
Q 2397 3584 2469 3576 
Q 2541 3569 2628 3553 
L 2631 2963 
z
" transform="scale(0.015625)"/>
       <path id="DejaVuSans-65" d="M 3597 1894 
L 3597 1613 
L 953 1613 
Q 991 1019 1311 708 
Q 1631 397 2203 397 
Q 2534 397 2845 478 
Q 3156 559 3463 722 
L 3463 178 
Q 3153 47 2828 -22 
Q 2503 -91 2169 -91 
Q 1331 -91 842 396 
Q 353 884 353 1716 
Q 353 2575 817 3079 
Q 1281 3584 2069 3584 
Q 2775 3584 3186 3129 
Q 3597 2675 3597 1894 
z
M 3022 2063 
Q 3016 2534 2758 2815 
Q 2500 3097 2075 3097 
Q 1594 3097 1305 2825 
Q 1016 2553 972 2059 
L 3022 2063 
z
" transform="scale(0.015625)"/>
       <path id="DejaVuSans-71" d="M 947 1747 
Q 947 1113 1208 752 
Q 1469 391 1925 391 
Q 2381 391 2643 752 
Q 2906 1113 2906 1747 
Q 2906 2381 2643 2742 
Q 2381 3103 1925 3103 
Q 1469 3103 1208 2742 
Q 947 2381 947 1747 
z
M 2906 525 
Q 2725 213 2448 61 
Q 2172 -91 1784 -91 
Q 1150 -91 751 415 
Q 353 922 353 1747 
Q 353 2572 751 3078 
Q 1150 3584 1784 3584 
Q 2172 3584 2448 3432 
Q 2725 3281 2906 2969 
L 2906 3500 
L 3481 3500 
L 3481 -1331 
L 2906 -1331 
L 2906 525 
z
" transform="scale(0.015625)"/>
       <path id="DejaVuSans-75" d="M 544 1381 
L 544 3500 
L 1119 3500 
L 1119 1403 
Q 1119 906 1312 657 
Q 1506 409 1894 409 
Q 2359 409 2629 706 
Q 2900 1003 2900 1516 
L 2900 3500 
L 3475 3500 
L 3475 0 
L 2900 0 
L 2900 538 
Q 2691 219 2414 64 
Q 2138 -91 1772 -91 
Q 1169 -91 856 284 
Q 544 659 544 1381 
z
M 1991 3584 
L 1991 3584 
z
" transform="scale(0.015625)"/>
       <path id="DejaVuSans-6e" d="M 3513 2113 
L 3513 0 
L 2938 0 
L 2938 2094 
Q 2938 2591 2744 2837 
Q 2550 3084 2163 3084 
Q 1697 3084 1428 2787 
Q 1159 2491 1159 1978 
L 1159 0 
L 581 0 
L 581 3500 
L 1159 3500 
L 1159 2956 
Q 1366 3272 1645 3428 
Q 1925 3584 2291 3584 
Q 2894 3584 3203 3211 
Q 3513 2838 3513 2113 
z
" transform="scale(0.015625)"/>
       <path id="DejaVuSans-63" d="M 3122 3366 
L 3122 2828 
Q 2878 2963 2633 3030 
Q 2388 3097 2138 3097 
Q 1578 3097 1268 2742 
Q 959 2388 959 1747 
Q 959 1106 1268 751 
Q 1578 397 2138 397 
Q 2388 397 2633 464 
Q 2878 531 3122 666 
L 3122 134 
Q 2881 22 2623 -34 
Q 2366 -91 2075 -91 
Q 1284 -91 818 406 
Q 353 903 353 1747 
Q 353 2603 823 3093 
Q 1294 3584 2113 3584 
Q 2378 3584 2631 3529 
Q 2884 3475 3122 3366 
z
" transform="scale(0.015625)"/>
       <path id="DejaVuSans-79" d="M 2059 -325 
Q 1816 -950 1584 -1140 
Q 1353 -1331 966 -1331 
L 506 -1331 
L 506 -850 
L 844 -850 
Q 1081 -850 1212 -737 
Q 1344 -625 1503 -206 
L 1606 56 
L 191 3500 
L 800 3500 
L 1894 763 
L 2988 3500 
L 3597 3500 
L 2059 -325 
z
" transform="scale(0.015625)"/>
       <path id="DejaVuSans-20" transform="scale(0.015625)"/>
       <path id="DejaVuSans-28" d="M 1984 4856 
Q 1566 4138 1362 3434 
Q 1159 2731 1159 2009 
Q 1159 1288 1364 580 
Q 1569 -128 1984 -844 
L 1484 -844 
Q 1016 -109 783 600 
Q 550 1309 550 2009 
Q 550 2706 781 3412 
Q 1013 4119 1484 4856 
L 1984 4856 
z
" transform="scale(0.015625)"/>
       <path id="DejaVuSans-48" d="M 628 4666 
L 1259 4666 
L 1259 2753 
L 3553 2753 
L 3553 4666 
L 4184 4666 
L 4184 0 
L 3553 0 
L 3553 2222 
L 1259 2222 
L 1259 0 
L 628 0 
L 628 4666 
z
" transform="scale(0.015625)"/>
       <path id="DejaVuSans-7a" d="M 353 3500 
L 3084 3500 
L 3084 2975 
L 922 459 
L 3084 459 
L 3084 0 
L 275 0 
L 275 525 
L 2438 3041 
L 353 3041 
L 353 3500 
z
" transform="scale(0.015625)"/>
       <path id="DejaVuSans-29" d="M 513 4856 
L 1013 4856 
Q 1481 4119 1714 3412 
Q 1947 2706 1947 2009 
Q 1947 1309 1714 600 
Q 1481 -109 1013 -844 
L 513 -844 
Q 928 -128 1133 580 
Q 1338 1288 1338 2009 
Q 1338 2731 1133 3434 
Q 928 4138 513 4856 
z
" transform="scale(0.015625)"/>
      </defs>
      <use xlink:href="#DejaVuSans-46"/>
      <use xlink:href="#DejaVuSans-72" transform="translate(50.269531 0)"/>
      <use xlink:href="#DejaVuSans-65" transform="translate(89.132812 0)"/>
      <use xlink:href="#DejaVuSans-71" transform="translate(150.65625 0)"/>
      <use xlink:href="#DejaVuSans-75" transform="translate(214.132812 0)"/>
      <use xlink:href="#DejaVuSans-65" transform="translate(277.511719 0)"/>
      <use xlink:href="#DejaVuSans-6e" transform="translate(339.035156 0)"/>
      <use xlink:href="#DejaVuSans-63" transform="translate(402.414062 0)"/>
      <use xlink:href="#DejaVuSans-79" transform="translate(457.394531 0)"/>
      <use xlink:href="#DejaVuSans-20" transform="translate(516.574219 0)"/>
      <use xlink:href="#DejaVuSans-28" transform="translate(548.361328 0)"/>
      <use xlink:href="#DejaVuSans-48" transform="translate(587.375 0)"/>
      <use xlink:href="#DejaVuSans-7a" transform="translate(662.570312 0)"/>
      <use xlink:href="#DejaVuSans-29" transform="translate(715.060547 0)"/>
     </g>
    </g>
   </g>
   <g id="matplotlib.axis_2">
    <g id="ytick_1">
     <g id="line2d_17">
      <path d="M 41.071875 303.584489 
L 705.151875 303.584489 
" clip-path="url(#pef7e3e8015)" style="fill: none; stroke: #b0b0b0; stroke-opacity: 0.3; stroke-width: 0.8; stroke-linecap: square"/>
     </g>
     <g id="line2d_18">
      <defs>
       <path id="m3fffa83bac" d="M 0 0 
L 3.5 0 
" style="stroke: #000000; stroke-width: 0.8"/>
      </defs>
      <g>
       <use xlink:href="#m3fffa83bac" x="41.071875" y="303.584489" style="stroke: #000000; stroke-width: 0.8"/>
      </g>
     </g>
     <g id="text_10">
      <!-- 0.0 -->
      <g transform="translate(21.66875 307.383707) scale(0.1 -0.1)">
       <defs>
        <path id="DejaVuSans-2e" d="M 684 794 
L 1344 794 
L 1344 0 
L 684 0 
L 684 794 
z
" transform="scale(0.015625)"/>
       </defs>
       <use xlink:href="#DejaVuSans-30"/>
       <use xlink:href="#DejaVuSans-2e" transform="translate(63.623047 0)"/>
       <use xlink:href="#DejaVuSans-30" transform="translate(95.410156 0)"/>
      </g>
     </g>
    </g>
    <g id="ytick_2">
     <g id="line2d_19">
      <path d="M 41.071875 265.882204 
L 705.151875 265.882204 
" clip-path="url(#pef7e3e8015)" style="fill: none; stroke: #b0b0b0; stroke-opacity: 0.3; stroke-width: 0.8; stroke-linecap: square"/>
     </g>
     <g id="line2d_20">
      <g>
       <use xlink:href="#m3fffa83bac" x="41.071875" y="265.882204" style="stroke: #000000; stroke-width: 0.8"/>
      </g>
     </g>
     <g id="text_11">
      <!-- 0.2 -->
      <g transform="translate(21.66875 269.681422) scale(0.1 -0.1)">
       <use xlink:href="#DejaVuSans-30"/>
       <use xlink:href="#DejaVuSans-2e" transform="translate(63.623047 0)"/>
       <use xlink:href="#DejaVuSans-32" transform="translate(95.410156 0)"/>
      </g>
     </g>
    </g>
    <g id="ytick_3">
     <g id="line2d_21">
      <path d="M 41.071875 228.179918 
L 705.151875 228.179918 
" clip-path="url(#pef7e3e8015)" style="fill: none; stroke: #b0b0b0; stroke-opacity: 0.3; stroke-width: 0.8; stroke-linecap: square"/>
     </g>
     <g id="line2d_22">
      <g>
       <use xlink:href="#m3fffa83bac" x="41.071875" y="228.179918" style="stroke: #000000; stroke-width: 0.8"/>
      </g>
     </g>
     <g id="text_12">
      <!-- 0.4 -->
      <g transform="translate(21.66875 231.979137) scale(0.1 -0.1)">
       <use xlink:href="#DejaVuSans-30"/>
       <use xlink:href="#DejaVuSans-2e" transform="translate(63.623047 0)"/>
       <use xlink:href="#DejaVuSans-34" transform="translate(95.410156 0)"/>
      </g>
     </g>
    </g>
    <g id="ytick_4">
     <g id="line2d_23">
      <path d="M 41.071875 190.477633 
L 705.151875 190.477633 
" clip-path="url(#pef7e3e8015)" style="fill: none; stroke: #b0b0b0; stroke-opacity: 0.3; stroke-width: 0.8; stroke-linecap: square"/>
     </g>
     <g id="line2d_24">
      <g>
       <use xlink:href="#m3fffa83bac" x="41.071875" y="190.477633" style="stroke: #000000; stroke-width: 0.8"/>
      </g>
     </g>
     <g id="text_13">
      <!-- 0.6 -->
      <g transform="translate(21.66875 194.276852) scale(0.1 -0.1)">
       <defs>
        <path id="DejaVuSans-36" d="M 2113 2584 
Q 1688 2584 1439 2293 
Q 1191 2003 1191 1497 
Q 1191 994 1439 701 
Q 1688 409 2113 409 
Q 2538 409 2786 701 
Q 3034 994 3034 1497 
Q 3034 2003 2786 2293 
Q 2538 2584 2113 2584 
z
M 3366 4563 
L 3366 3988 
Q 3128 4100 2886 4159 
Q 2644 4219 2406 4219 
Q 1781 4219 1451 3797 
Q 1122 3375 1075 2522 
Q 1259 2794 1537 2939 
Q 1816 3084 2150 3084 
Q 2853 3084 3261 2657 
Q 3669 2231 3669 1497 
Q 3669 778 3244 343 
Q 2819 -91 2113 -91 
Q 1303 -91 875 529 
Q 447 1150 447 2328 
Q 447 3434 972 4092 
Q 1497 4750 2381 4750 
Q 2619 4750 2861 4703 
Q 3103 4656 3366 4563 
z
" transform="scale(0.015625)"/>
       </defs>
       <use xlink:href="#DejaVuSans-30"/>
       <use xlink:href="#DejaVuSans-2e" transform="translate(63.623047 0)"/>
       <use xlink:href="#DejaVuSans-36" transform="translate(95.410156 0)"/>
      </g>
     </g>
    </g>
    <g id="ytick_5">
     <g id="line2d_25">
      <path d="M 41.071875 152.775348 
L 705.151875 152.775348 
" clip-path="url(#pef7e3e8015)" style="fill: none; stroke: #b0b0b0; stroke-opacity: 0.3; stroke-width: 0.8; stroke-linecap: square"/>
     </g>
     <g id="line2d_26">
      <g>
       <use xlink:href="#m3fffa83bac" x="41.071875" y="152.775348" style="stroke: #000000; stroke-width: 0.8"/>
      </g>
     </g>
     <g id="text_14">
      <!-- 0.8 -->
      <g transform="translate(21.66875 156.574567) scale(0.1 -0.1)">
       <use xlink:href="#DejaVuSans-30"/>
       <use xlink:href="#DejaVuSans-2e" transform="translate(63.623047 0)"/>
       <use xlink:href="#DejaVuSans-38" transform="translate(95.410156 0)"/>
      </g>
     </g>
    </g>
    <g id="ytick_6">
     <g id="line2d_27">
      <path d="M 41.071875 115.073063 
L 705.151875 115.073063 
" clip-path="url(#pef7e3e8015)" style="fill: none; stroke: #b0b0b0; stroke-opacity: 0.3; stroke-width: 0.8; stroke-linecap: square"/>
     </g>
     <g id="line2d_28">
      <g>
       <use xlink:href="#m3fffa83bac" x="41.071875" y="115.073063" style="stroke: #000000; stroke-width: 0.8"/>
      </g>
     </g>
     <g id="text_15">
      <!-- 1.0 -->
      <g transform="translate(21.66875 118.872282) scale(0.1 -0.1)">
       <use xlink:href="#DejaVuSans-31"/>
       <use xlink:href="#DejaVuSans-2e" transform="translate(63.623047 0)"/>
       <use xlink:href="#DejaVuSans-30" transform="translate(95.410156 0)"/>
      </g>
     </g>
    </g>
    <g id="ytick_7">
     <g id="line2d_29">
      <path d="M 41.071875 77.370778 
L 705.151875 77.370778 
" clip-path="url(#pef7e3e8015)" style="fill: none; stroke: #b0b0b0; stroke-opacity: 0.3; stroke-width: 0.8; stroke-linecap: square"/>
     </g>
     <g id="line2d_30">
      <g>
       <use xlink:href="#m3fffa83bac" x="41.071875" y="77.370778" style="stroke: #000000; stroke-width: 0.8"/>
      </g>
     </g>
     <g id="text_16">
      <!-- 1.2 -->
      <g transform="translate(21.66875 81.169997) scale(0.1 -0.1)">
       <use xlink:href="#DejaVuSans-31"/>
       <use xlink:href="#DejaVuSans-2e" transform="translate(63.623047 0)"/>
       <use xlink:href="#DejaVuSans-32" transform="translate(95.410156 0)"/>
      </g>
     </g>
    </g>
    <g id="ytick_8">
     <g id="line2d_31">
      <path d="M 41.071875 39.668493 
L 705.151875 39.668493 
" clip-path="url(#pef7e3e8015)" style="fill: none; stroke: #b0b0b0; stroke-opacity: 0.3; stroke-width: 0.8; stroke-linecap: square"/>
     </g>
     <g id="line2d_32">
      <g>
       <use xlink:href="#m3fffa83bac" x="41.071875" y="39.668493" style="stroke: #000000; stroke-width: 0.8"/>
      </g>
     </g>
     <g id="text_17">
      <!-- 1.4 -->
      <g transform="translate(21.66875 43.467712) scale(0.1 -0.1)">
       <use xlink:href="#DejaVuSans-31"/>
       <use xlink:href="#DejaVuSans-2e" transform="translate(63.623047 0)"/>
       <use xlink:href="#DejaVuSans-34" transform="translate(95.410156 0)"/>
      </g>
     </g>
    </g>
    <g id="text_18">
     <!-- |ASD| (V/√Hz) -->
     <g transform="translate(15.310938 203.627031) rotate(-90) scale(0.1 -0.1)">
      <defs>
       <path id="DejaVuSans-7c" d="M 1344 4891 
L 1344 -1509 
L 813 -1509 
L 813 4891 
L 1344 4891 
z
" transform="scale(0.015625)"/>
       <path id="DejaVuSans-41" d="M 2188 4044 
L 1331 1722 
L 3047 1722 
L 2188 4044 
z
M 1831 4666 
L 2547 4666 
L 4325 0 
L 3669 0 
L 3244 1197 
L 1141 1197 
L 716 0 
L 50 0 
L 1831 4666 
z
" transform="scale(0.015625)"/>
       <path id="DejaVuSans-53" d="M 3425 4513 
L 3425 3897 
Q 3066 4069 2747 4153 
Q 2428 4238 2131 4238 
Q 1616 4238 1336 4038 
Q 1056 3838 1056 3469 
Q 1056 3159 1242 3001 
Q 1428 2844 1947 2747 
L 2328 2669 
Q 3034 2534 3370 2195 
Q 3706 1856 3706 1288 
Q 3706 609 3251 259 
Q 2797 -91 1919 -91 
Q 1588 -91 1214 -16 
Q 841 59 441 206 
L 441 856 
Q 825 641 1194 531 
Q 1563 422 1919 422 
Q 2459 422 2753 634 
Q 3047 847 3047 1241 
Q 3047 1584 2836 1778 
Q 2625 1972 2144 2069 
L 1759 2144 
Q 1053 2284 737 2584 
Q 422 2884 422 3419 
Q 422 4038 858 4394 
Q 1294 4750 2059 4750 
Q 2388 4750 2728 4690 
Q 3069 4631 3425 4513 
z
" transform="scale(0.015625)"/>
       <path id="DejaVuSans-44" d="M 1259 4147 
L 1259 519 
L 2022 519 
Q 2988 519 3436 956 
Q 3884 1394 3884 2338 
Q 3884 3275 3436 3711 
Q 2988 4147 2022 4147 
L 1259 4147 
z
M 628 4666 
L 1925 4666 
Q 3281 4666 3915 4102 
Q 4550 3538 4550 2338 
Q 4550 1131 3912 565 
Q 3275 0 1925 0 
L 628 0 
L 628 4666 
z
" transform="scale(0.015625)"/>
       <path id="DejaVuSans-56" d="M 1831 0 
L 50 4666 
L 709 4666 
L 2188 738 
L 3669 4666 
L 4325 4666 
L 2547 0 
L 1831 0 
z
" transform="scale(0.015625)"/>
       <path id="DejaVuSans-2f" d="M 1625 4666 
L 2156 4666 
L 531 -594 
L 0 -594 
L 1625 4666 
z
" transform="scale(0.015625)"/>
       <path id="DejaVuSans-221a" d="M 3488 5191 
L 4078 5191 
L 4078 4891 
L 3719 4891 
L 1863 -128 
L 1656 -128 
L 659 2631 
L 269 2491 
L 191 2741 
L 1075 3047 
L 1875 831 
L 3488 5191 
z
" transform="scale(0.015625)"/>
      </defs>
      <use xlink:href="#DejaVuSans-7c"/>
      <use xlink:href="#DejaVuSans-41" transform="translate(33.691406 0)"/>
      <use xlink:href="#DejaVuSans-53" transform="translate(102.099609 0)"/>
      <use xlink:href="#DejaVuSans-44" transform="translate(165.576172 0)"/>
      <use xlink:href="#DejaVuSans-7c" transform="translate(242.578125 0)"/>
      <use xlink:href="#DejaVuSans-20" transform="translate(276.269531 0)"/>
      <use xlink:href="#DejaVuSans-28" transform="translate(308.056641 0)"/>
      <use xlink:href="#DejaVuSans-56" transform="translate(347.070312 0)"/>
      <use xlink:href="#DejaVuSans-2f" transform="translate(415.478516 0)"/>
      <use xlink:href="#DejaVuSans-221a" transform="translate(449.169922 0)"/>
      <use xlink:href="#DejaVuSans-48" transform="translate(512.890625 0)"/>
      <use xlink:href="#DejaVuSans-7a" transform="translate(588.085938 0)"/>
      <use xlink:href="#DejaVuSans-29" transform="translate(640.576172 0)"/>
     </g>
    </g>
   </g>
   <g id="line2d_33">
    <path d="M 370.487053 316.978125 
L 370.487053 22.318125 
" clip-path="url(#pef7e3e8015)" style="fill: none; stroke: #808080; stroke-width: 2; stroke-linecap: square"/>
   </g>
   <g id="line2d_34">
    <defs>
     <path id="mddc594b5f1" d="M 0 3 
C 0.795609 3 1.55874 2.683901 2.12132 2.12132 
C 2.683901 1.55874 3 0.795609 3 0 
C 3 -0.795609 2.683901 -1.55874 2.12132 -2.12132 
C 1.55874 -2.683901 0.795609 -3 0 -3 
C -0.795609 -3 -1.55874 -2.683901 -2.12132 -2.12132 
C -2.683901 -1.55874 -3 -0.795609 -3 0 
C -3 0.795609 -2.683901 1.55874 -2.12132 2.12132 
C -1.55874 2.683901 -0.795609 3 0 3 
z
" style="stroke: #4c72b0"/>
    </defs>
    <g clip-path="url(#pef7e3e8015)">
     <use xlink:href="#mddc594b5f1" x="71.25733" y="276.938372" style="fill: #4c72b0; stroke: #4c72b0"/>
     <use xlink:href="#mddc594b5f1" x="158.751401" y="266.917816" style="fill: #4c72b0; stroke: #4c72b0"/>
     <use xlink:href="#mddc594b5f1" x="246.245472" y="242.968945" style="fill: #4c72b0; stroke: #4c72b0"/>
     <use xlink:href="#mddc594b5f1" x="333.739543" y="105.397052" style="fill: #4c72b0; stroke: #4c72b0"/>
     <use xlink:href="#mddc594b5f1" x="421.233614" y="164.001429" style="fill: #4c72b0; stroke: #4c72b0"/>
     <use xlink:href="#mddc594b5f1" x="508.727685" y="253.722601" style="fill: #4c72b0; stroke: #4c72b0"/>
     <use xlink:href="#mddc594b5f1" x="596.221756" y="273.225522" style="fill: #4c72b0; stroke: #4c72b0"/>
    </g>
   </g>
   <g id="line2d_35">
    <path d="M 333.739543 316.978125 
L 333.739543 22.318125 
" clip-path="url(#pef7e3e8015)" style="fill: none; stroke-dasharray: 5.55,2.4; stroke-dashoffset: 0; stroke: #4c72b0; stroke-width: 1.5"/>
   </g>
   <g id="line2d_36">
    <path d="M 71.25733 303.584489 
L 80.006737 303.584489 
L 88.756144 303.584489 
L 97.505551 303.584489 
L 106.254958 303.584489 
L 115.004365 303.584489 
L 123.753772 303.584489 
L 132.503179 303.584489 
L 141.252586 303.584489 
L 150.001994 303.584489 
L 158.751401 303.584489 
L 167.500808 303.584489 
L 176.250215 303.584489 
L 184.999622 303.584489 
L 193.749029 303.584489 
L 202.498436 303.584489 
L 211.247843 303.584489 
L 219.99725 303.584489 
L 228.746658 303.584489 
L 237.496065 303.584489 
L 246.245472 303.584489 
L 254.994879 303.584489 
L 263.744286 303.584489 
L 272.493693 303.584489 
L 281.2431 234.844122 
L 289.992507 201.198856 
L 298.741915 176.14667 
L 307.491322 155.267337 
L 316.240729 136.984497 
L 324.990136 120.518552 
L 333.739543 105.416083 
L 342.48895 91.385768 
L 351.238357 78.227268 
L 359.987764 65.795808 
L 368.737171 71.175995 
L 377.486579 83.911714 
L 386.235986 97.432728 
L 394.985393 111.905151 
L 403.7348 127.5635 
L 412.484207 144.758141 
L 421.233614 164.055893 
L 429.983021 186.492008 
L 438.732428 214.404507 
L 447.481835 256.728439 
L 456.231243 303.584489 
L 464.98065 303.584489 
L 473.730057 303.584489 
L 482.479464 303.584489 
L 491.228871 303.584489 
L 499.978278 303.584489 
L 508.727685 303.584489 
L 517.477092 303.584489 
L 526.2265 303.584489 
L 534.975907 303.584489 
L 543.725314 303.584489 
L 552.474721 303.584489 
L 561.224128 303.584489 
L 569.973535 303.584489 
L 578.722942 303.584489 
L 587.472349 303.584489 
L 596.221756 303.584489 
L 604.971164 303.584489 
L 613.720571 303.584489 
L 622.469978 303.584489 
L 631.219385 303.584489 
L 639.968792 303.584489 
L 648.718199 303.584489 
L 657.467606 303.584489 
L 666.217013 303.584489 
L 674.96642 303.584489 
" clip-path="url(#pef7e3e8015)" style="fill: none; stroke: #55a868; stroke-width: 1.5; stroke-linecap: square"/>
   </g>
   <g id="line2d_37">
    <path d="M 362.440323 316.978125 
L 362.440323 22.318125 
" clip-path="url(#pef7e3e8015)" style="fill: none; stroke-dasharray: 5.55,2.4; stroke-dashoffset: 0; stroke: #55a868; stroke-width: 1.5"/>
   </g>
   <g id="line2d_38">
    <path d="M 71.25733 276.425067 
L 80.006737 278.765459 
L 88.756144 283.736171 
L 97.505551 290.964441 
L 106.254958 299.620091 
L 115.004365 296.961077 
L 123.753772 287.266439 
L 132.503179 278.458203 
L 141.252586 271.581064 
L 150.001994 267.470285 
L 158.751401 266.741541 
L 167.500808 269.727784 
L 176.250215 276.42988 
L 184.999622 286.484233 
L 193.749029 298.98084 
L 202.498436 293.207276 
L 211.247843 278.425777 
L 219.99725 264.557885 
L 228.746658 253.125563 
L 237.496065 245.541656 
L 246.245472 243.037271 
L 254.994879 246.559607 
L 263.744286 256.683145 
L 272.493693 273.540786 
L 281.2431 296.657853 
L 289.992507 281.277719 
L 298.741915 247.984436 
L 307.491322 211.831912 
L 316.240729 174.688124 
L 324.990136 138.542143 
L 333.739543 105.390523 
L 342.48895 77.104282 
L 351.238357 55.301441 
L 359.987764 41.235974 
L 368.737171 35.711761 
L 377.486579 39.028048 
L 386.235986 50.960434 
L 394.985393 70.778701 
L 403.7348 97.299949 
L 412.484207 128.972828 
L 421.233614 163.986275 
L 429.983021 200.394315 
L 438.732428 236.246849 
L 447.481835 269.711919 
L 456.231243 298.955168 
L 464.98065 283.462544 
L 473.730057 265.18588 
L 482.479464 253.304202 
L 491.228871 247.784096 
L 499.978278 248.158522 
L 508.727685 253.599226 
L 517.477092 262.999794 
L 526.2265 275.072134 
L 534.975907 288.439284 
L 543.725314 301.224815 
L 552.474721 292.851725 
L 561.224128 282.849748 
L 569.973535 275.664724 
L 578.722942 271.727179 
L 587.472349 271.12088 
L 596.221756 273.625817 
L 604.971164 278.761706 
L 613.720571 285.845167 
L 622.469978 294.041054 
L 631.219385 301.718613 
L 639.968792 296.146477 
L 648.718199 289.395923 
L 657.467606 284.362387 
L 666.217013 281.454999 
L 674.96642 280.823335 
" clip-path="url(#pef7e3e8015)" style="fill: none; stroke: #c44e52; stroke-width: 1.5; stroke-linecap: square"/>
   </g>
   <g id="line2d_39">
    <path d="M 71.25733 276.938372 
L 80.006737 276.038869 
L 88.756144 275.042704 
L 97.505551 273.949876 
L 106.254958 272.760387 
L 115.004365 271.474236 
L 123.753772 270.224393 
L 132.503179 269.14383 
L 141.252586 268.232546 
L 150.001994 267.490541 
L 158.751401 266.917816 
L 167.500808 266.51437 
L 176.250215 266.280203 
L 184.999622 266.215315 
L 193.749029 266.319707 
L 202.498436 266.593378 
L 211.247843 265.935049 
L 219.99725 263.243441 
L 228.746658 258.518555 
L 237.496065 251.760389 
L 246.245472 242.968945 
L 254.994879 232.144222 
L 263.744286 219.28622 
L 272.493693 204.394939 
L 281.2431 187.470379 
L 289.992507 168.512541 
L 298.741915 150.008339 
L 307.491322 134.444689 
L 316.240729 121.821591 
L 324.990136 112.139045 
L 333.739543 105.397052 
L 342.48895 101.59561 
L 351.238357 100.734721 
L 359.987764 102.814383 
L 368.737171 107.834598 
L 377.486579 115.795364 
L 386.235986 125.268441 
L 394.985393 134.825586 
L 403.7348 144.466799 
L 412.484207 154.19208 
L 421.233614 164.001429 
L 429.983021 173.894846 
L 438.732428 183.872331 
L 447.481835 193.933885 
L 456.231243 204.079506 
L 464.98065 214.309195 
L 473.730057 224.10311 
L 482.479464 232.941408 
L 491.228871 240.824089 
L 499.978278 247.751154 
L 508.727685 253.722601 
L 517.477092 258.738431 
L 526.2265 262.798644 
L 534.975907 265.903241 
L 543.725314 268.05222 
L 552.474721 269.245583 
L 561.224128 269.977223 
L 569.973535 270.741038 
L 578.722942 271.537026 
L 587.472349 272.365187 
L 596.221756 273.225522 
L 604.971164 274.118031 
L 613.720571 275.042713 
L 622.469978 275.999568 
L 631.219385 276.988598 
L 639.968792 278.0098 
L 648.718199 279.016652 
L 657.467606 279.962627 
L 666.217013 280.847726 
L 674.96642 281.671949 
" clip-path="url(#pef7e3e8015)" style="fill: none; stroke: #8172b2; stroke-width: 1.5; stroke-linecap: square"/>
   </g>
   <g id="line2d_40">
    <path d="M 351.349189 316.978125 
L 351.349189 22.318125 
" clip-path="url(#pef7e3e8015)" style="fill: none; stroke-dasharray: 5.55,2.4; stroke-dashoffset: 0; stroke: #8172b2; stroke-width: 1.5"/>
   </g>
   <g id="patch_3">
    <path d="M 41.071875 316.978125 
L 41.071875 22.318125 
" style="fill: none; stroke: #000000; stroke-width: 0.8; stroke-linejoin: miter; stroke-linecap: square"/>
   </g>
   <g id="patch_4">
    <path d="M 705.151875 316.978125 
L 705.151875 22.318125 
" style="fill: none; stroke: #000000; stroke-width: 0.8; stroke-linejoin: miter; stroke-linecap: square"/>
   </g>
   <g id="patch_5">
    <path d="M 41.071875 316.978125 
L 705.151875 316.978125 
" style="fill: none; stroke: #000000; stroke-width: 0.8; stroke-linejoin: miter; stroke-linecap: square"/>
   </g>
   <g id="patch_6">
    <path d="M 41.071875 22.318125 
L 705.151875 22.318125 
" style="fill: none; stroke: #000000; stroke-width: 0.8; stroke-linejoin: miter; stroke-linecap: square"/>
   </g>
   <g id="text_19">
    <!-- Baseline parameter estimation — true freq 10.42 Hz, Δf = 1.00 Hz -->
    <g transform="translate(173.9025 16.318125) scale(0.12 -0.12)">
     <defs>
      <path id="DejaVuSans-42" d="M 1259 2228 
L 1259 519 
L 2272 519 
Q 2781 519 3026 730 
Q 3272 941 3272 1375 
Q 3272 1813 3026 2020 
Q 2781 2228 2272 2228 
L 1259 2228 
z
M 1259 4147 
L 1259 2741 
L 2194 2741 
Q 2656 2741 2882 2914 
Q 3109 3088 3109 3444 
Q 3109 3797 2882 3972 
Q 2656 4147 2194 4147 
L 1259 4147 
z
M 628 4666 
L 2241 4666 
Q 2963 4666 3353 4366 
Q 3744 4066 3744 3513 
Q 3744 3084 3544 2831 
Q 3344 2578 2956 2516 
Q 3422 2416 3680 2098 
Q 3938 1781 3938 1306 
Q 3938 681 3513 340 
Q 3088 0 2303 0 
L 628 0 
L 628 4666 
z
" transform="scale(0.015625)"/>
      <path id="DejaVuSans-61" d="M 2194 1759 
Q 1497 1759 1228 1600 
Q 959 1441 959 1056 
Q 959 750 1161 570 
Q 1363 391 1709 391 
Q 2188 391 2477 730 
Q 2766 1069 2766 1631 
L 2766 1759 
L 2194 1759 
z
M 3341 1997 
L 3341 0 
L 2766 0 
L 2766 531 
Q 2569 213 2275 61 
Q 1981 -91 1556 -91 
Q 1019 -91 701 211 
Q 384 513 384 1019 
Q 384 1609 779 1909 
Q 1175 2209 1959 2209 
L 2766 2209 
L 2766 2266 
Q 2766 2663 2505 2880 
Q 2244 3097 1772 3097 
Q 1472 3097 1187 3025 
Q 903 2953 641 2809 
L 641 3341 
Q 956 3463 1253 3523 
Q 1550 3584 1831 3584 
Q 2591 3584 2966 3190 
Q 3341 2797 3341 1997 
z
" transform="scale(0.015625)"/>
      <path id="DejaVuSans-73" d="M 2834 3397 
L 2834 2853 
Q 2591 2978 2328 3040 
Q 2066 3103 1784 3103 
Q 1356 3103 1142 2972 
Q 928 2841 928 2578 
Q 928 2378 1081 2264 
Q 1234 2150 1697 2047 
L 1894 2003 
Q 2506 1872 2764 1633 
Q 3022 1394 3022 966 
Q 3022 478 2636 193 
Q 2250 -91 1575 -91 
Q 1294 -91 989 -36 
Q 684 19 347 128 
L 347 722 
Q 666 556 975 473 
Q 1284 391 1588 391 
Q 1994 391 2212 530 
Q 2431 669 2431 922 
Q 2431 1156 2273 1281 
Q 2116 1406 1581 1522 
L 1381 1569 
Q 847 1681 609 1914 
Q 372 2147 372 2553 
Q 372 3047 722 3315 
Q 1072 3584 1716 3584 
Q 2034 3584 2315 3537 
Q 2597 3491 2834 3397 
z
" transform="scale(0.015625)"/>
      <path id="DejaVuSans-6c" d="M 603 4863 
L 1178 4863 
L 1178 0 
L 603 0 
L 603 4863 
z
" transform="scale(0.015625)"/>
      <path id="DejaVuSans-69" d="M 603 3500 
L 1178 3500 
L 1178 0 
L 603 0 
L 603 3500 
z
M 603 4863 
L 1178 4863 
L 1178 4134 
L 603 4134 
L 603 4863 
z
" transform="scale(0.015625)"/>
      <path id="DejaVuSans-70" d="M 1159 525 
L 1159 -1331 
L 581 -1331 
L 581 3500 
L 1159 3500 
L 1159 2969 
Q 1341 3281 1617 3432 
Q 1894 3584 2278 3584 
Q 2916 3584 3314 3078 
Q 3713 2572 3713 1747 
Q 3713 922 3314 415 
Q 2916 -91 2278 -91 
Q 1894 -91 1617 61 
Q 1341 213 1159 525 
z
M 3116 1747 
Q 3116 2381 2855 2742 
Q 2594 3103 2138 3103 
Q 1681 3103 1420 2742 
Q 1159 2381 1159 1747 
Q 1159 1113 1420 752 
Q 1681 391 2138 391 
Q 2594 391 2855 752 
Q 3116 1113 3116 1747 
z
" transform="scale(0.015625)"/>
      <path id="DejaVuSans-6d" d="M 3328 2828 
Q 3544 3216 3844 3400 
Q 4144 3584 4550 3584 
Q 5097 3584 5394 3201 
Q 5691 2819 5691 2113 
L 5691 0 
L 5113 0 
L 5113 2094 
Q 5113 2597 4934 2840 
Q 4756 3084 4391 3084 
Q 3944 3084 3684 2787 
Q 3425 2491 3425 1978 
L 3425 0 
L 2847 0 
L 2847 2094 
Q 2847 2600 2669 2842 
Q 2491 3084 2119 3084 
Q 1678 3084 1418 2786 
Q 1159 2488 1159 1978 
L 1159 0 
L 581 0 
L 581 3500 
L 1159 3500 
L 1159 2956 
Q 1356 3278 1631 3431 
Q 1906 3584 2284 3584 
Q 2666 3584 2933 3390 
Q 3200 3197 3328 2828 
z
" transform="scale(0.015625)"/>
      <path id="DejaVuSans-74" d="M 1172 4494 
L 1172 3500 
L 2356 3500 
L 2356 3053 
L 1172 3053 
L 1172 1153 
Q 1172 725 1289 603 
Q 1406 481 1766 481 
L 2356 481 
L 2356 0 
L 1766 0 
Q 1100 0 847 248 
Q 594 497 594 1153 
L 594 3053 
L 172 3053 
L 172 3500 
L 594 3500 
L 594 4494 
L 1172 4494 
z
" transform="scale(0.015625)"/>
      <path id="DejaVuSans-6f" d="M 1959 3097 
Q 1497 3097 1228 2736 
Q 959 2375 959 1747 
Q 959 1119 1226 758 
Q 1494 397 1959 397 
Q 2419 397 2687 759 
Q 2956 1122 2956 1747 
Q 2956 2369 2687 2733 
Q 2419 3097 1959 3097 
z
M 1959 3584 
Q 2709 3584 3137 3096 
Q 3566 2609 3566 1747 
Q 3566 888 3137 398 
Q 2709 -91 1959 -91 
Q 1206 -91 779 398 
Q 353 888 353 1747 
Q 353 2609 779 3096 
Q 1206 3584 1959 3584 
z
" transform="scale(0.015625)"/>
      <path id="DejaVuSans-2014" d="M 313 1978 
L 6088 1978 
L 6088 1528 
L 313 1528 
L 313 1978 
z
" transform="scale(0.015625)"/>
      <path id="DejaVuSans-66" d="M 2375 4863 
L 2375 4384 
L 1825 4384 
Q 1516 4384 1395 4259 
Q 1275 4134 1275 3809 
L 1275 3500 
L 2222 3500 
L 2222 3053 
L 1275 3053 
L 1275 0 
L 697 0 
L 697 3053 
L 147 3053 
L 147 3500 
L 697 3500 
L 697 3744 
Q 697 4328 969 4595 
Q 1241 4863 1831 4863 
L 2375 4863 
z
" transform="scale(0.015625)"/>
      <path id="DejaVuSans-2c" d="M 750 794 
L 1409 794 
L 1409 256 
L 897 -744 
L 494 -744 
L 750 256 
L 750 794 
z
" transform="scale(0.015625)"/>
      <path id="DejaVuSans-394" d="M 2188 4044 
L 906 525 
L 3472 525 
L 2188 4044 
z
M 50 0 
L 1831 4666 
L 2547 4666 
L 4325 0 
L 50 0 
z
" transform="scale(0.015625)"/>
      <path id="DejaVuSans-3d" d="M 678 2906 
L 4684 2906 
L 4684 2381 
L 678 2381 
L 678 2906 
z
M 678 1631 
L 4684 1631 
L 4684 1100 
L 678 1100 
L 678 1631 
z
" transform="scale(0.015625)"/>
     </defs>
     <use xlink:href="#DejaVuSans-42"/>
     <use xlink:href="#DejaVuSans-61" transform="translate(68.603516 0)"/>
     <use xlink:href="#DejaVuSans-73" transform="translate(129.882812 0)"/>
     <use xlink:href="#DejaVuSans-65" transform="translate(181.982422 0)"/>
     <use xlink:href="#DejaVuSans-6c" transform="translate(243.505859 0)"/>
     <use xlink:href="#DejaVuSans-69" transform="translate(271.289062 0)"/>
     <use xlink:href="#DejaVuSans-6e" transform="translate(299.072266 0)"/>
     <use xlink:href="#DejaVuSans-65" transform="translate(362.451172 0)"/>
     <use xlink:href="#DejaVuSans-20" transform="translate(423.974609 0)"/>
     <use xlink:href="#DejaVuSans-70" transform="translate(455.761719 0)"/>
     <use xlink:href="#DejaVuSans-61" transform="translate(519.238281 0)"/>
     <use xlink:href="#DejaVuSans-72" transform="translate(580.517578 0)"/>
     <use xlink:href="#DejaVuSans-61" transform="translate(621.630859 0)"/>
     <use xlink:href="#DejaVuSans-6d" transform="translate(682.910156 0)"/>
     <use xlink:href="#DejaVuSans-65" transform="translate(780.322266 0)"/>
     <use xlink:href="#DejaVuSans-74" transform="translate(841.845703 0)"/>
     <use xlink:href="#DejaVuSans-65" transform="translate(881.054688 0)"/>
     <use xlink:href="#DejaVuSans-72" transform="translate(942.578125 0)"/>
     <use xlink:href="#DejaVuSans-20" transform="translate(983.691406 0)"/>
     <use xlink:href="#DejaVuSans-65" transform="translate(1015.478516 0)"/>
     <use xlink:href="#DejaVuSans-73" transform="translate(1077.001953 0)"/>
     <use xlink:href="#DejaVuSans-74" transform="translate(1129.101562 0)"/>
     <use xlink:href="#DejaVuSans-69" transform="translate(1168.310547 0)"/>
     <use xlink:href="#DejaVuSans-6d" transform="translate(1196.09375 0)"/>
     <use xlink:href="#DejaVuSans-61" transform="translate(1293.505859 0)"/>
     <use xlink:href="#DejaVuSans-74" transform="translate(1354.785156 0)"/>
     <use xlink:href="#DejaVuSans-69" transform="translate(1393.994141 0)"/>
     <use xlink:href="#DejaVuSans-6f" transform="translate(1421.777344 0)"/>
     <use xlink:href="#DejaVuSans-6e" transform="translate(1482.958984 0)"/>
     <use xlink:href="#DejaVuSans-20" transform="translate(1546.337891 0)"/>
     <use xlink:href="#DejaVuSans-2014" transform="translate(1578.125 0)"/>
     <use xlink:href="#DejaVuSans-20" transform="translate(1678.125 0)"/>
     <use xlink:href="#DejaVuSans-74" transform="translate(1709.912109 0)"/>
     <use xlink:href="#DejaVuSans-72" transform="translate(1749.121094 0)"/>
     <use xlink:href="#DejaVuSans-75" transform="translate(1790.234375 0)"/>
     <use xlink:href="#DejaVuSans-65" transform="translate(1853.613281 0)"/>
     <use xlink:href="#DejaVuSans-20" transform="translate(1915.136719 0)"/>
     <use xlink:href="#DejaVuSans-66" transform="translate(1946.923828 0)"/>
     <use xlink:href="#DejaVuSans-72" transform="translate(1982.128906 0)"/>
     <use xlink:href="#DejaVuSans-65" transform="translate(2020.992188 0)"/>
     <use xlink:href="#DejaVuSans-71" transform="translate(2082.515625 0)"/>
     <use xlink:href="#DejaVuSans-20" transform="translate(2145.992188 0)"/>
     <use xlink:href="#DejaVuSans-31" transform="translate(2177.779297 0)"/>
     <use xlink:href="#DejaVuSans-30" transform="translate(2241.402344 0)"/>
     <use xlink:href="#DejaVuSans-2e" transform="translate(2305.025391 0)"/>
     <use xlink:href="#DejaVuSans-34" transform="translate(2336.8125 0)"/>
     <use xlink:href="#DejaVuSans-32" transform="translate(2400.435547 0)"/>
     <use xlink:href="#DejaVuSans-20" transform="translate(2464.058594 0)"/>
     <use xlink:href="#DejaVuSans-48" transform="translate(2495.845703 0)"/>
     <use xlink:href="#DejaVuSans-7a" transform="translate(2571.041016 0)"/>
     <use xlink:href="#DejaVuSans-2c" transform="translate(2623.53125 0)"/>
     <use xlink:href="#DejaVuSans-20" transform="translate(2655.318359 0)"/>
     <use xlink:href="#DejaVuSans-394" transform="translate(2687.105469 0)"/>
     <use xlink:href="#DejaVuSans-66" transform="translate(2755.513672 0)"/>
     <use xlink:href="#DejaVuSans-20" transform="translate(2790.71875 0)"/>
     <use xlink:href="#DejaVuSans-3d" transform="translate(2822.505859 0)"/>
     <use xlink:href="#DejaVuSans-20" transform="translate(2906.294922 0)"/>
     <use xlink:href="#DejaVuSans-31" transform="translate(2938.082031 0)"/>
     <use xlink:href="#DejaVuSans-2e" transform="translate(3001.705078 0)"/>
     <use xlink:href="#DejaVuSans-30" transform="translate(3033.492188 0)"/>
     <use xlink:href="#DejaVuSans-30" transform="translate(3097.115234 0)"/>
     <use xlink:href="#DejaVuSans-20" transform="translate(3160.738281 0)"/>
     <use xlink:href="#DejaVuSans-48" transform="translate(3192.525391 0)"/>
     <use xlink:href="#DejaVuSans-7a" transform="translate(3267.720703 0)"/>
    </g>
   </g>
   <g id="legend_1">
    <g id="patch_7">
     <path d="M 455.115937 147.743125 
L 698.151875 147.743125 
Q 700.151875 147.743125 700.151875 145.743125 
L 700.151875 29.318125 
Q 700.151875 27.318125 698.151875 27.318125 
L 455.115937 27.318125 
Q 453.115937 27.318125 453.115937 29.318125 
L 453.115937 145.743125 
Q 453.115937 147.743125 455.115937 147.743125 
z
" style="fill: #ffffff; opacity: 0.8; stroke: #cccccc; stroke-linejoin: miter"/>
    </g>
    <g id="line2d_41">
     <path d="M 457.115937 35.416563 
L 467.115937 35.416563 
L 477.115937 35.416563 
" style="fill: none; stroke: #808080; stroke-width: 2; stroke-linecap: square"/>
    </g>
    <g id="text_20">
     <!-- True freq: 10.42 Hz -->
     <g transform="translate(485.115937 38.916563) scale(0.1 -0.1)">
      <defs>
       <path id="DejaVuSans-54" d="M -19 4666 
L 3928 4666 
L 3928 4134 
L 2272 4134 
L 2272 0 
L 1638 0 
L 1638 4134 
L -19 4134 
L -19 4666 
z
" transform="scale(0.015625)"/>
       <path id="DejaVuSans-3a" d="M 750 794 
L 1409 794 
L 1409 0 
L 750 0 
L 750 794 
z
M 750 3309 
L 1409 3309 
L 1409 2516 
L 750 2516 
L 750 3309 
z
" transform="scale(0.015625)"/>
      </defs>
      <use xlink:href="#DejaVuSans-54"/>
      <use xlink:href="#DejaVuSans-72" transform="translate(46.333984 0)"/>
      <use xlink:href="#DejaVuSans-75" transform="translate(87.447266 0)"/>
      <use xlink:href="#DejaVuSans-65" transform="translate(150.826172 0)"/>
      <use xlink:href="#DejaVuSans-20" transform="translate(212.349609 0)"/>
      <use xlink:href="#DejaVuSans-66" transform="translate(244.136719 0)"/>
      <use xlink:href="#DejaVuSans-72" transform="translate(279.341797 0)"/>
      <use xlink:href="#DejaVuSans-65" transform="translate(318.205078 0)"/>
      <use xlink:href="#DejaVuSans-71" transform="translate(379.728516 0)"/>
      <use xlink:href="#DejaVuSans-3a" transform="translate(443.205078 0)"/>
      <use xlink:href="#DejaVuSans-20" transform="translate(476.896484 0)"/>
      <use xlink:href="#DejaVuSans-31" transform="translate(508.683594 0)"/>
      <use xlink:href="#DejaVuSans-30" transform="translate(572.306641 0)"/>
      <use xlink:href="#DejaVuSans-2e" transform="translate(635.929688 0)"/>
      <use xlink:href="#DejaVuSans-34" transform="translate(667.716797 0)"/>
      <use xlink:href="#DejaVuSans-32" transform="translate(731.339844 0)"/>
      <use xlink:href="#DejaVuSans-20" transform="translate(794.962891 0)"/>
      <use xlink:href="#DejaVuSans-48" transform="translate(826.75 0)"/>
      <use xlink:href="#DejaVuSans-7a" transform="translate(901.945312 0)"/>
     </g>
    </g>
    <g id="line2d_42">
     <g>
      <use xlink:href="#mddc594b5f1" x="467.115937" y="50.094688" style="fill: #4c72b0; stroke: #4c72b0"/>
     </g>
    </g>
    <g id="text_21">
     <!-- DFT spectrum -->
     <g transform="translate(485.115937 53.594688) scale(0.1 -0.1)">
      <use xlink:href="#DejaVuSans-44"/>
      <use xlink:href="#DejaVuSans-46" transform="translate(77.001953 0)"/>
      <use xlink:href="#DejaVuSans-54" transform="translate(132.771484 0)"/>
      <use xlink:href="#DejaVuSans-20" transform="translate(193.855469 0)"/>
      <use xlink:href="#DejaVuSans-73" transform="translate(225.642578 0)"/>
      <use xlink:href="#DejaVuSans-70" transform="translate(277.742188 0)"/>
      <use xlink:href="#DejaVuSans-65" transform="translate(341.21875 0)"/>
      <use xlink:href="#DejaVuSans-63" transform="translate(402.742188 0)"/>
      <use xlink:href="#DejaVuSans-74" transform="translate(457.722656 0)"/>
      <use xlink:href="#DejaVuSans-72" transform="translate(496.931641 0)"/>
      <use xlink:href="#DejaVuSans-75" transform="translate(538.044922 0)"/>
      <use xlink:href="#DejaVuSans-6d" transform="translate(601.423828 0)"/>
     </g>
    </g>
    <g id="line2d_43">
     <path d="M 457.115937 64.772813 
L 467.115937 64.772813 
L 477.115937 64.772813 
" style="fill: none; stroke-dasharray: 5.55,2.4; stroke-dashoffset: 0; stroke: #4c72b0; stroke-width: 1.5"/>
    </g>
    <g id="text_22">
     <!-- Max bin: 10.00 Hz  (err=0.4200 Hz) -->
     <g transform="translate(485.115937 68.272813) scale(0.1 -0.1)">
      <defs>
       <path id="DejaVuSans-4d" d="M 628 4666 
L 1569 4666 
L 2759 1491 
L 3956 4666 
L 4897 4666 
L 4897 0 
L 4281 0 
L 4281 4097 
L 3078 897 
L 2444 897 
L 1241 4097 
L 1241 0 
L 628 0 
L 628 4666 
z
" transform="scale(0.015625)"/>
       <path id="DejaVuSans-78" d="M 3513 3500 
L 2247 1797 
L 3578 0 
L 2900 0 
L 1881 1375 
L 863 0 
L 184 0 
L 1544 1831 
L 300 3500 
L 978 3500 
L 1906 2253 
L 2834 3500 
L 3513 3500 
z
" transform="scale(0.015625)"/>
       <path id="DejaVuSans-62" d="M 3116 1747 
Q 3116 2381 2855 2742 
Q 2594 3103 2138 3103 
Q 1681 3103 1420 2742 
Q 1159 2381 1159 1747 
Q 1159 1113 1420 752 
Q 1681 391 2138 391 
Q 2594 391 2855 752 
Q 3116 1113 3116 1747 
z
M 1159 2969 
Q 1341 3281 1617 3432 
Q 1894 3584 2278 3584 
Q 2916 3584 3314 3078 
Q 3713 2572 3713 1747 
Q 3713 922 3314 415 
Q 2916 -91 2278 -91 
Q 1894 -91 1617 61 
Q 1341 213 1159 525 
L 1159 0 
L 581 0 
L 581 4863 
L 1159 4863 
L 1159 2969 
z
" transform="scale(0.015625)"/>
      </defs>
      <use xlink:href="#DejaVuSans-4d"/>
      <use xlink:href="#DejaVuSans-61" transform="translate(86.279297 0)"/>
      <use xlink:href="#DejaVuSans-78" transform="translate(147.558594 0)"/>
      <use xlink:href="#DejaVuSans-20" transform="translate(206.738281 0)"/>
      <use xlink:href="#DejaVuSans-62" transform="translate(238.525391 0)"/>
      <use xlink:href="#DejaVuSans-69" transform="translate(302.001953 0)"/>
      <use xlink:href="#DejaVuSans-6e" transform="translate(329.785156 0)"/>
      <use xlink:href="#DejaVuSans-3a" transform="translate(393.164062 0)"/>
      <use xlink:href="#DejaVuSans-20" transform="translate(426.855469 0)"/>
      <use xlink:href="#DejaVuSans-31" transform="translate(458.642578 0)"/>
      <use xlink:href="#DejaVuSans-30" transform="translate(522.265625 0)"/>
      <use xlink:href="#DejaVuSans-2e" transform="translate(585.888672 0)"/>
      <use xlink:href="#DejaVuSans-30" transform="translate(617.675781 0)"/>
      <use xlink:href="#DejaVuSans-30" transform="translate(681.298828 0)"/>
      <use xlink:href="#DejaVuSans-20" transform="translate(744.921875 0)"/>
      <use xlink:href="#DejaVuSans-48" transform="translate(776.708984 0)"/>
      <use xlink:href="#DejaVuSans-7a" transform="translate(851.904297 0)"/>
      <use xlink:href="#DejaVuSans-20" transform="translate(904.394531 0)"/>
      <use xlink:href="#DejaVuSans-20" transform="translate(936.181641 0)"/>
      <use xlink:href="#DejaVuSans-28" transform="translate(967.96875 0)"/>
      <use xlink:href="#DejaVuSans-65" transform="translate(1006.982422 0)"/>
      <use xlink:href="#DejaVuSans-72" transform="translate(1068.505859 0)"/>
      <use xlink:href="#DejaVuSans-72" transform="translate(1107.869141 0)"/>
      <use xlink:href="#DejaVuSans-3d" transform="translate(1148.982422 0)"/>
      <use xlink:href="#DejaVuSans-30" transform="translate(1232.771484 0)"/>
      <use xlink:href="#DejaVuSans-2e" transform="translate(1296.394531 0)"/>
      <use xlink:href="#DejaVuSans-34" transform="translate(1328.181641 0)"/>
      <use xlink:href="#DejaVuSans-32" transform="translate(1391.804688 0)"/>
      <use xlink:href="#DejaVuSans-30" transform="translate(1455.427734 0)"/>
      <use xlink:href="#DejaVuSans-30" transform="translate(1519.050781 0)"/>
      <use xlink:href="#DejaVuSans-20" transform="translate(1582.673828 0)"/>
      <use xlink:href="#DejaVuSans-48" transform="translate(1614.460938 0)"/>
      <use xlink:href="#DejaVuSans-7a" transform="translate(1689.65625 0)"/>
      <use xlink:href="#DejaVuSans-29" transform="translate(1742.146484 0)"/>
     </g>
    </g>
    <g id="line2d_44">
     <path d="M 457.115937 79.450938 
L 467.115937 79.450938 
L 477.115937 79.450938 
" style="fill: none; stroke: #55a868; stroke-width: 1.5; stroke-linecap: square"/>
    </g>
    <g id="text_23">
     <!-- ★ None -->
     <g transform="translate(485.115937 82.950938) scale(0.1 -0.1)">
      <defs>
       <path id="DejaVuSans-2605" d="M 416 2850 
L 2288 2850 
L 2869 4628 
L 3453 2850 
L 5322 2850 
L 3809 1747 
L 4391 -28 
L 2869 1072 
L 1350 -28 
L 1928 1747 
L 416 2850 
z
" transform="scale(0.015625)"/>
       <path id="DejaVuSans-4e" d="M 628 4666 
L 1478 4666 
L 3547 763 
L 3547 4666 
L 4159 4666 
L 4159 0 
L 3309 0 
L 1241 3903 
L 1241 0 
L 628 0 
L 628 4666 
z
" transform="scale(0.015625)"/>
      </defs>
      <use xlink:href="#DejaVuSans-2605"/>
      <use xlink:href="#DejaVuSans-20" transform="translate(89.648438 0)"/>
      <use xlink:href="#DejaVuSans-4e" transform="translate(121.435547 0)"/>
      <use xlink:href="#DejaVuSans-6f" transform="translate(196.240234 0)"/>
      <use xlink:href="#DejaVuSans-6e" transform="translate(257.421875 0)"/>
      <use xlink:href="#DejaVuSans-65" transform="translate(320.800781 0)"/>
     </g>
    </g>
    <g id="line2d_45">
     <path d="M 457.115937 94.129063 
L 467.115937 94.129063 
L 477.115937 94.129063 
" style="fill: none; stroke-dasharray: 5.55,2.4; stroke-dashoffset: 0; stroke: #55a868; stroke-width: 1.5"/>
    </g>
    <g id="text_24">
     <!-- ★ None: 10.3280 Hz  (err=0.2187 Hz) -->
     <g transform="translate(485.115937 97.629063) scale(0.1 -0.1)">
      <use xlink:href="#DejaVuSans-2605"/>
      <use xlink:href="#DejaVuSans-20" transform="translate(89.648438 0)"/>
      <use xlink:href="#DejaVuSans-4e" transform="translate(121.435547 0)"/>
      <use xlink:href="#DejaVuSans-6f" transform="translate(196.240234 0)"/>
      <use xlink:href="#DejaVuSans-6e" transform="translate(257.421875 0)"/>
      <use xlink:href="#DejaVuSans-65" transform="translate(320.800781 0)"/>
      <use xlink:href="#DejaVuSans-3a" transform="translate(382.324219 0)"/>
      <use xlink:href="#DejaVuSans-20" transform="translate(416.015625 0)"/>
      <use xlink:href="#DejaVuSans-31" transform="translate(447.802734 0)"/>
      <use xlink:href="#DejaVuSans-30" transform="translate(511.425781 0)"/>
      <use xlink:href="#DejaVuSans-2e" transform="translate(575.048828 0)"/>
      <use xlink:href="#DejaVuSans-33" transform="translate(606.835938 0)"/>
      <use xlink:href="#DejaVuSans-32" transform="translate(670.458984 0)"/>
      <use xlink:href="#DejaVuSans-38" transform="translate(734.082031 0)"/>
      <use xlink:href="#DejaVuSans-30" transform="translate(797.705078 0)"/>
      <use xlink:href="#DejaVuSans-20" transform="translate(861.328125 0)"/>
      <use xlink:href="#DejaVuSans-48" transform="translate(893.115234 0)"/>
      <use xlink:href="#DejaVuSans-7a" transform="translate(968.310547 0)"/>
      <use xlink:href="#DejaVuSans-20" transform="translate(1020.800781 0)"/>
      <use xlink:href="#DejaVuSans-20" transform="translate(1052.587891 0)"/>
      <use xlink:href="#DejaVuSans-28" transform="translate(1084.375 0)"/>
      <use xlink:href="#DejaVuSans-65" transform="translate(1123.388672 0)"/>
      <use xlink:href="#DejaVuSans-72" transform="translate(1184.912109 0)"/>
      <use xlink:href="#DejaVuSans-72" transform="translate(1224.275391 0)"/>
      <use xlink:href="#DejaVuSans-3d" transform="translate(1265.388672 0)"/>
      <use xlink:href="#DejaVuSans-30" transform="translate(1349.177734 0)"/>
      <use xlink:href="#DejaVuSans-2e" transform="translate(1412.800781 0)"/>
      <use xlink:href="#DejaVuSans-32" transform="translate(1444.587891 0)"/>
      <use xlink:href="#DejaVuSans-31" transform="translate(1508.210938 0)"/>
      <use xlink:href="#DejaVuSans-38" transform="translate(1571.833984 0)"/>
      <use xlink:href="#DejaVuSans-37" transform="translate(1635.457031 0)"/>
      <use xlink:href="#DejaVuSans-20" transform="translate(1699.080078 0)"/>
      <use xlink:href="#DejaVuSans-48" transform="translate(1730.867188 0)"/>
      <use xlink:href="#DejaVuSans-7a" transform="translate(1806.0625 0)"/>
      <use xlink:href="#DejaVuSans-29" transform="translate(1858.552734 0)"/>
     </g>
    </g>
    <g id="line2d_46">
     <path d="M 457.115937 108.807188 
L 467.115937 108.807188 
L 477.115937 108.807188 
" style="fill: none; stroke: #c44e52; stroke-width: 1.5; stroke-linecap: square"/>
    </g>
    <g id="text_25">
     <!-- ★ All -->
     <g transform="translate(485.115937 112.307188) scale(0.1 -0.1)">
      <use xlink:href="#DejaVuSans-2605"/>
      <use xlink:href="#DejaVuSans-20" transform="translate(89.648438 0)"/>
      <use xlink:href="#DejaVuSans-41" transform="translate(121.435547 0)"/>
      <use xlink:href="#DejaVuSans-6c" transform="translate(189.84375 0)"/>
      <use xlink:href="#DejaVuSans-6c" transform="translate(217.626953 0)"/>
     </g>
    </g>
    <g id="line2d_47">
     <path d="M 457.115937 123.485313 
L 467.115937 123.485313 
L 477.115937 123.485313 
" style="fill: none; stroke: #8172b2; stroke-width: 1.5; stroke-linecap: square"/>
    </g>
    <g id="text_26">
     <!-- Quad interp -->
     <g transform="translate(485.115937 126.985313) scale(0.1 -0.1)">
      <defs>
       <path id="DejaVuSans-51" d="M 2522 4238 
Q 1834 4238 1429 3725 
Q 1025 3213 1025 2328 
Q 1025 1447 1429 934 
Q 1834 422 2522 422 
Q 3209 422 3611 934 
Q 4013 1447 4013 2328 
Q 4013 3213 3611 3725 
Q 3209 4238 2522 4238 
z
M 3406 84 
L 4238 -825 
L 3475 -825 
L 2784 -78 
Q 2681 -84 2626 -87 
Q 2572 -91 2522 -91 
Q 1538 -91 948 567 
Q 359 1225 359 2328 
Q 359 3434 948 4092 
Q 1538 4750 2522 4750 
Q 3503 4750 4090 4092 
Q 4678 3434 4678 2328 
Q 4678 1516 4351 937 
Q 4025 359 3406 84 
z
" transform="scale(0.015625)"/>
       <path id="DejaVuSans-64" d="M 2906 2969 
L 2906 4863 
L 3481 4863 
L 3481 0 
L 2906 0 
L 2906 525 
Q 2725 213 2448 61 
Q 2172 -91 1784 -91 
Q 1150 -91 751 415 
Q 353 922 353 1747 
Q 353 2572 751 3078 
Q 1150 3584 1784 3584 
Q 2172 3584 2448 3432 
Q 2725 3281 2906 2969 
z
M 947 1747 
Q 947 1113 1208 752 
Q 1469 391 1925 391 
Q 2381 391 2643 752 
Q 2906 1113 2906 1747 
Q 2906 2381 2643 2742 
Q 2381 3103 1925 3103 
Q 1469 3103 1208 2742 
Q 947 2381 947 1747 
z
" transform="scale(0.015625)"/>
      </defs>
      <use xlink:href="#DejaVuSans-51"/>
      <use xlink:href="#DejaVuSans-75" transform="translate(78.710938 0)"/>
      <use xlink:href="#DejaVuSans-61" transform="translate(142.089844 0)"/>
      <use xlink:href="#DejaVuSans-64" transform="translate(203.369141 0)"/>
      <use xlink:href="#DejaVuSans-20" transform="translate(266.845703 0)"/>
      <use xlink:href="#DejaVuSans-69" transform="translate(298.632812 0)"/>
      <use xlink:href="#DejaVuSans-6e" transform="translate(326.416016 0)"/>
      <use xlink:href="#DejaVuSans-74" transform="translate(389.794922 0)"/>
      <use xlink:href="#DejaVuSans-65" transform="translate(429.003906 0)"/>
      <use xlink:href="#DejaVuSans-72" transform="translate(490.527344 0)"/>
      <use xlink:href="#DejaVuSans-70" transform="translate(531.640625 0)"/>
     </g>
    </g>
    <g id="line2d_48">
     <path d="M 457.115937 138.163438 
L 467.115937 138.163438 
L 477.115937 138.163438 
" style="fill: none; stroke-dasharray: 5.55,2.4; stroke-dashoffset: 0; stroke: #8172b2; stroke-width: 1.5"/>
    </g>
    <g id="text_27">
     <!-- Quad interp: 10.2013 Hz  (err=0.2187 Hz) -->
     <g transform="translate(485.115937 141.663438) scale(0.1 -0.1)">
      <use xlink:href="#DejaVuSans-51"/>
      <use xlink:href="#DejaVuSans-75" transform="translate(78.710938 0)"/>
      <use xlink:href="#DejaVuSans-61" transform="translate(142.089844 0)"/>
      <use xlink:href="#DejaVuSans-64" transform="translate(203.369141 0)"/>
      <use xlink:href="#DejaVuSans-20" transform="translate(266.845703 0)"/>
      <use xlink:href="#DejaVuSans-69" transform="translate(298.632812 0)"/>
      <use xlink:href="#DejaVuSans-6e" transform="translate(326.416016 0)"/>
      <use xlink:href="#DejaVuSans-74" transform="translate(389.794922 0)"/>
      <use xlink:href="#DejaVuSans-65" transform="translate(429.003906 0)"/>
      <use xlink:href="#DejaVuSans-72" transform="translate(490.527344 0)"/>
      <use xlink:href="#DejaVuSans-70" transform="translate(531.640625 0)"/>
      <use xlink:href="#DejaVuSans-3a" transform="translate(595.117188 0)"/>
      <use xlink:href="#DejaVuSans-20" transform="translate(628.808594 0)"/>
      <use xlink:href="#DejaVuSans-31" transform="translate(660.595703 0)"/>
      <use xlink:href="#DejaVuSans-30" transform="translate(724.21875 0)"/>
      <use xlink:href="#DejaVuSans-2e" transform="translate(787.841797 0)"/>
      <use xlink:href="#DejaVuSans-32" transform="translate(819.628906 0)"/>
      <use xlink:href="#DejaVuSans-30" transform="translate(883.251953 0)"/>
      <use xlink:href="#DejaVuSans-31" transform="translate(946.875 0)"/>
      <use xlink:href="#DejaVuSans-33" transform="translate(1010.498047 0)"/>
      <use xlink:href="#DejaVuSans-20" transform="translate(1074.121094 0)"/>
      <use xlink:href="#DejaVuSans-48" transform="translate(1105.908203 0)"/>
      <use xlink:href="#DejaVuSans-7a" transform="translate(1181.103516 0)"/>
      <use xlink:href="#DejaVuSans-20" transform="translate(1233.59375 0)"/>
      <use xlink:href="#DejaVuSans-20" transform="translate(1265.380859 0)"/>
      <use xlink:href="#DejaVuSans-28" transform="translate(1297.167969 0)"/>
      <use xlink:href="#DejaVuSans-65" transform="translate(1336.181641 0)"/>
      <use xlink:href="#DejaVuSans-72" transform="translate(1397.705078 0)"/>
      <use xlink:href="#DejaVuSans-72" transform="translate(1437.068359 0)"/>
      <use xlink:href="#DejaVuSans-3d" transform="translate(1478.181641 0)"/>
      <use xlink:href="#DejaVuSans-30" transform="translate(1561.970703 0)"/>
      <use xlink:href="#DejaVuSans-2e" transform="translate(1625.59375 0)"/>
      <use xlink:href="#DejaVuSans-32" transform="translate(1657.380859 0)"/>
      <use xlink:href="#DejaVuSans-31" transform="translate(1721.003906 0)"/>
      <use xlink:href="#DejaVuSans-38" transform="translate(1784.626953 0)"/>
      <use xlink:href="#DejaVuSans-37" transform="translate(1848.25 0)"/>
      <use xlink:href="#DejaVuSans-20" transform="translate(1911.873047 0)"/>
      <use xlink:href="#DejaVuSans-48" transform="translate(1943.660156 0)"/>
      <use xlink:href="#DejaVuSans-7a" transform="translate(2018.855469 0)"/>
      <use xlink:href="#DejaVuSans-29" transform="translate(2071.345703 0)"/>
     </g>
    </g>
   </g>
  </g>
 </g>
 <defs>
  <clipPath id="pef7e3e8015">
   <rect x="41.071875" y="22.318125" width="664.08" height="294.66"/>
  </clipPath>
 </defs>
</svg>
