<?xml version="1.0" encoding="utf-8" standalone="no"?>
<!DOCTYPE svg PUBLIC "-//W3C//DTD SVG 1.1//EN"
  "http://www.w3.org/Graphics/SVG/1.1/DTD/svg11.dtd">
<svg xmlns:xlink="http://www.w3.org/1999/xlink" width="711.959196pt" height="423.034375pt" viewBox="0 0 711.959196 423.034375" xmlns="http://www.w3.org/2000/svg" version="1.1">
 <metadata>
  <rdf:RDF xmlns:dc="http://purl.org/dc/elements/1.1/" xmlns:cc="http://creativecommons.org/ns#" xmlns:rdf="http://www.w3.org/1999/02/22-rdf-syntax-ns#">
   <cc:Work>
    <dc:type rdf:resource="http://purl.org/dc/dcmitype/StillImage"/>
    <dc:date>2026-04-06T12:46:14.826055</dc:date>
    <dc:format>image/svg+xml</dc:format>
    <dc:creator>
     <cc:Agent>
      <dc:title>Matplotlib v3.10.0, https://matplotlib.org/</dc:title>
     </cc:Agent>
    </dc:creator>
   </cc:Work>
  </rdf:RDF>
 </metadata>
 <defs>
  <style type="text/css">*{stroke-linejoin: round; stroke-linecap: butt}</style>
 </defs>
 <g id="figure_1">
  <g id="patch_1">
   <path d="M 0 423.034375 
L 711.959196 423.034375 
L 711.959196 0 
L 0 0 
z
" style="fill: #ffffff"/>
  </g>
  <g id="axes_1">
   <g id="patch_2">
    <path d="M 48.66875 178.378125 
L 698.396696 178.378125 
L 698.396696 22.318125 
L 48.66875 22.318125 
z
" style="fill: #ffffff"/>
   </g>
   <g id="matplotlib.axis_1">
    <g id="xtick_1">
     <g id="line2d_1">
      <path d="M 78.201838 178.378125 
L 78.201838 22.318125 
" clip-path="url(#p3014eb8ec2)" style="fill: none; stroke: #b0b0b0; stroke-opacity: 0.3; stroke-width: 0.8; stroke-linecap: square"/>
     </g>
     <g id="line2d_2">
      <defs>
       <path id="m10d7892bec" d="M 0 0 
L 0 -3.5 
" style="stroke: #000000; stroke-width: 0.8"/>
      </defs>
      <g>
       <use xlink:href="#m10d7892bec" x="78.201838" y="178.378125" style="stroke: #000000; stroke-width: 0.8"/>
      </g>
     </g>
     <g id="text_1">
      <!-- 0 -->
      <g transform="translate(75.020588 189.476562) scale(0.1 -0.1)">
       <defs>
        <path id="DejaVuSans-30" d="M 2034 4250 
Q 1547 4250 1301 3770 
Q 1056 3291 1056 2328 
Q 1056 1369 1301 889 
Q 1547 409 2034 409 
Q 2525 409 2770 889 
Q 3016 1369 3016 2328 
Q 3016 3291 2770 3770 
Q 2525 4250 2034 4250 
z
M 2034 4750 
Q 2819 4750 3233 4129 
Q 3647 3509 3647 2328 
Q 3647 1150 3233 529 
Q 2819 -91 2034 -91 
Q 1250 -91 836 529 
Q 422 1150 422 2328 
Q 422 3509 836 4129 
Q 1250 4750 2034 4750 
z
" transform="scale(0.015625)"/>
       </defs>
       <use xlink:href="#DejaVuSans-30"/>
      </g>
     </g>
    </g>
    <g id="xtick_2">
     <g id="line2d_3">
      <path d="M 196.57093 178.378125 
L 196.57093 22.318125 
" clip-path="url(#p3014eb8ec2)" style="fill: none; stroke: #b0b0b0; stroke-opacity: 0.3; stroke-width: 0.8; stroke-linecap: square"/>
     </g>
     <g id="line2d_4">
      <g>
       <use xlink:href="#m10d7892bec" x="196.57093" y="178.378125" style="stroke: #000000; stroke-width: 0.8"/>
      </g>
     </g>
     <g id="text_2">
      <!-- 1 -->
      <g transform="translate(193.38968 189.476562) scale(0.1 -0.1)">
       <defs>
        <path id="DejaVuSans-31" d="M 794 531 
L 1825 531 
L 1825 4091 
L 703 3866 
L 703 4441 
L 1819 4666 
L 2450 4666 
L 2450 531 
L 3481 531 
L 3481 0 
L 794 0 
L 794 531 
z
" transform="scale(0.015625)"/>
       </defs>
       <use xlink:href="#DejaVuSans-31"/>
      </g>
     </g>
    </g>
    <g id="xtick_3">
     <g id="line2d_5">
      <path d="M 314.940022 178.378125 
L 314.940022 22.318125 
" clip-path="url(#p3014eb8ec2)" style="fill: none; stroke: #b0b0b0; stroke-opacity: 0.3; stroke-width: 0.8; stroke-linecap: square"/>
     </g>
     <g id="line2d_6">
      <g>
       <use xlink:href="#m10d7892bec" x="314.940022" y="178.378125" style="stroke: #000000; stroke-width: 0.8"/>
      </g>
     </g>
     <g id="text_3">
      <!-- 2 -->
      <g transform="translate(311.758772 189.476562) scale(0.1 -0.1)">
       <defs>
        <path id="DejaVuSans-32" d="M 1228 531 
L 3431 531 
L 3431 0 
L 469 0 
L 469 531 
Q 828 903 1448 1529 
Q 2069 2156 2228 2338 
Q 2531 2678 2651 2914 
Q 2772 3150 2772 3378 
Q 2772 3750 2511 3984 
Q 2250 4219 1831 4219 
Q 1534 4219 1204 4116 
Q 875 4013 500 3803 
L 500 4441 
Q 881 4594 1212 4672 
Q 1544 4750 1819 4750 
Q 2544 4750 2975 4387 
Q 3406 4025 3406 3419 
Q 3406 3131 3298 2873 
Q 3191 2616 2906 2266 
Q 2828 2175 2409 1742 
Q 1991 1309 1228 531 
z
" transform="scale(0.015625)"/>
       </defs>
       <use xlink:href="#DejaVuSans-32"/>
      </g>
     </g>
    </g>
    <g id="xtick_4">
     <g id="line2d_7">
      <path d="M 433.309115 178.378125 
L 433.309115 22.318125 
" clip-path="url(#p3014eb8ec2)" style="fill: none; stroke: #b0b0b0; stroke-opacity: 0.3; stroke-width: 0.8; stroke-linecap: square"/>
     </g>
     <g id="line2d_8">
      <g>
       <use xlink:href="#m10d7892bec" x="433.309115" y="178.378125" style="stroke: #000000; stroke-width: 0.8"/>
      </g>
     </g>
     <g id="text_4">
      <!-- 3 -->
      <g transform="translate(430.127865 189.476562) scale(0.1 -0.1)">
       <defs>
        <path id="DejaVuSans-33" d="M 2597 2516 
Q 3050 2419 3304 2112 
Q 3559 1806 3559 1356 
Q 3559 666 3084 287 
Q 2609 -91 1734 -91 
Q 1441 -91 1130 -33 
Q 819 25 488 141 
L 488 750 
Q 750 597 1062 519 
Q 1375 441 1716 441 
Q 2309 441 2620 675 
Q 2931 909 2931 1356 
Q 2931 1769 2642 2001 
Q 2353 2234 1838 2234 
L 1294 2234 
L 1294 2753 
L 1863 2753 
Q 2328 2753 2575 2939 
Q 2822 3125 2822 3475 
Q 2822 3834 2567 4026 
Q 2313 4219 1838 4219 
Q 1578 4219 1281 4162 
Q 984 4106 628 3988 
L 628 4550 
Q 988 4650 1302 4700 
Q 1616 4750 1894 4750 
Q 2613 4750 3031 4423 
Q 3450 4097 3450 3541 
Q 3450 3153 3228 2886 
Q 3006 2619 2597 2516 
z
" transform="scale(0.015625)"/>
       </defs>
       <use xlink:href="#DejaVuSans-33"/>
      </g>
     </g>
    </g>
    <g id="xtick_5">
     <g id="line2d_9">
      <path d="M 551.678207 178.378125 
L 551.678207 22.318125 
" clip-path="url(#p3014eb8ec2)" style="fill: none; stroke: #b0b0b0; stroke-opacity: 0.3; stroke-width: 0.8; stroke-linecap: square"/>
     </g>
     <g id="line2d_10">
      <g>
       <use xlink:href="#m10d7892bec" x="551.678207" y="178.378125" style="stroke: #000000; stroke-width: 0.8"/>
      </g>
     </g>
     <g id="text_5">
      <!-- 4 -->
      <g transform="translate(548.496957 189.476562) scale(0.1 -0.1)">
       <defs>
        <path id="DejaVuSans-34" d="M 2419 4116 
L 825 1625 
L 2419 1625 
L 2419 4116 
z
M 2253 4666 
L 3047 4666 
L 3047 1625 
L 3713 1625 
L 3713 1100 
L 3047 1100 
L 3047 0 
L 2419 0 
L 2419 1100 
L 313 1100 
L 313 1709 
L 2253 4666 
z
" transform="scale(0.015625)"/>
       </defs>
       <use xlink:href="#DejaVuSans-34"/>
      </g>
     </g>
    </g>
    <g id="xtick_6">
     <g id="line2d_11">
      <path d="M 670.047299 178.378125 
L 670.047299 22.318125 
" clip-path="url(#p3014eb8ec2)" style="fill: none; stroke: #b0b0b0; stroke-opacity: 0.3; stroke-width: 0.8; stroke-linecap: square"/>
     </g>
     <g id="line2d_12">
      <g>
       <use xlink:href="#m10d7892bec" x="670.047299" y="178.378125" style="stroke: #000000; stroke-width: 0.8"/>
      </g>
     </g>
     <g id="text_6">
      <!-- 5 -->
      <g transform="translate(666.866049 189.476562) scale(0.1 -0.1)">
       <defs>
        <path id="DejaVuSans-35" d="M 691 4666 
L 3169 4666 
L 3169 4134 
L 1269 4134 
L 1269 2991 
Q 1406 3038 1543 3061 
Q 1681 3084 1819 3084 
Q 2600 3084 3056 2656 
Q 3513 2228 3513 1497 
Q 3513 744 3044 326 
Q 2575 -91 1722 -91 
Q 1428 -91 1123 -41 
Q 819 9 494 109 
L 494 744 
Q 775 591 1075 516 
Q 1375 441 1709 441 
Q 2250 441 2565 725 
Q 2881 1009 2881 1497 
Q 2881 1984 2565 2268 
Q 2250 2553 1709 2553 
Q 1456 2553 1204 2497 
Q 953 2441 691 2322 
L 691 4666 
z
" transform="scale(0.015625)"/>
       </defs>
       <use xlink:href="#DejaVuSans-35"/>
      </g>
     </g>
    </g>
    <g id="text_7">
     <!-- Time (s) -->
     <g transform="translate(353.203817 203.154687) scale(0.1 -0.1)">
      <defs>
       <path id="DejaVuSans-54" d="M -19 4666 
L 3928 4666 
L 3928 4134 
L 2272 4134 
L 2272 0 
L 1638 0 
L 1638 4134 
L -19 4134 
L -19 4666 
z
" transform="scale(0.015625)"/>
       <path id="DejaVuSans-69" d="M 603 3500 
L 1178 3500 
L 1178 0 
L 603 0 
L 603 3500 
z
M 603 4863 
L 1178 4863 
L 1178 4134 
L 603 4134 
L 603 4863 
z
" transform="scale(0.015625)"/>
       <path id="DejaVuSans-6d" d="M 3328 2828 
Q 3544 3216 3844 3400 
Q 4144 3584 4550 3584 
Q 5097 3584 5394 3201 
Q 5691 2819 5691 2113 
L 5691 0 
L 5113 0 
L 5113 2094 
Q 5113 2597 4934 2840 
Q 4756 3084 4391 3084 
Q 3944 3084 3684 2787 
Q 3425 2491 3425 1978 
L 3425 0 
L 2847 0 
L 2847 2094 
Q 2847 2600 2669 2842 
Q 2491 3084 2119 3084 
Q 1678 3084 1418 2786 
Q 1159 2488 1159 1978 
L 1159 0 
L 581 0 
L 581 3500 
L 1159 3500 
L 1159 2956 
Q 1356 3278 1631 3431 
Q 1906 3584 2284 3584 
Q 2666 3584 2933 3390 
Q 3200 3197 3328 2828 
z
" transform="scale(0.015625)"/>
       <path id="DejaVuSans-65" d="M 3597 1894 
L 3597 1613 
L 953 1613 
Q 991 1019 1311 708 
Q 1631 397 2203 397 
Q 2534 397 2845 478 
Q 3156 559 3463 722 
L 3463 178 
Q 3153 47 2828 -22 
Q 2503 -91 2169 -91 
Q 1331 -91 842 396 
Q 353 884 353 1716 
Q 353 2575 817 3079 
Q 1281 3584 2069 3584 
Q 2775 3584 3186 3129 
Q 3597 2675 3597 1894 
z
M 3022 2063 
Q 3016 2534 2758 2815 
Q 2500 3097 2075 3097 
Q 1594 3097 1305 2825 
Q 1016 2553 972 2059 
L 3022 2063 
z
" transform="scale(0.015625)"/>
       <path id="DejaVuSans-20" transform="scale(0.015625)"/>
       <path id="DejaVuSans-28" d="M 1984 4856 
Q 1566 4138 1362 3434 
Q 1159 2731 1159 2009 
Q 1159 1288 1364 580 
Q 1569 -128 1984 -844 
L 1484 -844 
Q 1016 -109 783 600 
Q 550 1309 550 2009 
Q 550 2706 781 3412 
Q 1013 4119 1484 4856 
L 1984 4856 
z
" transform="scale(0.015625)"/>
       <path id="DejaVuSans-73" d="M 2834 3397 
L 2834 2853 
Q 2591 2978 2328 3040 
Q 2066 3103 1784 3103 
Q 1356 3103 1142 2972 
Q 928 2841 928 2578 
Q 928 2378 1081 2264 
Q 1234 2150 1697 2047 
L 1894 2003 
Q 2506 1872 2764 1633 
Q 3022 1394 3022 966 
Q 3022 478 2636 193 
Q 2250 -91 1575 -91 
Q 1294 -91 989 -36 
Q 684 19 347 128 
L 347 722 
Q 666 556 975 473 
Q 1284 391 1588 391 
Q 1994 391 2212 530 
Q 2431 669 2431 922 
Q 2431 1156 2273 1281 
Q 2116 1406 1581 1522 
L 1381 1569 
Q 847 1681 609 1914 
Q 372 2147 372 2553 
Q 372 3047 722 3315 
Q 1072 3584 1716 3584 
Q 2034 3584 2315 3537 
Q 2597 3491 2834 3397 
z
" transform="scale(0.015625)"/>
       <path id="DejaVuSans-29" d="M 513 4856 
L 1013 4856 
Q 1481 4119 1714 3412 
Q 1947 2706 1947 2009 
Q 1947 1309 1714 600 
Q 1481 -109 1013 -844 
L 513 -844 
Q 928 -128 1133 580 
Q 1338 1288 1338 2009 
Q 1338 2731 1133 3434 
Q 928 4138 513 4856 
z
" transform="scale(0.015625)"/>
      </defs>
      <use xlink:href="#DejaVuSans-54"/>
      <use xlink:href="#DejaVuSans-69" transform="translate(57.958984 0)"/>
      <use xlink:href="#DejaVuSans-6d" transform="translate(85.742188 0)"/>
      <use xlink:href="#DejaVuSans-65" transform="translate(183.154297 0)"/>
      <use xlink:href="#DejaVuSans-20" transform="translate(244.677734 0)"/>
      <use xlink:href="#DejaVuSans-28" transform="translate(276.464844 0)"/>
      <use xlink:href="#DejaVuSans-73" transform="translate(315.478516 0)"/>
      <use xlink:href="#DejaVuSans-29" transform="translate(367.578125 0)"/>
     </g>
    </g>
   </g>
   <g id="matplotlib.axis_2">
    <g id="ytick_1">
     <g id="line2d_13">
      <path d="M 48.66875 176.025778 
L 698.396696 176.025778 
" clip-path="url(#p3014eb8ec2)" style="fill: none; stroke: #b0b0b0; stroke-opacity: 0.3; stroke-width: 0.8; stroke-linecap: square"/>
     </g>
     <g id="line2d_14">
      <defs>
       <path id="mf276720c6e" d="M 0 0 
L 3.5 0 
" style="stroke: #000000; stroke-width: 0.8"/>
      </defs>
      <g>
       <use xlink:href="#mf276720c6e" x="48.66875" y="176.025778" style="stroke: #000000; stroke-width: 0.8"/>
      </g>
     </g>
     <g id="text_8">
      <!-- −2 -->
      <g transform="translate(30.426563 179.824996) scale(0.1 -0.1)">
       <defs>
        <path id="DejaVuSans-2212" d="M 678 2272 
L 4684 2272 
L 4684 1741 
L 678 1741 
L 678 2272 
z
" transform="scale(0.015625)"/>
       </defs>
       <use xlink:href="#DejaVuSans-2212"/>
       <use xlink:href="#DejaVuSans-32" transform="translate(83.789062 0)"/>
      </g>
     </g>
    </g>
    <g id="ytick_2">
     <g id="line2d_15">
      <path d="M 48.66875 139.069332 
L 698.396696 139.069332 
" clip-path="url(#p3014eb8ec2)" style="fill: none; stroke: #b0b0b0; stroke-opacity: 0.3; stroke-width: 0.8; stroke-linecap: square"/>
     </g>
     <g id="line2d_16">
      <g>
       <use xlink:href="#mf276720c6e" x="48.66875" y="139.069332" style="stroke: #000000; stroke-width: 0.8"/>
      </g>
     </g>
     <g id="text_9">
      <!-- −1 -->
      <g transform="translate(30.426563 142.86855) scale(0.1 -0.1)">
       <use xlink:href="#DejaVuSans-2212"/>
       <use xlink:href="#DejaVuSans-31" transform="translate(83.789062 0)"/>
      </g>
     </g>
    </g>
    <g id="ytick_3">
     <g id="line2d_17">
      <path d="M 48.66875 102.112885 
L 698.396696 102.112885 
" clip-path="url(#p3014eb8ec2)" style="fill: none; stroke: #b0b0b0; stroke-opacity: 0.3; stroke-width: 0.8; stroke-linecap: square"/>
     </g>
     <g id="line2d_18">
      <g>
       <use xlink:href="#mf276720c6e" x="48.66875" y="102.112885" style="stroke: #000000; stroke-width: 0.8"/>
      </g>
     </g>
     <g id="text_10">
      <!-- 0 -->
      <g transform="translate(38.80625 105.912104) scale(0.1 -0.1)">
       <use xlink:href="#DejaVuSans-30"/>
      </g>
     </g>
    </g>
    <g id="ytick_4">
     <g id="line2d_19">
      <path d="M 48.66875 65.156439 
L 698.396696 65.156439 
" clip-path="url(#p3014eb8ec2)" style="fill: none; stroke: #b0b0b0; stroke-opacity: 0.3; stroke-width: 0.8; stroke-linecap: square"/>
     </g>
     <g id="line2d_20">
      <g>
       <use xlink:href="#mf276720c6e" x="48.66875" y="65.156439" style="stroke: #000000; stroke-width: 0.8"/>
      </g>
     </g>
     <g id="text_11">
      <!-- 1 -->
      <g transform="translate(38.80625 68.955658) scale(0.1 -0.1)">
       <use xlink:href="#DejaVuSans-31"/>
      </g>
     </g>
    </g>
    <g id="ytick_5">
     <g id="line2d_21">
      <path d="M 48.66875 28.199993 
L 698.396696 28.199993 
" clip-path="url(#p3014eb8ec2)" style="fill: none; stroke: #b0b0b0; stroke-opacity: 0.3; stroke-width: 0.8; stroke-linecap: square"/>
     </g>
     <g id="line2d_22">
      <g>
       <use xlink:href="#mf276720c6e" x="48.66875" y="28.199993" style="stroke: #000000; stroke-width: 0.8"/>
      </g>
     </g>
     <g id="text_12">
      <!-- 2 -->
      <g transform="translate(38.80625 31.999212) scale(0.1 -0.1)">
       <use xlink:href="#DejaVuSans-32"/>
      </g>
     </g>
    </g>
    <g id="text_13">
     <!-- Amplitude (V) -->
     <g transform="translate(24.346875 134.881719) rotate(-90) scale(0.1 -0.1)">
      <defs>
       <path id="DejaVuSans-41" d="M 2188 4044 
L 1331 1722 
L 3047 1722 
L 2188 4044 
z
M 1831 4666 
L 2547 4666 
L 4325 0 
L 3669 0 
L 3244 1197 
L 1141 1197 
L 716 0 
L 50 0 
L 1831 4666 
z
" transform="scale(0.015625)"/>
       <path id="DejaVuSans-70" d="M 1159 525 
L 1159 -1331 
L 581 -1331 
L 581 3500 
L 1159 3500 
L 1159 2969 
Q 1341 3281 1617 3432 
Q 1894 3584 2278 3584 
Q 2916 3584 3314 3078 
Q 3713 2572 3713 1747 
Q 3713 922 3314 415 
Q 2916 -91 2278 -91 
Q 1894 -91 1617 61 
Q 1341 213 1159 525 
z
M 3116 1747 
Q 3116 2381 2855 2742 
Q 2594 3103 2138 3103 
Q 1681 3103 1420 2742 
Q 1159 2381 1159 1747 
Q 1159 1113 1420 752 
Q 1681 391 2138 391 
Q 2594 391 2855 752 
Q 3116 1113 3116 1747 
z
" transform="scale(0.015625)"/>
       <path id="DejaVuSans-6c" d="M 603 4863 
L 1178 4863 
L 1178 0 
L 603 0 
L 603 4863 
z
" transform="scale(0.015625)"/>
       <path id="DejaVuSans-74" d="M 1172 4494 
L 1172 3500 
L 2356 3500 
L 2356 3053 
L 1172 3053 
L 1172 1153 
Q 1172 725 1289 603 
Q 1406 481 1766 481 
L 2356 481 
L 2356 0 
L 1766 0 
Q 1100 0 847 248 
Q 594 497 594 1153 
L 594 3053 
L 172 3053 
L 172 3500 
L 594 3500 
L 594 4494 
L 1172 4494 
z
" transform="scale(0.015625)"/>
       <path id="DejaVuSans-75" d="M 544 1381 
L 544 3500 
L 1119 3500 
L 1119 1403 
Q 1119 906 1312 657 
Q 1506 409 1894 409 
Q 2359 409 2629 706 
Q 2900 1003 2900 1516 
L 2900 3500 
L 3475 3500 
L 3475 0 
L 2900 0 
L 2900 538 
Q 2691 219 2414 64 
Q 2138 -91 1772 -91 
Q 1169 -91 856 284 
Q 544 659 544 1381 
z
M 1991 3584 
L 1991 3584 
z
" transform="scale(0.015625)"/>
       <path id="DejaVuSans-64" d="M 2906 2969 
L 2906 4863 
L 3481 4863 
L 3481 0 
L 2906 0 
L 2906 525 
Q 2725 213 2448 61 
Q 2172 -91 1784 -91 
Q 1150 -91 751 415 
Q 353 922 353 1747 
Q 353 2572 751 3078 
Q 1150 3584 1784 3584 
Q 2172 3584 2448 3432 
Q 2725 3281 2906 2969 
z
M 947 1747 
Q 947 1113 1208 752 
Q 1469 391 1925 391 
Q 2381 391 2643 752 
Q 2906 1113 2906 1747 
Q 2906 2381 2643 2742 
Q 2381 3103 1925 3103 
Q 1469 3103 1208 2742 
Q 947 2381 947 1747 
z
" transform="scale(0.015625)"/>
       <path id="DejaVuSans-56" d="M 1831 0 
L 50 4666 
L 709 4666 
L 2188 738 
L 3669 4666 
L 4325 4666 
L 2547 0 
L 1831 0 
z
" transform="scale(0.015625)"/>
      </defs>
      <use xlink:href="#DejaVuSans-41"/>
      <use xlink:href="#DejaVuSans-6d" transform="translate(68.408203 0)"/>
      <use xlink:href="#DejaVuSans-70" transform="translate(165.820312 0)"/>
      <use xlink:href="#DejaVuSans-6c" transform="translate(229.296875 0)"/>
      <use xlink:href="#DejaVuSans-69" transform="translate(257.080078 0)"/>
      <use xlink:href="#DejaVuSans-74" transform="translate(284.863281 0)"/>
      <use xlink:href="#DejaVuSans-75" transform="translate(324.072266 0)"/>
      <use xlink:href="#DejaVuSans-64" transform="translate(387.451172 0)"/>
      <use xlink:href="#DejaVuSans-65" transform="translate(450.927734 0)"/>
      <use xlink:href="#DejaVuSans-20" transform="translate(512.451172 0)"/>
      <use xlink:href="#DejaVuSans-28" transform="translate(544.238281 0)"/>
      <use xlink:href="#DejaVuSans-56" transform="translate(583.251953 0)"/>
      <use xlink:href="#DejaVuSans-29" transform="translate(651.660156 0)"/>
     </g>
    </g>
   </g>
   <g id="line2d_23">
    <path d="M 78.201838 37.24822 
L 79.385529 29.411761 
L 80.56922 51.294363 
L 82.936602 139.079744 
L 84.120293 168.9574 
L 85.303984 171.284489 
L 86.487675 145.386363 
L 88.855057 59.25408 
L 90.038748 34.305707 
L 91.222439 37.251343 
L 92.40613 66.612467 
L 94.773511 149.986004 
L 95.957202 169.901892 
L 97.140893 161.981255 
L 98.324584 129.730406 
L 99.508275 86.540476 
L 100.691966 50.129344 
L 101.875657 35.274798 
L 103.059348 47.818715 
L 104.243039 82.374176 
L 105.42673 124.633505 
L 106.610421 157.290429 
L 107.794111 167.125892 
L 108.977802 150.356939 
L 110.161493 114.085183 
L 111.345184 73.293093 
L 112.528875 44.657053 
L 113.712566 39.731351 
L 114.896257 60.288331 
L 117.263639 136.527711 
L 118.44733 160.944573 
L 119.631021 161.132126 
L 120.814712 137.254989 
L 123.182093 62.849883 
L 124.365784 42.782713 
L 125.549475 47.104809 
L 126.733166 73.811326 
L 127.916857 111.790981 
L 129.100548 145.446861 
L 130.284239 161.100098 
L 131.46793 152.547817 
L 132.651621 123.51773 
L 133.835312 86.049495 
L 135.019003 55.503305 
L 136.202694 44.264317 
L 137.386384 56.722687 
L 138.570075 87.5632 
L 139.753766 124.02892 
L 140.937457 151.196379 
L 142.121148 158.081613 
L 143.304839 142.079242 
L 145.672221 74.931485 
L 146.855912 51.352142 
L 148.039603 48.703156 
L 149.223294 67.856291 
L 151.590676 133.928496 
L 152.774366 153.769968 
L 153.958057 152.352826 
L 155.141748 130.466383 
L 157.50913 66.327263 
L 158.692821 50.314634 
L 159.876512 55.580078 
L 161.060203 79.765091 
L 162.243894 112.820912 
L 163.427585 141.182037 
L 164.611276 153.33202 
L 165.794967 144.478478 
L 166.978657 118.44009 
L 168.162348 86.003999 
L 169.346039 60.458431 
L 170.52973 52.150046 
L 171.713421 64.294756 
L 172.897112 91.737512 
L 174.080803 123.137367 
L 175.264494 145.652864 
L 176.448185 150.192578 
L 177.631876 135.084477 
L 179.999258 76.702109 
L 181.182949 57.379002 
L 182.366639 56.486682 
L 183.55033 74.20557 
L 185.917712 131.346061 
L 187.101403 147.366342 
L 188.285094 144.776863 
L 189.468785 124.818555 
L 190.652476 95.801472 
L 191.836167 69.64635 
L 193.019858 56.988456 
L 194.203549 62.85426 
L 195.38724 84.667892 
L 196.57093 113.377 
L 197.754621 137.207937 
L 198.938312 146.493096 
L 200.122003 137.591543 
L 201.305694 114.313505 
L 202.489385 86.292753 
L 203.673076 65.000863 
L 204.856767 59.05183 
L 206.040458 70.718479 
L 207.224149 95.068904 
L 208.40784 122.048951 
L 209.591531 140.632378 
L 210.775222 143.326056 
L 211.958912 129.189847 
L 214.326294 78.536196 
L 215.509985 62.785081 
L 216.693676 63.225092 
L 217.877367 79.515725 
L 220.244749 128.82793 
L 221.42844 141.66793 
L 222.612131 138.253123 
L 223.795822 120.137503 
L 224.979513 94.853292 
L 226.163203 72.780483 
L 227.346894 62.88646 
L 228.530585 69.08395 
L 229.714276 88.686052 
L 230.897967 113.567384 
L 232.081658 133.531011 
L 233.265349 140.486466 
L 234.44904 131.727362 
L 235.632731 110.981249 
L 236.816422 86.825829 
L 238.000113 69.143469 
L 239.183804 65.079062 
L 240.367495 76.154213 
L 242.734876 120.83504 
L 243.918567 136.103858 
L 245.102258 137.362238 
L 246.285949 124.23653 
L 248.653331 80.381018 
L 249.837022 67.618324 
L 251.020713 69.046451 
L 252.204404 83.941934 
L 254.571786 126.408375 
L 255.755476 136.611393 
L 256.939167 132.647451 
L 258.122858 116.273656 
L 259.306549 94.289274 
L 260.49024 75.713417 
L 261.673931 68.08576 
L 262.857622 74.40725 
L 264.041313 91.961747 
L 265.225004 113.48031 
L 266.408695 130.15013 
L 267.592386 135.222974 
L 268.776077 126.745978 
L 269.959768 108.310134 
L 271.143458 87.53104 
L 272.327149 72.903888 
L 273.51084 70.331123 
L 274.694531 80.741748 
L 277.061913 119.551551 
L 278.245604 132.034204 
L 279.429295 132.193386 
L 280.612986 120.086818 
L 282.980368 82.196905 
L 284.164059 71.926083 
L 285.347749 74.064964 
L 286.53144 87.618024 
L 287.715131 106.94595 
L 288.898822 124.111064 
L 290.082513 132.136472 
L 291.266204 127.841063 
L 292.449895 113.09872 
L 293.633586 94.024014 
L 294.817277 78.437031 
L 296.000968 72.658059 
L 297.184659 78.945661 
L 298.36835 94.616245 
L 299.552041 113.18737 
L 300.735731 127.058514 
L 301.919422 130.621018 
L 303.103113 122.524981 
L 305.470495 88.350922 
L 306.654186 76.302977 
L 307.837877 74.897907 
L 309.021568 84.602679 
L 311.38895 118.241718 
L 312.572641 128.389451 
L 313.756332 127.722954 
L 314.940022 116.621569 
L 317.307404 83.954754 
L 318.491095 75.75432 
L 319.674786 78.382173 
L 320.858477 90.659163 
L 322.042168 107.483809 
L 323.225859 121.95126 
L 324.40955 128.186424 
L 325.593241 123.729064 
L 326.776932 110.502891 
L 327.960623 93.987619 
L 329.144314 80.949441 
L 330.328004 76.669575 
L 331.511695 82.805825 
L 332.695386 96.75273 
L 333.879077 112.746258 
L 335.062768 124.245299 
L 336.246459 126.606282 
L 337.43015 118.957534 
L 339.797532 89.240179 
L 340.981223 79.363583 
L 342.164914 78.860413 
L 343.348605 87.842551 
L 345.715986 116.93842 
L 346.899677 125.135672 
L 348.083368 123.864705 
L 349.267059 113.737917 
L 350.45075 98.972232 
L 351.634441 85.633949 
L 352.818132 79.147037 
L 354.001823 82.088111 
L 355.185514 93.164252 
L 356.369205 107.778645 
L 357.552896 119.937626 
L 358.736587 124.708272 
L 359.920277 120.219049 
L 361.103968 108.392404 
L 362.287659 94.123203 
L 363.47135 83.253469 
L 364.655041 80.181092 
L 365.838732 86.08113 
L 367.022423 98.458793 
L 368.206114 112.203112 
L 369.389805 121.696771 
L 370.573496 123.111391 
L 371.757187 115.950602 
L 374.124569 90.163528 
L 375.308259 82.109585 
L 376.49195 82.291357 
L 377.675641 90.552785 
L 380.043023 115.666128 
L 381.226714 122.239646 
L 382.410405 120.541844 
L 383.594096 111.347237 
L 384.777787 98.479166 
L 385.961478 87.220644 
L 387.145169 82.145884 
L 388.32886 85.262395 
L 389.51255 95.218036 
L 390.696241 107.885726 
L 391.879932 118.073716 
L 393.063623 121.65292 
L 394.247314 117.229813 
L 395.431005 106.687371 
L 396.614696 94.384757 
L 397.798387 85.355404 
L 398.982078 83.248112 
L 400.165769 88.853174 
L 402.533151 111.594503 
L 403.716842 119.397369 
L 404.900532 120.075512 
L 406.084223 113.423337 
L 408.451605 91.093883 
L 409.635296 84.565155 
L 410.818987 85.2558 
L 412.002678 92.812402 
L 414.37006 114.442532 
L 415.553751 119.669345 
L 416.737442 117.68618 
L 417.921133 109.373336 
L 419.104823 98.183037 
L 420.288514 88.706327 
L 421.472205 84.789921 
L 422.655896 87.975256 
L 423.839587 96.89297 
L 425.023278 107.850172 
L 426.206969 116.359189 
L 427.39066 118.975159 
L 428.574351 114.690156 
L 429.758042 105.319891 
L 430.941733 94.735329 
L 432.125424 87.264 
L 433.309115 85.921073 
L 434.492805 91.193097 
L 436.860187 110.949106 
L 438.043878 117.330455 
L 439.227569 117.443931 
L 440.41126 111.305633 
L 442.778642 92.010838 
L 443.962333 86.754198 
L 445.146024 87.811776 
L 446.329715 94.689558 
L 447.513406 104.525481 
L 448.697096 113.279892 
L 449.880787 117.394278 
L 451.064478 115.237325 
L 452.248169 107.750849 
L 453.43186 98.040202 
L 454.615551 90.086658 
L 455.799242 87.115484 
L 456.982933 90.288487 
L 458.166624 98.250862 
L 459.350315 107.708601 
L 460.534006 114.790797 
L 461.717697 116.633593 
L 462.901388 112.537793 
L 465.268769 95.145484 
L 466.45246 88.989682 
L 467.636151 88.245613 
L 468.819842 93.162793 
L 471.187224 110.289114 
L 472.370915 115.478922 
L 473.554606 115.167603 
L 474.738297 109.536823 
L 477.105679 92.899392 
L 478.289369 88.699944 
L 479.47306 90.010893 
L 480.656751 96.242918 
L 481.840442 104.806188 
L 483.024133 112.186161 
L 484.207824 115.385711 
L 485.391515 113.141942 
L 486.575206 106.423825 
L 487.758897 98.014935 
L 488.942588 91.360496 
L 490.126279 89.156143 
L 491.30997 92.256337 
L 492.493661 99.344312 
L 493.677351 107.490539 
L 494.861042 113.363179 
L 496.044733 114.590511 
L 497.228424 110.718359 
L 499.595806 95.592005 
L 500.779497 90.543917 
L 501.963188 90.26286 
L 503.146879 94.815992 
L 505.514261 109.631427 
L 506.697952 113.825651 
L 507.881642 113.202713 
L 509.065333 108.064522 
L 511.432715 93.748889 
L 512.616406 90.424651 
L 513.800097 91.898917 
L 514.983788 97.522867 
L 516.167479 104.96226 
L 517.35117 111.165908 
L 518.534861 113.616807 
L 519.718552 111.353037 
L 520.902243 105.344476 
L 522.085934 98.078145 
L 523.269624 92.529125 
L 524.453315 90.942728 
L 525.637006 93.926318 
L 526.820697 100.217979 
L 528.004388 107.219612 
L 529.188079 112.069506 
L 530.37177 112.811714 
L 531.555461 109.184502 
L 533.922843 96.056788 
L 535.106534 91.938719 
L 536.290225 92.009749 
L 537.473915 96.199238 
L 539.841297 108.988644 
L 541.024988 112.353863 
L 542.208679 111.510234 
L 543.39237 106.843591 
L 544.576061 100.294619 
L 545.759752 94.552139 
L 546.943443 91.949401 
L 548.127134 93.51633 
L 549.310825 98.572582 
L 550.494516 105.021947 
L 551.678207 110.221081 
L 552.861897 112.062678 
L 554.045588 109.829306 
L 555.229279 104.472083 
L 556.41297 98.206293 
L 557.596661 93.595611 
L 558.780352 92.503397 
L 559.964043 95.33995 
L 562.331425 106.914555 
L 563.515116 110.901982 
L 564.698807 111.266317 
L 565.882498 107.895068 
L 568.249879 96.525924 
L 569.43357 93.186273 
L 570.617261 93.519335 
L 571.800952 97.352772 
L 574.168334 108.369892 
L 575.352025 111.047364 
L 576.535716 110.055504 
L 577.719407 105.835217 
L 578.903098 100.139285 
L 580.086789 95.304687 
L 581.27048 93.293976 
L 582.45417 94.898843 
L 583.637861 99.428989 
L 584.821552 105.008315 
L 586.005243 109.351626 
L 587.188934 110.700402 
L 588.372625 108.534528 
L 589.556316 103.772028 
L 590.740007 98.380463 
L 591.923698 94.564297 
L 593.107389 93.863749 
L 594.29108 96.533439 
L 596.658462 106.590074 
L 597.842152 109.852246 
L 599.025843 109.926532 
L 600.209534 106.814365 
L 602.576916 96.988916 
L 603.760607 94.298648 
L 604.944298 94.821104 
L 606.127989 98.311305 
L 607.31168 103.316726 
L 608.495371 107.781522 
L 609.679062 109.890724 
L 610.862753 108.807825 
L 612.046443 105.006097 
L 613.230134 100.062601 
L 614.413825 96.004218 
L 615.597516 94.476791 
L 616.781207 96.077885 
L 617.964898 100.123588 
L 619.148589 104.940094 
L 620.33228 108.55599 
L 621.515971 109.508979 
L 622.699662 107.437013 
L 625.067044 98.585581 
L 626.250735 95.440392 
L 627.434425 95.046951 
L 628.618116 97.538287 
L 630.985498 106.257561 
L 632.169189 108.911681 
L 633.35288 108.767445 
L 634.536571 105.911504 
L 636.903953 97.438032 
L 638.087644 95.287584 
L 639.271335 95.941288 
L 640.455026 99.104718 
L 641.638716 103.463136 
L 642.822407 107.227675 
L 644.006098 108.869397 
L 645.189789 107.740076 
L 646.37348 104.327722 
L 647.557171 100.046306 
L 648.740862 96.65006 
L 649.924553 95.514864 
L 651.108244 97.081052 
L 652.291935 100.683193 
L 653.475626 104.832394 
L 654.659317 107.831535 
L 655.843008 108.469274 
L 657.026698 106.509095 
L 659.39408 98.809745 
L 660.577771 96.229649 
L 661.761462 96.073889 
L 662.945153 98.381847 
L 665.312535 105.9257 
L 666.496226 108.071653 
L 667.679917 107.766796 
L 668.863608 105.159807 
L 668.863608 105.159807 
" clip-path="url(#p3014eb8ec2)" style="fill: none; stroke: #4c72b0; stroke-width: 1.5; stroke-linecap: square"/>
   </g>
   <g id="patch_3">
    <path d="M 48.66875 178.378125 
L 48.66875 22.318125 
" style="fill: none; stroke: #000000; stroke-width: 0.8; stroke-linejoin: miter; stroke-linecap: square"/>
   </g>
   <g id="patch_4">
    <path d="M 698.396696 178.378125 
L 698.396696 22.318125 
" style="fill: none; stroke: #000000; stroke-width: 0.8; stroke-linejoin: miter; stroke-linecap: square"/>
   </g>
   <g id="patch_5">
    <path d="M 48.66875 178.378125 
L 698.396696 178.378125 
" style="fill: none; stroke: #000000; stroke-width: 0.8; stroke-linejoin: miter; stroke-linecap: square"/>
   </g>
   <g id="patch_6">
    <path d="M 48.66875 22.318125 
L 698.396696 22.318125 
" style="fill: none; stroke: #000000; stroke-width: 0.8; stroke-linejoin: miter; stroke-linecap: square"/>
   </g>
   <g id="text_14">
    <!-- Decaying sinusoid — f₀ = 10.37 Hz, γ = 0.5 s⁻¹, A = 2.0 V -->
    <g transform="translate(200.253661 16.318125) scale(0.12 -0.12)">
     <defs>
      <path id="DejaVuSans-44" d="M 1259 4147 
L 1259 519 
L 2022 519 
Q 2988 519 3436 956 
Q 3884 1394 3884 2338 
Q 3884 3275 3436 3711 
Q 2988 4147 2022 4147 
L 1259 4147 
z
M 628 4666 
L 1925 4666 
Q 3281 4666 3915 4102 
Q 4550 3538 4550 2338 
Q 4550 1131 3912 565 
Q 3275 0 1925 0 
L 628 0 
L 628 4666 
z
" transform="scale(0.015625)"/>
      <path id="DejaVuSans-63" d="M 3122 3366 
L 3122 2828 
Q 2878 2963 2633 3030 
Q 2388 3097 2138 3097 
Q 1578 3097 1268 2742 
Q 959 2388 959 1747 
Q 959 1106 1268 751 
Q 1578 397 2138 397 
Q 2388 397 2633 464 
Q 2878 531 3122 666 
L 3122 134 
Q 2881 22 2623 -34 
Q 2366 -91 2075 -91 
Q 1284 -91 818 406 
Q 353 903 353 1747 
Q 353 2603 823 3093 
Q 1294 3584 2113 3584 
Q 2378 3584 2631 3529 
Q 2884 3475 3122 3366 
z
" transform="scale(0.015625)"/>
      <path id="DejaVuSans-61" d="M 2194 1759 
Q 1497 1759 1228 1600 
Q 959 1441 959 1056 
Q 959 750 1161 570 
Q 1363 391 1709 391 
Q 2188 391 2477 730 
Q 2766 1069 2766 1631 
L 2766 1759 
L 2194 1759 
z
M 3341 1997 
L 3341 0 
L 2766 0 
L 2766 531 
Q 2569 213 2275 61 
Q 1981 -91 1556 -91 
Q 1019 -91 701 211 
Q 384 513 384 1019 
Q 384 1609 779 1909 
Q 1175 2209 1959 2209 
L 2766 2209 
L 2766 2266 
Q 2766 2663 2505 2880 
Q 2244 3097 1772 3097 
Q 1472 3097 1187 3025 
Q 903 2953 641 2809 
L 641 3341 
Q 956 3463 1253 3523 
Q 1550 3584 1831 3584 
Q 2591 3584 2966 3190 
Q 3341 2797 3341 1997 
z
" transform="scale(0.015625)"/>
      <path id="DejaVuSans-79" d="M 2059 -325 
Q 1816 -950 1584 -1140 
Q 1353 -1331 966 -1331 
L 506 -1331 
L 506 -850 
L 844 -850 
Q 1081 -850 1212 -737 
Q 1344 -625 1503 -206 
L 1606 56 
L 191 3500 
L 800 3500 
L 1894 763 
L 2988 3500 
L 3597 3500 
L 2059 -325 
z
" transform="scale(0.015625)"/>
      <path id="DejaVuSans-6e" d="M 3513 2113 
L 3513 0 
L 2938 0 
L 2938 2094 
Q 2938 2591 2744 2837 
Q 2550 3084 2163 3084 
Q 1697 3084 1428 2787 
Q 1159 2491 1159 1978 
L 1159 0 
L 581 0 
L 581 3500 
L 1159 3500 
L 1159 2956 
Q 1366 3272 1645 3428 
Q 1925 3584 2291 3584 
Q 2894 3584 3203 3211 
Q 3513 2838 3513 2113 
z
" transform="scale(0.015625)"/>
      <path id="DejaVuSans-67" d="M 2906 1791 
Q 2906 2416 2648 2759 
Q 2391 3103 1925 3103 
Q 1463 3103 1205 2759 
Q 947 2416 947 1791 
Q 947 1169 1205 825 
Q 1463 481 1925 481 
Q 2391 481 2648 825 
Q 2906 1169 2906 1791 
z
M 3481 434 
Q 3481 -459 3084 -895 
Q 2688 -1331 1869 -1331 
Q 1566 -1331 1297 -1286 
Q 1028 -1241 775 -1147 
L 775 -588 
Q 1028 -725 1275 -790 
Q 1522 -856 1778 -856 
Q 2344 -856 2625 -561 
Q 2906 -266 2906 331 
L 2906 616 
Q 2728 306 2450 153 
Q 2172 0 1784 0 
Q 1141 0 747 490 
Q 353 981 353 1791 
Q 353 2603 747 3093 
Q 1141 3584 1784 3584 
Q 2172 3584 2450 3431 
Q 2728 3278 2906 2969 
L 2906 3500 
L 3481 3500 
L 3481 434 
z
" transform="scale(0.015625)"/>
      <path id="DejaVuSans-6f" d="M 1959 3097 
Q 1497 3097 1228 2736 
Q 959 2375 959 1747 
Q 959 1119 1226 758 
Q 1494 397 1959 397 
Q 2419 397 2687 759 
Q 2956 1122 2956 1747 
Q 2956 2369 2687 2733 
Q 2419 3097 1959 3097 
z
M 1959 3584 
Q 2709 3584 3137 3096 
Q 3566 2609 3566 1747 
Q 3566 888 3137 398 
Q 2709 -91 1959 -91 
Q 1206 -91 779 398 
Q 353 888 353 1747 
Q 353 2609 779 3096 
Q 1206 3584 1959 3584 
z
" transform="scale(0.015625)"/>
      <path id="DejaVuSans-2014" d="M 313 1978 
L 6088 1978 
L 6088 1528 
L 313 1528 
L 313 1978 
z
" transform="scale(0.015625)"/>
      <path id="DejaVuSans-66" d="M 2375 4863 
L 2375 4384 
L 1825 4384 
Q 1516 4384 1395 4259 
Q 1275 4134 1275 3809 
L 1275 3500 
L 2222 3500 
L 2222 3053 
L 1275 3053 
L 1275 0 
L 697 0 
L 697 3053 
L 147 3053 
L 147 3500 
L 697 3500 
L 697 3744 
Q 697 4328 969 4595 
Q 1241 4863 1831 4863 
L 2375 4863 
z
" transform="scale(0.015625)"/>
      <path id="DejaVuSans-2080" d="M 1781 2091 
Q 1625 2360 1309 2360 
Q 994 2360 838 2091 
Q 678 1822 678 1285 
Q 678 744 838 476 
Q 994 207 1309 207 
Q 1625 207 1781 476 
Q 1941 744 1941 1285 
Q 1941 1822 1781 2091 
z
M 1309 2638 
Q 1813 2638 2078 2291 
Q 2344 1944 2344 1285 
Q 2344 622 2078 275 
Q 1813 -71 1309 -71 
Q 803 -71 537 275 
Q 272 622 272 1285 
Q 272 1944 537 2291 
Q 803 2638 1309 2638 
z
" transform="scale(0.015625)"/>
      <path id="DejaVuSans-3d" d="M 678 2906 
L 4684 2906 
L 4684 2381 
L 678 2381 
L 678 2906 
z
M 678 1631 
L 4684 1631 
L 4684 1100 
L 678 1100 
L 678 1631 
z
" transform="scale(0.015625)"/>
      <path id="DejaVuSans-2e" d="M 684 794 
L 1344 794 
L 1344 0 
L 684 0 
L 684 794 
z
" transform="scale(0.015625)"/>
      <path id="DejaVuSans-37" d="M 525 4666 
L 3525 4666 
L 3525 4397 
L 1831 0 
L 1172 0 
L 2766 4134 
L 525 4134 
L 525 4666 
z
" transform="scale(0.015625)"/>
      <path id="DejaVuSans-48" d="M 628 4666 
L 1259 4666 
L 1259 2753 
L 3553 2753 
L 3553 4666 
L 4184 4666 
L 4184 0 
L 3553 0 
L 3553 2222 
L 1259 2222 
L 1259 0 
L 628 0 
L 628 4666 
z
" transform="scale(0.015625)"/>
      <path id="DejaVuSans-7a" d="M 353 3500 
L 3084 3500 
L 3084 2975 
L 922 459 
L 3084 459 
L 3084 0 
L 275 0 
L 275 525 
L 2438 3041 
L 353 3041 
L 353 3500 
z
" transform="scale(0.015625)"/>
      <path id="DejaVuSans-2c" d="M 750 794 
L 1409 794 
L 1409 256 
L 897 -744 
L 494 -744 
L 750 256 
L 750 794 
z
" transform="scale(0.015625)"/>
      <path id="DejaVuSans-3b3" d="M 1128 2950 
L 1894 788 
L 2988 3500 
L 3597 3500 
L 2181 0 
L 2181 -1331 
L 1606 -1331 
L 1606 0 
L 688 2613 
Q 550 3006 253 3006 
L 100 3006 
L 100 3500 
L 319 3500 
Q 934 3500 1128 2950 
z
" transform="scale(0.015625)"/>
      <path id="DejaVuSans-207b" d="M 428 3359 
L 2950 3359 
L 2950 3063 
L 428 3063 
L 428 3359 
z
" transform="scale(0.015625)"/>
      <path id="DejaVuSans-b9" d="M 488 2431 
L 1125 2431 
L 1125 4341 
L 428 4213 
L 428 4575 
L 1147 4697 
L 1575 4697 
L 1575 2431 
L 2216 2431 
L 2216 2088 
L 488 2088 
L 488 2431 
z
" transform="scale(0.015625)"/>
     </defs>
     <use xlink:href="#DejaVuSans-44"/>
     <use xlink:href="#DejaVuSans-65" transform="translate(77.001953 0)"/>
     <use xlink:href="#DejaVuSans-63" transform="translate(138.525391 0)"/>
     <use xlink:href="#DejaVuSans-61" transform="translate(193.505859 0)"/>
     <use xlink:href="#DejaVuSans-79" transform="translate(254.785156 0)"/>
     <use xlink:href="#DejaVuSans-69" transform="translate(313.964844 0)"/>
     <use xlink:href="#DejaVuSans-6e" transform="translate(341.748047 0)"/>
     <use xlink:href="#DejaVuSans-67" transform="translate(405.126953 0)"/>
     <use xlink:href="#DejaVuSans-20" transform="translate(468.603516 0)"/>
     <use xlink:href="#DejaVuSans-73" transform="translate(500.390625 0)"/>
     <use xlink:href="#DejaVuSans-69" transform="translate(552.490234 0)"/>
     <use xlink:href="#DejaVuSans-6e" transform="translate(580.273438 0)"/>
     <use xlink:href="#DejaVuSans-75" transform="translate(643.652344 0)"/>
     <use xlink:href="#DejaVuSans-73" transform="translate(707.03125 0)"/>
     <use xlink:href="#DejaVuSans-6f" transform="translate(759.130859 0)"/>
     <use xlink:href="#DejaVuSans-69" transform="translate(820.3125 0)"/>
     <use xlink:href="#DejaVuSans-64" transform="translate(848.095703 0)"/>
     <use xlink:href="#DejaVuSans-20" transform="translate(911.572266 0)"/>
     <use xlink:href="#DejaVuSans-2014" transform="translate(943.359375 0)"/>
     <use xlink:href="#DejaVuSans-20" transform="translate(1043.359375 0)"/>
     <use xlink:href="#DejaVuSans-66" transform="translate(1075.146484 0)"/>
     <use xlink:href="#DejaVuSans-2080" transform="translate(1110.351562 0)"/>
     <use xlink:href="#DejaVuSans-20" transform="translate(1150.439453 0)"/>
     <use xlink:href="#DejaVuSans-3d" transform="translate(1182.226562 0)"/>
     <use xlink:href="#DejaVuSans-20" transform="translate(1266.015625 0)"/>
     <use xlink:href="#DejaVuSans-31" transform="translate(1297.802734 0)"/>
     <use xlink:href="#DejaVuSans-30" transform="translate(1361.425781 0)"/>
     <use xlink:href="#DejaVuSans-2e" transform="translate(1425.048828 0)"/>
     <use xlink:href="#DejaVuSans-33" transform="translate(1456.835938 0)"/>
     <use xlink:href="#DejaVuSans-37" transform="translate(1520.458984 0)"/>
     <use xlink:href="#DejaVuSans-20" transform="translate(1584.082031 0)"/>
     <use xlink:href="#DejaVuSans-48" transform="translate(1615.869141 0)"/>
     <use xlink:href="#DejaVuSans-7a" transform="translate(1691.064453 0)"/>
     <use xlink:href="#DejaVuSans-2c" transform="translate(1743.554688 0)"/>
     <use xlink:href="#DejaVuSans-20" transform="translate(1775.341797 0)"/>
     <use xlink:href="#DejaVuSans-3b3" transform="translate(1807.128906 0)"/>
     <use xlink:href="#DejaVuSans-20" transform="translate(1866.308594 0)"/>
     <use xlink:href="#DejaVuSans-3d" transform="translate(1898.095703 0)"/>
     <use xlink:href="#DejaVuSans-20" transform="translate(1981.884766 0)"/>
     <use xlink:href="#DejaVuSans-30" transform="translate(2013.671875 0)"/>
     <use xlink:href="#DejaVuSans-2e" transform="translate(2077.294922 0)"/>
     <use xlink:href="#DejaVuSans-35" transform="translate(2109.082031 0)"/>
     <use xlink:href="#DejaVuSans-20" transform="translate(2172.705078 0)"/>
     <use xlink:href="#DejaVuSans-73" transform="translate(2204.492188 0)"/>
     <use xlink:href="#DejaVuSans-207b" transform="translate(2256.591797 0)"/>
     <use xlink:href="#DejaVuSans-b9" transform="translate(2309.375 0)"/>
     <use xlink:href="#DejaVuSans-2c" transform="translate(2349.462891 0)"/>
     <use xlink:href="#DejaVuSans-20" transform="translate(2381.25 0)"/>
     <use xlink:href="#DejaVuSans-41" transform="translate(2413.037109 0)"/>
     <use xlink:href="#DejaVuSans-20" transform="translate(2481.445312 0)"/>
     <use xlink:href="#DejaVuSans-3d" transform="translate(2513.232422 0)"/>
     <use xlink:href="#DejaVuSans-20" transform="translate(2597.021484 0)"/>
     <use xlink:href="#DejaVuSans-32" transform="translate(2628.808594 0)"/>
     <use xlink:href="#DejaVuSans-2e" transform="translate(2692.431641 0)"/>
     <use xlink:href="#DejaVuSans-30" transform="translate(2724.21875 0)"/>
     <use xlink:href="#DejaVuSans-20" transform="translate(2787.841797 0)"/>
     <use xlink:href="#DejaVuSans-56" transform="translate(2819.628906 0)"/>
    </g>
   </g>
  </g>
  <g id="axes_2">
   <g id="patch_7">
    <path d="M 48.66875 388.978125 
L 698.396696 388.978125 
L 698.396696 232.918125 
L 48.66875 232.918125 
z
" style="fill: #ffffff"/>
   </g>
   <g id="matplotlib.axis_3">
    <g id="xtick_7">
     <g id="line2d_24">
      <path d="M 48.66875 388.978125 
L 48.66875 232.918125 
" clip-path="url(#p73442a7069)" style="fill: none; stroke: #b0b0b0; stroke-opacity: 0.3; stroke-width: 0.8; stroke-linecap: square"/>
     </g>
     <g id="line2d_25">
      <g>
       <use xlink:href="#m10d7892bec" x="48.66875" y="388.978125" style="stroke: #000000; stroke-width: 0.8"/>
      </g>
     </g>
     <g id="text_15">
      <!-- 0 -->
      <g transform="translate(45.4875 400.076562) scale(0.1 -0.1)">
       <use xlink:href="#DejaVuSans-30"/>
      </g>
     </g>
    </g>
    <g id="xtick_8">
     <g id="line2d_26">
      <path d="M 156.956741 388.978125 
L 156.956741 232.918125 
" clip-path="url(#p73442a7069)" style="fill: none; stroke: #b0b0b0; stroke-opacity: 0.3; stroke-width: 0.8; stroke-linecap: square"/>
     </g>
     <g id="line2d_27">
      <g>
       <use xlink:href="#m10d7892bec" x="156.956741" y="388.978125" style="stroke: #000000; stroke-width: 0.8"/>
      </g>
     </g>
     <g id="text_16">
      <!-- 5 -->
      <g transform="translate(153.775491 400.076562) scale(0.1 -0.1)">
       <use xlink:href="#DejaVuSans-35"/>
      </g>
     </g>
    </g>
    <g id="xtick_9">
     <g id="line2d_28">
      <path d="M 265.244732 388.978125 
L 265.244732 232.918125 
" clip-path="url(#p73442a7069)" style="fill: none; stroke: #b0b0b0; stroke-opacity: 0.3; stroke-width: 0.8; stroke-linecap: square"/>
     </g>
     <g id="line2d_29">
      <g>
       <use xlink:href="#m10d7892bec" x="265.244732" y="388.978125" style="stroke: #000000; stroke-width: 0.8"/>
      </g>
     </g>
     <g id="text_17">
      <!-- 10 -->
      <g transform="translate(258.882232 400.076562) scale(0.1 -0.1)">
       <use xlink:href="#DejaVuSans-31"/>
       <use xlink:href="#DejaVuSans-30" transform="translate(63.623047 0)"/>
      </g>
     </g>
    </g>
    <g id="xtick_10">
     <g id="line2d_30">
      <path d="M 373.532723 388.978125 
L 373.532723 232.918125 
" clip-path="url(#p73442a7069)" style="fill: none; stroke: #b0b0b0; stroke-opacity: 0.3; stroke-width: 0.8; stroke-linecap: square"/>
     </g>
     <g id="line2d_31">
      <g>
       <use xlink:href="#m10d7892bec" x="373.532723" y="388.978125" style="stroke: #000000; stroke-width: 0.8"/>
      </g>
     </g>
     <g id="text_18">
      <!-- 15 -->
      <g transform="translate(367.170223 400.076562) scale(0.1 -0.1)">
       <use xlink:href="#DejaVuSans-31"/>
       <use xlink:href="#DejaVuSans-35" transform="translate(63.623047 0)"/>
      </g>
     </g>
    </g>
    <g id="xtick_11">
     <g id="line2d_32">
      <path d="M 481.820714 388.978125 
L 481.820714 232.918125 
" clip-path="url(#p73442a7069)" style="fill: none; stroke: #b0b0b0; stroke-opacity: 0.3; stroke-width: 0.8; stroke-linecap: square"/>
     </g>
     <g id="line2d_33">
      <g>
       <use xlink:href="#m10d7892bec" x="481.820714" y="388.978125" style="stroke: #000000; stroke-width: 0.8"/>
      </g>
     </g>
     <g id="text_19">
      <!-- 20 -->
      <g transform="translate(475.458214 400.076562) scale(0.1 -0.1)">
       <use xlink:href="#DejaVuSans-32"/>
       <use xlink:href="#DejaVuSans-30" transform="translate(63.623047 0)"/>
      </g>
     </g>
    </g>
    <g id="xtick_12">
     <g id="line2d_34">
      <path d="M 590.108705 388.978125 
L 590.108705 232.918125 
" clip-path="url(#p73442a7069)" style="fill: none; stroke: #b0b0b0; stroke-opacity: 0.3; stroke-width: 0.8; stroke-linecap: square"/>
     </g>
     <g id="line2d_35">
      <g>
       <use xlink:href="#m10d7892bec" x="590.108705" y="388.978125" style="stroke: #000000; stroke-width: 0.8"/>
      </g>
     </g>
     <g id="text_20">
      <!-- 25 -->
      <g transform="translate(583.746205 400.076562) scale(0.1 -0.1)">
       <use xlink:href="#DejaVuSans-32"/>
       <use xlink:href="#DejaVuSans-35" transform="translate(63.623047 0)"/>
      </g>
     </g>
    </g>
    <g id="xtick_13">
     <g id="line2d_36">
      <path d="M 698.396696 388.978125 
L 698.396696 232.918125 
" clip-path="url(#p73442a7069)" style="fill: none; stroke: #b0b0b0; stroke-opacity: 0.3; stroke-width: 0.8; stroke-linecap: square"/>
     </g>
     <g id="line2d_37">
      <g>
       <use xlink:href="#m10d7892bec" x="698.396696" y="388.978125" style="stroke: #000000; stroke-width: 0.8"/>
      </g>
     </g>
     <g id="text_21">
      <!-- 30 -->
      <g transform="translate(692.034196 400.076562) scale(0.1 -0.1)">
       <use xlink:href="#DejaVuSans-33"/>
       <use xlink:href="#DejaVuSans-30" transform="translate(63.623047 0)"/>
      </g>
     </g>
    </g>
    <g id="text_22">
     <!-- Frequency (Hz) -->
     <g transform="translate(335.828036 413.754687) scale(0.1 -0.1)">
      <defs>
       <path id="DejaVuSans-46" d="M 628 4666 
L 3309 4666 
L 3309 4134 
L 1259 4134 
L 1259 2759 
L 3109 2759 
L 3109 2228 
L 1259 2228 
L 1259 0 
L 628 0 
L 628 4666 
z
" transform="scale(0.015625)"/>
       <path id="DejaVuSans-72" d="M 2631 2963 
Q 2534 3019 2420 3045 
Q 2306 3072 2169 3072 
Q 1681 3072 1420 2755 
Q 1159 2438 1159 1844 
L 1159 0 
L 581 0 
L 581 3500 
L 1159 3500 
L 1159 2956 
Q 1341 3275 1631 3429 
Q 1922 3584 2338 3584 
Q 2397 3584 2469 3576 
Q 2541 3569 2628 3553 
L 2631 2963 
z
" transform="scale(0.015625)"/>
       <path id="DejaVuSans-71" d="M 947 1747 
Q 947 1113 1208 752 
Q 1469 391 1925 391 
Q 2381 391 2643 752 
Q 2906 1113 2906 1747 
Q 2906 2381 2643 2742 
Q 2381 3103 1925 3103 
Q 1469 3103 1208 2742 
Q 947 2381 947 1747 
z
M 2906 525 
Q 2725 213 2448 61 
Q 2172 -91 1784 -91 
Q 1150 -91 751 415 
Q 353 922 353 1747 
Q 353 2572 751 3078 
Q 1150 3584 1784 3584 
Q 2172 3584 2448 3432 
Q 2725 3281 2906 2969 
L 2906 3500 
L 3481 3500 
L 3481 -1331 
L 2906 -1331 
L 2906 525 
z
" transform="scale(0.015625)"/>
      </defs>
      <use xlink:href="#DejaVuSans-46"/>
      <use xlink:href="#DejaVuSans-72" transform="translate(50.269531 0)"/>
      <use xlink:href="#DejaVuSans-65" transform="translate(89.132812 0)"/>
      <use xlink:href="#DejaVuSans-71" transform="translate(150.65625 0)"/>
      <use xlink:href="#DejaVuSans-75" transform="translate(214.132812 0)"/>
      <use xlink:href="#DejaVuSans-65" transform="translate(277.511719 0)"/>
      <use xlink:href="#DejaVuSans-6e" transform="translate(339.035156 0)"/>
      <use xlink:href="#DejaVuSans-63" transform="translate(402.414062 0)"/>
      <use xlink:href="#DejaVuSans-79" transform="translate(457.394531 0)"/>
      <use xlink:href="#DejaVuSans-20" transform="translate(516.574219 0)"/>
      <use xlink:href="#DejaVuSans-28" transform="translate(548.361328 0)"/>
      <use xlink:href="#DejaVuSans-48" transform="translate(587.375 0)"/>
      <use xlink:href="#DejaVuSans-7a" transform="translate(662.570312 0)"/>
      <use xlink:href="#DejaVuSans-29" transform="translate(715.060547 0)"/>
     </g>
    </g>
   </g>
   <g id="matplotlib.axis_4">
    <g id="ytick_6">
     <g id="line2d_38">
      <path d="M 48.66875 331.862983 
L 698.396696 331.862983 
" clip-path="url(#p73442a7069)" style="fill: none; stroke: #b0b0b0; stroke-opacity: 0.3; stroke-width: 0.8; stroke-linecap: square"/>
     </g>
     <g id="line2d_39">
      <g>
       <use xlink:href="#mf276720c6e" x="48.66875" y="331.862983" style="stroke: #000000; stroke-width: 0.8"/>
      </g>
     </g>
     <g id="text_23">
      <!-- $\mathdefault{10^{-1}}$ -->
      <g transform="translate(21.66875 335.662201) scale(0.1 -0.1)">
       <use xlink:href="#DejaVuSans-31" transform="translate(0 0.684375)"/>
       <use xlink:href="#DejaVuSans-30" transform="translate(63.623047 0.684375)"/>
       <use xlink:href="#DejaVuSans-2212" transform="translate(128.203125 38.965625) scale(0.7)"/>
       <use xlink:href="#DejaVuSans-31" transform="translate(186.855469 38.965625) scale(0.7)"/>
      </g>
     </g>
    </g>
    <g id="ytick_7">
     <g id="line2d_40">
      <path d="M 48.66875 273.233975 
L 698.396696 273.233975 
" clip-path="url(#p73442a7069)" style="fill: none; stroke: #b0b0b0; stroke-opacity: 0.3; stroke-width: 0.8; stroke-linecap: square"/>
     </g>
     <g id="line2d_41">
      <g>
       <use xlink:href="#mf276720c6e" x="48.66875" y="273.233975" style="stroke: #000000; stroke-width: 0.8"/>
      </g>
     </g>
     <g id="text_24">
      <!-- $\mathdefault{10^{0}}$ -->
      <g transform="translate(27.56875 277.033194) scale(0.1 -0.1)">
       <use xlink:href="#DejaVuSans-31" transform="translate(0 0.765625)"/>
       <use xlink:href="#DejaVuSans-30" transform="translate(63.623047 0.765625)"/>
       <use xlink:href="#DejaVuSans-30" transform="translate(128.203125 39.046875) scale(0.7)"/>
      </g>
     </g>
    </g>
    <g id="ytick_8">
     <g id="line2d_42">
      <defs>
       <path id="m1a2f08953e" d="M 0 0 
L 2 0 
" style="stroke: #000000; stroke-width: 0.6"/>
      </defs>
      <g>
       <use xlink:href="#m1a2f08953e" x="48.66875" y="372.8429" style="stroke: #000000; stroke-width: 0.6"/>
      </g>
     </g>
    </g>
    <g id="ytick_9">
     <g id="line2d_43">
      <g>
       <use xlink:href="#m1a2f08953e" x="48.66875" y="362.518844" style="stroke: #000000; stroke-width: 0.6"/>
      </g>
     </g>
    </g>
    <g id="ytick_10">
     <g id="line2d_44">
      <g>
       <use xlink:href="#m1a2f08953e" x="48.66875" y="355.19381" style="stroke: #000000; stroke-width: 0.6"/>
      </g>
     </g>
    </g>
    <g id="ytick_11">
     <g id="line2d_45">
      <g>
       <use xlink:href="#m1a2f08953e" x="48.66875" y="349.512072" style="stroke: #000000; stroke-width: 0.6"/>
      </g>
     </g>
    </g>
    <g id="ytick_12">
     <g id="line2d_46">
      <g>
       <use xlink:href="#m1a2f08953e" x="48.66875" y="344.869755" style="stroke: #000000; stroke-width: 0.6"/>
      </g>
     </g>
    </g>
    <g id="ytick_13">
     <g id="line2d_47">
      <g>
       <use xlink:href="#m1a2f08953e" x="48.66875" y="340.944731" style="stroke: #000000; stroke-width: 0.6"/>
      </g>
     </g>
    </g>
    <g id="ytick_14">
     <g id="line2d_48">
      <g>
       <use xlink:href="#m1a2f08953e" x="48.66875" y="337.54472" style="stroke: #000000; stroke-width: 0.6"/>
      </g>
     </g>
    </g>
    <g id="ytick_15">
     <g id="line2d_49">
      <g>
       <use xlink:href="#m1a2f08953e" x="48.66875" y="334.545699" style="stroke: #000000; stroke-width: 0.6"/>
      </g>
     </g>
    </g>
    <g id="ytick_16">
     <g id="line2d_50">
      <g>
       <use xlink:href="#m1a2f08953e" x="48.66875" y="314.213893" style="stroke: #000000; stroke-width: 0.6"/>
      </g>
     </g>
    </g>
    <g id="ytick_17">
     <g id="line2d_51">
      <g>
       <use xlink:href="#m1a2f08953e" x="48.66875" y="303.889837" style="stroke: #000000; stroke-width: 0.6"/>
      </g>
     </g>
    </g>
    <g id="ytick_18">
     <g id="line2d_52">
      <g>
       <use xlink:href="#m1a2f08953e" x="48.66875" y="296.564803" style="stroke: #000000; stroke-width: 0.6"/>
      </g>
     </g>
    </g>
    <g id="ytick_19">
     <g id="line2d_53">
      <g>
       <use xlink:href="#m1a2f08953e" x="48.66875" y="290.883065" style="stroke: #000000; stroke-width: 0.6"/>
      </g>
     </g>
    </g>
    <g id="ytick_20">
     <g id="line2d_54">
      <g>
       <use xlink:href="#m1a2f08953e" x="48.66875" y="286.240747" style="stroke: #000000; stroke-width: 0.6"/>
      </g>
     </g>
    </g>
    <g id="ytick_21">
     <g id="line2d_55">
      <g>
       <use xlink:href="#m1a2f08953e" x="48.66875" y="282.315723" style="stroke: #000000; stroke-width: 0.6"/>
      </g>
     </g>
    </g>
    <g id="ytick_22">
     <g id="line2d_56">
      <g>
       <use xlink:href="#m1a2f08953e" x="48.66875" y="278.915713" style="stroke: #000000; stroke-width: 0.6"/>
      </g>
     </g>
    </g>
    <g id="ytick_23">
     <g id="line2d_57">
      <g>
       <use xlink:href="#m1a2f08953e" x="48.66875" y="275.916692" style="stroke: #000000; stroke-width: 0.6"/>
      </g>
     </g>
    </g>
    <g id="ytick_24">
     <g id="line2d_58">
      <g>
       <use xlink:href="#m1a2f08953e" x="48.66875" y="255.584885" style="stroke: #000000; stroke-width: 0.6"/>
      </g>
     </g>
    </g>
    <g id="ytick_25">
     <g id="line2d_59">
      <g>
       <use xlink:href="#m1a2f08953e" x="48.66875" y="245.26083" style="stroke: #000000; stroke-width: 0.6"/>
      </g>
     </g>
    </g>
    <g id="ytick_26">
     <g id="line2d_60">
      <g>
       <use xlink:href="#m1a2f08953e" x="48.66875" y="237.935796" style="stroke: #000000; stroke-width: 0.6"/>
      </g>
     </g>
    </g>
    <g id="text_25">
     <!-- |CFT| (V/√Hz) -->
     <g transform="translate(15.310938 343.816094) rotate(-90) scale(0.1 -0.1)">
      <defs>
       <path id="DejaVuSans-7c" d="M 1344 4891 
L 1344 -1509 
L 813 -1509 
L 813 4891 
L 1344 4891 
z
" transform="scale(0.015625)"/>
       <path id="DejaVuSans-43" d="M 4122 4306 
L 4122 3641 
Q 3803 3938 3442 4084 
Q 3081 4231 2675 4231 
Q 1875 4231 1450 3742 
Q 1025 3253 1025 2328 
Q 1025 1406 1450 917 
Q 1875 428 2675 428 
Q 3081 428 3442 575 
Q 3803 722 4122 1019 
L 4122 359 
Q 3791 134 3420 21 
Q 3050 -91 2638 -91 
Q 1578 -91 968 557 
Q 359 1206 359 2328 
Q 359 3453 968 4101 
Q 1578 4750 2638 4750 
Q 3056 4750 3426 4639 
Q 3797 4528 4122 4306 
z
" transform="scale(0.015625)"/>
       <path id="DejaVuSans-2f" d="M 1625 4666 
L 2156 4666 
L 531 -594 
L 0 -594 
L 1625 4666 
z
" transform="scale(0.015625)"/>
       <path id="DejaVuSans-221a" d="M 3488 5191 
L 4078 5191 
L 4078 4891 
L 3719 4891 
L 1863 -128 
L 1656 -128 
L 659 2631 
L 269 2491 
L 191 2741 
L 1075 3047 
L 1875 831 
L 3488 5191 
z
" transform="scale(0.015625)"/>
      </defs>
      <use xlink:href="#DejaVuSans-7c"/>
      <use xlink:href="#DejaVuSans-43" transform="translate(33.691406 0)"/>
      <use xlink:href="#DejaVuSans-46" transform="translate(103.515625 0)"/>
      <use xlink:href="#DejaVuSans-54" transform="translate(159.285156 0)"/>
      <use xlink:href="#DejaVuSans-7c" transform="translate(220.369141 0)"/>
      <use xlink:href="#DejaVuSans-20" transform="translate(254.060547 0)"/>
      <use xlink:href="#DejaVuSans-28" transform="translate(285.847656 0)"/>
      <use xlink:href="#DejaVuSans-56" transform="translate(324.861328 0)"/>
      <use xlink:href="#DejaVuSans-2f" transform="translate(393.269531 0)"/>
      <use xlink:href="#DejaVuSans-221a" transform="translate(426.960938 0)"/>
      <use xlink:href="#DejaVuSans-48" transform="translate(490.681641 0)"/>
      <use xlink:href="#DejaVuSans-7a" transform="translate(565.876953 0)"/>
      <use xlink:href="#DejaVuSans-29" transform="translate(618.367188 0)"/>
     </g>
    </g>
   </g>
   <g id="line2d_61">
    <path d="M 48.66875 354.362746 
L 49.101902 353.710751 
L 50.401358 349.234488 
L 50.83451 348.807666 
L 51.267662 349.26045 
L 51.700814 350.49803 
L 52.567118 353.740029 
L 53.00027 354.348554 
L 53.433422 353.653789 
L 54.732877 349.183979 
L 55.166029 348.783296 
L 55.599181 349.261824 
L 56.032333 350.518352 
L 56.898637 353.741528 
L 57.331789 354.305964 
L 57.764941 353.569209 
L 59.064397 349.108929 
L 59.497549 348.73452 
L 59.930701 349.238533 
L 60.363853 350.513309 
L 61.230157 353.715128 
L 61.663309 354.234944 
L 62.096461 353.457053 
L 63.395917 349.009306 
L 63.829069 348.661264 
L 64.262221 349.190464 
L 64.695373 350.482751 
L 65.561677 353.660684 
L 65.994829 354.135434 
L 66.427981 353.317331 
L 67.294284 350.018809 
L 67.727436 348.885041 
L 68.160588 348.56342 
L 68.59374 349.117466 
L 69.026892 350.426489 
L 69.893196 353.578022 
L 70.326348 354.007352 
L 70.7595 353.150027 
L 71.625804 349.847518 
L 72.058956 348.736028 
L 72.492108 348.440837 
L 72.92526 349.019352 
L 73.358412 350.344302 
L 74.224716 353.466945 
L 74.657868 353.850587 
L 75.09102 352.955092 
L 75.957324 349.65093 
L 76.390476 348.562119 
L 76.823628 348.293327 
L 77.25678 348.895895 
L 78.123084 351.936828 
L 78.556236 353.327222 
L 78.989387 353.665001 
L 79.422539 352.732439 
L 80.288843 349.428902 
L 80.721995 348.363125 
L 81.155147 348.120661 
L 81.588299 348.746827 
L 82.887755 353.158595 
L 83.320907 353.450424 
L 83.754059 352.481949 
L 84.620363 349.181245 
L 85.053515 348.138812 
L 85.486667 347.922564 
L 85.919819 348.571839 
L 87.219275 352.960772 
L 87.652427 353.206653 
L 88.085579 352.20346 
L 88.951883 348.907725 
L 89.385035 347.888901 
L 89.818187 347.698716 
L 90.251339 348.370574 
L 91.550794 352.733424 
L 91.983946 352.933447 
L 92.417098 351.896764 
L 93.283402 348.608058 
L 93.716554 347.613061 
L 94.149706 347.448747 
L 94.582858 348.142629 
L 95.882314 352.476183 
L 96.315466 352.630519 
L 96.748618 351.561608 
L 97.614922 348.281904 
L 98.048074 347.310907 
L 98.481226 347.172233 
L 98.914378 347.887546 
L 100.213834 352.188637 
L 100.646986 352.297541 
L 101.080138 351.197681 
L 101.946442 347.928867 
L 102.379594 346.981997 
L 102.812746 346.868694 
L 103.245897 347.604814 
L 104.545353 351.870326 
L 104.978505 351.934128 
L 105.411657 350.804618 
L 106.277961 347.548486 
L 106.711113 346.625824 
L 107.144265 346.537587 
L 107.577417 347.293859 
L 108.876873 351.520734 
L 109.310025 351.539838 
L 109.743177 350.381985 
L 110.609481 347.140231 
L 111.042633 346.241814 
L 111.475785 346.178299 
L 111.908937 346.954038 
L 113.208393 351.139285 
L 113.641545 351.114163 
L 114.074697 349.929276 
L 114.941001 346.703496 
L 115.374152 345.829317 
L 115.807304 345.790143 
L 116.240456 346.584636 
L 117.539912 350.725333 
L 117.973064 350.656521 
L 118.406216 349.445905 
L 119.27252 346.237591 
L 119.705672 345.387597 
L 120.138824 345.37235 
L 120.571976 346.184857 
L 121.871432 350.278155 
L 122.304584 350.166246 
L 122.737736 348.931198 
L 123.60404 345.741735 
L 124.037192 344.915829 
L 124.470344 344.924059 
L 124.903496 345.753813 
L 126.202952 349.796941 
L 126.636104 349.642579 
L 127.069255 348.38438 
L 127.935559 345.215043 
L 128.368711 344.413085 
L 128.801863 344.444307 
L 129.235015 345.290517 
L 130.534471 349.280781 
L 130.967623 349.084657 
L 131.400775 347.804566 
L 132.267079 344.656517 
L 132.700231 343.878323 
L 133.133383 343.932019 
L 133.566535 344.793866 
L 134.432839 347.792332 
L 134.865991 348.728652 
L 135.299143 348.491496 
L 135.732295 347.190744 
L 136.598599 344.065031 
L 137.031751 343.310374 
L 137.464903 343.38599 
L 137.898055 344.262634 
L 138.764359 347.242364 
L 139.19751 348.139406 
L 139.630662 347.861978 
L 140.063814 346.541765 
L 140.930118 343.439318 
L 141.36327 342.707925 
L 141.796422 342.804874 
L 142.229574 343.695449 
L 143.095878 346.654302 
L 143.52903 347.511747 
L 143.962182 347.194833 
L 144.828486 344.167751 
L 145.261638 342.777948 
L 145.69479 342.069503 
L 146.127942 342.187163 
L 146.561094 343.090779 
L 147.427398 346.026632 
L 147.86055 346.844214 
L 148.293702 346.488618 
L 150.02631 341.393452 
L 150.459462 341.531165 
L 150.892614 342.446907 
L 151.758917 345.357657 
L 152.192069 346.135154 
L 152.625221 345.74169 
L 153.924677 341.341583 
L 154.357829 340.677906 
L 154.790981 340.834978 
L 155.224133 341.761905 
L 156.090437 344.645465 
L 156.523589 345.382698 
L 156.956741 344.952181 
L 158.256197 340.562715 
L 158.689349 339.920761 
L 159.122501 340.096461 
L 159.555653 341.033603 
L 160.421957 343.887899 
L 160.855109 344.584723 
L 161.288261 344.117961 
L 162.587717 339.740377 
L 163.020869 339.11964 
L 163.45402 339.313194 
L 163.887172 340.259553 
L 164.753476 343.082515 
L 165.186628 343.738813 
L 165.61978 343.2366 
L 166.919236 338.871926 
L 167.352388 338.271846 
L 167.78554 338.482437 
L 168.218692 339.436981 
L 169.084996 342.226538 
L 169.518148 342.842212 
L 169.9513 342.305315 
L 171.250756 337.954355 
L 171.683908 337.374314 
L 172.11706 337.601075 
L 172.550212 338.562735 
L 173.416516 341.316803 
L 173.849668 341.891766 
L 174.28282 341.320916 
L 175.582275 336.984226 
L 176.015427 336.423543 
L 176.448579 336.665555 
L 176.881731 337.633217 
L 177.748035 340.349686 
L 178.181187 340.883849 
L 178.614339 340.27973 
L 179.913795 335.957599 
L 180.346947 335.415523 
L 180.780099 335.671805 
L 181.213251 336.644304 
L 182.079555 339.321019 
L 182.512707 339.81428 
L 182.945859 339.177514 
L 184.245315 334.869934 
L 184.678467 334.345634 
L 185.111619 334.615132 
L 185.544771 335.591244 
L 186.411075 338.225983 
L 186.844227 338.678211 
L 187.277378 338.009343 
L 188.576834 333.715974 
L 189.009986 333.208526 
L 189.443138 333.490105 
L 189.87629 334.46853 
L 190.742594 337.058976 
L 191.175746 337.469993 
L 191.608898 336.769472 
L 192.908354 332.489596 
L 193.341506 331.99797 
L 193.774658 332.290394 
L 194.20781 333.269743 
L 195.074114 335.813444 
L 195.507266 336.183001 
L 195.940418 335.451157 
L 197.239874 331.183618 
L 197.673026 330.706657 
L 198.106178 331.008568 
L 198.53933 331.98734 
L 199.405633 334.481664 
L 199.838785 334.809413 
L 200.271937 334.046432 
L 201.571393 329.789559 
L 202.004545 329.325948 
L 202.437697 329.635842 
L 202.870849 330.612394 
L 203.737153 333.054462 
L 204.170305 333.339922 
L 204.603457 332.545805 
L 205.902913 328.297309 
L 206.336065 327.845545 
L 206.769217 328.161727 
L 207.202369 329.134236 
L 208.068673 331.520843 
L 208.501825 331.763351 
L 208.934977 330.937871 
L 210.234433 326.694705 
L 210.667585 326.253042 
L 211.100737 326.573583 
L 211.533888 327.539991 
L 212.400192 329.867487 
L 212.833344 330.066139 
L 213.266496 329.208776 
L 214.565952 324.966947 
L 214.999104 324.533331 
L 215.432256 324.85599 
L 215.865408 325.813936 
L 216.731712 328.078071 
L 217.164864 328.231635 
L 217.598016 327.341492 
L 218.897472 323.09579 
L 219.330624 322.667762 
L 219.763776 322.989894 
L 220.196928 323.936605 
L 221.063232 326.132312 
L 221.496384 326.239109 
L 221.929536 325.314792 
L 222.79584 322.179915 
L 223.228992 321.05841 
L 223.662143 320.63297 
L 224.095295 320.951378 
L 224.528447 321.883525 
L 225.394751 324.004599 
L 225.827903 324.062336 
L 226.261055 323.101775 
L 227.127359 319.946465 
L 227.560511 318.82575 
L 227.993663 318.399154 
L 228.426815 318.709879 
L 229.726271 321.661982 
L 230.159423 321.667499 
L 230.592575 320.667691 
L 231.458879 317.48446 
L 231.892031 316.360051 
L 232.325183 315.927502 
L 232.758335 316.225501 
L 234.057791 319.061113 
L 234.490943 319.009991 
L 234.924095 317.96659 
L 235.790398 314.745102 
L 236.22355 313.611022 
L 236.656702 313.16618 
L 237.089854 313.444811 
L 238.38931 316.143402 
L 238.822462 316.029334 
L 239.255614 314.935991 
L 240.121918 311.661636 
L 240.55507 310.509649 
L 240.988222 310.043817 
L 241.421374 310.293984 
L 242.72083 312.826992 
L 243.153982 312.640714 
L 243.587134 311.487947 
L 244.453438 308.139375 
L 244.88659 306.957638 
L 245.319742 306.45834 
L 245.752894 306.666973 
L 247.05235 308.992657 
L 247.485502 308.720002 
L 247.918653 307.493124 
L 248.784957 304.037686 
L 249.218109 302.808231 
L 249.651261 302.256512 
L 250.084413 302.403686 
L 251.383869 304.457147 
L 251.817021 304.075212 
L 252.250173 302.75021 
L 253.116477 299.134722 
L 253.549629 297.828283 
L 253.982781 297.19312 
L 254.415933 297.245996 
L 255.715389 298.917737 
L 256.148541 298.386454 
L 256.581693 296.920796 
L 257.447997 293.05054 
L 257.881149 291.614536 
L 258.314301 290.839646 
L 258.747453 290.737979 
L 260.046908 291.820863 
L 260.48006 291.061422 
L 260.913212 289.370113 
L 262.212668 283.377772 
L 262.64582 282.344372 
L 263.078972 281.958652 
L 263.945276 282.242189 
L 264.378428 281.987 
L 264.81158 280.813165 
L 265.677884 276.052102 
L 266.544188 271.24491 
L 266.97734 269.634943 
L 267.410492 268.60798 
L 268.276796 267.367779 
L 268.709948 266.210857 
L 269.1431 264.039934 
L 270.009404 256.991487 
L 270.875708 249.443896 
L 271.742011 243.795608 
L 272.175163 241.89867 
L 272.608315 240.637971 
L 273.041467 240.011761 
L 273.474619 240.017437 
L 273.907771 240.654627 
L 274.340923 241.925145 
L 274.774075 243.829824 
L 275.640379 249.482647 
L 277.372987 264.043083 
L 277.806139 266.226022 
L 278.239291 267.411216 
L 279.105595 268.710627 
L 279.538747 269.751672 
L 279.971899 271.360882 
L 280.838203 276.120536 
L 281.704507 280.824805 
L 282.137659 282.012648 
L 282.570811 282.314257 
L 283.437115 282.131137 
L 283.870266 282.539773 
L 284.303418 283.570901 
L 285.169722 287.296025 
L 286.036026 291.081551 
L 286.469178 291.858316 
L 286.90233 291.791343 
L 287.768634 290.981927 
L 288.201786 291.114621 
L 288.634938 291.884965 
L 289.06809 293.280393 
L 290.367546 298.415403 
L 290.800698 298.968647 
L 291.23385 298.703347 
L 292.100154 297.563251 
L 292.533306 297.548777 
L 292.966458 298.176368 
L 293.39961 299.429288 
L 294.699066 304.113646 
L 295.132218 304.523491 
L 295.56537 304.134248 
L 296.431673 302.796308 
L 296.864825 302.69417 
L 297.297977 303.234536 
L 297.731129 304.396895 
L 299.030585 308.768924 
L 299.463737 309.076743 
L 299.896889 308.60249 
L 300.763193 307.137242 
L 301.196345 306.979525 
L 301.629497 307.462943 
L 302.062649 308.563383 
L 302.928953 311.631552 
L 303.362105 312.701465 
L 303.795257 312.931454 
L 304.228409 312.395141 
L 305.094713 310.844396 
L 305.527865 310.650268 
L 305.961017 311.094946 
L 306.394169 312.150831 
L 307.260473 315.102189 
L 307.693625 316.103596 
L 308.126776 316.271204 
L 308.559928 315.687545 
L 309.426232 314.078082 
L 309.859384 313.859844 
L 310.292536 314.277521 
L 310.725688 315.300104 
L 311.591992 318.156225 
L 312.025144 319.099791 
L 312.458296 319.215546 
L 312.891448 318.594588 
L 313.757752 316.944564 
L 314.190904 316.710542 
L 314.624056 317.109178 
L 315.057208 318.106126 
L 315.923512 320.881924 
L 316.356664 321.77521 
L 316.789816 321.846669 
L 317.222968 321.195607 
L 318.089272 319.517887 
L 318.522424 319.273944 
L 318.955576 319.659153 
L 319.388728 320.63589 
L 320.255031 323.342088 
L 320.688183 324.190682 
L 321.121335 324.223491 
L 321.554487 323.547688 
L 322.420791 321.851702 
L 322.853943 321.6021 
L 323.287095 321.977958 
L 323.720247 322.938436 
L 324.586551 325.582989 
L 325.019703 326.391166 
L 325.452855 326.389693 
L 325.886007 325.69327 
L 326.752311 323.986127 
L 327.185463 323.734039 
L 327.618615 324.103577 
L 328.051767 325.050745 
L 328.918071 327.639712 
L 329.351223 328.410836 
L 329.784375 328.378555 
L 330.217527 327.664767 
L 331.083831 325.951947 
L 331.516983 325.69978 
L 331.950134 326.065295 
L 332.383286 327.001393 
L 333.24959 329.539488 
L 333.682742 330.276278 
L 334.115894 330.21602 
L 334.549046 329.487494 
L 335.41535 327.7733 
L 335.848502 327.522911 
L 336.281654 327.886167 
L 336.714806 328.812921 
L 337.58111 331.303888 
L 338.014262 332.008583 
L 338.447414 331.922706 
L 338.880566 331.181604 
L 339.74687 329.469466 
L 340.180022 329.2223 
L 340.613174 329.584669 
L 341.046326 330.503429 
L 341.91263 332.950284 
L 342.345782 333.624771 
L 342.778934 333.51527 
L 344.078389 331.056086 
L 344.511541 330.813285 
L 344.944693 331.17584 
L 345.377845 332.087667 
L 346.244149 334.492882 
L 346.677301 335.138771 
L 347.110453 335.007364 
L 348.409909 332.546032 
L 348.843061 332.308495 
L 349.276213 332.672083 
L 349.709365 333.57782 
L 350.575669 335.943446 
L 351.008821 336.562135 
L 351.441973 336.410321 
L 352.741429 333.950015 
L 353.174581 333.718461 
L 353.607733 334.083751 
L 354.040885 334.984068 
L 354.907189 337.311829 
L 355.340341 337.904548 
L 355.773493 337.733648 
L 357.072948 335.277054 
L 357.5061 335.052053 
L 357.939252 335.419573 
L 358.372404 336.31501 
L 359.238708 338.606367 
L 359.67186 339.174211 
L 360.105012 338.985403 
L 361.404468 336.534808 
L 361.83762 336.316815 
L 362.270772 336.686982 
L 362.703924 337.577968 
L 363.570228 339.83418 
L 364.00338 340.378133 
L 364.436532 340.172478 
L 365.735988 337.72984 
L 366.16914 337.519215 
L 366.602292 337.892357 
L 367.035444 338.779236 
L 367.901748 341.001393 
L 368.334899 341.522348 
L 368.768051 341.300807 
L 370.067507 338.867816 
L 370.500659 338.664842 
L 370.933811 339.041214 
L 371.366963 339.924261 
L 372.233267 342.113319 
L 372.666419 342.612094 
L 373.099571 342.375543 
L 374.399027 339.953665 
L 374.832179 339.758562 
L 375.265331 340.138358 
L 375.698483 341.017792 
L 376.564787 343.174595 
L 376.997939 343.651942 
L 377.431091 343.401187 
L 378.730547 340.991695 
L 379.163699 340.804632 
L 379.596851 341.187998 
L 380.030003 342.063991 
L 380.896306 344.189291 
L 381.329458 344.645909 
L 381.76261 344.381695 
L 383.062066 341.985701 
L 383.495218 341.806801 
L 383.92837 342.193843 
L 384.794674 344.183805 
L 385.227826 345.161004 
L 385.660978 345.597544 
L 386.09413 345.320561 
L 387.393586 342.939037 
L 387.826738 342.76839 
L 388.25989 343.15918 
L 389.126194 345.134331 
L 389.559346 346.092923 
L 389.992498 346.509996 
L 390.42565 346.220888 
L 391.725106 343.854688 
L 392.158258 343.692352 
L 392.591409 344.086933 
L 393.457713 346.047531 
L 393.890865 346.987894 
L 394.324017 347.386077 
L 394.757169 347.085443 
L 396.056625 344.735318 
L 396.489777 344.581325 
L 396.922929 344.979718 
L 397.789233 346.925978 
L 398.222385 347.848466 
L 398.655537 348.228302 
L 399.088689 347.916706 
L 400.388145 345.583315 
L 400.821297 345.437676 
L 401.254449 345.839882 
L 402.120753 347.771985 
L 402.553905 348.67693 
L 402.987057 349.038935 
L 403.420209 348.716908 
L 404.719664 346.400831 
L 405.152816 346.263538 
L 405.585968 346.669541 
L 406.885424 349.475354 
L 407.318576 349.820019 
L 407.751728 349.488061 
L 409.051184 347.189808 
L 409.484336 347.060838 
L 409.917488 347.470609 
L 411.216944 350.245612 
L 411.650096 350.573405 
L 412.083248 350.231988 
L 413.382704 347.952008 
L 413.815856 347.831325 
L 414.249008 348.244823 
L 415.548464 350.989405 
L 415.981616 351.300775 
L 416.414767 350.950346 
L 417.714223 348.689033 
L 418.147375 348.576589 
L 418.580527 348.993764 
L 419.879983 351.708285 
L 420.313135 352.003662 
L 420.746287 351.644645 
L 422.045743 349.402343 
L 422.478895 349.298082 
L 422.912047 349.718875 
L 424.211503 352.403671 
L 424.644655 352.683466 
L 425.077807 352.316265 
L 426.377263 350.093276 
L 426.810415 349.997132 
L 427.243567 350.421478 
L 428.543022 353.076861 
L 428.976174 353.341472 
L 429.409326 352.966471 
L 430.708782 350.763056 
L 431.141934 350.674957 
L 431.575086 351.102785 
L 432.874542 353.729051 
L 433.307694 353.978859 
L 433.740846 353.596422 
L 435.040302 351.412809 
L 435.473454 351.332679 
L 435.906606 351.763913 
L 437.206062 354.361339 
L 437.639214 354.596714 
L 438.072366 354.20719 
L 439.371822 352.043574 
L 439.804974 351.971329 
L 440.238126 352.40589 
L 441.537581 354.974743 
L 441.970733 355.19604 
L 442.403885 354.799761 
L 443.703341 352.656308 
L 444.136493 352.591862 
L 444.569645 353.029669 
L 445.869101 355.570199 
L 446.302253 355.777762 
L 446.735405 355.375048 
L 447.601709 353.774725 
L 448.034861 353.251899 
L 448.468013 353.195162 
L 448.901165 353.636129 
L 450.200621 356.14858 
L 450.633773 356.342742 
L 451.066925 355.933895 
L 451.933229 354.344359 
L 452.366381 353.831168 
L 452.799532 353.782047 
L 453.232684 354.226089 
L 454.53214 356.710693 
L 454.965292 356.891776 
L 455.398444 356.477088 
L 456.264748 354.8985 
L 456.6979 354.394879 
L 457.131052 354.353279 
L 457.564204 354.800308 
L 458.86366 357.257291 
L 459.296812 357.425606 
L 459.729964 357.005356 
L 460.596268 355.437864 
L 461.02942 354.943742 
L 461.462572 354.909567 
L 461.895724 355.359493 
L 463.19518 357.789074 
L 463.628332 357.944925 
L 464.061484 357.519379 
L 464.927787 355.963115 
L 465.360939 355.47842 
L 465.794091 355.451572 
L 466.227243 355.904307 
L 467.526699 358.306696 
L 467.959851 358.450376 
L 468.393003 358.019792 
L 469.259307 356.474874 
L 469.692459 355.999531 
L 470.125611 355.979911 
L 470.558763 356.435364 
L 471.858219 358.810769 
L 472.291371 358.942564 
L 472.724523 358.507187 
L 473.590827 356.973721 
L 474.023979 356.507653 
L 474.457131 356.495161 
L 474.890283 356.953243 
L 476.189739 359.301865 
L 476.62289 359.422051 
L 477.056042 358.982118 
L 477.922346 357.460198 
L 478.355498 357.003327 
L 478.78865 356.997862 
L 479.221802 357.458484 
L 480.521258 359.780522 
L 480.95441 359.889367 
L 481.387562 359.445105 
L 482.253866 357.934816 
L 482.687018 357.487061 
L 483.12017 357.488523 
L 483.553322 357.951596 
L 484.852778 360.247242 
L 485.28593 360.345009 
L 485.719082 359.896635 
L 486.585386 358.39805 
L 487.018538 357.959331 
L 487.45169 357.96762 
L 487.884842 358.433055 
L 489.184297 360.702501 
L 489.617449 360.789443 
L 490.050601 360.337167 
L 490.916905 358.850351 
L 491.350057 358.420586 
L 491.783209 358.435601 
L 492.216361 358.903309 
L 493.515817 361.146742 
L 493.948969 361.223107 
L 494.382121 360.767132 
L 495.248425 359.292141 
L 495.681577 358.871246 
L 496.114729 358.892888 
L 496.547881 359.362783 
L 497.847337 361.580388 
L 498.280489 361.646415 
L 498.713641 361.186934 
L 499.579945 359.723818 
L 500.013097 359.31171 
L 500.446249 359.339878 
L 500.8794 359.811873 
L 502.178856 362.003833 
L 502.612008 362.059757 
L 503.04516 361.596957 
L 503.911464 360.145756 
L 504.344616 359.742351 
L 504.777768 359.776948 
L 505.21092 360.250958 
L 506.510376 362.417451 
L 506.943528 362.463501 
L 507.37668 361.997562 
L 508.242984 360.55831 
L 508.676136 360.163525 
L 509.109288 360.204452 
L 509.54244 360.680393 
L 510.841896 362.821598 
L 511.275048 362.857994 
L 511.7082 362.389089 
L 512.574504 360.961816 
L 513.007655 360.575567 
L 513.440807 360.622725 
L 513.873959 361.100514 
L 515.173415 363.216607 
L 515.606567 363.243566 
L 516.039719 362.771861 
L 516.906023 361.356589 
L 517.339175 360.978792 
L 517.772327 361.032086 
L 518.205479 361.51164 
L 519.504935 363.602795 
L 519.938087 363.620527 
L 520.371239 363.146184 
L 521.237543 361.742929 
L 521.670695 361.3735 
L 522.103847 361.432835 
L 522.536999 361.914074 
L 523.403303 363.471283 
L 523.836455 363.980462 
L 524.269607 363.989173 
L 524.702759 363.512347 
L 525.569062 362.121122 
L 526.002214 361.759978 
L 526.435366 361.825258 
L 526.868518 362.308102 
L 527.734822 363.852199 
L 528.167974 364.349895 
L 528.601126 364.349783 
L 529.034278 363.870624 
L 529.900582 362.491436 
L 530.333734 362.138494 
L 530.766886 362.209625 
L 531.200038 362.693996 
L 532.066342 364.225002 
L 532.499494 364.711363 
L 532.932646 364.702624 
L 533.365798 364.221276 
L 534.232102 362.854128 
L 534.665254 362.509305 
L 535.098406 362.586195 
L 535.531558 363.072016 
L 536.397862 364.58995 
L 536.831013 365.065124 
L 537.264165 365.047948 
L 537.697317 364.56455 
L 538.563621 363.209441 
L 538.996773 362.872655 
L 539.429925 362.955213 
L 539.863077 363.442408 
L 540.729381 364.94729 
L 541.162533 365.411422 
L 541.595685 365.385994 
L 542.028837 364.90068 
L 542.895141 363.557607 
L 543.328293 363.228775 
L 543.761445 363.31691 
L 544.194597 363.805405 
L 545.060901 365.29726 
L 545.494053 365.750492 
L 545.927205 365.716992 
L 546.360357 365.229892 
L 547.226661 363.898845 
L 547.659813 363.577888 
L 548.092965 363.671511 
L 548.526117 364.161232 
L 549.39242 365.640081 
L 549.825572 366.082554 
L 550.258724 366.041158 
L 550.691876 365.552397 
L 551.55818 364.233366 
L 551.991332 363.920202 
L 552.424484 364.019225 
L 552.857636 364.510101 
L 553.72394 365.97597 
L 554.157092 366.40782 
L 554.590244 366.3587 
L 555.023396 365.868399 
L 555.8897 364.561369 
L 556.322852 364.255919 
L 556.756004 364.360255 
L 557.189156 364.852216 
L 558.05546 366.305128 
L 558.488612 366.726492 
L 558.921764 366.669816 
L 559.354916 366.178091 
L 560.22122 364.883046 
L 560.654372 364.585231 
L 561.087523 364.694794 
L 561.520675 365.18777 
L 562.386979 366.627752 
L 562.820131 367.038763 
L 563.253283 366.974693 
L 563.686435 366.481657 
L 564.552739 365.198578 
L 564.985891 364.908319 
L 565.419043 365.023025 
L 565.852195 365.516949 
L 566.718499 366.944027 
L 567.151651 367.344816 
L 567.584803 367.273513 
L 568.017955 366.779275 
L 568.884259 365.508139 
L 569.317411 365.225359 
L 569.750563 365.345125 
L 570.183715 365.839929 
L 571.050019 367.254132 
L 571.483171 367.644827 
L 571.916323 367.566447 
L 572.349475 367.071112 
L 573.215778 365.811896 
L 573.64893 365.536518 
L 574.082082 365.661261 
L 574.515234 366.156881 
L 575.381538 367.558236 
L 575.81469 367.938966 
L 576.247842 367.853659 
L 576.680994 367.357329 
L 577.547298 366.110007 
L 577.98045 365.841955 
L 578.413602 365.971595 
L 578.846754 366.467966 
L 579.713058 367.856503 
L 580.14621 368.227391 
L 580.579362 368.135307 
L 581.012514 367.63808 
L 581.878818 366.402625 
L 582.31197 366.141823 
L 582.745122 366.276281 
L 583.178274 366.77334 
L 584.044578 368.149089 
L 584.47773 368.510258 
L 584.910882 368.411541 
L 585.777185 367.24923 
L 586.210337 366.689894 
L 586.643489 366.43627 
L 587.076641 366.575466 
L 587.509793 367.073152 
L 588.376097 368.436143 
L 588.809249 368.787714 
L 589.242401 368.682506 
L 590.108705 367.524042 
L 590.541857 366.971955 
L 590.975009 366.725434 
L 591.408161 366.869292 
L 591.841313 367.367544 
L 592.707617 368.717808 
L 593.140769 369.059901 
L 593.573921 368.948339 
L 594.440225 367.793825 
L 594.873377 367.248941 
L 595.306529 367.009451 
L 595.739681 367.157894 
L 596.172833 367.656654 
L 597.039137 368.994222 
L 597.472288 369.326953 
L 597.90544 369.209173 
L 598.771744 368.058706 
L 599.204896 367.52098 
L 599.638048 367.288449 
L 600.0712 367.441403 
L 600.504352 367.940612 
L 601.370656 369.265518 
L 601.803808 369.589002 
L 602.23696 369.465135 
L 603.103264 368.318808 
L 603.536416 367.788196 
L 603.969568 367.562553 
L 604.40272 367.719944 
L 604.835872 368.219545 
L 605.702176 369.531821 
L 606.135328 369.846172 
L 606.56848 369.716347 
L 608.301088 367.831881 
L 608.73424 367.993637 
L 609.167391 368.493574 
L 610.033695 369.793254 
L 610.466847 370.098583 
L 610.899999 369.962925 
L 612.632607 368.096548 
L 613.065759 368.262598 
L 613.498911 368.762816 
L 614.365215 370.049933 
L 614.798367 370.346349 
L 615.231519 370.204982 
L 616.964127 368.356664 
L 617.397279 368.526937 
L 617.830431 369.027383 
L 618.696735 370.301971 
L 619.129887 370.589583 
L 619.563039 370.442627 
L 620.862495 368.811115 
L 621.295646 368.612334 
L 621.728798 368.78676 
L 622.595102 369.955424 
L 623.028254 370.549477 
L 623.461406 370.82839 
L 623.894558 370.675961 
L 625.194014 369.055893 
L 625.627166 368.86366 
L 626.060318 369.042172 
L 626.926622 370.206518 
L 627.359774 370.792554 
L 627.792926 371.062873 
L 628.226078 370.905087 
L 629.525534 369.29649 
L 629.958686 369.11074 
L 630.391838 369.293271 
L 631.258142 370.453237 
L 631.691294 371.031302 
L 632.124446 371.29313 
L 632.557598 371.130098 
L 633.857053 369.533 
L 634.290205 369.353667 
L 634.723357 369.540151 
L 635.589661 370.695677 
L 636.022813 371.265818 
L 636.455965 371.519256 
L 636.889117 371.351088 
L 638.188573 369.765512 
L 638.621725 369.592533 
L 639.054877 369.782905 
L 639.921181 370.933932 
L 640.354333 371.496196 
L 640.787485 371.741343 
L 641.220637 371.568147 
L 642.520093 369.994113 
L 642.953245 369.827425 
L 643.386397 370.021621 
L 644.252701 371.16809 
L 644.685853 371.722524 
L 645.119005 371.959479 
L 645.552156 371.781358 
L 646.851612 370.218886 
L 647.284764 370.058427 
L 647.717916 370.256385 
L 648.58422 371.39824 
L 649.017372 371.94489 
L 649.450524 372.173747 
L 649.883676 371.990805 
L 651.183132 370.439912 
L 651.616284 370.285621 
L 652.049436 370.487278 
L 652.91574 371.624464 
L 653.348892 372.163376 
L 653.782044 372.384232 
L 654.215196 372.196568 
L 655.514652 370.657268 
L 655.947804 370.509084 
L 656.380956 370.714381 
L 658.113563 372.59101 
L 658.546715 372.398723 
L 659.846171 370.871028 
L 660.279323 370.728893 
L 660.712475 370.937769 
L 662.445083 372.794159 
L 662.878235 372.597345 
L 664.177691 371.081266 
L 664.610843 370.94512 
L 665.043995 371.157517 
L 666.776603 372.993751 
L 667.209755 372.792504 
L 668.509211 371.288051 
L 668.942363 371.157837 
L 669.375515 371.373696 
L 670.67497 373.000093 
L 671.108122 373.189858 
L 671.541274 372.984269 
L 672.84073 371.491449 
L 673.273882 371.36711 
L 673.707034 371.586375 
L 675.00649 373.200334 
L 675.439642 373.382549 
L 675.872794 373.172707 
L 677.17225 371.691527 
L 677.605402 371.573007 
L 678.038554 371.795621 
L 679.33801 373.397138 
L 679.771162 373.571888 
L 680.204314 373.357883 
L 681.503769 371.888346 
L 681.936921 371.77559 
L 682.370073 372.001499 
L 683.669529 373.59057 
L 684.102681 373.757941 
L 684.535833 373.539858 
L 685.835289 372.081968 
L 686.268441 371.974921 
L 686.701593 372.20407 
L 688.001049 373.780695 
L 688.434201 373.940769 
L 688.867353 373.718692 
L 690.166809 372.272452 
L 690.599961 372.17106 
L 691.033113 372.403395 
L 692.332569 373.967572 
L 692.765721 374.120431 
L 693.198873 373.894444 
L 694.498328 372.459854 
L 694.93148 372.364064 
L 695.364632 372.599533 
L 696.664088 374.151261 
L 697.09724 374.296987 
L 697.530392 374.067169 
L 698.829848 372.644228 
L 698.829848 372.644228 
" clip-path="url(#p73442a7069)" style="fill: none; stroke: #4c72b0; stroke-width: 1.5; stroke-linecap: square"/>
   </g>
   <g id="patch_8">
    <path d="M 48.66875 388.978125 
L 48.66875 232.918125 
" style="fill: none; stroke: #000000; stroke-width: 0.8; stroke-linejoin: miter; stroke-linecap: square"/>
   </g>
   <g id="patch_9">
    <path d="M 698.396696 388.978125 
L 698.396696 232.918125 
" style="fill: none; stroke: #000000; stroke-width: 0.8; stroke-linejoin: miter; stroke-linecap: square"/>
   </g>
   <g id="patch_10">
    <path d="M 48.66875 388.978125 
L 698.396696 388.978125 
" style="fill: none; stroke: #000000; stroke-width: 0.8; stroke-linejoin: miter; stroke-linecap: square"/>
   </g>
   <g id="patch_11">
    <path d="M 48.66875 232.918125 
L 698.396696 232.918125 
" style="fill: none; stroke: #000000; stroke-width: 0.8; stroke-linejoin: miter; stroke-linecap: square"/>
   </g>
   <g id="text_26">
    <!-- Magnitude spectrum -->
    <g transform="translate(311.446786 226.918125) scale(0.12 -0.12)">
     <defs>
      <path id="DejaVuSans-4d" d="M 628 4666 
L 1569 4666 
L 2759 1491 
L 3956 4666 
L 4897 4666 
L 4897 0 
L 4281 0 
L 4281 4097 
L 3078 897 
L 2444 897 
L 1241 4097 
L 1241 0 
L 628 0 
L 628 4666 
z
" transform="scale(0.015625)"/>
     </defs>
     <use xlink:href="#DejaVuSans-4d"/>
     <use xlink:href="#DejaVuSans-61" transform="translate(86.279297 0)"/>
     <use xlink:href="#DejaVuSans-67" transform="translate(147.558594 0)"/>
     <use xlink:href="#DejaVuSans-6e" transform="translate(211.035156 0)"/>
     <use xlink:href="#DejaVuSans-69" transform="translate(274.414062 0)"/>
     <use xlink:href="#DejaVuSans-74" transform="translate(302.197266 0)"/>
     <use xlink:href="#DejaVuSans-75" transform="translate(341.40625 0)"/>
     <use xlink:href="#DejaVuSans-64" transform="translate(404.785156 0)"/>
     <use xlink:href="#DejaVuSans-65" transform="translate(468.261719 0)"/>
     <use xlink:href="#DejaVuSans-20" transform="translate(529.785156 0)"/>
     <use xlink:href="#DejaVuSans-73" transform="translate(561.572266 0)"/>
     <use xlink:href="#DejaVuSans-70" transform="translate(613.671875 0)"/>
     <use xlink:href="#DejaVuSans-65" transform="translate(677.148438 0)"/>
     <use xlink:href="#DejaVuSans-63" transform="translate(738.671875 0)"/>
     <use xlink:href="#DejaVuSans-74" transform="translate(793.652344 0)"/>
     <use xlink:href="#DejaVuSans-72" transform="translate(832.861328 0)"/>
     <use xlink:href="#DejaVuSans-75" transform="translate(873.974609 0)"/>
     <use xlink:href="#DejaVuSans-6d" transform="translate(937.353516 0)"/>
    </g>
   </g>
  </g>
 </g>
 <defs>
  <clipPath id="p3014eb8ec2">
   <rect x="48.66875" y="22.318125" width="649.727946" height="156.06"/>
  </clipPath>
  <clipPath id="p73442a7069">
   <rect x="48.66875" y="232.918125" width="649.727946" height="156.06"/>
  </clipPath>
 </defs>
</svg>
