<?xml version="1.0" encoding="utf-8" standalone="no"?>
<!DOCTYPE svg PUBLIC "-//W3C//DTD SVG 1.1//EN"
  "http://www.w3.org/Graphics/SVG/1.1/DTD/svg11.dtd">
<svg xmlns:xlink="http://www.w3.org/1999/xlink" width="711.896696pt" height="351.034375pt" viewBox="0 0 711.896696 351.034375" xmlns="http://www.w3.org/2000/svg" version="1.1">
 <metadata>
  <rdf:RDF xmlns:dc="http://purl.org/dc/elements/1.1/" xmlns:cc="http://creativecommons.org/ns#" xmlns:rdf="http://www.w3.org/1999/02/22-rdf-syntax-ns#">
   <cc:Work>
    <dc:type rdf:resource="http://purl.org/dc/dcmitype/StillImage"/>
    <dc:date>2026-04-08T19:01:46.105635</dc:date>
    <dc:format>image/svg+xml</dc:format>
    <dc:creator>
     <cc:Agent>
      <dc:title>Matplotlib v3.10.0, https://matplotlib.org/</dc:title>
     </cc:Agent>
    </dc:creator>
   </cc:Work>
  </rdf:RDF>
 </metadata>
 <defs>
  <style type="text/css">*{stroke-linejoin: round; stroke-linecap: butt}</style>
 </defs>
 <g id="figure_1">
  <g id="patch_1">
   <path d="M 0 351.034375 
L 711.896696 351.034375 
L 711.896696 0 
L 0 0 
z
" style="fill: #ffffff"/>
  </g>
  <g id="axes_1">
   <g id="patch_2">
    <path d="M 48.66875 316.978125 
L 349.984196 316.978125 
L 349.984196 22.318125 
L 48.66875 22.318125 
z
" style="fill: #ffffff"/>
   </g>
   <g id="matplotlib.axis_1">
    <g id="xtick_1">
     <g id="line2d_1">
      <path d="M 80.626449 316.978125 
L 80.626449 22.318125 
" clip-path="url(#pd70d59da2f)" style="fill: none; stroke: #b0b0b0; stroke-opacity: 0.3; stroke-width: 0.8; stroke-linecap: square"/>
     </g>
     <g id="line2d_2">
      <defs>
       <path id="m2f1de36288" d="M 0 0 
L 0 -3.5 
" style="stroke: #000000; stroke-width: 0.8"/>
      </defs>
      <g>
       <use xlink:href="#m2f1de36288" x="80.626449" y="316.978125" style="stroke: #000000; stroke-width: 0.8"/>
      </g>
     </g>
     <g id="text_1">
      <!-- 6 -->
      <g transform="translate(77.445199 328.076563) scale(0.1 -0.1)">
       <defs>
        <path id="DejaVuSans-36" d="M 2113 2584 
Q 1688 2584 1439 2293 
Q 1191 2003 1191 1497 
Q 1191 994 1439 701 
Q 1688 409 2113 409 
Q 2538 409 2786 701 
Q 3034 994 3034 1497 
Q 3034 2003 2786 2293 
Q 2538 2584 2113 2584 
z
M 3366 4563 
L 3366 3988 
Q 3128 4100 2886 4159 
Q 2644 4219 2406 4219 
Q 1781 4219 1451 3797 
Q 1122 3375 1075 2522 
Q 1259 2794 1537 2939 
Q 1816 3084 2150 3084 
Q 2853 3084 3261 2657 
Q 3669 2231 3669 1497 
Q 3669 778 3244 343 
Q 2819 -91 2113 -91 
Q 1303 -91 875 529 
Q 447 1150 447 2328 
Q 447 3434 972 4092 
Q 1497 4750 2381 4750 
Q 2619 4750 2861 4703 
Q 3103 4656 3366 4563 
z
" transform="scale(0.015625)"/>
       </defs>
       <use xlink:href="#DejaVuSans-36"/>
      </g>
     </g>
    </g>
    <g id="xtick_2">
     <g id="line2d_3">
      <path d="M 117.149533 316.978125 
L 117.149533 22.318125 
" clip-path="url(#pd70d59da2f)" style="fill: none; stroke: #b0b0b0; stroke-opacity: 0.3; stroke-width: 0.8; stroke-linecap: square"/>
     </g>
     <g id="line2d_4">
      <g>
       <use xlink:href="#m2f1de36288" x="117.149533" y="316.978125" style="stroke: #000000; stroke-width: 0.8"/>
      </g>
     </g>
     <g id="text_2">
      <!-- 8 -->
      <g transform="translate(113.968283 328.076563) scale(0.1 -0.1)">
       <defs>
        <path id="DejaVuSans-38" d="M 2034 2216 
Q 1584 2216 1326 1975 
Q 1069 1734 1069 1313 
Q 1069 891 1326 650 
Q 1584 409 2034 409 
Q 2484 409 2743 651 
Q 3003 894 3003 1313 
Q 3003 1734 2745 1975 
Q 2488 2216 2034 2216 
z
M 1403 2484 
Q 997 2584 770 2862 
Q 544 3141 544 3541 
Q 544 4100 942 4425 
Q 1341 4750 2034 4750 
Q 2731 4750 3128 4425 
Q 3525 4100 3525 3541 
Q 3525 3141 3298 2862 
Q 3072 2584 2669 2484 
Q 3125 2378 3379 2068 
Q 3634 1759 3634 1313 
Q 3634 634 3220 271 
Q 2806 -91 2034 -91 
Q 1263 -91 848 271 
Q 434 634 434 1313 
Q 434 1759 690 2068 
Q 947 2378 1403 2484 
z
M 1172 3481 
Q 1172 3119 1398 2916 
Q 1625 2713 2034 2713 
Q 2441 2713 2670 2916 
Q 2900 3119 2900 3481 
Q 2900 3844 2670 4047 
Q 2441 4250 2034 4250 
Q 1625 4250 1398 4047 
Q 1172 3844 1172 3481 
z
" transform="scale(0.015625)"/>
       </defs>
       <use xlink:href="#DejaVuSans-38"/>
      </g>
     </g>
    </g>
    <g id="xtick_3">
     <g id="line2d_5">
      <path d="M 153.672618 316.978125 
L 153.672618 22.318125 
" clip-path="url(#pd70d59da2f)" style="fill: none; stroke: #b0b0b0; stroke-opacity: 0.3; stroke-width: 0.8; stroke-linecap: square"/>
     </g>
     <g id="line2d_6">
      <g>
       <use xlink:href="#m2f1de36288" x="153.672618" y="316.978125" style="stroke: #000000; stroke-width: 0.8"/>
      </g>
     </g>
     <g id="text_3">
      <!-- 10 -->
      <g transform="translate(147.310118 328.076563) scale(0.1 -0.1)">
       <defs>
        <path id="DejaVuSans-31" d="M 794 531 
L 1825 531 
L 1825 4091 
L 703 3866 
L 703 4441 
L 1819 4666 
L 2450 4666 
L 2450 531 
L 3481 531 
L 3481 0 
L 794 0 
L 794 531 
z
" transform="scale(0.015625)"/>
        <path id="DejaVuSans-30" d="M 2034 4250 
Q 1547 4250 1301 3770 
Q 1056 3291 1056 2328 
Q 1056 1369 1301 889 
Q 1547 409 2034 409 
Q 2525 409 2770 889 
Q 3016 1369 3016 2328 
Q 3016 3291 2770 3770 
Q 2525 4250 2034 4250 
z
M 2034 4750 
Q 2819 4750 3233 4129 
Q 3647 3509 3647 2328 
Q 3647 1150 3233 529 
Q 2819 -91 2034 -91 
Q 1250 -91 836 529 
Q 422 1150 422 2328 
Q 422 3509 836 4129 
Q 1250 4750 2034 4750 
z
" transform="scale(0.015625)"/>
       </defs>
       <use xlink:href="#DejaVuSans-31"/>
       <use xlink:href="#DejaVuSans-30" transform="translate(63.623047 0)"/>
      </g>
     </g>
    </g>
    <g id="xtick_4">
     <g id="line2d_7">
      <path d="M 190.195702 316.978125 
L 190.195702 22.318125 
" clip-path="url(#pd70d59da2f)" style="fill: none; stroke: #b0b0b0; stroke-opacity: 0.3; stroke-width: 0.8; stroke-linecap: square"/>
     </g>
     <g id="line2d_8">
      <g>
       <use xlink:href="#m2f1de36288" x="190.195702" y="316.978125" style="stroke: #000000; stroke-width: 0.8"/>
      </g>
     </g>
     <g id="text_4">
      <!-- 12 -->
      <g transform="translate(183.833202 328.076563) scale(0.1 -0.1)">
       <defs>
        <path id="DejaVuSans-32" d="M 1228 531 
L 3431 531 
L 3431 0 
L 469 0 
L 469 531 
Q 828 903 1448 1529 
Q 2069 2156 2228 2338 
Q 2531 2678 2651 2914 
Q 2772 3150 2772 3378 
Q 2772 3750 2511 3984 
Q 2250 4219 1831 4219 
Q 1534 4219 1204 4116 
Q 875 4013 500 3803 
L 500 4441 
Q 881 4594 1212 4672 
Q 1544 4750 1819 4750 
Q 2544 4750 2975 4387 
Q 3406 4025 3406 3419 
Q 3406 3131 3298 2873 
Q 3191 2616 2906 2266 
Q 2828 2175 2409 1742 
Q 1991 1309 1228 531 
z
" transform="scale(0.015625)"/>
       </defs>
       <use xlink:href="#DejaVuSans-31"/>
       <use xlink:href="#DejaVuSans-32" transform="translate(63.623047 0)"/>
      </g>
     </g>
    </g>
    <g id="xtick_5">
     <g id="line2d_9">
      <path d="M 226.718786 316.978125 
L 226.718786 22.318125 
" clip-path="url(#pd70d59da2f)" style="fill: none; stroke: #b0b0b0; stroke-opacity: 0.3; stroke-width: 0.8; stroke-linecap: square"/>
     </g>
     <g id="line2d_10">
      <g>
       <use xlink:href="#m2f1de36288" x="226.718786" y="316.978125" style="stroke: #000000; stroke-width: 0.8"/>
      </g>
     </g>
     <g id="text_5">
      <!-- 14 -->
      <g transform="translate(220.356286 328.076563) scale(0.1 -0.1)">
       <defs>
        <path id="DejaVuSans-34" d="M 2419 4116 
L 825 1625 
L 2419 1625 
L 2419 4116 
z
M 2253 4666 
L 3047 4666 
L 3047 1625 
L 3713 1625 
L 3713 1100 
L 3047 1100 
L 3047 0 
L 2419 0 
L 2419 1100 
L 313 1100 
L 313 1709 
L 2253 4666 
z
" transform="scale(0.015625)"/>
       </defs>
       <use xlink:href="#DejaVuSans-31"/>
       <use xlink:href="#DejaVuSans-34" transform="translate(63.623047 0)"/>
      </g>
     </g>
    </g>
    <g id="xtick_6">
     <g id="line2d_11">
      <path d="M 263.241871 316.978125 
L 263.241871 22.318125 
" clip-path="url(#pd70d59da2f)" style="fill: none; stroke: #b0b0b0; stroke-opacity: 0.3; stroke-width: 0.8; stroke-linecap: square"/>
     </g>
     <g id="line2d_12">
      <g>
       <use xlink:href="#m2f1de36288" x="263.241871" y="316.978125" style="stroke: #000000; stroke-width: 0.8"/>
      </g>
     </g>
     <g id="text_6">
      <!-- 16 -->
      <g transform="translate(256.879371 328.076563) scale(0.1 -0.1)">
       <use xlink:href="#DejaVuSans-31"/>
       <use xlink:href="#DejaVuSans-36" transform="translate(63.623047 0)"/>
      </g>
     </g>
    </g>
    <g id="xtick_7">
     <g id="line2d_13">
      <path d="M 299.764955 316.978125 
L 299.764955 22.318125 
" clip-path="url(#pd70d59da2f)" style="fill: none; stroke: #b0b0b0; stroke-opacity: 0.3; stroke-width: 0.8; stroke-linecap: square"/>
     </g>
     <g id="line2d_14">
      <g>
       <use xlink:href="#m2f1de36288" x="299.764955" y="316.978125" style="stroke: #000000; stroke-width: 0.8"/>
      </g>
     </g>
     <g id="text_7">
      <!-- 18 -->
      <g transform="translate(293.402455 328.076563) scale(0.1 -0.1)">
       <use xlink:href="#DejaVuSans-31"/>
       <use xlink:href="#DejaVuSans-38" transform="translate(63.623047 0)"/>
      </g>
     </g>
    </g>
    <g id="xtick_8">
     <g id="line2d_15">
      <path d="M 336.288039 316.978125 
L 336.288039 22.318125 
" clip-path="url(#pd70d59da2f)" style="fill: none; stroke: #b0b0b0; stroke-opacity: 0.3; stroke-width: 0.8; stroke-linecap: square"/>
     </g>
     <g id="line2d_16">
      <g>
       <use xlink:href="#m2f1de36288" x="336.288039" y="316.978125" style="stroke: #000000; stroke-width: 0.8"/>
      </g>
     </g>
     <g id="text_8">
      <!-- 20 -->
      <g transform="translate(329.925539 328.076563) scale(0.1 -0.1)">
       <use xlink:href="#DejaVuSans-32"/>
       <use xlink:href="#DejaVuSans-30" transform="translate(63.623047 0)"/>
      </g>
     </g>
    </g>
    <g id="text_9">
     <!-- Frequency (Hz) -->
     <g transform="translate(161.621786 341.754687) scale(0.1 -0.1)">
      <defs>
       <path id="DejaVuSans-46" d="M 628 4666 
L 3309 4666 
L 3309 4134 
L 1259 4134 
L 1259 2759 
L 3109 2759 
L 3109 2228 
L 1259 2228 
L 1259 0 
L 628 0 
L 628 4666 
z
" transform="scale(0.015625)"/>
       <path id="DejaVuSans-72" d="M 2631 2963 
Q 2534 3019 2420 3045 
Q 2306 3072 2169 3072 
Q 1681 3072 1420 2755 
Q 1159 2438 1159 1844 
L 1159 0 
L 581 0 
L 581 3500 
L 1159 3500 
L 1159 2956 
Q 1341 3275 1631 3429 
Q 1922 3584 2338 3584 
Q 2397 3584 2469 3576 
Q 2541 3569 2628 3553 
L 2631 2963 
z
" transform="scale(0.015625)"/>
       <path id="DejaVuSans-65" d="M 3597 1894 
L 3597 1613 
L 953 1613 
Q 991 1019 1311 708 
Q 1631 397 2203 397 
Q 2534 397 2845 478 
Q 3156 559 3463 722 
L 3463 178 
Q 3153 47 2828 -22 
Q 2503 -91 2169 -91 
Q 1331 -91 842 396 
Q 353 884 353 1716 
Q 353 2575 817 3079 
Q 1281 3584 2069 3584 
Q 2775 3584 3186 3129 
Q 3597 2675 3597 1894 
z
M 3022 2063 
Q 3016 2534 2758 2815 
Q 2500 3097 2075 3097 
Q 1594 3097 1305 2825 
Q 1016 2553 972 2059 
L 3022 2063 
z
" transform="scale(0.015625)"/>
       <path id="DejaVuSans-71" d="M 947 1747 
Q 947 1113 1208 752 
Q 1469 391 1925 391 
Q 2381 391 2643 752 
Q 2906 1113 2906 1747 
Q 2906 2381 2643 2742 
Q 2381 3103 1925 3103 
Q 1469 3103 1208 2742 
Q 947 2381 947 1747 
z
M 2906 525 
Q 2725 213 2448 61 
Q 2172 -91 1784 -91 
Q 1150 -91 751 415 
Q 353 922 353 1747 
Q 353 2572 751 3078 
Q 1150 3584 1784 3584 
Q 2172 3584 2448 3432 
Q 2725 3281 2906 2969 
L 2906 3500 
L 3481 3500 
L 3481 -1331 
L 2906 -1331 
L 2906 525 
z
" transform="scale(0.015625)"/>
       <path id="DejaVuSans-75" d="M 544 1381 
L 544 3500 
L 1119 3500 
L 1119 1403 
Q 1119 906 1312 657 
Q 1506 409 1894 409 
Q 2359 409 2629 706 
Q 2900 1003 2900 1516 
L 2900 3500 
L 3475 3500 
L 3475 0 
L 2900 0 
L 2900 538 
Q 2691 219 2414 64 
Q 2138 -91 1772 -91 
Q 1169 -91 856 284 
Q 544 659 544 1381 
z
M 1991 3584 
L 1991 3584 
z
" transform="scale(0.015625)"/>
       <path id="DejaVuSans-6e" d="M 3513 2113 
L 3513 0 
L 2938 0 
L 2938 2094 
Q 2938 2591 2744 2837 
Q 2550 3084 2163 3084 
Q 1697 3084 1428 2787 
Q 1159 2491 1159 1978 
L 1159 0 
L 581 0 
L 581 3500 
L 1159 3500 
L 1159 2956 
Q 1366 3272 1645 3428 
Q 1925 3584 2291 3584 
Q 2894 3584 3203 3211 
Q 3513 2838 3513 2113 
z
" transform="scale(0.015625)"/>
       <path id="DejaVuSans-63" d="M 3122 3366 
L 3122 2828 
Q 2878 2963 2633 3030 
Q 2388 3097 2138 3097 
Q 1578 3097 1268 2742 
Q 959 2388 959 1747 
Q 959 1106 1268 751 
Q 1578 397 2138 397 
Q 2388 397 2633 464 
Q 2878 531 3122 666 
L 3122 134 
Q 2881 22 2623 -34 
Q 2366 -91 2075 -91 
Q 1284 -91 818 406 
Q 353 903 353 1747 
Q 353 2603 823 3093 
Q 1294 3584 2113 3584 
Q 2378 3584 2631 3529 
Q 2884 3475 3122 3366 
z
" transform="scale(0.015625)"/>
       <path id="DejaVuSans-79" d="M 2059 -325 
Q 1816 -950 1584 -1140 
Q 1353 -1331 966 -1331 
L 506 -1331 
L 506 -850 
L 844 -850 
Q 1081 -850 1212 -737 
Q 1344 -625 1503 -206 
L 1606 56 
L 191 3500 
L 800 3500 
L 1894 763 
L 2988 3500 
L 3597 3500 
L 2059 -325 
z
" transform="scale(0.015625)"/>
       <path id="DejaVuSans-20" transform="scale(0.015625)"/>
       <path id="DejaVuSans-28" d="M 1984 4856 
Q 1566 4138 1362 3434 
Q 1159 2731 1159 2009 
Q 1159 1288 1364 580 
Q 1569 -128 1984 -844 
L 1484 -844 
Q 1016 -109 783 600 
Q 550 1309 550 2009 
Q 550 2706 781 3412 
Q 1013 4119 1484 4856 
L 1984 4856 
z
" transform="scale(0.015625)"/>
       <path id="DejaVuSans-48" d="M 628 4666 
L 1259 4666 
L 1259 2753 
L 3553 2753 
L 3553 4666 
L 4184 4666 
L 4184 0 
L 3553 0 
L 3553 2222 
L 1259 2222 
L 1259 0 
L 628 0 
L 628 4666 
z
" transform="scale(0.015625)"/>
       <path id="DejaVuSans-7a" d="M 353 3500 
L 3084 3500 
L 3084 2975 
L 922 459 
L 3084 459 
L 3084 0 
L 275 0 
L 275 525 
L 2438 3041 
L 353 3041 
L 353 3500 
z
" transform="scale(0.015625)"/>
       <path id="DejaVuSans-29" d="M 513 4856 
L 1013 4856 
Q 1481 4119 1714 3412 
Q 1947 2706 1947 2009 
Q 1947 1309 1714 600 
Q 1481 -109 1013 -844 
L 513 -844 
Q 928 -128 1133 580 
Q 1338 1288 1338 2009 
Q 1338 2731 1133 3434 
Q 928 4138 513 4856 
z
" transform="scale(0.015625)"/>
      </defs>
      <use xlink:href="#DejaVuSans-46"/>
      <use xlink:href="#DejaVuSans-72" transform="translate(50.269531 0)"/>
      <use xlink:href="#DejaVuSans-65" transform="translate(89.132812 0)"/>
      <use xlink:href="#DejaVuSans-71" transform="translate(150.65625 0)"/>
      <use xlink:href="#DejaVuSans-75" transform="translate(214.132812 0)"/>
      <use xlink:href="#DejaVuSans-65" transform="translate(277.511719 0)"/>
      <use xlink:href="#DejaVuSans-6e" transform="translate(339.035156 0)"/>
      <use xlink:href="#DejaVuSans-63" transform="translate(402.414062 0)"/>
      <use xlink:href="#DejaVuSans-79" transform="translate(457.394531 0)"/>
      <use xlink:href="#DejaVuSans-20" transform="translate(516.574219 0)"/>
      <use xlink:href="#DejaVuSans-28" transform="translate(548.361328 0)"/>
      <use xlink:href="#DejaVuSans-48" transform="translate(587.375 0)"/>
      <use xlink:href="#DejaVuSans-7a" transform="translate(662.570312 0)"/>
      <use xlink:href="#DejaVuSans-29" transform="translate(715.060547 0)"/>
     </g>
    </g>
   </g>
   <g id="matplotlib.axis_2">
    <g id="ytick_1">
     <g id="line2d_17">
      <path d="M 48.66875 240.958078 
L 349.984196 240.958078 
" clip-path="url(#pd70d59da2f)" style="fill: none; stroke: #b0b0b0; stroke-opacity: 0.3; stroke-width: 0.8; stroke-linecap: square"/>
     </g>
     <g id="line2d_18">
      <defs>
       <path id="m17f85c0a8f" d="M 0 0 
L 3.5 0 
" style="stroke: #000000; stroke-width: 0.8"/>
      </defs>
      <g>
       <use xlink:href="#m17f85c0a8f" x="48.66875" y="240.958078" style="stroke: #000000; stroke-width: 0.8"/>
      </g>
     </g>
     <g id="text_10">
      <!-- $\mathdefault{10^{-1}}$ -->
      <g transform="translate(21.66875 244.757297) scale(0.1 -0.1)">
       <defs>
        <path id="DejaVuSans-2212" d="M 678 2272 
L 4684 2272 
L 4684 1741 
L 678 1741 
L 678 2272 
z
" transform="scale(0.015625)"/>
       </defs>
       <use xlink:href="#DejaVuSans-31" transform="translate(0 0.684375)"/>
       <use xlink:href="#DejaVuSans-30" transform="translate(63.623047 0.684375)"/>
       <use xlink:href="#DejaVuSans-2212" transform="translate(128.203125 38.965625) scale(0.7)"/>
       <use xlink:href="#DejaVuSans-31" transform="translate(186.855469 38.965625) scale(0.7)"/>
      </g>
     </g>
    </g>
    <g id="ytick_2">
     <g id="line2d_19">
      <path d="M 48.66875 109.948521 
L 349.984196 109.948521 
" clip-path="url(#pd70d59da2f)" style="fill: none; stroke: #b0b0b0; stroke-opacity: 0.3; stroke-width: 0.8; stroke-linecap: square"/>
     </g>
     <g id="line2d_20">
      <g>
       <use xlink:href="#m17f85c0a8f" x="48.66875" y="109.948521" style="stroke: #000000; stroke-width: 0.8"/>
      </g>
     </g>
     <g id="text_11">
      <!-- $\mathdefault{10^{0}}$ -->
      <g transform="translate(27.56875 113.74774) scale(0.1 -0.1)">
       <use xlink:href="#DejaVuSans-31" transform="translate(0 0.765625)"/>
       <use xlink:href="#DejaVuSans-30" transform="translate(63.623047 0.765625)"/>
       <use xlink:href="#DejaVuSans-30" transform="translate(128.203125 39.046875) scale(0.7)"/>
      </g>
     </g>
    </g>
    <g id="ytick_3">
     <g id="line2d_21">
      <defs>
       <path id="md47bf1b90d" d="M 0 0 
L 2 0 
" style="stroke: #000000; stroke-width: 0.6"/>
      </defs>
      <g>
       <use xlink:href="#md47bf1b90d" x="48.66875" y="309.460191" style="stroke: #000000; stroke-width: 0.6"/>
      </g>
     </g>
    </g>
    <g id="ytick_4">
     <g id="line2d_22">
      <g>
       <use xlink:href="#md47bf1b90d" x="48.66875" y="293.092023" style="stroke: #000000; stroke-width: 0.6"/>
      </g>
     </g>
    </g>
    <g id="ytick_5">
     <g id="line2d_23">
      <g>
       <use xlink:href="#md47bf1b90d" x="48.66875" y="280.395885" style="stroke: #000000; stroke-width: 0.6"/>
      </g>
     </g>
    </g>
    <g id="ytick_6">
     <g id="line2d_24">
      <g>
       <use xlink:href="#md47bf1b90d" x="48.66875" y="270.022385" style="stroke: #000000; stroke-width: 0.6"/>
      </g>
     </g>
    </g>
    <g id="ytick_7">
     <g id="line2d_25">
      <g>
       <use xlink:href="#md47bf1b90d" x="48.66875" y="261.251716" style="stroke: #000000; stroke-width: 0.6"/>
      </g>
     </g>
    </g>
    <g id="ytick_8">
     <g id="line2d_26">
      <g>
       <use xlink:href="#md47bf1b90d" x="48.66875" y="253.654216" style="stroke: #000000; stroke-width: 0.6"/>
      </g>
     </g>
    </g>
    <g id="ytick_9">
     <g id="line2d_27">
      <g>
       <use xlink:href="#md47bf1b90d" x="48.66875" y="246.952747" style="stroke: #000000; stroke-width: 0.6"/>
      </g>
     </g>
    </g>
    <g id="ytick_10">
     <g id="line2d_28">
      <g>
       <use xlink:href="#md47bf1b90d" x="48.66875" y="201.520272" style="stroke: #000000; stroke-width: 0.6"/>
      </g>
     </g>
    </g>
    <g id="ytick_11">
     <g id="line2d_29">
      <g>
       <use xlink:href="#md47bf1b90d" x="48.66875" y="178.450634" style="stroke: #000000; stroke-width: 0.6"/>
      </g>
     </g>
    </g>
    <g id="ytick_12">
     <g id="line2d_30">
      <g>
       <use xlink:href="#md47bf1b90d" x="48.66875" y="162.082466" style="stroke: #000000; stroke-width: 0.6"/>
      </g>
     </g>
    </g>
    <g id="ytick_13">
     <g id="line2d_31">
      <g>
       <use xlink:href="#md47bf1b90d" x="48.66875" y="149.386328" style="stroke: #000000; stroke-width: 0.6"/>
      </g>
     </g>
    </g>
    <g id="ytick_14">
     <g id="line2d_32">
      <g>
       <use xlink:href="#md47bf1b90d" x="48.66875" y="139.012828" style="stroke: #000000; stroke-width: 0.6"/>
      </g>
     </g>
    </g>
    <g id="ytick_15">
     <g id="line2d_33">
      <g>
       <use xlink:href="#md47bf1b90d" x="48.66875" y="130.242158" style="stroke: #000000; stroke-width: 0.6"/>
      </g>
     </g>
    </g>
    <g id="ytick_16">
     <g id="line2d_34">
      <g>
       <use xlink:href="#md47bf1b90d" x="48.66875" y="122.644659" style="stroke: #000000; stroke-width: 0.6"/>
      </g>
     </g>
    </g>
    <g id="ytick_17">
     <g id="line2d_35">
      <g>
       <use xlink:href="#md47bf1b90d" x="48.66875" y="115.94319" style="stroke: #000000; stroke-width: 0.6"/>
      </g>
     </g>
    </g>
    <g id="ytick_18">
     <g id="line2d_36">
      <g>
       <use xlink:href="#md47bf1b90d" x="48.66875" y="70.510715" style="stroke: #000000; stroke-width: 0.6"/>
      </g>
     </g>
    </g>
    <g id="ytick_19">
     <g id="line2d_37">
      <g>
       <use xlink:href="#md47bf1b90d" x="48.66875" y="47.441077" style="stroke: #000000; stroke-width: 0.6"/>
      </g>
     </g>
    </g>
    <g id="ytick_20">
     <g id="line2d_38">
      <g>
       <use xlink:href="#md47bf1b90d" x="48.66875" y="31.072908" style="stroke: #000000; stroke-width: 0.6"/>
      </g>
     </g>
    </g>
    <g id="text_12">
     <!-- |CFT| (V/√Hz) -->
     <g transform="translate(15.310938 202.516094) rotate(-90) scale(0.1 -0.1)">
      <defs>
       <path id="DejaVuSans-7c" d="M 1344 4891 
L 1344 -1509 
L 813 -1509 
L 813 4891 
L 1344 4891 
z
" transform="scale(0.015625)"/>
       <path id="DejaVuSans-43" d="M 4122 4306 
L 4122 3641 
Q 3803 3938 3442 4084 
Q 3081 4231 2675 4231 
Q 1875 4231 1450 3742 
Q 1025 3253 1025 2328 
Q 1025 1406 1450 917 
Q 1875 428 2675 428 
Q 3081 428 3442 575 
Q 3803 722 4122 1019 
L 4122 359 
Q 3791 134 3420 21 
Q 3050 -91 2638 -91 
Q 1578 -91 968 557 
Q 359 1206 359 2328 
Q 359 3453 968 4101 
Q 1578 4750 2638 4750 
Q 3056 4750 3426 4639 
Q 3797 4528 4122 4306 
z
" transform="scale(0.015625)"/>
       <path id="DejaVuSans-54" d="M -19 4666 
L 3928 4666 
L 3928 4134 
L 2272 4134 
L 2272 0 
L 1638 0 
L 1638 4134 
L -19 4134 
L -19 4666 
z
" transform="scale(0.015625)"/>
       <path id="DejaVuSans-56" d="M 1831 0 
L 50 4666 
L 709 4666 
L 2188 738 
L 3669 4666 
L 4325 4666 
L 2547 0 
L 1831 0 
z
" transform="scale(0.015625)"/>
       <path id="DejaVuSans-2f" d="M 1625 4666 
L 2156 4666 
L 531 -594 
L 0 -594 
L 1625 4666 
z
" transform="scale(0.015625)"/>
       <path id="DejaVuSans-221a" d="M 3488 5191 
L 4078 5191 
L 4078 4891 
L 3719 4891 
L 1863 -128 
L 1656 -128 
L 659 2631 
L 269 2491 
L 191 2741 
L 1075 3047 
L 1875 831 
L 3488 5191 
z
" transform="scale(0.015625)"/>
      </defs>
      <use xlink:href="#DejaVuSans-7c"/>
      <use xlink:href="#DejaVuSans-43" transform="translate(33.691406 0)"/>
      <use xlink:href="#DejaVuSans-46" transform="translate(103.515625 0)"/>
      <use xlink:href="#DejaVuSans-54" transform="translate(159.285156 0)"/>
      <use xlink:href="#DejaVuSans-7c" transform="translate(220.369141 0)"/>
      <use xlink:href="#DejaVuSans-20" transform="translate(254.060547 0)"/>
      <use xlink:href="#DejaVuSans-28" transform="translate(285.847656 0)"/>
      <use xlink:href="#DejaVuSans-56" transform="translate(324.861328 0)"/>
      <use xlink:href="#DejaVuSans-2f" transform="translate(393.269531 0)"/>
      <use xlink:href="#DejaVuSans-221a" transform="translate(426.960938 0)"/>
      <use xlink:href="#DejaVuSans-48" transform="translate(490.681641 0)"/>
      <use xlink:href="#DejaVuSans-7a" transform="translate(565.876953 0)"/>
      <use xlink:href="#DejaVuSans-29" transform="translate(618.367188 0)"/>
     </g>
    </g>
   </g>
   <g id="line2d_39">
    <path d="M 62.364907 270.20657 
L 63.460599 260.398082 
L 63.82583 258.963602 
L 64.191061 259.356213 
L 64.556292 261.450306 
L 65.286753 267.828377 
L 65.651984 269.385467 
L 66.017215 268.342463 
L 67.112908 258.560525 
L 67.478138 257.173456 
L 67.843369 257.605961 
L 68.2086 259.720651 
L 68.939062 266.028705 
L 69.304293 267.495237 
L 69.669524 266.373015 
L 70.765216 256.619926 
L 71.130447 255.279017 
L 71.495678 255.749592 
L 71.860909 257.882571 
L 72.59137 264.11598 
L 72.956601 265.491736 
L 73.321832 264.292012 
L 74.417524 254.569565 
L 74.782755 253.273434 
L 75.147986 253.780144 
L 75.513217 255.929022 
L 76.243679 262.08313 
L 76.60891 263.367914 
L 76.97414 262.092321 
L 78.069833 252.401762 
L 78.435064 251.148888 
L 78.800295 251.689676 
L 79.165525 253.851966 
L 79.895987 259.922057 
L 80.261218 261.115672 
L 80.626449 259.765738 
L 81.722141 250.107711 
L 82.087372 248.896415 
L 82.452603 249.469089 
L 82.817834 251.642188 
L 83.548296 257.623447 
L 83.913526 258.725665 
L 84.278757 257.302779 
L 85.37445 247.677268 
L 85.739681 246.505691 
L 86.104911 247.107899 
L 86.470142 249.289071 
L 87.200604 255.176532 
L 87.565835 256.187061 
L 87.931066 254.69244 
L 89.026758 245.098684 
L 89.391989 243.964766 
L 89.75722 244.593969 
L 90.122451 246.78031 
L 90.852912 252.568795 
L 91.218143 253.487234 
L 91.583374 251.921883 
L 92.679067 242.358278 
L 93.044298 241.259715 
L 93.409528 241.913151 
L 93.774759 244.101558 
L 94.505221 249.785589 
L 94.870452 250.611383 
L 95.235683 248.976041 
L 96.331375 239.440003 
L 96.696606 238.374208 
L 97.061837 239.048846 
L 97.427068 241.235962 
L 98.157529 246.809658 
L 98.52276 247.54203 
L 98.887991 245.837109 
L 99.983684 236.324905 
L 100.348914 235.288943 
L 100.714145 235.981417 
L 101.079376 238.163572 
L 101.809838 243.620502 
L 102.175069 244.258377 
L 102.540299 242.48388 
L 103.635992 232.990395 
L 104.001223 231.980905 
L 104.366454 232.687431 
L 104.731685 234.860552 
L 105.462146 240.193549 
L 105.827377 240.735447 
L 106.192608 238.890868 
L 107.2883 229.409295 
L 107.653531 228.422376 
L 108.018762 229.13864 
L 108.383993 231.29813 
L 109.114455 236.49904 
L 109.479685 236.942939 
L 109.844916 235.027116 
L 110.940609 225.548529 
L 111.30584 224.579591 
L 111.671071 225.300591 
L 112.036301 227.441169 
L 112.766763 232.500498 
L 113.131994 232.843643 
L 113.497225 230.854573 
L 114.592917 221.367331 
L 114.958148 220.410881 
L 115.323379 221.130702 
L 116.053841 226.003467 
L 116.419072 228.152598 
L 116.784302 228.391241 
L 117.149533 226.325806 
L 118.245226 216.8147 
L 118.610457 215.864033 
L 118.975687 216.575532 
L 120.07138 223.398112 
L 120.436611 223.527129 
L 120.801842 221.380707 
L 121.897534 211.825705 
L 122.262765 210.872456 
L 122.627996 211.566787 
L 123.723688 218.163413 
L 124.088919 218.175741 
L 124.45415 215.941619 
L 125.549843 206.315973 
L 125.915073 205.349421 
L 126.280304 206.015316 
L 127.375997 212.351637 
L 127.741228 212.237402 
L 128.106459 209.905868 
L 128.83692 202.707286 
L 129.202151 200.173127 
L 129.567382 199.179103 
L 129.932613 199.80172 
L 131.028305 205.83186 
L 131.393536 205.576971 
L 131.758767 203.133839 
L 132.489229 195.817121 
L 132.854459 193.242947 
L 133.21969 192.202022 
L 133.584921 192.761032 
L 134.680614 198.421171 
L 135.045845 198.004923 
L 135.411075 195.429005 
L 136.141537 187.946447 
L 136.506768 185.305795 
L 136.871999 184.190087 
L 137.23723 184.656289 
L 138.332922 189.853151 
L 138.698153 189.243889 
L 139.063384 186.502366 
L 139.793846 178.781009 
L 140.159076 176.033729 
L 140.524307 174.800885 
L 140.889538 175.129753 
L 141.985231 179.718317 
L 142.350461 178.864864 
L 142.715692 175.904078 
L 143.446154 167.825082 
L 143.811385 164.905777 
L 144.176616 163.486472 
L 144.541846 163.604627 
L 145.637539 167.340219 
L 146.00277 166.153038 
L 146.368001 162.87795 
L 147.463693 151.020836 
L 147.828924 149.289305 
L 148.194155 149.062126 
L 148.559386 149.970978 
L 148.924617 151.186132 
L 149.289847 151.481885 
L 149.655078 149.784875 
L 150.38554 141.116092 
L 151.116002 132.61536 
L 151.481233 130.306174 
L 151.846463 129.444263 
L 152.211694 129.648397 
L 152.576925 130.077842 
L 152.942156 129.507609 
L 153.307387 126.884613 
L 154.037848 116.245772 
L 154.76831 105.503851 
L 155.133541 101.906298 
L 155.498772 99.611495 
L 156.229233 96.840201 
L 156.594464 94.254999 
L 156.959695 89.40396 
L 157.690157 73.653839 
L 158.785849 49.811644 
L 159.516311 39.928156 
L 159.881542 37.11106 
L 160.246773 35.711761 
L 160.612004 35.724444 
L 160.977234 37.148278 
L 161.342465 39.987317 
L 161.707696 44.24342 
L 162.438158 56.874945 
L 163.899081 89.410997 
L 164.264312 94.288886 
L 164.629543 96.937264 
L 165.360005 99.840865 
L 165.725235 102.167134 
L 166.090466 105.762998 
L 166.820928 116.39869 
L 167.55139 126.910624 
L 167.91662 129.564921 
L 168.281851 130.238882 
L 168.647082 129.934397 
L 169.012313 129.82969 
L 169.377544 130.742809 
L 169.742775 133.046918 
L 170.473236 141.370901 
L 171.203698 149.829855 
L 171.568929 151.565577 
L 171.93416 151.415922 
L 172.664621 149.607241 
L 173.029852 149.903751 
L 173.395083 151.625126 
L 173.760314 154.74328 
L 174.856007 166.217726 
L 175.221237 167.453979 
L 175.586468 166.861153 
L 176.31693 164.313549 
L 176.682161 164.281207 
L 177.047392 165.68359 
L 177.412622 168.483307 
L 178.508315 178.950748 
L 178.873546 179.866567 
L 179.238777 178.996784 
L 179.969238 176.007088 
L 180.334469 175.778854 
L 180.6997 176.98633 
L 181.064931 179.58368 
L 182.160623 189.353207 
L 182.525854 190.041045 
L 182.891085 188.981301 
L 183.621547 185.707129 
L 183.986778 185.354703 
L 184.352008 186.434924 
L 184.717239 188.893915 
L 185.812932 198.140673 
L 186.178163 198.654597 
L 186.543394 197.456176 
L 187.273855 193.990957 
L 187.639086 193.557167 
L 188.004317 194.550824 
L 188.369548 196.910253 
L 189.46524 205.742913 
L 189.830471 206.11744 
L 190.195702 204.813225 
L 190.926164 201.216796 
L 191.291394 200.729132 
L 191.656625 201.662453 
L 192.021856 203.947467 
L 192.752318 210.329617 
L 193.117549 212.438064 
L 193.48278 212.696726 
L 193.84801 211.309162 
L 194.578472 207.622099 
L 194.943703 207.099164 
L 195.308934 207.989938 
L 195.674165 210.217669 
L 196.404626 216.420334 
L 196.769857 218.416428 
L 197.135088 218.576106 
L 197.500319 217.121275 
L 198.230781 213.372321 
L 198.596011 212.82722 
L 198.961242 213.687988 
L 199.326473 215.870557 
L 200.056935 221.917697 
L 200.422166 223.813925 
L 200.787396 223.887238 
L 201.152627 222.377121 
L 201.883089 218.587352 
L 202.24832 218.029605 
L 202.613551 218.869478 
L 202.978781 221.015717 
L 203.709243 226.925108 
L 204.074474 228.731021 
L 204.439705 228.727728 
L 204.804936 227.171536 
L 205.535397 223.356836 
L 205.900628 222.793533 
L 206.265859 223.619285 
L 206.63109 225.735781 
L 207.361552 231.52096 
L 207.726782 233.244079 
L 208.092013 233.171944 
L 208.457244 231.576948 
L 209.187706 227.749563 
L 209.552937 227.186083 
L 209.918168 228.002846 
L 210.283398 230.094604 
L 211.01386 235.76611 
L 211.379091 237.412505 
L 211.744322 237.277855 
L 212.109553 235.649927 
L 212.840014 231.819471 
L 213.205245 231.259962 
L 213.570476 232.071678 
L 213.935707 234.142558 
L 214.666168 239.708752 
L 215.031399 241.283431 
L 215.39663 241.091533 
L 216.492323 235.60964 
L 216.857554 235.057337 
L 217.222784 235.86707 
L 217.588015 237.920085 
L 218.318477 243.38771 
L 218.683708 244.894885 
L 219.048939 244.650199 
L 220.144631 239.155027 
L 220.509862 238.612474 
L 220.875093 239.422623 
L 221.240324 241.460147 
L 221.970785 246.834726 
L 222.336016 248.277997 
L 222.701247 247.984362 
L 223.79694 242.484387 
L 224.16217 241.953599 
L 224.527401 242.766056 
L 224.892632 244.789971 
L 225.623094 250.076086 
L 225.988325 251.458578 
L 226.353555 251.119341 
L 227.449248 245.621661 
L 227.814479 245.104241 
L 228.17971 245.9205 
L 228.544941 247.932307 
L 229.275402 253.133807 
L 229.640633 254.458269 
L 230.005864 254.076384 
L 231.101556 248.586998 
L 231.466787 248.084222 
L 231.832018 248.905465 
L 232.197249 250.906363 
L 232.927711 256.026521 
L 233.292942 257.295398 
L 233.658172 256.873497 
L 234.753865 251.397514 
L 235.119096 250.910397 
L 235.484327 251.737556 
L 235.849557 253.728509 
L 236.580019 258.770132 
L 236.94525 259.985624 
L 237.310481 259.526076 
L 238.406173 254.067875 
L 238.771404 253.597222 
L 239.136635 254.431028 
L 239.501866 256.412804 
L 240.232328 261.378331 
L 240.597558 262.542432 
L 240.962789 262.047385 
L 242.058482 256.610743 
L 242.423713 256.157187 
L 242.788943 256.998209 
L 243.519405 261.548908 
L 243.884636 263.862988 
L 244.249867 264.977525 
L 244.615098 264.448939 
L 245.71079 259.037127 
L 246.076021 258.60116 
L 246.441252 259.449833 
L 247.171714 263.964915 
L 247.536944 266.234463 
L 247.902175 267.301119 
L 248.267406 266.740795 
L 249.363099 261.35666 
L 249.728329 260.938657 
L 250.09356 261.795308 
L 250.824022 266.27577 
L 251.189253 268.501855 
L 251.554484 269.52219 
L 251.919715 268.931791 
L 253.015407 263.577817 
L 253.380638 263.178057 
L 253.745869 264.042922 
L 254.47633 268.489596 
L 254.841561 270.673196 
L 255.206792 271.648667 
L 255.572023 271.029735 
L 256.667716 265.708097 
L 257.032946 265.326777 
L 257.398177 266.200017 
L 258.128639 270.613594 
L 258.49387 272.755618 
L 258.859101 273.68759 
L 259.224331 273.041562 
L 260.320024 267.754167 
L 260.685255 267.391418 
L 261.050486 268.273129 
L 261.780947 272.654188 
L 262.146178 274.755478 
L 262.511409 275.645237 
L 262.87664 274.973455 
L 263.972332 269.72198 
L 264.337563 269.377873 
L 264.702794 270.268103 
L 265.433256 274.617124 
L 265.798487 276.678471 
L 266.163717 277.527233 
L 266.528948 276.830956 
L 267.624641 271.616874 
L 267.989872 271.291434 
L 268.355103 272.190184 
L 269.816026 279.338634 
L 270.181257 278.619048 
L 271.276949 273.443655 
L 271.64218 273.136865 
L 272.007411 274.044101 
L 273.103103 280.313836 
L 273.468334 281.084007 
L 273.833565 280.342229 
L 274.929258 275.206665 
L 275.294489 274.918474 
L 275.659719 275.834129 
L 276.755412 282.035017 
L 277.120643 282.767487 
L 277.485874 282.004573 
L 278.581566 276.90984 
L 278.946797 276.640167 
L 279.312028 277.564151 
L 280.40772 283.697061 
L 280.772951 284.392833 
L 281.138182 283.609782 
L 282.233875 278.55676 
L 282.599105 278.305499 
L 282.964336 279.237698 
L 284.060029 285.303436 
L 284.42526 285.96347 
L 284.79049 285.16123 
L 285.886183 280.15069 
L 286.251414 279.917713 
L 286.616645 280.857997 
L 287.712337 286.857311 
L 288.077568 287.482528 
L 288.442799 286.661999 
L 289.538491 281.694614 
L 289.903722 281.479776 
L 290.268953 282.427999 
L 291.364646 288.36159 
L 291.729877 288.952877 
L 292.095107 288.114917 
L 293.1908 283.191272 
L 293.556031 282.994412 
L 293.921262 283.950415 
L 295.016954 289.818941 
L 295.382185 290.377152 
L 295.747416 289.522577 
L 296.843108 284.64318 
L 297.208339 284.464124 
L 297.57357 285.427739 
L 298.669263 291.231823 
L 299.034493 291.757781 
L 299.399724 290.88737 
L 300.495417 286.052656 
L 300.860648 285.891221 
L 301.225878 286.862271 
L 302.321571 292.602505 
L 302.686802 293.097004 
L 303.052033 292.2115 
L 304.147725 287.421843 
L 304.512956 287.277835 
L 304.878187 288.256137 
L 305.973879 293.933084 
L 306.33911 294.396894 
L 306.704341 293.497007 
L 307.800034 288.752721 
L 308.165264 288.625939 
L 308.530495 289.611303 
L 309.626188 295.225506 
L 309.991419 295.65937 
L 310.35665 294.74578 
L 311.087111 291.193879 
L 311.452342 290.047128 
L 311.817573 289.937365 
L 312.182804 290.929599 
L 313.278496 296.481577 
L 313.643727 296.886215 
L 314.008958 295.959573 
L 314.73942 292.432138 
L 315.104651 291.306769 
L 315.469881 291.213813 
L 315.835112 292.21272 
L 316.930805 297.702977 
L 317.296036 298.079087 
L 317.661266 297.140016 
L 318.391728 293.637374 
L 318.756959 292.533233 
L 319.12219 292.456867 
L 319.487421 293.46225 
L 320.583113 298.891274 
L 320.948344 299.239531 
L 321.313575 298.288628 
L 322.044037 294.811075 
L 322.409267 293.727999 
L 322.774498 293.668005 
L 323.139729 294.679664 
L 324.235422 300.047927 
L 324.600652 300.368988 
L 324.965883 299.406826 
L 325.696345 295.954626 
L 326.061576 294.892448 
L 326.426807 294.848605 
L 326.792038 295.866339 
L 327.88773 301.174305 
L 328.252961 301.468806 
L 328.618192 300.495934 
L 329.348653 297.069325 
L 329.713884 296.027873 
L 330.079115 295.999957 
L 330.444346 297.023567 
L 331.540038 302.271685 
L 331.905269 302.540246 
L 332.2705 301.557192 
L 333.000962 298.156384 
L 333.366193 297.135483 
L 333.731424 297.123271 
L 334.096654 298.152555 
L 335.192347 303.341268 
L 335.557578 303.584489 
L 335.922809 302.591761 
L 336.288039 300.883837 
L 336.288039 300.883837 
" clip-path="url(#pd70d59da2f)" style="fill: none; stroke: #4c72b0; stroke-opacity: 0.8; stroke-width: 1.5; stroke-linecap: square"/>
   </g>
   <g id="line2d_40">
    <path d="M 62.364907 270.209655 
L 63.460599 260.389415 
L 63.82583 258.948331 
L 64.191061 259.336188 
L 64.556292 261.428613 
L 65.286753 267.817211 
L 65.651984 269.384585 
L 66.017215 268.348565 
L 67.112908 258.554537 
L 67.478138 257.1609 
L 67.843369 257.588733 
L 68.2086 259.701879 
L 68.939062 266.020726 
L 69.304293 267.497479 
L 69.669524 266.382009 
L 70.765216 256.616526 
L 71.130447 255.269108 
L 71.495678 255.735107 
L 71.860909 257.866677 
L 72.59137 264.111112 
L 72.956601 265.496986 
L 73.321832 264.303757 
L 74.417524 254.568651 
L 74.782755 253.26609 
L 75.147986 253.768337 
L 75.513217 255.915947 
L 76.243679 262.081277 
L 76.60891 263.37604 
L 76.97414 262.106663 
L 78.069833 252.403219 
L 78.435064 251.144015 
L 78.800295 251.680471 
L 79.165525 253.841639 
L 79.895987 259.923108 
L 80.261218 261.126524 
L 80.626449 259.782507 
L 81.722141 250.111416 
L 82.087372 248.893908 
L 82.452603 249.462393 
L 82.817834 251.634522 
L 83.548296 257.627272 
L 83.913526 258.739077 
L 84.278757 257.321792 
L 85.37445 247.683085 
L 85.739681 246.505436 
L 86.104911 247.103611 
L 86.470142 249.283966 
L 87.200604 255.182987 
L 87.565835 256.202853 
L 87.931066 254.713503 
L 89.026758 245.10647 
L 89.391989 243.966635 
L 89.75722 244.591974 
L 90.122451 246.777654 
L 90.852912 252.577718 
L 91.218143 253.505212 
L 91.583374 251.944789 
L 92.679067 242.367877 
L 93.044298 241.263573 
L 93.409528 241.913325 
L 93.774759 244.101224 
L 94.505221 249.796804 
L 94.870452 250.631339 
L 95.235683 249.000574 
L 96.331375 239.451255 
L 96.696606 238.37991 
L 97.061837 239.051052 
L 97.427068 241.237813 
L 98.157529 246.822975 
L 98.52276 247.563746 
L 98.887991 245.863043 
L 99.983684 236.337638 
L 100.348914 235.296334 
L 100.714145 235.98551 
L 101.079376 238.167457 
L 101.809838 243.635719 
L 102.175069 244.281622 
L 102.540299 242.510982 
L 103.635992 233.004433 
L 104.001223 231.989822 
L 104.366454 232.693255 
L 104.731685 234.866309 
L 105.462146 240.210452 
L 105.827377 240.759982 
L 106.192608 238.918896 
L 107.2883 229.424451 
L 107.653531 228.432647 
L 108.018762 229.146028 
L 108.383993 231.305588 
L 109.114455 236.517403 
L 109.479685 236.968514 
L 109.844916 235.055823 
L 110.940609 225.564612 
L 111.30584 224.591039 
L 111.671071 225.309369 
L 112.036301 227.450147 
L 112.766763 232.520085 
L 113.131994 232.870003 
L 113.497225 230.883706 
L 114.592917 221.384143 
L 114.958148 220.423319 
L 115.323379 221.140688 
L 116.053841 226.017502 
L 116.419072 228.173164 
L 116.784302 228.418122 
L 117.149533 226.355105 
L 118.245226 216.832038 
L 118.610457 215.877269 
L 118.975687 216.586535 
L 120.07138 223.419403 
L 120.436611 223.554261 
L 120.801842 221.409909 
L 121.897534 211.843362 
L 122.262765 210.886291 
L 122.627996 211.57861 
L 123.723688 218.185169 
L 124.088919 218.20285 
L 124.45415 215.970459 
L 125.549843 206.333735 
L 125.915073 205.363651 
L 126.280304 206.027754 
L 127.375997 212.373589 
L 127.741228 212.264209 
L 128.106459 209.934077 
L 128.83692 202.729138 
L 129.202151 200.190777 
L 129.567382 199.193519 
L 129.932613 199.814563 
L 131.028305 205.853737 
L 131.393536 205.603194 
L 131.758767 203.161147 
L 132.489229 195.83832 
L 132.854459 193.260266 
L 133.21969 192.216409 
L 133.584921 192.774064 
L 134.680614 198.442694 
L 135.045845 198.030278 
L 135.411075 195.45514 
L 136.141537 187.966757 
L 136.506768 185.322558 
L 136.871999 184.204228 
L 137.23723 184.669287 
L 138.332922 189.874038 
L 138.698153 189.268089 
L 139.063384 186.527055 
L 139.793846 178.800194 
L 140.159076 176.049711 
L 140.524307 174.814558 
L 140.889538 175.142492 
L 141.985231 179.738283 
L 142.350461 178.887621 
L 142.715692 175.927047 
L 143.446154 167.842901 
L 143.811385 164.920748 
L 144.176616 163.499449 
L 144.541846 163.616874 
L 145.637539 167.358974 
L 146.00277 166.17406 
L 146.368001 162.898923 
L 147.463693 151.034559 
L 147.828924 149.301351 
L 148.194155 149.073638 
L 148.559386 149.983328 
L 148.924617 151.200649 
L 149.289847 151.499125 
L 149.655078 149.803856 
L 150.38554 141.13286 
L 151.116002 132.627572 
L 151.481233 130.317024 
L 151.846463 129.454761 
L 152.211694 129.659708 
L 152.576925 130.09102 
L 152.942156 129.522973 
L 153.307387 126.901183 
L 154.037848 116.259977 
L 154.76831 105.514135 
L 155.133541 101.915492 
L 155.498772 99.62046 
L 156.229233 96.85132 
L 156.594464 94.267631 
L 156.959695 89.417101 
L 157.690157 73.663956 
L 158.785849 49.815697 
L 159.516311 39.929764 
L 159.881542 37.111849 
L 160.246773 35.711949 
L 160.612004 35.724224 
L 160.977234 37.147835 
L 161.342465 39.986842 
L 161.707696 44.243123 
L 162.438158 56.875787 
L 163.899081 89.416605 
L 164.264312 94.29452 
L 164.629543 96.942061 
L 165.360005 99.843676 
L 165.725235 102.169522 
L 166.090466 105.765434 
L 166.820928 116.402269 
L 167.55139 126.914873 
L 167.91662 129.568442 
L 168.281851 130.241202 
L 168.647082 129.935625 
L 169.012313 129.830279 
L 169.377544 130.743262 
L 169.742775 133.047643 
L 170.473236 141.372682 
L 171.203698 149.83125 
L 171.568929 151.565722 
L 171.93416 151.414692 
L 172.664621 149.604801 
L 173.029852 149.90155 
L 173.395083 151.623488 
L 173.760314 154.742288 
L 174.856007 166.215748 
L 175.221237 167.450268 
L 175.586468 166.855933 
L 176.31693 164.3077 
L 176.682161 164.275987 
L 177.047392 165.679234 
L 177.412622 168.479717 
L 178.508315 178.945033 
L 178.873546 179.858656 
L 179.238777 178.987255 
L 179.969238 175.997539 
L 180.334469 175.770331 
L 180.6997 176.978969 
L 181.064931 179.577202 
L 182.160623 189.343443 
L 182.525854 190.028637 
L 182.891085 188.967184 
L 183.621547 185.69362 
L 183.986778 185.342619 
L 184.352008 186.424297 
L 184.717239 188.884277 
L 185.812932 198.126566 
L 186.178163 198.637411 
L 186.543394 197.437209 
L 187.273855 193.973245 
L 187.639086 193.541277 
L 188.004317 194.536681 
L 188.369548 196.897195 
L 189.46524 205.724179 
L 189.830471 206.095209 
L 190.195702 204.789158 
L 190.926164 201.194644 
L 191.291394 200.709198 
L 191.656625 201.64455 
L 192.021856 203.930735 
L 192.752318 210.310049 
L 193.117549 212.41443 
L 193.48278 212.669192 
L 193.84801 211.279752 
L 194.578472 207.595275 
L 194.943703 207.074953 
L 195.308934 207.968035 
L 195.674165 210.197012 
L 196.404626 216.396174 
L 196.769857 218.387626 
L 197.135088 218.543016 
L 197.500319 217.086285 
L 198.230781 213.3406 
L 198.596011 212.798501 
L 198.961242 213.661849 
L 199.326473 215.845729 
L 200.056935 221.888679 
L 200.422166 223.779695 
L 200.787396 223.848347 
L 201.152627 222.336321 
L 201.883089 218.550511 
L 202.24832 217.996154 
L 202.613551 218.838869 
L 202.978781 220.986472 
L 203.709243 226.89097 
L 204.074474 228.691107 
L 204.439705 228.682797 
L 204.804936 227.1247 
L 205.535397 223.314657 
L 205.900628 222.755126 
L 206.265859 223.583976 
L 206.63109 225.701879 
L 207.361552 231.481445 
L 207.726782 233.198231 
L 208.092013 233.120739 
L 208.457244 231.523858 
L 209.187706 227.70183 
L 209.552937 227.142502 
L 209.918168 227.962609 
L 210.283398 230.055807 
L 211.01386 235.720966 
L 211.379091 237.360481 
L 211.744322 237.220151 
L 212.109553 235.590369 
L 212.840014 231.765974 
L 213.205245 231.210989 
L 213.570476 232.026289 
L 213.935707 234.098631 
L 214.666168 239.657733 
L 215.031399 241.224993 
L 215.39663 241.027108 
L 216.492323 235.550173 
L 216.857554 235.002759 
L 217.222784 235.816307 
L 217.588015 237.870797 
L 218.318477 243.330574 
L 218.683708 244.829802 
L 219.048939 244.578839 
L 220.144631 239.089386 
L 220.509862 238.552082 
L 220.875093 239.366268 
L 221.240324 241.405269 
L 221.970785 246.771236 
L 222.336016 248.206045 
L 222.701247 247.905858 
L 223.79694 242.412373 
L 224.16217 241.887187 
L 224.527401 242.703894 
L 224.892632 244.729278 
L 225.623094 250.006012 
L 225.988325 251.379538 
L 226.353555 251.033491 
L 227.449248 245.543079 
L 227.814479 245.031607 
L 228.17971 245.852319 
L 228.544941 247.865579 
L 229.275402 253.056925 
L 229.640633 254.371929 
L 230.005864 253.982992 
L 231.101556 248.501657 
L 231.466787 248.005166 
L 231.832018 248.831057 
L 232.197249 250.833385 
L 232.927711 255.942611 
L 233.292942 257.201553 
L 233.658172 256.772374 
L 234.753865 251.305227 
L 235.119096 250.824725 
L 235.484327 251.656718 
L 235.849557 253.649065 
L 236.580019 258.678981 
L 236.94525 259.884073 
L 237.310481 259.417038 
L 238.406173 253.968459 
L 238.771404 253.504742 
L 239.136635 254.343559 
L 239.501866 256.326689 
L 240.232328 261.279733 
L 240.597558 262.432985 
L 240.962789 261.930255 
L 242.058482 256.50402 
L 242.423713 256.057712 
L 242.788943 256.903913 
L 243.519405 261.45191 
L 243.884636 263.756741 
L 244.249867 264.859995 
L 244.615098 264.323546 
L 245.71079 258.922923 
L 246.076021 258.494507 
L 246.441252 259.348519 
L 247.171714 263.860541 
L 247.536944 266.120374 
L 247.902175 267.175327 
L 248.267406 266.606975 
L 249.363099 261.234805 
L 249.728329 260.824647 
L 250.09356 261.686787 
L 250.824022 266.163824 
L 251.189253 268.379735 
L 251.554484 269.387964 
L 251.919715 268.789386 
L 253.015407 263.448146 
L 253.380638 263.056516 
L 253.745869 263.92701 
L 254.47633 268.369886 
L 254.841561 270.542864 
L 255.206792 271.505842 
L 255.572023 270.878593 
L 256.667716 265.57045 
L 257.032946 265.197535 
L 257.398177 266.076536 
L 258.128639 270.485937 
L 258.49387 272.616898 
L 258.859101 273.536007 
L 259.224331 272.881537 
L 260.320024 267.608388 
L 260.685255 267.254307 
L 261.050486 268.141904 
L 261.780947 272.518404 
L 262.146178 274.608203 
L 262.511409 275.484744 
L 262.87664 274.804409 
L 263.972332 269.567917 
L 264.337563 269.232734 
L 264.702794 270.128964 
L 265.433256 274.473041 
L 265.798487 276.522478 
L 266.163717 277.357683 
L 266.528948 276.652756 
L 267.624641 271.45438 
L 267.989872 271.138109 
L 268.355103 272.042966 
L 269.816026 279.15989 
L 270.181257 278.431568 
L 271.276949 273.272589 
L 271.64218 272.975202 
L 272.007411 273.888643 
L 273.103103 280.139949 
L 273.468334 280.895938 
L 273.833565 280.145348 
L 274.929258 275.026889 
L 275.294489 274.748325 
L 275.659719 275.670276 
L 276.755412 281.851966 
L 277.120643 282.569967 
L 277.485874 281.798176 
L 278.581566 276.721221 
L 278.946797 276.461388 
L 279.312028 277.391752 
L 280.40772 283.504712 
L 280.772951 284.185744 
L 281.138182 283.393762 
L 282.233875 278.359171 
L 282.599105 278.117953 
L 282.964336 279.056607 
L 284.060029 285.101661 
L 284.42526 285.7467 
L 284.79049 284.935485 
L 285.886183 279.944007 
L 286.251414 279.721265 
L 286.616645 280.668073 
L 287.712337 286.645987 
L 288.077568 287.255972 
L 288.442799 286.426434 
L 289.538491 281.478719 
L 289.903722 281.274299 
L 290.268953 282.229107 
L 291.364646 288.140603 
L 291.729877 288.716437 
L 292.095107 287.869441 
L 293.1908 282.966052 
L 293.556031 282.779781 
L 293.921262 283.742424 
L 295.016954 289.588183 
L 295.382185 290.130736 
L 295.747416 289.267107 
L 296.843108 284.408526 
L 297.208339 284.24022 
L 297.57357 285.210524 
L 298.669263 290.991192 
L 299.034493 291.501304 
L 299.399724 290.621829 
L 300.495417 285.808464 
L 300.860648 285.65793 
L 301.225878 286.635711 
L 302.321571 292.351905 
L 302.686802 292.830387 
L 303.052033 291.935816 
L 304.147725 287.168015 
L 304.512956 287.035047 
L 304.878187 288.020116 
L 305.973879 293.672428 
L 306.33911 294.120064 
L 306.704341 293.211114 
L 307.434803 289.645278 
L 307.800034 288.489162 
L 308.165264 288.37355 
L 308.530495 289.365712 
L 309.626188 294.954712 
L 309.991419 295.372261 
L 310.35665 294.449618 
L 311.087111 290.908167 
L 311.452342 289.77375 
L 311.817573 289.675276 
L 312.182804 290.674333 
L 313.278496 296.200569 
L 313.643727 296.588767 
L 314.008958 295.653088 
L 314.73942 292.136369 
L 315.104651 291.023487 
L 315.469881 290.941929 
L 315.835112 291.94768 
L 316.930805 297.411688 
L 317.296036 297.771247 
L 317.661266 296.823159 
L 318.391728 293.331482 
L 318.756959 292.239967 
L 319.12219 292.175099 
L 319.487421 293.187342 
L 320.583113 298.58964 
L 320.948344 298.921252 
L 321.313575 297.961357 
L 322.044037 294.494997 
L 322.409267 293.424676 
L 322.774498 293.376268 
L 323.139729 294.394798 
L 324.235422 299.735894 
L 324.600652 300.040229 
L 324.965883 299.069103 
L 325.696345 295.628308 
L 326.061576 294.578998 
L 326.426807 294.54682 
L 326.792038 295.571432 
L 327.88773 300.851822 
L 328.252961 301.129531 
L 328.618192 300.147729 
L 329.348653 296.732714 
L 329.713884 295.70423 
L 330.079115 295.688049 
L 330.444346 296.71854 
L 331.540038 301.938711 
L 331.905269 302.190426 
L 332.2705 301.198478 
L 333.000962 297.809434 
L 333.366193 296.801588 
L 333.731424 296.80117 
L 334.096654 297.837336 
L 335.192347 302.997765 
L 335.557578 303.224102 
L 335.922809 302.222518 
L 336.288039 300.516544 
L 336.288039 300.516544 
" clip-path="url(#pd70d59da2f)" style="fill: none; stroke-dasharray: 5.55,2.4; stroke-dashoffset: 0; stroke: #55a868; stroke-width: 1.5"/>
   </g>
   <g id="patch_3">
    <path d="M 48.66875 316.978125 
L 48.66875 22.318125 
" style="fill: none; stroke: #000000; stroke-width: 0.8; stroke-linejoin: miter; stroke-linecap: square"/>
   </g>
   <g id="patch_4">
    <path d="M 349.984196 316.978125 
L 349.984196 22.318125 
" style="fill: none; stroke: #000000; stroke-width: 0.8; stroke-linejoin: miter; stroke-linecap: square"/>
   </g>
   <g id="patch_5">
    <path d="M 48.66875 316.978125 
L 349.984196 316.978125 
" style="fill: none; stroke: #000000; stroke-width: 0.8; stroke-linejoin: miter; stroke-linecap: square"/>
   </g>
   <g id="patch_6">
    <path d="M 48.66875 22.318125 
L 349.984196 22.318125 
" style="fill: none; stroke: #000000; stroke-width: 0.8; stroke-linejoin: miter; stroke-linecap: square"/>
   </g>
   <g id="text_13">
    <!-- Magnitude spectrum and corrected fit -->
    <g transform="translate(85.592723 16.318125) scale(0.12 -0.12)">
     <defs>
      <path id="DejaVuSans-4d" d="M 628 4666 
L 1569 4666 
L 2759 1491 
L 3956 4666 
L 4897 4666 
L 4897 0 
L 4281 0 
L 4281 4097 
L 3078 897 
L 2444 897 
L 1241 4097 
L 1241 0 
L 628 0 
L 628 4666 
z
" transform="scale(0.015625)"/>
      <path id="DejaVuSans-61" d="M 2194 1759 
Q 1497 1759 1228 1600 
Q 959 1441 959 1056 
Q 959 750 1161 570 
Q 1363 391 1709 391 
Q 2188 391 2477 730 
Q 2766 1069 2766 1631 
L 2766 1759 
L 2194 1759 
z
M 3341 1997 
L 3341 0 
L 2766 0 
L 2766 531 
Q 2569 213 2275 61 
Q 1981 -91 1556 -91 
Q 1019 -91 701 211 
Q 384 513 384 1019 
Q 384 1609 779 1909 
Q 1175 2209 1959 2209 
L 2766 2209 
L 2766 2266 
Q 2766 2663 2505 2880 
Q 2244 3097 1772 3097 
Q 1472 3097 1187 3025 
Q 903 2953 641 2809 
L 641 3341 
Q 956 3463 1253 3523 
Q 1550 3584 1831 3584 
Q 2591 3584 2966 3190 
Q 3341 2797 3341 1997 
z
" transform="scale(0.015625)"/>
      <path id="DejaVuSans-67" d="M 2906 1791 
Q 2906 2416 2648 2759 
Q 2391 3103 1925 3103 
Q 1463 3103 1205 2759 
Q 947 2416 947 1791 
Q 947 1169 1205 825 
Q 1463 481 1925 481 
Q 2391 481 2648 825 
Q 2906 1169 2906 1791 
z
M 3481 434 
Q 3481 -459 3084 -895 
Q 2688 -1331 1869 -1331 
Q 1566 -1331 1297 -1286 
Q 1028 -1241 775 -1147 
L 775 -588 
Q 1028 -725 1275 -790 
Q 1522 -856 1778 -856 
Q 2344 -856 2625 -561 
Q 2906 -266 2906 331 
L 2906 616 
Q 2728 306 2450 153 
Q 2172 0 1784 0 
Q 1141 0 747 490 
Q 353 981 353 1791 
Q 353 2603 747 3093 
Q 1141 3584 1784 3584 
Q 2172 3584 2450 3431 
Q 2728 3278 2906 2969 
L 2906 3500 
L 3481 3500 
L 3481 434 
z
" transform="scale(0.015625)"/>
      <path id="DejaVuSans-69" d="M 603 3500 
L 1178 3500 
L 1178 0 
L 603 0 
L 603 3500 
z
M 603 4863 
L 1178 4863 
L 1178 4134 
L 603 4134 
L 603 4863 
z
" transform="scale(0.015625)"/>
      <path id="DejaVuSans-74" d="M 1172 4494 
L 1172 3500 
L 2356 3500 
L 2356 3053 
L 1172 3053 
L 1172 1153 
Q 1172 725 1289 603 
Q 1406 481 1766 481 
L 2356 481 
L 2356 0 
L 1766 0 
Q 1100 0 847 248 
Q 594 497 594 1153 
L 594 3053 
L 172 3053 
L 172 3500 
L 594 3500 
L 594 4494 
L 1172 4494 
z
" transform="scale(0.015625)"/>
      <path id="DejaVuSans-64" d="M 2906 2969 
L 2906 4863 
L 3481 4863 
L 3481 0 
L 2906 0 
L 2906 525 
Q 2725 213 2448 61 
Q 2172 -91 1784 -91 
Q 1150 -91 751 415 
Q 353 922 353 1747 
Q 353 2572 751 3078 
Q 1150 3584 1784 3584 
Q 2172 3584 2448 3432 
Q 2725 3281 2906 2969 
z
M 947 1747 
Q 947 1113 1208 752 
Q 1469 391 1925 391 
Q 2381 391 2643 752 
Q 2906 1113 2906 1747 
Q 2906 2381 2643 2742 
Q 2381 3103 1925 3103 
Q 1469 3103 1208 2742 
Q 947 2381 947 1747 
z
" transform="scale(0.015625)"/>
      <path id="DejaVuSans-73" d="M 2834 3397 
L 2834 2853 
Q 2591 2978 2328 3040 
Q 2066 3103 1784 3103 
Q 1356 3103 1142 2972 
Q 928 2841 928 2578 
Q 928 2378 1081 2264 
Q 1234 2150 1697 2047 
L 1894 2003 
Q 2506 1872 2764 1633 
Q 3022 1394 3022 966 
Q 3022 478 2636 193 
Q 2250 -91 1575 -91 
Q 1294 -91 989 -36 
Q 684 19 347 128 
L 347 722 
Q 666 556 975 473 
Q 1284 391 1588 391 
Q 1994 391 2212 530 
Q 2431 669 2431 922 
Q 2431 1156 2273 1281 
Q 2116 1406 1581 1522 
L 1381 1569 
Q 847 1681 609 1914 
Q 372 2147 372 2553 
Q 372 3047 722 3315 
Q 1072 3584 1716 3584 
Q 2034 3584 2315 3537 
Q 2597 3491 2834 3397 
z
" transform="scale(0.015625)"/>
      <path id="DejaVuSans-70" d="M 1159 525 
L 1159 -1331 
L 581 -1331 
L 581 3500 
L 1159 3500 
L 1159 2969 
Q 1341 3281 1617 3432 
Q 1894 3584 2278 3584 
Q 2916 3584 3314 3078 
Q 3713 2572 3713 1747 
Q 3713 922 3314 415 
Q 2916 -91 2278 -91 
Q 1894 -91 1617 61 
Q 1341 213 1159 525 
z
M 3116 1747 
Q 3116 2381 2855 2742 
Q 2594 3103 2138 3103 
Q 1681 3103 1420 2742 
Q 1159 2381 1159 1747 
Q 1159 1113 1420 752 
Q 1681 391 2138 391 
Q 2594 391 2855 752 
Q 3116 1113 3116 1747 
z
" transform="scale(0.015625)"/>
      <path id="DejaVuSans-6d" d="M 3328 2828 
Q 3544 3216 3844 3400 
Q 4144 3584 4550 3584 
Q 5097 3584 5394 3201 
Q 5691 2819 5691 2113 
L 5691 0 
L 5113 0 
L 5113 2094 
Q 5113 2597 4934 2840 
Q 4756 3084 4391 3084 
Q 3944 3084 3684 2787 
Q 3425 2491 3425 1978 
L 3425 0 
L 2847 0 
L 2847 2094 
Q 2847 2600 2669 2842 
Q 2491 3084 2119 3084 
Q 1678 3084 1418 2786 
Q 1159 2488 1159 1978 
L 1159 0 
L 581 0 
L 581 3500 
L 1159 3500 
L 1159 2956 
Q 1356 3278 1631 3431 
Q 1906 3584 2284 3584 
Q 2666 3584 2933 3390 
Q 3200 3197 3328 2828 
z
" transform="scale(0.015625)"/>
      <path id="DejaVuSans-6f" d="M 1959 3097 
Q 1497 3097 1228 2736 
Q 959 2375 959 1747 
Q 959 1119 1226 758 
Q 1494 397 1959 397 
Q 2419 397 2687 759 
Q 2956 1122 2956 1747 
Q 2956 2369 2687 2733 
Q 2419 3097 1959 3097 
z
M 1959 3584 
Q 2709 3584 3137 3096 
Q 3566 2609 3566 1747 
Q 3566 888 3137 398 
Q 2709 -91 1959 -91 
Q 1206 -91 779 398 
Q 353 888 353 1747 
Q 353 2609 779 3096 
Q 1206 3584 1959 3584 
z
" transform="scale(0.015625)"/>
      <path id="DejaVuSans-66" d="M 2375 4863 
L 2375 4384 
L 1825 4384 
Q 1516 4384 1395 4259 
Q 1275 4134 1275 3809 
L 1275 3500 
L 2222 3500 
L 2222 3053 
L 1275 3053 
L 1275 0 
L 697 0 
L 697 3053 
L 147 3053 
L 147 3500 
L 697 3500 
L 697 3744 
Q 697 4328 969 4595 
Q 1241 4863 1831 4863 
L 2375 4863 
z
" transform="scale(0.015625)"/>
     </defs>
     <use xlink:href="#DejaVuSans-4d"/>
     <use xlink:href="#DejaVuSans-61" transform="translate(86.279297 0)"/>
     <use xlink:href="#DejaVuSans-67" transform="translate(147.558594 0)"/>
     <use xlink:href="#DejaVuSans-6e" transform="translate(211.035156 0)"/>
     <use xlink:href="#DejaVuSans-69" transform="translate(274.414062 0)"/>
     <use xlink:href="#DejaVuSans-74" transform="translate(302.197266 0)"/>
     <use xlink:href="#DejaVuSans-75" transform="translate(341.40625 0)"/>
     <use xlink:href="#DejaVuSans-64" transform="translate(404.785156 0)"/>
     <use xlink:href="#DejaVuSans-65" transform="translate(468.261719 0)"/>
     <use xlink:href="#DejaVuSans-20" transform="translate(529.785156 0)"/>
     <use xlink:href="#DejaVuSans-73" transform="translate(561.572266 0)"/>
     <use xlink:href="#DejaVuSans-70" transform="translate(613.671875 0)"/>
     <use xlink:href="#DejaVuSans-65" transform="translate(677.148438 0)"/>
     <use xlink:href="#DejaVuSans-63" transform="translate(738.671875 0)"/>
     <use xlink:href="#DejaVuSans-74" transform="translate(793.652344 0)"/>
     <use xlink:href="#DejaVuSans-72" transform="translate(832.861328 0)"/>
     <use xlink:href="#DejaVuSans-75" transform="translate(873.974609 0)"/>
     <use xlink:href="#DejaVuSans-6d" transform="translate(937.353516 0)"/>
     <use xlink:href="#DejaVuSans-20" transform="translate(1034.765625 0)"/>
     <use xlink:href="#DejaVuSans-61" transform="translate(1066.552734 0)"/>
     <use xlink:href="#DejaVuSans-6e" transform="translate(1127.832031 0)"/>
     <use xlink:href="#DejaVuSans-64" transform="translate(1191.210938 0)"/>
     <use xlink:href="#DejaVuSans-20" transform="translate(1254.6875 0)"/>
     <use xlink:href="#DejaVuSans-63" transform="translate(1286.474609 0)"/>
     <use xlink:href="#DejaVuSans-6f" transform="translate(1341.455078 0)"/>
     <use xlink:href="#DejaVuSans-72" transform="translate(1402.636719 0)"/>
     <use xlink:href="#DejaVuSans-72" transform="translate(1442 0)"/>
     <use xlink:href="#DejaVuSans-65" transform="translate(1480.863281 0)"/>
     <use xlink:href="#DejaVuSans-63" transform="translate(1542.386719 0)"/>
     <use xlink:href="#DejaVuSans-74" transform="translate(1597.367188 0)"/>
     <use xlink:href="#DejaVuSans-65" transform="translate(1636.576172 0)"/>
     <use xlink:href="#DejaVuSans-64" transform="translate(1698.099609 0)"/>
     <use xlink:href="#DejaVuSans-20" transform="translate(1761.576172 0)"/>
     <use xlink:href="#DejaVuSans-66" transform="translate(1793.363281 0)"/>
     <use xlink:href="#DejaVuSans-69" transform="translate(1828.568359 0)"/>
     <use xlink:href="#DejaVuSans-74" transform="translate(1856.351562 0)"/>
    </g>
   </g>
   <g id="legend_1">
    <g id="patch_7">
     <path d="M 227.670134 59.99625 
L 342.984196 59.99625 
Q 344.984196 59.99625 344.984196 57.99625 
L 344.984196 29.318125 
Q 344.984196 27.318125 342.984196 27.318125 
L 227.670134 27.318125 
Q 225.670134 27.318125 225.670134 29.318125 
L 225.670134 57.99625 
Q 225.670134 59.99625 227.670134 59.99625 
z
" style="fill: #ffffff; opacity: 0.8; stroke: #cccccc; stroke-linejoin: miter"/>
    </g>
    <g id="line2d_41">
     <path d="M 229.670134 35.460313 
L 239.670134 35.460313 
L 249.670134 35.460313 
" style="fill: none; stroke: #4c72b0; stroke-opacity: 0.8; stroke-width: 1.5; stroke-linecap: square"/>
    </g>
    <g id="text_14">
     <!-- |DFT| -->
     <g transform="translate(257.670134 38.960313) scale(0.1 -0.1)">
      <defs>
       <path id="DejaVuSans-44" d="M 1259 4147 
L 1259 519 
L 2022 519 
Q 2988 519 3436 956 
Q 3884 1394 3884 2338 
Q 3884 3275 3436 3711 
Q 2988 4147 2022 4147 
L 1259 4147 
z
M 628 4666 
L 1925 4666 
Q 3281 4666 3915 4102 
Q 4550 3538 4550 2338 
Q 4550 1131 3912 565 
Q 3275 0 1925 0 
L 628 0 
L 628 4666 
z
" transform="scale(0.015625)"/>
      </defs>
      <use xlink:href="#DejaVuSans-7c"/>
      <use xlink:href="#DejaVuSans-44" transform="translate(33.691406 0)"/>
      <use xlink:href="#DejaVuSans-46" transform="translate(110.693359 0)"/>
      <use xlink:href="#DejaVuSans-54" transform="translate(166.462891 0)"/>
      <use xlink:href="#DejaVuSans-7c" transform="translate(227.546875 0)"/>
     </g>
    </g>
    <g id="line2d_42">
     <path d="M 229.670134 50.416563 
L 239.670134 50.416563 
L 249.670134 50.416563 
" style="fill: none; stroke-dasharray: 5.55,2.4; stroke-dashoffset: 0; stroke: #55a868; stroke-width: 1.5"/>
    </g>
    <g id="text_15">
     <!-- Corrected model -->
     <g transform="translate(257.670134 53.916563) scale(0.1 -0.1)">
      <defs>
       <path id="DejaVuSans-6c" d="M 603 4863 
L 1178 4863 
L 1178 0 
L 603 0 
L 603 4863 
z
" transform="scale(0.015625)"/>
      </defs>
      <use xlink:href="#DejaVuSans-43"/>
      <use xlink:href="#DejaVuSans-6f" transform="translate(69.824219 0)"/>
      <use xlink:href="#DejaVuSans-72" transform="translate(131.005859 0)"/>
      <use xlink:href="#DejaVuSans-72" transform="translate(170.369141 0)"/>
      <use xlink:href="#DejaVuSans-65" transform="translate(209.232422 0)"/>
      <use xlink:href="#DejaVuSans-63" transform="translate(270.755859 0)"/>
      <use xlink:href="#DejaVuSans-74" transform="translate(325.736328 0)"/>
      <use xlink:href="#DejaVuSans-65" transform="translate(364.945312 0)"/>
      <use xlink:href="#DejaVuSans-64" transform="translate(426.46875 0)"/>
      <use xlink:href="#DejaVuSans-20" transform="translate(489.945312 0)"/>
      <use xlink:href="#DejaVuSans-6d" transform="translate(521.732422 0)"/>
      <use xlink:href="#DejaVuSans-6f" transform="translate(619.144531 0)"/>
      <use xlink:href="#DejaVuSans-64" transform="translate(680.326172 0)"/>
      <use xlink:href="#DejaVuSans-65" transform="translate(743.802734 0)"/>
      <use xlink:href="#DejaVuSans-6c" transform="translate(805.326172 0)"/>
     </g>
    </g>
   </g>
  </g>
  <g id="axes_2">
   <g id="patch_8">
    <path d="M 403.38125 316.978125 
L 704.696696 316.978125 
L 704.696696 22.318125 
L 403.38125 22.318125 
z
" style="fill: #ffffff"/>
   </g>
   <g id="matplotlib.axis_3">
    <g id="xtick_9">
     <g id="line2d_43">
      <path d="M 435.338949 316.978125 
L 435.338949 22.318125 
" clip-path="url(#p1f44b18c84)" style="fill: none; stroke: #b0b0b0; stroke-opacity: 0.3; stroke-width: 0.8; stroke-linecap: square"/>
     </g>
     <g id="line2d_44">
      <g>
       <use xlink:href="#m2f1de36288" x="435.338949" y="316.978125" style="stroke: #000000; stroke-width: 0.8"/>
      </g>
     </g>
     <g id="text_16">
      <!-- 6 -->
      <g transform="translate(432.157699 328.076563) scale(0.1 -0.1)">
       <use xlink:href="#DejaVuSans-36"/>
      </g>
     </g>
    </g>
    <g id="xtick_10">
     <g id="line2d_45">
      <path d="M 471.862033 316.978125 
L 471.862033 22.318125 
" clip-path="url(#p1f44b18c84)" style="fill: none; stroke: #b0b0b0; stroke-opacity: 0.3; stroke-width: 0.8; stroke-linecap: square"/>
     </g>
     <g id="line2d_46">
      <g>
       <use xlink:href="#m2f1de36288" x="471.862033" y="316.978125" style="stroke: #000000; stroke-width: 0.8"/>
      </g>
     </g>
     <g id="text_17">
      <!-- 8 -->
      <g transform="translate(468.680783 328.076563) scale(0.1 -0.1)">
       <use xlink:href="#DejaVuSans-38"/>
      </g>
     </g>
    </g>
    <g id="xtick_11">
     <g id="line2d_47">
      <path d="M 508.385118 316.978125 
L 508.385118 22.318125 
" clip-path="url(#p1f44b18c84)" style="fill: none; stroke: #b0b0b0; stroke-opacity: 0.3; stroke-width: 0.8; stroke-linecap: square"/>
     </g>
     <g id="line2d_48">
      <g>
       <use xlink:href="#m2f1de36288" x="508.385118" y="316.978125" style="stroke: #000000; stroke-width: 0.8"/>
      </g>
     </g>
     <g id="text_18">
      <!-- 10 -->
      <g transform="translate(502.022618 328.076563) scale(0.1 -0.1)">
       <use xlink:href="#DejaVuSans-31"/>
       <use xlink:href="#DejaVuSans-30" transform="translate(63.623047 0)"/>
      </g>
     </g>
    </g>
    <g id="xtick_12">
     <g id="line2d_49">
      <path d="M 544.908202 316.978125 
L 544.908202 22.318125 
" clip-path="url(#p1f44b18c84)" style="fill: none; stroke: #b0b0b0; stroke-opacity: 0.3; stroke-width: 0.8; stroke-linecap: square"/>
     </g>
     <g id="line2d_50">
      <g>
       <use xlink:href="#m2f1de36288" x="544.908202" y="316.978125" style="stroke: #000000; stroke-width: 0.8"/>
      </g>
     </g>
     <g id="text_19">
      <!-- 12 -->
      <g transform="translate(538.545702 328.076563) scale(0.1 -0.1)">
       <use xlink:href="#DejaVuSans-31"/>
       <use xlink:href="#DejaVuSans-32" transform="translate(63.623047 0)"/>
      </g>
     </g>
    </g>
    <g id="xtick_13">
     <g id="line2d_51">
      <path d="M 581.431286 316.978125 
L 581.431286 22.318125 
" clip-path="url(#p1f44b18c84)" style="fill: none; stroke: #b0b0b0; stroke-opacity: 0.3; stroke-width: 0.8; stroke-linecap: square"/>
     </g>
     <g id="line2d_52">
      <g>
       <use xlink:href="#m2f1de36288" x="581.431286" y="316.978125" style="stroke: #000000; stroke-width: 0.8"/>
      </g>
     </g>
     <g id="text_20">
      <!-- 14 -->
      <g transform="translate(575.068786 328.076563) scale(0.1 -0.1)">
       <use xlink:href="#DejaVuSans-31"/>
       <use xlink:href="#DejaVuSans-34" transform="translate(63.623047 0)"/>
      </g>
     </g>
    </g>
    <g id="xtick_14">
     <g id="line2d_53">
      <path d="M 617.954371 316.978125 
L 617.954371 22.318125 
" clip-path="url(#p1f44b18c84)" style="fill: none; stroke: #b0b0b0; stroke-opacity: 0.3; stroke-width: 0.8; stroke-linecap: square"/>
     </g>
     <g id="line2d_54">
      <g>
       <use xlink:href="#m2f1de36288" x="617.954371" y="316.978125" style="stroke: #000000; stroke-width: 0.8"/>
      </g>
     </g>
     <g id="text_21">
      <!-- 16 -->
      <g transform="translate(611.591871 328.076563) scale(0.1 -0.1)">
       <use xlink:href="#DejaVuSans-31"/>
       <use xlink:href="#DejaVuSans-36" transform="translate(63.623047 0)"/>
      </g>
     </g>
    </g>
    <g id="xtick_15">
     <g id="line2d_55">
      <path d="M 654.477455 316.978125 
L 654.477455 22.318125 
" clip-path="url(#p1f44b18c84)" style="fill: none; stroke: #b0b0b0; stroke-opacity: 0.3; stroke-width: 0.8; stroke-linecap: square"/>
     </g>
     <g id="line2d_56">
      <g>
       <use xlink:href="#m2f1de36288" x="654.477455" y="316.978125" style="stroke: #000000; stroke-width: 0.8"/>
      </g>
     </g>
     <g id="text_22">
      <!-- 18 -->
      <g transform="translate(648.114955 328.076563) scale(0.1 -0.1)">
       <use xlink:href="#DejaVuSans-31"/>
       <use xlink:href="#DejaVuSans-38" transform="translate(63.623047 0)"/>
      </g>
     </g>
    </g>
    <g id="xtick_16">
     <g id="line2d_57">
      <path d="M 691.000539 316.978125 
L 691.000539 22.318125 
" clip-path="url(#p1f44b18c84)" style="fill: none; stroke: #b0b0b0; stroke-opacity: 0.3; stroke-width: 0.8; stroke-linecap: square"/>
     </g>
     <g id="line2d_58">
      <g>
       <use xlink:href="#m2f1de36288" x="691.000539" y="316.978125" style="stroke: #000000; stroke-width: 0.8"/>
      </g>
     </g>
     <g id="text_23">
      <!-- 20 -->
      <g transform="translate(684.638039 328.076563) scale(0.1 -0.1)">
       <use xlink:href="#DejaVuSans-32"/>
       <use xlink:href="#DejaVuSans-30" transform="translate(63.623047 0)"/>
      </g>
     </g>
    </g>
    <g id="text_24">
     <!-- Frequency (Hz) -->
     <g transform="translate(516.334286 341.754687) scale(0.1 -0.1)">
      <use xlink:href="#DejaVuSans-46"/>
      <use xlink:href="#DejaVuSans-72" transform="translate(50.269531 0)"/>
      <use xlink:href="#DejaVuSans-65" transform="translate(89.132812 0)"/>
      <use xlink:href="#DejaVuSans-71" transform="translate(150.65625 0)"/>
      <use xlink:href="#DejaVuSans-75" transform="translate(214.132812 0)"/>
      <use xlink:href="#DejaVuSans-65" transform="translate(277.511719 0)"/>
      <use xlink:href="#DejaVuSans-6e" transform="translate(339.035156 0)"/>
      <use xlink:href="#DejaVuSans-63" transform="translate(402.414062 0)"/>
      <use xlink:href="#DejaVuSans-79" transform="translate(457.394531 0)"/>
      <use xlink:href="#DejaVuSans-20" transform="translate(516.574219 0)"/>
      <use xlink:href="#DejaVuSans-28" transform="translate(548.361328 0)"/>
      <use xlink:href="#DejaVuSans-48" transform="translate(587.375 0)"/>
      <use xlink:href="#DejaVuSans-7a" transform="translate(662.570312 0)"/>
      <use xlink:href="#DejaVuSans-29" transform="translate(715.060547 0)"/>
     </g>
    </g>
   </g>
   <g id="matplotlib.axis_4">
    <g id="ytick_21">
     <g id="line2d_59">
      <path d="M 403.38125 193.560684 
L 704.696696 193.560684 
" clip-path="url(#p1f44b18c84)" style="fill: none; stroke: #b0b0b0; stroke-opacity: 0.3; stroke-width: 0.8; stroke-linecap: square"/>
     </g>
     <g id="line2d_60">
      <g>
       <use xlink:href="#m17f85c0a8f" x="403.38125" y="193.560684" style="stroke: #000000; stroke-width: 0.8"/>
      </g>
     </g>
     <g id="text_25">
      <!-- $\mathdefault{10^{-4}}$ -->
      <g transform="translate(376.38125 197.359903) scale(0.1 -0.1)">
       <use xlink:href="#DejaVuSans-31" transform="translate(0 0.684375)"/>
       <use xlink:href="#DejaVuSans-30" transform="translate(63.623047 0.684375)"/>
       <use xlink:href="#DejaVuSans-2212" transform="translate(128.203125 38.965625) scale(0.7)"/>
       <use xlink:href="#DejaVuSans-34" transform="translate(186.855469 38.965625) scale(0.7)"/>
      </g>
     </g>
    </g>
    <g id="ytick_22">
     <g id="line2d_61">
      <g>
       <use xlink:href="#md47bf1b90d" x="403.38125" y="309.727481" style="stroke: #000000; stroke-width: 0.6"/>
      </g>
     </g>
    </g>
    <g id="ytick_23">
     <g id="line2d_62">
      <g>
       <use xlink:href="#md47bf1b90d" x="403.38125" y="281.437474" style="stroke: #000000; stroke-width: 0.6"/>
      </g>
     </g>
    </g>
    <g id="ytick_24">
     <g id="line2d_63">
      <g>
       <use xlink:href="#md47bf1b90d" x="403.38125" y="258.322855" style="stroke: #000000; stroke-width: 0.6"/>
      </g>
     </g>
    </g>
    <g id="ytick_25">
     <g id="line2d_64">
      <g>
       <use xlink:href="#md47bf1b90d" x="403.38125" y="238.779723" style="stroke: #000000; stroke-width: 0.6"/>
      </g>
     </g>
    </g>
    <g id="ytick_26">
     <g id="line2d_65">
      <g>
       <use xlink:href="#md47bf1b90d" x="403.38125" y="221.850692" style="stroke: #000000; stroke-width: 0.6"/>
      </g>
     </g>
    </g>
    <g id="ytick_27">
     <g id="line2d_66">
      <g>
       <use xlink:href="#md47bf1b90d" x="403.38125" y="206.918228" style="stroke: #000000; stroke-width: 0.6"/>
      </g>
     </g>
    </g>
    <g id="ytick_28">
     <g id="line2d_67">
      <g>
       <use xlink:href="#md47bf1b90d" x="403.38125" y="105.683894" style="stroke: #000000; stroke-width: 0.6"/>
      </g>
     </g>
    </g>
    <g id="ytick_29">
     <g id="line2d_68">
      <g>
       <use xlink:href="#md47bf1b90d" x="403.38125" y="54.279268" style="stroke: #000000; stroke-width: 0.6"/>
      </g>
     </g>
    </g>
    <g id="text_26">
     <!-- |Residual| (V/√Hz) -->
     <g transform="translate(370.023438 214.298125) rotate(-90) scale(0.1 -0.1)">
      <defs>
       <path id="DejaVuSans-52" d="M 2841 2188 
Q 3044 2119 3236 1894 
Q 3428 1669 3622 1275 
L 4263 0 
L 3584 0 
L 2988 1197 
Q 2756 1666 2539 1819 
Q 2322 1972 1947 1972 
L 1259 1972 
L 1259 0 
L 628 0 
L 628 4666 
L 2053 4666 
Q 2853 4666 3247 4331 
Q 3641 3997 3641 3322 
Q 3641 2881 3436 2590 
Q 3231 2300 2841 2188 
z
M 1259 4147 
L 1259 2491 
L 2053 2491 
Q 2509 2491 2742 2702 
Q 2975 2913 2975 3322 
Q 2975 3731 2742 3939 
Q 2509 4147 2053 4147 
L 1259 4147 
z
" transform="scale(0.015625)"/>
      </defs>
      <use xlink:href="#DejaVuSans-7c"/>
      <use xlink:href="#DejaVuSans-52" transform="translate(33.691406 0)"/>
      <use xlink:href="#DejaVuSans-65" transform="translate(98.673828 0)"/>
      <use xlink:href="#DejaVuSans-73" transform="translate(160.197266 0)"/>
      <use xlink:href="#DejaVuSans-69" transform="translate(212.296875 0)"/>
      <use xlink:href="#DejaVuSans-64" transform="translate(240.080078 0)"/>
      <use xlink:href="#DejaVuSans-75" transform="translate(303.556641 0)"/>
      <use xlink:href="#DejaVuSans-61" transform="translate(366.935547 0)"/>
      <use xlink:href="#DejaVuSans-6c" transform="translate(428.214844 0)"/>
      <use xlink:href="#DejaVuSans-7c" transform="translate(455.998047 0)"/>
      <use xlink:href="#DejaVuSans-20" transform="translate(489.689453 0)"/>
      <use xlink:href="#DejaVuSans-28" transform="translate(521.476562 0)"/>
      <use xlink:href="#DejaVuSans-56" transform="translate(560.490234 0)"/>
      <use xlink:href="#DejaVuSans-2f" transform="translate(628.898438 0)"/>
      <use xlink:href="#DejaVuSans-221a" transform="translate(662.589844 0)"/>
      <use xlink:href="#DejaVuSans-48" transform="translate(726.310547 0)"/>
      <use xlink:href="#DejaVuSans-7a" transform="translate(801.505859 0)"/>
      <use xlink:href="#DejaVuSans-29" transform="translate(853.996094 0)"/>
     </g>
    </g>
   </g>
   <g id="line2d_69">
    <path d="M 417.077407 225.78655 
L 417.442637 236.464204 
L 417.807868 242.218344 
L 418.173099 239.134281 
L 419.268792 208.872661 
L 419.634023 204.741022 
L 419.999253 205.894557 
L 420.364484 212.09032 
L 421.094946 232.615538 
L 421.460177 238.706153 
L 421.825408 236.251785 
L 422.9211 206.499415 
L 423.286331 202.096071 
L 423.651562 202.894572 
L 424.016793 208.704538 
L 425.112485 235.170024 
L 425.477716 233.311447 
L 426.938639 199.447188 
L 427.30387 199.90685 
L 427.669101 205.344924 
L 428.764794 231.614895 
L 429.130024 230.318416 
L 429.860486 210.783328 
L 430.225717 201.68687 
L 430.590948 196.791921 
L 430.956179 196.928177 
L 431.32141 202.00788 
L 432.417102 228.044135 
L 432.782333 227.276649 
L 433.147564 219.212154 
L 433.878025 199.243973 
L 434.243256 194.127083 
L 434.608487 193.954595 
L 434.973718 198.689016 
L 436.069411 224.459553 
L 436.434641 224.188837 
L 436.799872 216.592102 
L 437.530334 196.77294 
L 437.895565 191.448644 
L 438.260796 190.981288 
L 438.626026 195.383052 
L 439.721719 220.861376 
L 440.08695 221.056306 
L 440.452181 213.918038 
L 441.182642 194.269797 
L 441.547873 188.751579 
L 441.913104 188.00244 
L 442.278335 192.083676 
L 443.374027 217.248186 
L 443.739258 217.878897 
L 444.104489 211.1883 
L 444.834951 191.729405 
L 445.200182 186.029678 
L 445.565412 185.011025 
L 445.930643 188.783339 
L 447.026336 213.616783 
L 447.391567 214.654777 
L 447.756798 208.399784 
L 448.487259 189.145214 
L 448.85249 183.275277 
L 449.217721 181.998533 
L 449.582952 185.472977 
L 450.678644 209.961977 
L 451.043875 211.380201 
L 451.409106 205.547658 
L 452.139568 186.508926 
L 452.504798 180.478895 
L 452.870029 178.954596 
L 453.23526 182.141631 
L 453.965722 198.6198 
L 454.330953 206.276265 
L 454.696184 208.049152 
L 455.061414 202.624974 
L 455.791876 183.810035 
L 456.157107 177.628753 
L 456.522338 175.866465 
L 456.887569 178.775908 
L 457.252799 185.719538 
L 457.983261 202.549355 
L 458.348492 204.652847 
L 458.713723 199.622132 
L 459.444185 181.035199 
L 459.809415 174.710087 
L 460.174646 172.718301 
L 460.539877 175.359245 
L 460.905108 182.045533 
L 461.63557 198.767465 
L 462.0008 201.179036 
L 462.366031 196.52613 
L 463.461724 171.704203 
L 463.826955 169.490163 
L 464.192185 171.870857 
L 464.557416 178.307264 
L 465.287878 194.912307 
L 465.653109 197.610972 
L 466.01834 193.319501 
L 467.114032 168.587122 
L 467.479263 166.156566 
L 467.844494 168.284228 
L 468.209725 174.477844 
L 468.940186 190.959584 
L 469.305417 193.92593 
L 469.670648 189.978767 
L 470.766341 165.327607 
L 471.131572 162.684367 
L 471.496802 164.564888 
L 471.862033 170.522241 
L 472.592495 186.876733 
L 472.957726 190.09297 
L 473.322957 186.472153 
L 474.418649 161.884212 
L 474.78388 159.029595 
L 475.149111 160.667061 
L 475.514342 166.393805 
L 476.244803 182.619461 
L 476.610034 186.069534 
L 476.975265 182.756104 
L 478.070958 158.200768 
L 478.436188 155.132559 
L 478.801419 156.52846 
L 479.16665 162.028839 
L 479.897112 178.126282 
L 480.262343 181.796069 
L 480.627573 178.769816 
L 481.723266 154.19921 
L 482.088497 150.910029 
L 482.453728 152.061903 
L 482.818959 157.337796 
L 483.54942 173.309559 
L 483.914651 177.187247 
L 484.279882 174.426355 
L 485.375574 149.767769 
L 485.740805 146.242253 
L 486.106036 147.141284 
L 486.471267 152.190419 
L 487.201729 168.040219 
L 487.566959 172.116998 
L 487.93219 169.597584 
L 489.027883 144.740631 
L 489.393114 140.950351 
L 489.758345 141.576871 
L 490.123575 146.389318 
L 490.854037 162.120223 
L 491.219268 166.391649 
L 491.584499 164.087297 
L 493.045422 134.754661 
L 493.410653 135.069203 
L 493.775884 139.620051 
L 494.506346 155.229718 
L 494.871576 159.698539 
L 495.236807 157.580344 
L 496.697731 127.192504 
L 497.062961 127.116543 
L 497.428192 131.349303 
L 498.523885 151.499789 
L 498.889116 149.539133 
L 499.619577 131.296739 
L 499.984808 122.55157 
L 500.350039 117.441438 
L 500.71527 116.811365 
L 501.080501 120.596209 
L 502.176193 140.790108 
L 502.541424 138.974935 
L 502.906655 130.65506 
L 503.637117 109.995353 
L 504.002347 103.898032 
L 504.367578 102.338912 
L 504.732809 105.351594 
L 505.828502 125.476183 
L 506.193733 123.906522 
L 506.558963 115.013024 
L 507.289425 91.132959 
L 507.654656 83.067776 
L 508.019887 79.577801 
L 508.385118 80.87724 
L 508.750348 86.387275 
L 509.48081 100.662464 
L 509.846041 100.376161 
L 510.211272 91.096649 
L 511.306964 47.56202 
L 511.672195 39.077447 
L 512.037426 35.711761 
L 512.402657 37.954312 
L 512.767888 46.421791 
L 513.133119 62.164584 
L 513.498349 87.141328 
L 513.86358 125.31206 
L 514.228811 185.636003 
L 514.594042 281.087536 
L 514.959273 257.871778 
L 515.324504 176.251704 
L 515.689734 128.698696 
L 516.054965 100.139434 
L 516.420196 83.378106 
L 516.785427 75.134944 
L 517.150658 73.754391 
L 517.515889 78.371257 
L 517.88112 88.569828 
L 518.24635 104.22933 
L 518.976812 152.413397 
L 520.437735 285.421815 
L 520.802966 288.230003 
L 521.898659 257.986588 
L 522.26389 253.753613 
L 522.62912 253.815038 
L 522.994351 258.347297 
L 523.359582 267.464399 
L 524.455275 303.584489 
L 524.820506 299.18309 
L 526.281429 239.052136 
L 526.64666 234.790322 
L 527.011891 236.036567 
L 527.377121 241.652602 
L 528.107583 254.429493 
L 528.472814 253.108338 
L 528.838045 244.724473 
L 529.568507 222.391247 
L 529.933737 215.21473 
L 530.298968 212.488647 
L 530.664199 214.134854 
L 531.759892 229.360047 
L 532.125122 228.193059 
L 532.490353 221.688686 
L 533.220815 204.421645 
L 533.586046 199.104751 
L 533.951277 197.617413 
L 534.316507 199.90105 
L 535.4122 214.235813 
L 535.777431 213.007206 
L 536.142662 207.177153 
L 536.873123 192.206182 
L 537.238354 187.874332 
L 537.603585 187.103006 
L 537.968816 189.802853 
L 539.064508 203.826527 
L 539.429739 202.560376 
L 539.79497 197.058467 
L 540.525432 183.288566 
L 540.890663 179.502988 
L 541.255894 179.142139 
L 541.621124 182.090516 
L 542.351586 192.877984 
L 542.716817 196.003131 
L 543.082048 194.743042 
L 543.447279 189.446229 
L 544.17774 176.37584 
L 544.542971 172.904808 
L 544.908202 172.778606 
L 545.273433 175.867309 
L 546.003894 186.665448 
L 546.369125 189.750457 
L 546.734356 188.532485 
L 547.099587 183.391505 
L 547.830049 170.762963 
L 548.19528 167.474576 
L 548.56051 167.476859 
L 548.925741 170.635647 
L 549.656203 181.436595 
L 550.021434 184.525104 
L 550.386665 183.376066 
L 550.751895 178.370146 
L 551.482357 166.039643 
L 551.847588 162.853933 
L 552.212819 162.917388 
L 552.57805 166.099288 
L 553.308511 176.891487 
L 553.673742 180.010351 
L 554.038973 178.949706 
L 554.404204 174.070216 
L 555.134666 161.952569 
L 555.499896 158.818607 
L 555.865127 158.898756 
L 556.230358 162.071374 
L 556.96082 172.843093 
L 557.326051 176.009232 
L 557.691281 175.051 
L 558.056512 170.294808 
L 558.786974 158.337382 
L 559.152205 155.221485 
L 559.517436 155.287959 
L 559.882667 158.428348 
L 560.613128 169.168733 
L 560.978359 172.392848 
L 561.34359 171.547074 
L 561.708821 166.913595 
L 562.439282 155.082932 
L 562.804513 151.962194 
L 563.169744 151.993719 
L 563.534975 155.085257 
L 564.265437 165.784569 
L 564.630668 169.073297 
L 564.995898 168.347104 
L 565.361129 163.83691 
L 566.091591 152.111404 
L 566.456822 148.969929 
L 566.822053 148.951316 
L 567.187283 151.981749 
L 568.282976 165.988565 
L 568.648207 165.386901 
L 569.013438 161.001042 
L 569.743899 149.366689 
L 570.10913 146.193311 
L 570.474361 146.113566 
L 570.839592 149.073736 
L 571.935284 163.093635 
L 572.300515 162.619808 
L 572.665746 158.359468 
L 573.396208 146.807304 
L 573.761439 143.594133 
L 574.126669 143.445236 
L 574.4919 146.328231 
L 575.587593 160.355024 
L 575.952824 160.01109 
L 576.318055 155.877414 
L 577.048516 144.401897 
L 577.413747 141.143376 
L 577.778978 140.919459 
L 578.144209 143.720029 
L 579.239901 157.747295 
L 579.605132 157.534345 
L 579.970363 153.528358 
L 580.700825 142.126317 
L 581.066055 138.818581 
L 581.431286 138.515368 
L 581.796517 141.229517 
L 582.89221 155.250766 
L 583.257441 155.169138 
L 583.622671 151.291706 
L 584.353133 139.961642 
L 584.718364 136.602078 
L 585.083595 136.216486 
L 585.448826 138.841179 
L 586.544518 152.849961 
L 586.909749 152.899397 
L 587.27498 149.151214 
L 588.005442 137.892823 
L 588.370672 134.479758 
L 588.735903 134.009614 
L 589.101134 136.542558 
L 590.196827 150.532527 
L 590.562057 150.712304 
L 590.927288 147.093891 
L 591.65775 135.907728 
L 592.022981 132.440201 
L 592.388212 131.884036 
L 592.753442 134.323522 
L 593.849135 148.28848 
L 594.214366 148.5975 
L 594.579597 145.109215 
L 595.310058 133.996455 
L 595.675289 130.474054 
L 596.04052 129.830947 
L 596.405751 132.175731 
L 597.501443 146.109651 
L 597.866674 146.54652 
L 598.231905 143.188564 
L 598.962367 132.150834 
L 599.327598 128.573573 
L 599.692829 127.843032 
L 600.058059 130.092242 
L 601.153752 143.989288 
L 601.518983 144.55237 
L 601.884214 141.324803 
L 602.614675 130.364052 
L 602.979906 126.732279 
L 603.345137 125.914157 
L 603.710368 128.067218 
L 604.80606 141.92175 
L 605.171291 142.609221 
L 605.536522 139.511969 
L 606.266984 128.630377 
L 606.632215 124.944702 
L 606.997445 124.039123 
L 607.362676 126.095706 
L 608.458369 139.902283 
L 608.8236 140.712165 
L 609.18883 137.745035 
L 610.284523 123.206183 
L 610.649754 122.213492 
L 611.014985 124.173467 
L 612.110677 137.926849 
L 612.475908 138.857043 
L 612.841139 136.01973 
L 613.936831 121.512725 
L 614.302062 120.433445 
L 614.667293 122.296844 
L 615.762986 135.991989 
L 616.128216 137.040298 
L 616.493447 134.332397 
L 617.58914 119.860869 
L 617.954371 118.695666 
L 618.319602 120.462659 
L 619.415294 134.094717 
L 619.780525 135.258872 
L 620.145756 132.679884 
L 621.241448 118.247606 
L 621.606679 116.997263 
L 621.97191 118.668131 
L 622.702372 127.968149 
L 623.067603 132.232441 
L 623.432833 133.510111 
L 623.798064 131.059455 
L 624.893757 116.670297 
L 625.258988 115.335693 
L 625.624218 116.910811 
L 626.35468 126.09711 
L 626.719911 130.402895 
L 627.085142 131.791708 
L 627.450373 129.468725 
L 628.546065 115.126617 
L 628.911296 113.708706 
L 629.276527 115.188527 
L 630.006989 124.259347 
L 630.372219 128.604084 
L 630.73745 130.101635 
L 631.102681 127.905596 
L 632.198374 113.614502 
L 632.563604 112.114305 
L 632.928835 113.499346 
L 633.294066 117.35383 
L 634.024528 126.834245 
L 634.389759 128.438107 
L 634.75499 126.36822 
L 635.850682 112.132115 
L 636.215913 110.550703 
L 636.581144 111.841537 
L 636.946375 115.614835 
L 637.676836 125.091812 
L 638.042067 126.799544 
L 638.407298 124.854955 
L 639.50299 110.677809 
L 639.868221 109.016293 
L 640.233452 110.21354 
L 640.598683 113.90552 
L 641.329145 123.375381 
L 641.694376 125.184537 
L 642.059606 123.364341 
L 643.155299 109.2501 
L 643.52053 107.509627 
L 643.885761 108.613944 
L 644.250991 112.224522 
L 644.981453 121.683694 
L 645.346684 123.591826 
L 645.711915 121.895068 
L 646.807607 107.847649 
L 647.172838 106.029392 
L 647.538069 107.041468 
L 647.9033 110.570601 
L 648.633762 120.015616 
L 648.998992 122.020281 
L 649.364223 120.445959 
L 650.459916 106.469238 
L 650.825147 104.574393 
L 651.190377 105.494944 
L 651.555608 108.942627 
L 652.28607 118.370119 
L 652.651301 120.468882 
L 653.016532 119.015954 
L 654.112224 105.113758 
L 654.477455 103.143536 
L 654.842686 103.973302 
L 655.207917 107.339562 
L 655.938378 116.746267 
L 656.303609 118.936705 
L 656.66884 117.60409 
L 658.129764 101.735819 
L 658.494994 102.475559 
L 658.860225 105.760454 
L 659.590687 115.143205 
L 659.955918 117.42291 
L 660.321149 116.209492 
L 661.782072 100.35032 
L 662.147303 101.000808 
L 662.512534 104.204422 
L 663.242995 113.56015 
L 663.608226 115.926733 
L 663.973457 114.831363 
L 664.703919 105.551369 
L 665.06915 101.175147 
L 665.43438 98.986186 
L 665.799611 99.54821 
L 666.164842 102.670654 
L 666.895304 111.996382 
L 667.260535 114.447472 
L 667.625765 113.468972 
L 668.356227 104.308639 
L 668.721458 99.902014 
L 669.086689 97.642629 
L 669.45192 98.116986 
L 669.817151 101.158392 
L 670.547612 110.451236 
L 670.912843 112.984486 
L 671.278074 112.12165 
L 671.643305 108.234544 
L 672.373766 98.647472 
L 672.738997 96.318915 
L 673.104228 96.706413 
L 673.469459 99.666933 
L 674.199921 108.924097 
L 674.565151 111.53718 
L 674.930382 110.788778 
L 675.295613 106.993127 
L 676.026075 97.410836 
L 676.391306 95.014361 
L 676.756537 95.315813 
L 677.121767 98.195619 
L 677.852229 107.414395 
L 678.21746 110.10501 
L 678.582691 109.469787 
L 678.947922 105.766021 
L 679.678383 96.191468 
L 680.043614 93.728329 
L 680.408845 93.944556 
L 680.774076 96.743834 
L 681.504538 105.921597 
L 681.869768 108.687468 
L 682.234999 108.164149 
L 682.60023 104.55266 
L 683.330692 94.98877 
L 683.695923 92.46022 
L 684.061153 92.592046 
L 684.426384 95.311003 
L 685.156846 104.445208 
L 685.522077 107.284084 
L 685.887308 106.871376 
L 686.252538 103.352517 
L 686.983 93.802183 
L 687.348231 91.209474 
L 687.713462 91.257728 
L 688.078693 93.89658 
L 689.174385 105.894422 
L 689.539616 105.59101 
L 689.904847 102.1651 
L 690.635309 92.63118 
L 691.000539 89.975563 
L 691.000539 89.975563 
" clip-path="url(#p1f44b18c84)" style="fill: none; stroke: #55a868; stroke-width: 1.5; stroke-linecap: square"/>
   </g>
   <g id="patch_9">
    <path d="M 403.38125 316.978125 
L 403.38125 22.318125 
" style="fill: none; stroke: #000000; stroke-width: 0.8; stroke-linejoin: miter; stroke-linecap: square"/>
   </g>
   <g id="patch_10">
    <path d="M 704.696696 316.978125 
L 704.696696 22.318125 
" style="fill: none; stroke: #000000; stroke-width: 0.8; stroke-linejoin: miter; stroke-linecap: square"/>
   </g>
   <g id="patch_11">
    <path d="M 403.38125 316.978125 
L 704.696696 316.978125 
" style="fill: none; stroke: #000000; stroke-width: 0.8; stroke-linejoin: miter; stroke-linecap: square"/>
   </g>
   <g id="patch_12">
    <path d="M 403.38125 22.318125 
L 704.696696 22.318125 
" style="fill: none; stroke: #000000; stroke-width: 0.8; stroke-linejoin: miter; stroke-linecap: square"/>
   </g>
   <g id="text_27">
    <!-- Fit residuals (corrected model) -->
    <g transform="translate(462.513661 16.318125) scale(0.12 -0.12)">
     <use xlink:href="#DejaVuSans-46"/>
     <use xlink:href="#DejaVuSans-69" transform="translate(50.269531 0)"/>
     <use xlink:href="#DejaVuSans-74" transform="translate(78.052734 0)"/>
     <use xlink:href="#DejaVuSans-20" transform="translate(117.261719 0)"/>
     <use xlink:href="#DejaVuSans-72" transform="translate(149.048828 0)"/>
     <use xlink:href="#DejaVuSans-65" transform="translate(187.912109 0)"/>
     <use xlink:href="#DejaVuSans-73" transform="translate(249.435547 0)"/>
     <use xlink:href="#DejaVuSans-69" transform="translate(301.535156 0)"/>
     <use xlink:href="#DejaVuSans-64" transform="translate(329.318359 0)"/>
     <use xlink:href="#DejaVuSans-75" transform="translate(392.794922 0)"/>
     <use xlink:href="#DejaVuSans-61" transform="translate(456.173828 0)"/>
     <use xlink:href="#DejaVuSans-6c" transform="translate(517.453125 0)"/>
     <use xlink:href="#DejaVuSans-73" transform="translate(545.236328 0)"/>
     <use xlink:href="#DejaVuSans-20" transform="translate(597.335938 0)"/>
     <use xlink:href="#DejaVuSans-28" transform="translate(629.123047 0)"/>
     <use xlink:href="#DejaVuSans-63" transform="translate(668.136719 0)"/>
     <use xlink:href="#DejaVuSans-6f" transform="translate(723.117188 0)"/>
     <use xlink:href="#DejaVuSans-72" transform="translate(784.298828 0)"/>
     <use xlink:href="#DejaVuSans-72" transform="translate(823.662109 0)"/>
     <use xlink:href="#DejaVuSans-65" transform="translate(862.525391 0)"/>
     <use xlink:href="#DejaVuSans-63" transform="translate(924.048828 0)"/>
     <use xlink:href="#DejaVuSans-74" transform="translate(979.029297 0)"/>
     <use xlink:href="#DejaVuSans-65" transform="translate(1018.238281 0)"/>
     <use xlink:href="#DejaVuSans-64" transform="translate(1079.761719 0)"/>
     <use xlink:href="#DejaVuSans-20" transform="translate(1143.238281 0)"/>
     <use xlink:href="#DejaVuSans-6d" transform="translate(1175.025391 0)"/>
     <use xlink:href="#DejaVuSans-6f" transform="translate(1272.4375 0)"/>
     <use xlink:href="#DejaVuSans-64" transform="translate(1333.619141 0)"/>
     <use xlink:href="#DejaVuSans-65" transform="translate(1397.095703 0)"/>
     <use xlink:href="#DejaVuSans-6c" transform="translate(1458.619141 0)"/>
     <use xlink:href="#DejaVuSans-29" transform="translate(1486.402344 0)"/>
    </g>
   </g>
  </g>
 </g>
 <defs>
  <clipPath id="pd70d59da2f">
   <rect x="48.66875" y="22.318125" width="301.315446" height="294.66"/>
  </clipPath>
  <clipPath id="p1f44b18c84">
   <rect x="403.38125" y="22.318125" width="301.315446" height="294.66"/>
  </clipPath>
 </defs>
</svg>
