<?xml version="1.0" encoding="utf-8" standalone="no"?>
<!DOCTYPE svg PUBLIC "-//W3C//DTD SVG 1.1//EN"
  "http://www.w3.org/Graphics/SVG/1.1/DTD/svg11.dtd">
<svg xmlns:xlink="http://www.w3.org/1999/xlink" width="712.560937pt" height="423.034375pt" viewBox="0 0 712.560937 423.034375" xmlns="http://www.w3.org/2000/svg" version="1.1">
 <metadata>
  <rdf:RDF xmlns:dc="http://purl.org/dc/elements/1.1/" xmlns:cc="http://creativecommons.org/ns#" xmlns:rdf="http://www.w3.org/1999/02/22-rdf-syntax-ns#">
   <cc:Work>
    <dc:type rdf:resource="http://purl.org/dc/dcmitype/StillImage"/>
    <dc:date>2026-04-06T11:39:25.043469</dc:date>
    <dc:format>image/svg+xml</dc:format>
    <dc:creator>
     <cc:Agent>
      <dc:title>Matplotlib v3.10.0, https://matplotlib.org/</dc:title>
     </cc:Agent>
    </dc:creator>
   </cc:Work>
  </rdf:RDF>
 </metadata>
 <defs>
  <style type="text/css">*{stroke-linejoin: round; stroke-linecap: butt}</style>
 </defs>
 <g id="figure_1">
  <g id="patch_1">
   <path d="M 0 423.034375 
L 712.560937 423.034375 
L 712.560937 0 
L 0 0 
z
" style="fill: #ffffff"/>
  </g>
  <g id="axes_1">
   <g id="patch_2">
    <path d="M 48.660938 178.378125 
L 705.360938 178.378125 
L 705.360938 22.318125 
L 48.660938 22.318125 
z
" style="fill: #ffffff"/>
   </g>
   <g id="matplotlib.axis_1">
    <g id="xtick_1">
     <g id="line2d_1">
      <path d="M 78.510937 178.378125 
L 78.510937 22.318125 
" clip-path="url(#pa4ae576da3)" style="fill: none; stroke: #b0b0b0; stroke-opacity: 0.3; stroke-width: 0.8; stroke-linecap: square"/>
     </g>
     <g id="line2d_2">
      <defs>
       <path id="mba99e9bb30" d="M 0 0 
L 0 -3.5 
" style="stroke: #000000; stroke-width: 0.8"/>
      </defs>
      <g>
       <use xlink:href="#mba99e9bb30" x="78.510937" y="178.378125" style="stroke: #000000; stroke-width: 0.8"/>
      </g>
     </g>
     <g id="text_1">
      <!-- 0.00 -->
      <g transform="translate(67.378125 189.476562) scale(0.1 -0.1)">
       <defs>
        <path id="DejaVuSans-30" d="M 2034 4250 
Q 1547 4250 1301 3770 
Q 1056 3291 1056 2328 
Q 1056 1369 1301 889 
Q 1547 409 2034 409 
Q 2525 409 2770 889 
Q 3016 1369 3016 2328 
Q 3016 3291 2770 3770 
Q 2525 4250 2034 4250 
z
M 2034 4750 
Q 2819 4750 3233 4129 
Q 3647 3509 3647 2328 
Q 3647 1150 3233 529 
Q 2819 -91 2034 -91 
Q 1250 -91 836 529 
Q 422 1150 422 2328 
Q 422 3509 836 4129 
Q 1250 4750 2034 4750 
z
" transform="scale(0.015625)"/>
        <path id="DejaVuSans-2e" d="M 684 794 
L 1344 794 
L 1344 0 
L 684 0 
L 684 794 
z
" transform="scale(0.015625)"/>
       </defs>
       <use xlink:href="#DejaVuSans-30"/>
       <use xlink:href="#DejaVuSans-2e" transform="translate(63.623047 0)"/>
       <use xlink:href="#DejaVuSans-30" transform="translate(95.410156 0)"/>
       <use xlink:href="#DejaVuSans-30" transform="translate(159.033203 0)"/>
      </g>
     </g>
    </g>
    <g id="xtick_2">
     <g id="line2d_3">
      <path d="M 153.322968 178.378125 
L 153.322968 22.318125 
" clip-path="url(#pa4ae576da3)" style="fill: none; stroke: #b0b0b0; stroke-opacity: 0.3; stroke-width: 0.8; stroke-linecap: square"/>
     </g>
     <g id="line2d_4">
      <g>
       <use xlink:href="#mba99e9bb30" x="153.322968" y="178.378125" style="stroke: #000000; stroke-width: 0.8"/>
      </g>
     </g>
     <g id="text_2">
      <!-- 0.25 -->
      <g transform="translate(142.190155 189.476562) scale(0.1 -0.1)">
       <defs>
        <path id="DejaVuSans-32" d="M 1228 531 
L 3431 531 
L 3431 0 
L 469 0 
L 469 531 
Q 828 903 1448 1529 
Q 2069 2156 2228 2338 
Q 2531 2678 2651 2914 
Q 2772 3150 2772 3378 
Q 2772 3750 2511 3984 
Q 2250 4219 1831 4219 
Q 1534 4219 1204 4116 
Q 875 4013 500 3803 
L 500 4441 
Q 881 4594 1212 4672 
Q 1544 4750 1819 4750 
Q 2544 4750 2975 4387 
Q 3406 4025 3406 3419 
Q 3406 3131 3298 2873 
Q 3191 2616 2906 2266 
Q 2828 2175 2409 1742 
Q 1991 1309 1228 531 
z
" transform="scale(0.015625)"/>
        <path id="DejaVuSans-35" d="M 691 4666 
L 3169 4666 
L 3169 4134 
L 1269 4134 
L 1269 2991 
Q 1406 3038 1543 3061 
Q 1681 3084 1819 3084 
Q 2600 3084 3056 2656 
Q 3513 2228 3513 1497 
Q 3513 744 3044 326 
Q 2575 -91 1722 -91 
Q 1428 -91 1123 -41 
Q 819 9 494 109 
L 494 744 
Q 775 591 1075 516 
Q 1375 441 1709 441 
Q 2250 441 2565 725 
Q 2881 1009 2881 1497 
Q 2881 1984 2565 2268 
Q 2250 2553 1709 2553 
Q 1456 2553 1204 2497 
Q 953 2441 691 2322 
L 691 4666 
z
" transform="scale(0.015625)"/>
       </defs>
       <use xlink:href="#DejaVuSans-30"/>
       <use xlink:href="#DejaVuSans-2e" transform="translate(63.623047 0)"/>
       <use xlink:href="#DejaVuSans-32" transform="translate(95.410156 0)"/>
       <use xlink:href="#DejaVuSans-35" transform="translate(159.033203 0)"/>
      </g>
     </g>
    </g>
    <g id="xtick_3">
     <g id="line2d_5">
      <path d="M 228.134998 178.378125 
L 228.134998 22.318125 
" clip-path="url(#pa4ae576da3)" style="fill: none; stroke: #b0b0b0; stroke-opacity: 0.3; stroke-width: 0.8; stroke-linecap: square"/>
     </g>
     <g id="line2d_6">
      <g>
       <use xlink:href="#mba99e9bb30" x="228.134998" y="178.378125" style="stroke: #000000; stroke-width: 0.8"/>
      </g>
     </g>
     <g id="text_3">
      <!-- 0.50 -->
      <g transform="translate(217.002185 189.476562) scale(0.1 -0.1)">
       <use xlink:href="#DejaVuSans-30"/>
       <use xlink:href="#DejaVuSans-2e" transform="translate(63.623047 0)"/>
       <use xlink:href="#DejaVuSans-35" transform="translate(95.410156 0)"/>
       <use xlink:href="#DejaVuSans-30" transform="translate(159.033203 0)"/>
      </g>
     </g>
    </g>
    <g id="xtick_4">
     <g id="line2d_7">
      <path d="M 302.947028 178.378125 
L 302.947028 22.318125 
" clip-path="url(#pa4ae576da3)" style="fill: none; stroke: #b0b0b0; stroke-opacity: 0.3; stroke-width: 0.8; stroke-linecap: square"/>
     </g>
     <g id="line2d_8">
      <g>
       <use xlink:href="#mba99e9bb30" x="302.947028" y="178.378125" style="stroke: #000000; stroke-width: 0.8"/>
      </g>
     </g>
     <g id="text_4">
      <!-- 0.75 -->
      <g transform="translate(291.814215 189.476562) scale(0.1 -0.1)">
       <defs>
        <path id="DejaVuSans-37" d="M 525 4666 
L 3525 4666 
L 3525 4397 
L 1831 0 
L 1172 0 
L 2766 4134 
L 525 4134 
L 525 4666 
z
" transform="scale(0.015625)"/>
       </defs>
       <use xlink:href="#DejaVuSans-30"/>
       <use xlink:href="#DejaVuSans-2e" transform="translate(63.623047 0)"/>
       <use xlink:href="#DejaVuSans-37" transform="translate(95.410156 0)"/>
       <use xlink:href="#DejaVuSans-35" transform="translate(159.033203 0)"/>
      </g>
     </g>
    </g>
    <g id="xtick_5">
     <g id="line2d_9">
      <path d="M 377.759058 178.378125 
L 377.759058 22.318125 
" clip-path="url(#pa4ae576da3)" style="fill: none; stroke: #b0b0b0; stroke-opacity: 0.3; stroke-width: 0.8; stroke-linecap: square"/>
     </g>
     <g id="line2d_10">
      <g>
       <use xlink:href="#mba99e9bb30" x="377.759058" y="178.378125" style="stroke: #000000; stroke-width: 0.8"/>
      </g>
     </g>
     <g id="text_5">
      <!-- 1.00 -->
      <g transform="translate(366.626245 189.476562) scale(0.1 -0.1)">
       <defs>
        <path id="DejaVuSans-31" d="M 794 531 
L 1825 531 
L 1825 4091 
L 703 3866 
L 703 4441 
L 1819 4666 
L 2450 4666 
L 2450 531 
L 3481 531 
L 3481 0 
L 794 0 
L 794 531 
z
" transform="scale(0.015625)"/>
       </defs>
       <use xlink:href="#DejaVuSans-31"/>
       <use xlink:href="#DejaVuSans-2e" transform="translate(63.623047 0)"/>
       <use xlink:href="#DejaVuSans-30" transform="translate(95.410156 0)"/>
       <use xlink:href="#DejaVuSans-30" transform="translate(159.033203 0)"/>
      </g>
     </g>
    </g>
    <g id="xtick_6">
     <g id="line2d_11">
      <path d="M 452.571088 178.378125 
L 452.571088 22.318125 
" clip-path="url(#pa4ae576da3)" style="fill: none; stroke: #b0b0b0; stroke-opacity: 0.3; stroke-width: 0.8; stroke-linecap: square"/>
     </g>
     <g id="line2d_12">
      <g>
       <use xlink:href="#mba99e9bb30" x="452.571088" y="178.378125" style="stroke: #000000; stroke-width: 0.8"/>
      </g>
     </g>
     <g id="text_6">
      <!-- 1.25 -->
      <g transform="translate(441.438275 189.476562) scale(0.1 -0.1)">
       <use xlink:href="#DejaVuSans-31"/>
       <use xlink:href="#DejaVuSans-2e" transform="translate(63.623047 0)"/>
       <use xlink:href="#DejaVuSans-32" transform="translate(95.410156 0)"/>
       <use xlink:href="#DejaVuSans-35" transform="translate(159.033203 0)"/>
      </g>
     </g>
    </g>
    <g id="xtick_7">
     <g id="line2d_13">
      <path d="M 527.383118 178.378125 
L 527.383118 22.318125 
" clip-path="url(#pa4ae576da3)" style="fill: none; stroke: #b0b0b0; stroke-opacity: 0.3; stroke-width: 0.8; stroke-linecap: square"/>
     </g>
     <g id="line2d_14">
      <g>
       <use xlink:href="#mba99e9bb30" x="527.383118" y="178.378125" style="stroke: #000000; stroke-width: 0.8"/>
      </g>
     </g>
     <g id="text_7">
      <!-- 1.50 -->
      <g transform="translate(516.250305 189.476562) scale(0.1 -0.1)">
       <use xlink:href="#DejaVuSans-31"/>
       <use xlink:href="#DejaVuSans-2e" transform="translate(63.623047 0)"/>
       <use xlink:href="#DejaVuSans-35" transform="translate(95.410156 0)"/>
       <use xlink:href="#DejaVuSans-30" transform="translate(159.033203 0)"/>
      </g>
     </g>
    </g>
    <g id="xtick_8">
     <g id="line2d_15">
      <path d="M 602.195148 178.378125 
L 602.195148 22.318125 
" clip-path="url(#pa4ae576da3)" style="fill: none; stroke: #b0b0b0; stroke-opacity: 0.3; stroke-width: 0.8; stroke-linecap: square"/>
     </g>
     <g id="line2d_16">
      <g>
       <use xlink:href="#mba99e9bb30" x="602.195148" y="178.378125" style="stroke: #000000; stroke-width: 0.8"/>
      </g>
     </g>
     <g id="text_8">
      <!-- 1.75 -->
      <g transform="translate(591.062336 189.476562) scale(0.1 -0.1)">
       <use xlink:href="#DejaVuSans-31"/>
       <use xlink:href="#DejaVuSans-2e" transform="translate(63.623047 0)"/>
       <use xlink:href="#DejaVuSans-37" transform="translate(95.410156 0)"/>
       <use xlink:href="#DejaVuSans-35" transform="translate(159.033203 0)"/>
      </g>
     </g>
    </g>
    <g id="xtick_9">
     <g id="line2d_17">
      <path d="M 677.007178 178.378125 
L 677.007178 22.318125 
" clip-path="url(#pa4ae576da3)" style="fill: none; stroke: #b0b0b0; stroke-opacity: 0.3; stroke-width: 0.8; stroke-linecap: square"/>
     </g>
     <g id="line2d_18">
      <g>
       <use xlink:href="#mba99e9bb30" x="677.007178" y="178.378125" style="stroke: #000000; stroke-width: 0.8"/>
      </g>
     </g>
     <g id="text_9">
      <!-- 2.00 -->
      <g transform="translate(665.874366 189.476562) scale(0.1 -0.1)">
       <use xlink:href="#DejaVuSans-32"/>
       <use xlink:href="#DejaVuSans-2e" transform="translate(63.623047 0)"/>
       <use xlink:href="#DejaVuSans-30" transform="translate(95.410156 0)"/>
       <use xlink:href="#DejaVuSans-30" transform="translate(159.033203 0)"/>
      </g>
     </g>
    </g>
    <g id="text_10">
     <!-- Time (s) -->
     <g transform="translate(356.682031 203.154687) scale(0.1 -0.1)">
      <defs>
       <path id="DejaVuSans-54" d="M -19 4666 
L 3928 4666 
L 3928 4134 
L 2272 4134 
L 2272 0 
L 1638 0 
L 1638 4134 
L -19 4134 
L -19 4666 
z
" transform="scale(0.015625)"/>
       <path id="DejaVuSans-69" d="M 603 3500 
L 1178 3500 
L 1178 0 
L 603 0 
L 603 3500 
z
M 603 4863 
L 1178 4863 
L 1178 4134 
L 603 4134 
L 603 4863 
z
" transform="scale(0.015625)"/>
       <path id="DejaVuSans-6d" d="M 3328 2828 
Q 3544 3216 3844 3400 
Q 4144 3584 4550 3584 
Q 5097 3584 5394 3201 
Q 5691 2819 5691 2113 
L 5691 0 
L 5113 0 
L 5113 2094 
Q 5113 2597 4934 2840 
Q 4756 3084 4391 3084 
Q 3944 3084 3684 2787 
Q 3425 2491 3425 1978 
L 3425 0 
L 2847 0 
L 2847 2094 
Q 2847 2600 2669 2842 
Q 2491 3084 2119 3084 
Q 1678 3084 1418 2786 
Q 1159 2488 1159 1978 
L 1159 0 
L 581 0 
L 581 3500 
L 1159 3500 
L 1159 2956 
Q 1356 3278 1631 3431 
Q 1906 3584 2284 3584 
Q 2666 3584 2933 3390 
Q 3200 3197 3328 2828 
z
" transform="scale(0.015625)"/>
       <path id="DejaVuSans-65" d="M 3597 1894 
L 3597 1613 
L 953 1613 
Q 991 1019 1311 708 
Q 1631 397 2203 397 
Q 2534 397 2845 478 
Q 3156 559 3463 722 
L 3463 178 
Q 3153 47 2828 -22 
Q 2503 -91 2169 -91 
Q 1331 -91 842 396 
Q 353 884 353 1716 
Q 353 2575 817 3079 
Q 1281 3584 2069 3584 
Q 2775 3584 3186 3129 
Q 3597 2675 3597 1894 
z
M 3022 2063 
Q 3016 2534 2758 2815 
Q 2500 3097 2075 3097 
Q 1594 3097 1305 2825 
Q 1016 2553 972 2059 
L 3022 2063 
z
" transform="scale(0.015625)"/>
       <path id="DejaVuSans-20" transform="scale(0.015625)"/>
       <path id="DejaVuSans-28" d="M 1984 4856 
Q 1566 4138 1362 3434 
Q 1159 2731 1159 2009 
Q 1159 1288 1364 580 
Q 1569 -128 1984 -844 
L 1484 -844 
Q 1016 -109 783 600 
Q 550 1309 550 2009 
Q 550 2706 781 3412 
Q 1013 4119 1484 4856 
L 1984 4856 
z
" transform="scale(0.015625)"/>
       <path id="DejaVuSans-73" d="M 2834 3397 
L 2834 2853 
Q 2591 2978 2328 3040 
Q 2066 3103 1784 3103 
Q 1356 3103 1142 2972 
Q 928 2841 928 2578 
Q 928 2378 1081 2264 
Q 1234 2150 1697 2047 
L 1894 2003 
Q 2506 1872 2764 1633 
Q 3022 1394 3022 966 
Q 3022 478 2636 193 
Q 2250 -91 1575 -91 
Q 1294 -91 989 -36 
Q 684 19 347 128 
L 347 722 
Q 666 556 975 473 
Q 1284 391 1588 391 
Q 1994 391 2212 530 
Q 2431 669 2431 922 
Q 2431 1156 2273 1281 
Q 2116 1406 1581 1522 
L 1381 1569 
Q 847 1681 609 1914 
Q 372 2147 372 2553 
Q 372 3047 722 3315 
Q 1072 3584 1716 3584 
Q 2034 3584 2315 3537 
Q 2597 3491 2834 3397 
z
" transform="scale(0.015625)"/>
       <path id="DejaVuSans-29" d="M 513 4856 
L 1013 4856 
Q 1481 4119 1714 3412 
Q 1947 2706 1947 2009 
Q 1947 1309 1714 600 
Q 1481 -109 1013 -844 
L 513 -844 
Q 928 -128 1133 580 
Q 1338 1288 1338 2009 
Q 1338 2731 1133 3434 
Q 928 4138 513 4856 
z
" transform="scale(0.015625)"/>
      </defs>
      <use xlink:href="#DejaVuSans-54"/>
      <use xlink:href="#DejaVuSans-69" transform="translate(57.958984 0)"/>
      <use xlink:href="#DejaVuSans-6d" transform="translate(85.742188 0)"/>
      <use xlink:href="#DejaVuSans-65" transform="translate(183.154297 0)"/>
      <use xlink:href="#DejaVuSans-20" transform="translate(244.677734 0)"/>
      <use xlink:href="#DejaVuSans-28" transform="translate(276.464844 0)"/>
      <use xlink:href="#DejaVuSans-73" transform="translate(315.478516 0)"/>
      <use xlink:href="#DejaVuSans-29" transform="translate(367.578125 0)"/>
     </g>
    </g>
   </g>
   <g id="matplotlib.axis_2">
    <g id="ytick_1">
     <g id="line2d_19">
      <path d="M 48.660938 154.713114 
L 705.360938 154.713114 
" clip-path="url(#pa4ae576da3)" style="fill: none; stroke: #b0b0b0; stroke-opacity: 0.3; stroke-width: 0.8; stroke-linecap: square"/>
     </g>
     <g id="line2d_20">
      <defs>
       <path id="m81af5981f1" d="M 0 0 
L 3.5 0 
" style="stroke: #000000; stroke-width: 0.8"/>
      </defs>
      <g>
       <use xlink:href="#m81af5981f1" x="48.660938" y="154.713114" style="stroke: #000000; stroke-width: 0.8"/>
      </g>
     </g>
     <g id="text_11">
      <!-- −5.0 -->
      <g transform="translate(20.878125 158.512333) scale(0.1 -0.1)">
       <defs>
        <path id="DejaVuSans-2212" d="M 678 2272 
L 4684 2272 
L 4684 1741 
L 678 1741 
L 678 2272 
z
" transform="scale(0.015625)"/>
       </defs>
       <use xlink:href="#DejaVuSans-2212"/>
       <use xlink:href="#DejaVuSans-35" transform="translate(83.789062 0)"/>
       <use xlink:href="#DejaVuSans-2e" transform="translate(147.412109 0)"/>
       <use xlink:href="#DejaVuSans-30" transform="translate(179.199219 0)"/>
      </g>
     </g>
    </g>
    <g id="ytick_2">
     <g id="line2d_21">
      <path d="M 48.660938 130.6167 
L 705.360938 130.6167 
" clip-path="url(#pa4ae576da3)" style="fill: none; stroke: #b0b0b0; stroke-opacity: 0.3; stroke-width: 0.8; stroke-linecap: square"/>
     </g>
     <g id="line2d_22">
      <g>
       <use xlink:href="#m81af5981f1" x="48.660938" y="130.6167" style="stroke: #000000; stroke-width: 0.8"/>
      </g>
     </g>
     <g id="text_12">
      <!-- −2.5 -->
      <g transform="translate(20.878125 134.415919) scale(0.1 -0.1)">
       <use xlink:href="#DejaVuSans-2212"/>
       <use xlink:href="#DejaVuSans-32" transform="translate(83.789062 0)"/>
       <use xlink:href="#DejaVuSans-2e" transform="translate(147.412109 0)"/>
       <use xlink:href="#DejaVuSans-35" transform="translate(179.199219 0)"/>
      </g>
     </g>
    </g>
    <g id="ytick_3">
     <g id="line2d_23">
      <path d="M 48.660938 106.520286 
L 705.360938 106.520286 
" clip-path="url(#pa4ae576da3)" style="fill: none; stroke: #b0b0b0; stroke-opacity: 0.3; stroke-width: 0.8; stroke-linecap: square"/>
     </g>
     <g id="line2d_24">
      <g>
       <use xlink:href="#m81af5981f1" x="48.660938" y="106.520286" style="stroke: #000000; stroke-width: 0.8"/>
      </g>
     </g>
     <g id="text_13">
      <!-- 0.0 -->
      <g transform="translate(29.257812 110.319505) scale(0.1 -0.1)">
       <use xlink:href="#DejaVuSans-30"/>
       <use xlink:href="#DejaVuSans-2e" transform="translate(63.623047 0)"/>
       <use xlink:href="#DejaVuSans-30" transform="translate(95.410156 0)"/>
      </g>
     </g>
    </g>
    <g id="ytick_4">
     <g id="line2d_25">
      <path d="M 48.660938 82.423872 
L 705.360938 82.423872 
" clip-path="url(#pa4ae576da3)" style="fill: none; stroke: #b0b0b0; stroke-opacity: 0.3; stroke-width: 0.8; stroke-linecap: square"/>
     </g>
     <g id="line2d_26">
      <g>
       <use xlink:href="#m81af5981f1" x="48.660938" y="82.423872" style="stroke: #000000; stroke-width: 0.8"/>
      </g>
     </g>
     <g id="text_14">
      <!-- 2.5 -->
      <g transform="translate(29.257812 86.223091) scale(0.1 -0.1)">
       <use xlink:href="#DejaVuSans-32"/>
       <use xlink:href="#DejaVuSans-2e" transform="translate(63.623047 0)"/>
       <use xlink:href="#DejaVuSans-35" transform="translate(95.410156 0)"/>
      </g>
     </g>
    </g>
    <g id="ytick_5">
     <g id="line2d_27">
      <path d="M 48.660938 58.327458 
L 705.360938 58.327458 
" clip-path="url(#pa4ae576da3)" style="fill: none; stroke: #b0b0b0; stroke-opacity: 0.3; stroke-width: 0.8; stroke-linecap: square"/>
     </g>
     <g id="line2d_28">
      <g>
       <use xlink:href="#m81af5981f1" x="48.660938" y="58.327458" style="stroke: #000000; stroke-width: 0.8"/>
      </g>
     </g>
     <g id="text_15">
      <!-- 5.0 -->
      <g transform="translate(29.257812 62.126677) scale(0.1 -0.1)">
       <use xlink:href="#DejaVuSans-35"/>
       <use xlink:href="#DejaVuSans-2e" transform="translate(63.623047 0)"/>
       <use xlink:href="#DejaVuSans-30" transform="translate(95.410156 0)"/>
      </g>
     </g>
    </g>
    <g id="ytick_6">
     <g id="line2d_29">
      <path d="M 48.660938 34.231044 
L 705.360938 34.231044 
" clip-path="url(#pa4ae576da3)" style="fill: none; stroke: #b0b0b0; stroke-opacity: 0.3; stroke-width: 0.8; stroke-linecap: square"/>
     </g>
     <g id="line2d_30">
      <g>
       <use xlink:href="#m81af5981f1" x="48.660938" y="34.231044" style="stroke: #000000; stroke-width: 0.8"/>
      </g>
     </g>
     <g id="text_16">
      <!-- 7.5 -->
      <g transform="translate(29.257812 38.030263) scale(0.1 -0.1)">
       <use xlink:href="#DejaVuSans-37"/>
       <use xlink:href="#DejaVuSans-2e" transform="translate(63.623047 0)"/>
       <use xlink:href="#DejaVuSans-35" transform="translate(95.410156 0)"/>
      </g>
     </g>
    </g>
    <g id="text_17">
     <!-- Amplitude (V) -->
     <g transform="translate(14.798437 134.881719) rotate(-90) scale(0.1 -0.1)">
      <defs>
       <path id="DejaVuSans-41" d="M 2188 4044 
L 1331 1722 
L 3047 1722 
L 2188 4044 
z
M 1831 4666 
L 2547 4666 
L 4325 0 
L 3669 0 
L 3244 1197 
L 1141 1197 
L 716 0 
L 50 0 
L 1831 4666 
z
" transform="scale(0.015625)"/>
       <path id="DejaVuSans-70" d="M 1159 525 
L 1159 -1331 
L 581 -1331 
L 581 3500 
L 1159 3500 
L 1159 2969 
Q 1341 3281 1617 3432 
Q 1894 3584 2278 3584 
Q 2916 3584 3314 3078 
Q 3713 2572 3713 1747 
Q 3713 922 3314 415 
Q 2916 -91 2278 -91 
Q 1894 -91 1617 61 
Q 1341 213 1159 525 
z
M 3116 1747 
Q 3116 2381 2855 2742 
Q 2594 3103 2138 3103 
Q 1681 3103 1420 2742 
Q 1159 2381 1159 1747 
Q 1159 1113 1420 752 
Q 1681 391 2138 391 
Q 2594 391 2855 752 
Q 3116 1113 3116 1747 
z
" transform="scale(0.015625)"/>
       <path id="DejaVuSans-6c" d="M 603 4863 
L 1178 4863 
L 1178 0 
L 603 0 
L 603 4863 
z
" transform="scale(0.015625)"/>
       <path id="DejaVuSans-74" d="M 1172 4494 
L 1172 3500 
L 2356 3500 
L 2356 3053 
L 1172 3053 
L 1172 1153 
Q 1172 725 1289 603 
Q 1406 481 1766 481 
L 2356 481 
L 2356 0 
L 1766 0 
Q 1100 0 847 248 
Q 594 497 594 1153 
L 594 3053 
L 172 3053 
L 172 3500 
L 594 3500 
L 594 4494 
L 1172 4494 
z
" transform="scale(0.015625)"/>
       <path id="DejaVuSans-75" d="M 544 1381 
L 544 3500 
L 1119 3500 
L 1119 1403 
Q 1119 906 1312 657 
Q 1506 409 1894 409 
Q 2359 409 2629 706 
Q 2900 1003 2900 1516 
L 2900 3500 
L 3475 3500 
L 3475 0 
L 2900 0 
L 2900 538 
Q 2691 219 2414 64 
Q 2138 -91 1772 -91 
Q 1169 -91 856 284 
Q 544 659 544 1381 
z
M 1991 3584 
L 1991 3584 
z
" transform="scale(0.015625)"/>
       <path id="DejaVuSans-64" d="M 2906 2969 
L 2906 4863 
L 3481 4863 
L 3481 0 
L 2906 0 
L 2906 525 
Q 2725 213 2448 61 
Q 2172 -91 1784 -91 
Q 1150 -91 751 415 
Q 353 922 353 1747 
Q 353 2572 751 3078 
Q 1150 3584 1784 3584 
Q 2172 3584 2448 3432 
Q 2725 3281 2906 2969 
z
M 947 1747 
Q 947 1113 1208 752 
Q 1469 391 1925 391 
Q 2381 391 2643 752 
Q 2906 1113 2906 1747 
Q 2906 2381 2643 2742 
Q 2381 3103 1925 3103 
Q 1469 3103 1208 2742 
Q 947 2381 947 1747 
z
" transform="scale(0.015625)"/>
       <path id="DejaVuSans-56" d="M 1831 0 
L 50 4666 
L 709 4666 
L 2188 738 
L 3669 4666 
L 4325 4666 
L 2547 0 
L 1831 0 
z
" transform="scale(0.015625)"/>
      </defs>
      <use xlink:href="#DejaVuSans-41"/>
      <use xlink:href="#DejaVuSans-6d" transform="translate(68.408203 0)"/>
      <use xlink:href="#DejaVuSans-70" transform="translate(165.820312 0)"/>
      <use xlink:href="#DejaVuSans-6c" transform="translate(229.296875 0)"/>
      <use xlink:href="#DejaVuSans-69" transform="translate(257.080078 0)"/>
      <use xlink:href="#DejaVuSans-74" transform="translate(284.863281 0)"/>
      <use xlink:href="#DejaVuSans-75" transform="translate(324.072266 0)"/>
      <use xlink:href="#DejaVuSans-64" transform="translate(387.451172 0)"/>
      <use xlink:href="#DejaVuSans-65" transform="translate(450.927734 0)"/>
      <use xlink:href="#DejaVuSans-20" transform="translate(512.451172 0)"/>
      <use xlink:href="#DejaVuSans-28" transform="translate(544.238281 0)"/>
      <use xlink:href="#DejaVuSans-56" transform="translate(583.251953 0)"/>
      <use xlink:href="#DejaVuSans-29" transform="translate(651.660156 0)"/>
     </g>
    </g>
   </g>
   <g id="line2d_31">
    <path d="M 78.510937 29.411761 
L 80.007178 38.452596 
L 81.503419 62.237279 
L 84.4959 128.852146 
L 85.992141 156.223163 
L 87.488381 171.239598 
L 88.984622 171.284489 
L 90.480862 157.393619 
L 91.977103 133.765734 
L 93.473344 106.520286 
L 94.969584 82.071824 
L 96.465825 65.565307 
L 97.962065 59.766974 
L 99.458306 64.653162 
L 100.954547 77.734331 
L 103.947028 111.870833 
L 105.443268 124.777135 
L 106.939509 131.488249 
L 108.43575 131.628987 
L 109.93199 126.423153 
L 114.420712 101.881359 
L 115.916953 97.377779 
L 117.413193 96.025915 
L 118.909434 97.308071 
L 120.405674 100.20614 
L 121.901915 103.586517 
L 123.398156 106.520286 
L 124.894396 108.464777 
L 126.390637 109.290592 
L 127.886877 109.188196 
L 129.383118 108.515718 
L 132.375599 106.886019 
L 133.87184 106.389597 
L 135.36808 106.20591 
L 136.864321 106.286234 
L 139.856802 106.762308 
L 141.353043 106.855239 
L 142.849283 106.662847 
L 144.345524 106.115057 
L 148.834246 103.564016 
L 150.330486 103.487565 
L 151.826727 104.42563 
L 153.322968 106.520286 
L 154.819208 109.556545 
L 156.315449 112.91035 
L 157.811689 115.629218 
L 159.30793 116.65402 
L 160.804171 115.14017 
L 162.300411 110.790729 
L 163.796652 104.090494 
L 165.292892 96.341457 
L 166.789133 89.447685 
L 168.285374 85.471075 
L 169.781614 86.057103 
L 171.277855 91.886631 
L 172.774095 102.324386 
L 175.766577 128.152812 
L 177.262817 137.338146 
L 178.759058 140.242408 
L 180.255298 135.477342 
L 181.751539 123.472189 
L 186.240261 73.170652 
L 187.736501 64.81529 
L 189.232742 65.562468 
L 190.728983 75.593105 
L 192.225223 92.850696 
L 195.217704 132.793148 
L 196.713945 146.31343 
L 198.210186 150.967166 
L 199.706426 145.777819 
L 201.202667 132.09184 
L 204.195148 93.565848 
L 205.691389 77.59186 
L 207.187629 68.697843 
L 208.68387 68.487279 
L 210.18011 76.474643 
L 211.676351 90.323515 
L 213.172592 106.520286 
L 214.668832 121.287974 
L 216.165073 131.495882 
L 217.661313 135.339234 
L 219.157554 132.638874 
L 220.653795 124.720415 
L 223.646276 103.028965 
L 225.142516 94.385286 
L 226.638757 89.580421 
L 228.134998 89.092309 
L 229.631238 92.351962 
L 231.127479 98.032809 
L 232.623719 104.479018 
L 234.11996 110.145963 
L 235.616201 113.941852 
L 237.112441 115.402084 
L 238.608682 114.681704 
L 240.104922 112.400118 
L 243.097404 106.520286 
L 244.593644 104.36805 
L 246.089885 103.25355 
L 247.586125 103.166152 
L 249.082366 103.849442 
L 252.074847 105.97425 
L 253.571088 106.723324 
L 255.067328 107.021343 
L 256.563569 106.896735 
L 259.55605 106.143493 
L 261.052291 106.018516 
L 262.548531 106.317018 
L 264.044772 107.06618 
L 267.037253 109.171658 
L 268.533494 109.830334 
L 270.029734 109.719851 
L 271.525975 108.609111 
L 273.022216 106.520286 
L 276.014697 101.014407 
L 277.510937 98.986233 
L 279.007178 98.444848 
L 280.503419 99.879395 
L 281.999659 103.329431 
L 283.4959 108.286244 
L 284.992141 113.735396 
L 286.488381 118.35156 
L 287.984622 120.812851 
L 289.480862 120.161633 
L 290.977103 116.115029 
L 292.473344 109.230582 
L 295.465825 92.899191 
L 296.962065 87.324724 
L 298.458306 85.718414 
L 299.954547 88.811584 
L 301.450787 96.232638 
L 305.939509 126.400385 
L 307.43575 131.271232 
L 308.93199 130.737187 
L 310.428231 124.750307 
L 311.924471 114.558177 
L 314.916953 91.118922 
L 316.413193 83.208735 
L 317.909434 80.485071 
L 319.405674 83.514187 
L 320.901915 91.519322 
L 323.894396 114.147992 
L 325.390637 123.599842 
L 326.886877 128.924522 
L 328.383118 129.136947 
L 329.879359 124.467725 
L 331.375599 116.245007 
L 332.87184 106.520286 
L 334.36808 97.544322 
L 335.864321 91.230556 
L 337.360562 88.737577 
L 338.856802 90.263322 
L 340.353043 95.084074 
L 343.345524 108.761759 
L 344.841765 114.405745 
L 346.338005 117.671941 
L 347.834246 118.154169 
L 349.330486 116.119909 
L 350.826727 112.362533 
L 352.322968 107.949065 
L 353.819208 103.937452 
L 355.315449 101.135179 
L 356.811689 99.951356 
L 358.30793 100.364315 
L 359.804171 101.995534 
L 362.796652 106.520286 
L 364.292892 108.278475 
L 365.789133 109.239279 
L 367.285374 109.3611 
L 368.781614 108.818243 
L 371.774095 107.001827 
L 373.270336 106.339756 
L 374.766577 106.072509 
L 376.262817 106.183272 
L 379.255298 106.855453 
L 380.751539 106.963104 
L 382.24778 106.697763 
L 383.74402 106.049879 
L 386.736501 104.307347 
L 388.232742 103.806737 
L 389.728983 103.946001 
L 391.225223 104.871579 
L 392.721464 106.520286 
L 395.713945 110.624508 
L 397.210186 112.034879 
L 398.706426 112.328206 
L 400.202667 111.216855 
L 401.698907 108.741136 
L 406.187629 98.629977 
L 407.68387 97.106687 
L 409.18011 97.639324 
L 410.676351 100.340725 
L 412.172592 104.792003 
L 415.165073 115.054497 
L 416.661313 118.454789 
L 418.157554 119.363016 
L 419.653795 117.384029 
L 421.150035 112.795389 
L 424.142516 99.935978 
L 425.638757 94.558549 
L 427.134998 91.67904 
L 428.631238 92.041717 
L 430.127479 95.647486 
L 431.623719 101.735572 
L 434.616201 115.665838 
L 436.112441 120.355664 
L 437.608682 121.970931 
L 439.104922 120.178327 
L 440.601163 115.433156 
L 443.593644 101.974857 
L 445.089885 96.320583 
L 446.586125 93.106095 
L 448.082366 92.937746 
L 449.578607 95.704215 
L 451.074847 100.636498 
L 454.067328 112.001657 
L 455.563569 115.907289 
L 457.05981 117.501475 
L 458.55605 116.622609 
L 460.052291 113.675132 
L 463.044772 105.09686 
L 464.541013 101.471713 
L 466.037253 99.318981 
L 467.533494 98.939621 
L 469.029734 100.206133 
L 470.525975 102.639946 
L 473.518456 108.270971 
L 475.014697 110.208714 
L 476.510937 111.067171 
L 478.007178 110.826377 
L 479.503419 109.718418 
L 482.4959 106.520286 
L 483.992141 105.240745 
L 485.488381 104.524371 
L 486.984622 104.418553 
L 488.480862 104.808404 
L 491.473344 106.157766 
L 492.969584 106.656661 
L 494.465825 106.85925 
L 495.962065 106.775588 
L 498.954547 106.267053 
L 500.450787 106.186818 
L 501.947028 106.387238 
L 503.443268 106.870955 
L 506.43575 108.146774 
L 507.93199 108.498345 
L 509.428231 108.380314 
L 510.924471 107.700519 
L 512.420712 106.520286 
L 515.413193 103.667356 
L 516.909434 102.724829 
L 518.405674 102.562048 
L 519.901915 103.350239 
L 521.398156 105.035346 
L 524.390637 109.722817 
L 525.886877 111.658488 
L 527.383118 112.601202 
L 528.879359 112.213349 
L 530.375599 110.453056 
L 531.87184 107.612724 
L 534.864321 101.191963 
L 536.360562 99.109979 
L 537.856802 98.586505 
L 539.353043 99.840269 
L 540.849283 102.678121 
L 543.841765 110.522619 
L 545.338005 113.769356 
L 546.834246 115.490719 
L 548.330486 115.251823 
L 549.826727 113.065033 
L 551.322968 109.396065 
L 554.315449 101.033963 
L 555.811689 98.224029 
L 557.30793 97.256023 
L 558.804171 98.328518 
L 560.300411 101.171168 
L 563.292892 109.254529 
L 564.789133 112.665962 
L 566.285374 114.618936 
L 567.781614 114.73969 
L 569.277855 113.083008 
L 570.774095 110.100998 
L 573.766577 103.161219 
L 575.262817 100.745028 
L 576.759058 99.735399 
L 578.255298 100.249913 
L 579.751539 102.057801 
L 584.240261 109.720278 
L 585.736501 111.111514 
L 587.232742 111.382636 
L 588.728983 110.595458 
L 590.225223 109.040563 
L 593.217704 105.368483 
L 594.713945 104.077892 
L 596.210186 103.49011 
L 597.706426 103.632487 
L 599.202667 104.362372 
L 602.195148 106.520286 
L 603.691389 107.398138 
L 605.187629 107.896167 
L 606.68387 107.975322 
L 608.18011 107.709851 
L 612.668832 106.424817 
L 614.165073 106.282734 
L 615.661313 106.341298 
L 618.653795 106.697579 
L 620.150035 106.753348 
L 621.646276 106.613052 
L 623.142516 106.276523 
L 626.134998 105.398294 
L 627.631238 105.161965 
L 629.127479 105.249315 
L 630.623719 105.718067 
L 632.11996 106.520286 
L 635.112441 108.42641 
L 636.608682 109.040998 
L 638.104922 109.133311 
L 639.601163 108.600432 
L 641.097404 107.48889 
L 644.089885 104.45546 
L 645.586125 103.22591 
L 647.082366 102.642517 
L 648.578607 102.908695 
L 650.074847 104.037795 
L 651.571088 105.833968 
L 654.563569 109.838706 
L 656.05981 111.11709 
L 657.55605 111.423698 
L 659.052291 110.63477 
L 660.548531 108.879437 
L 663.541013 104.076028 
L 665.037253 102.103274 
L 666.533494 101.065277 
L 668.029734 101.219606 
L 669.525975 102.552806 
L 671.022216 104.77896 
L 674.014697 109.837491 
L 675.510937 111.53487 
L 675.510937 111.53487 
" clip-path="url(#pa4ae576da3)" style="fill: none; stroke: #4c72b0; stroke-width: 1.5; stroke-linecap: square"/>
   </g>
   <g id="patch_3">
    <path d="M 48.660938 178.378125 
L 48.660938 22.318125 
" style="fill: none; stroke: #000000; stroke-width: 0.8; stroke-linejoin: miter; stroke-linecap: square"/>
   </g>
   <g id="patch_4">
    <path d="M 705.360938 178.378125 
L 705.360938 22.318125 
" style="fill: none; stroke: #000000; stroke-width: 0.8; stroke-linejoin: miter; stroke-linecap: square"/>
   </g>
   <g id="patch_5">
    <path d="M 48.660938 178.378125 
L 705.360937 178.378125 
" style="fill: none; stroke: #000000; stroke-width: 0.8; stroke-linejoin: miter; stroke-linecap: square"/>
   </g>
   <g id="patch_6">
    <path d="M 48.660938 22.318125 
L 705.360937 22.318125 
" style="fill: none; stroke: #000000; stroke-width: 0.8; stroke-linejoin: miter; stroke-linecap: square"/>
   </g>
   <g id="text_18">
    <!-- J-coupled quartet — f₀ = 15.0 Hz,  J = 2.5 Hz,  amplitudes 1:3:3:1 -->
    <g transform="translate(181.536563 16.318125) scale(0.12 -0.12)">
     <defs>
      <path id="DejaVuSans-4a" d="M 628 4666 
L 1259 4666 
L 1259 325 
Q 1259 -519 939 -900 
Q 619 -1281 -91 -1281 
L -331 -1281 
L -331 -750 
L -134 -750 
Q 284 -750 456 -515 
Q 628 -281 628 325 
L 628 4666 
z
" transform="scale(0.015625)"/>
      <path id="DejaVuSans-2d" d="M 313 2009 
L 1997 2009 
L 1997 1497 
L 313 1497 
L 313 2009 
z
" transform="scale(0.015625)"/>
      <path id="DejaVuSans-63" d="M 3122 3366 
L 3122 2828 
Q 2878 2963 2633 3030 
Q 2388 3097 2138 3097 
Q 1578 3097 1268 2742 
Q 959 2388 959 1747 
Q 959 1106 1268 751 
Q 1578 397 2138 397 
Q 2388 397 2633 464 
Q 2878 531 3122 666 
L 3122 134 
Q 2881 22 2623 -34 
Q 2366 -91 2075 -91 
Q 1284 -91 818 406 
Q 353 903 353 1747 
Q 353 2603 823 3093 
Q 1294 3584 2113 3584 
Q 2378 3584 2631 3529 
Q 2884 3475 3122 3366 
z
" transform="scale(0.015625)"/>
      <path id="DejaVuSans-6f" d="M 1959 3097 
Q 1497 3097 1228 2736 
Q 959 2375 959 1747 
Q 959 1119 1226 758 
Q 1494 397 1959 397 
Q 2419 397 2687 759 
Q 2956 1122 2956 1747 
Q 2956 2369 2687 2733 
Q 2419 3097 1959 3097 
z
M 1959 3584 
Q 2709 3584 3137 3096 
Q 3566 2609 3566 1747 
Q 3566 888 3137 398 
Q 2709 -91 1959 -91 
Q 1206 -91 779 398 
Q 353 888 353 1747 
Q 353 2609 779 3096 
Q 1206 3584 1959 3584 
z
" transform="scale(0.015625)"/>
      <path id="DejaVuSans-71" d="M 947 1747 
Q 947 1113 1208 752 
Q 1469 391 1925 391 
Q 2381 391 2643 752 
Q 2906 1113 2906 1747 
Q 2906 2381 2643 2742 
Q 2381 3103 1925 3103 
Q 1469 3103 1208 2742 
Q 947 2381 947 1747 
z
M 2906 525 
Q 2725 213 2448 61 
Q 2172 -91 1784 -91 
Q 1150 -91 751 415 
Q 353 922 353 1747 
Q 353 2572 751 3078 
Q 1150 3584 1784 3584 
Q 2172 3584 2448 3432 
Q 2725 3281 2906 2969 
L 2906 3500 
L 3481 3500 
L 3481 -1331 
L 2906 -1331 
L 2906 525 
z
" transform="scale(0.015625)"/>
      <path id="DejaVuSans-61" d="M 2194 1759 
Q 1497 1759 1228 1600 
Q 959 1441 959 1056 
Q 959 750 1161 570 
Q 1363 391 1709 391 
Q 2188 391 2477 730 
Q 2766 1069 2766 1631 
L 2766 1759 
L 2194 1759 
z
M 3341 1997 
L 3341 0 
L 2766 0 
L 2766 531 
Q 2569 213 2275 61 
Q 1981 -91 1556 -91 
Q 1019 -91 701 211 
Q 384 513 384 1019 
Q 384 1609 779 1909 
Q 1175 2209 1959 2209 
L 2766 2209 
L 2766 2266 
Q 2766 2663 2505 2880 
Q 2244 3097 1772 3097 
Q 1472 3097 1187 3025 
Q 903 2953 641 2809 
L 641 3341 
Q 956 3463 1253 3523 
Q 1550 3584 1831 3584 
Q 2591 3584 2966 3190 
Q 3341 2797 3341 1997 
z
" transform="scale(0.015625)"/>
      <path id="DejaVuSans-72" d="M 2631 2963 
Q 2534 3019 2420 3045 
Q 2306 3072 2169 3072 
Q 1681 3072 1420 2755 
Q 1159 2438 1159 1844 
L 1159 0 
L 581 0 
L 581 3500 
L 1159 3500 
L 1159 2956 
Q 1341 3275 1631 3429 
Q 1922 3584 2338 3584 
Q 2397 3584 2469 3576 
Q 2541 3569 2628 3553 
L 2631 2963 
z
" transform="scale(0.015625)"/>
      <path id="DejaVuSans-2014" d="M 313 1978 
L 6088 1978 
L 6088 1528 
L 313 1528 
L 313 1978 
z
" transform="scale(0.015625)"/>
      <path id="DejaVuSans-66" d="M 2375 4863 
L 2375 4384 
L 1825 4384 
Q 1516 4384 1395 4259 
Q 1275 4134 1275 3809 
L 1275 3500 
L 2222 3500 
L 2222 3053 
L 1275 3053 
L 1275 0 
L 697 0 
L 697 3053 
L 147 3053 
L 147 3500 
L 697 3500 
L 697 3744 
Q 697 4328 969 4595 
Q 1241 4863 1831 4863 
L 2375 4863 
z
" transform="scale(0.015625)"/>
      <path id="DejaVuSans-2080" d="M 1781 2091 
Q 1625 2360 1309 2360 
Q 994 2360 838 2091 
Q 678 1822 678 1285 
Q 678 744 838 476 
Q 994 207 1309 207 
Q 1625 207 1781 476 
Q 1941 744 1941 1285 
Q 1941 1822 1781 2091 
z
M 1309 2638 
Q 1813 2638 2078 2291 
Q 2344 1944 2344 1285 
Q 2344 622 2078 275 
Q 1813 -71 1309 -71 
Q 803 -71 537 275 
Q 272 622 272 1285 
Q 272 1944 537 2291 
Q 803 2638 1309 2638 
z
" transform="scale(0.015625)"/>
      <path id="DejaVuSans-3d" d="M 678 2906 
L 4684 2906 
L 4684 2381 
L 678 2381 
L 678 2906 
z
M 678 1631 
L 4684 1631 
L 4684 1100 
L 678 1100 
L 678 1631 
z
" transform="scale(0.015625)"/>
      <path id="DejaVuSans-48" d="M 628 4666 
L 1259 4666 
L 1259 2753 
L 3553 2753 
L 3553 4666 
L 4184 4666 
L 4184 0 
L 3553 0 
L 3553 2222 
L 1259 2222 
L 1259 0 
L 628 0 
L 628 4666 
z
" transform="scale(0.015625)"/>
      <path id="DejaVuSans-7a" d="M 353 3500 
L 3084 3500 
L 3084 2975 
L 922 459 
L 3084 459 
L 3084 0 
L 275 0 
L 275 525 
L 2438 3041 
L 353 3041 
L 353 3500 
z
" transform="scale(0.015625)"/>
      <path id="DejaVuSans-2c" d="M 750 794 
L 1409 794 
L 1409 256 
L 897 -744 
L 494 -744 
L 750 256 
L 750 794 
z
" transform="scale(0.015625)"/>
      <path id="DejaVuSans-3a" d="M 750 794 
L 1409 794 
L 1409 0 
L 750 0 
L 750 794 
z
M 750 3309 
L 1409 3309 
L 1409 2516 
L 750 2516 
L 750 3309 
z
" transform="scale(0.015625)"/>
      <path id="DejaVuSans-33" d="M 2597 2516 
Q 3050 2419 3304 2112 
Q 3559 1806 3559 1356 
Q 3559 666 3084 287 
Q 2609 -91 1734 -91 
Q 1441 -91 1130 -33 
Q 819 25 488 141 
L 488 750 
Q 750 597 1062 519 
Q 1375 441 1716 441 
Q 2309 441 2620 675 
Q 2931 909 2931 1356 
Q 2931 1769 2642 2001 
Q 2353 2234 1838 2234 
L 1294 2234 
L 1294 2753 
L 1863 2753 
Q 2328 2753 2575 2939 
Q 2822 3125 2822 3475 
Q 2822 3834 2567 4026 
Q 2313 4219 1838 4219 
Q 1578 4219 1281 4162 
Q 984 4106 628 3988 
L 628 4550 
Q 988 4650 1302 4700 
Q 1616 4750 1894 4750 
Q 2613 4750 3031 4423 
Q 3450 4097 3450 3541 
Q 3450 3153 3228 2886 
Q 3006 2619 2597 2516 
z
" transform="scale(0.015625)"/>
     </defs>
     <use xlink:href="#DejaVuSans-4a"/>
     <use xlink:href="#DejaVuSans-2d" transform="translate(25.867188 0)"/>
     <use xlink:href="#DejaVuSans-63" transform="translate(61.951172 0)"/>
     <use xlink:href="#DejaVuSans-6f" transform="translate(116.931641 0)"/>
     <use xlink:href="#DejaVuSans-75" transform="translate(178.113281 0)"/>
     <use xlink:href="#DejaVuSans-70" transform="translate(241.492188 0)"/>
     <use xlink:href="#DejaVuSans-6c" transform="translate(304.96875 0)"/>
     <use xlink:href="#DejaVuSans-65" transform="translate(332.751953 0)"/>
     <use xlink:href="#DejaVuSans-64" transform="translate(394.275391 0)"/>
     <use xlink:href="#DejaVuSans-20" transform="translate(457.751953 0)"/>
     <use xlink:href="#DejaVuSans-71" transform="translate(489.539062 0)"/>
     <use xlink:href="#DejaVuSans-75" transform="translate(553.015625 0)"/>
     <use xlink:href="#DejaVuSans-61" transform="translate(616.394531 0)"/>
     <use xlink:href="#DejaVuSans-72" transform="translate(677.673828 0)"/>
     <use xlink:href="#DejaVuSans-74" transform="translate(718.787109 0)"/>
     <use xlink:href="#DejaVuSans-65" transform="translate(757.996094 0)"/>
     <use xlink:href="#DejaVuSans-74" transform="translate(819.519531 0)"/>
     <use xlink:href="#DejaVuSans-20" transform="translate(858.728516 0)"/>
     <use xlink:href="#DejaVuSans-2014" transform="translate(890.515625 0)"/>
     <use xlink:href="#DejaVuSans-20" transform="translate(990.515625 0)"/>
     <use xlink:href="#DejaVuSans-66" transform="translate(1022.302734 0)"/>
     <use xlink:href="#DejaVuSans-2080" transform="translate(1057.507812 0)"/>
     <use xlink:href="#DejaVuSans-20" transform="translate(1097.595703 0)"/>
     <use xlink:href="#DejaVuSans-3d" transform="translate(1129.382812 0)"/>
     <use xlink:href="#DejaVuSans-20" transform="translate(1213.171875 0)"/>
     <use xlink:href="#DejaVuSans-31" transform="translate(1244.958984 0)"/>
     <use xlink:href="#DejaVuSans-35" transform="translate(1308.582031 0)"/>
     <use xlink:href="#DejaVuSans-2e" transform="translate(1372.205078 0)"/>
     <use xlink:href="#DejaVuSans-30" transform="translate(1403.992188 0)"/>
     <use xlink:href="#DejaVuSans-20" transform="translate(1467.615234 0)"/>
     <use xlink:href="#DejaVuSans-48" transform="translate(1499.402344 0)"/>
     <use xlink:href="#DejaVuSans-7a" transform="translate(1574.597656 0)"/>
     <use xlink:href="#DejaVuSans-2c" transform="translate(1627.087891 0)"/>
     <use xlink:href="#DejaVuSans-20" transform="translate(1658.875 0)"/>
     <use xlink:href="#DejaVuSans-20" transform="translate(1690.662109 0)"/>
     <use xlink:href="#DejaVuSans-4a" transform="translate(1722.449219 0)"/>
     <use xlink:href="#DejaVuSans-20" transform="translate(1751.941406 0)"/>
     <use xlink:href="#DejaVuSans-3d" transform="translate(1783.728516 0)"/>
     <use xlink:href="#DejaVuSans-20" transform="translate(1867.517578 0)"/>
     <use xlink:href="#DejaVuSans-32" transform="translate(1899.304688 0)"/>
     <use xlink:href="#DejaVuSans-2e" transform="translate(1962.927734 0)"/>
     <use xlink:href="#DejaVuSans-35" transform="translate(1994.714844 0)"/>
     <use xlink:href="#DejaVuSans-20" transform="translate(2058.337891 0)"/>
     <use xlink:href="#DejaVuSans-48" transform="translate(2090.125 0)"/>
     <use xlink:href="#DejaVuSans-7a" transform="translate(2165.320312 0)"/>
     <use xlink:href="#DejaVuSans-2c" transform="translate(2217.810547 0)"/>
     <use xlink:href="#DejaVuSans-20" transform="translate(2249.597656 0)"/>
     <use xlink:href="#DejaVuSans-20" transform="translate(2281.384766 0)"/>
     <use xlink:href="#DejaVuSans-61" transform="translate(2313.171875 0)"/>
     <use xlink:href="#DejaVuSans-6d" transform="translate(2374.451172 0)"/>
     <use xlink:href="#DejaVuSans-70" transform="translate(2471.863281 0)"/>
     <use xlink:href="#DejaVuSans-6c" transform="translate(2535.339844 0)"/>
     <use xlink:href="#DejaVuSans-69" transform="translate(2563.123047 0)"/>
     <use xlink:href="#DejaVuSans-74" transform="translate(2590.90625 0)"/>
     <use xlink:href="#DejaVuSans-75" transform="translate(2630.115234 0)"/>
     <use xlink:href="#DejaVuSans-64" transform="translate(2693.494141 0)"/>
     <use xlink:href="#DejaVuSans-65" transform="translate(2756.970703 0)"/>
     <use xlink:href="#DejaVuSans-73" transform="translate(2818.494141 0)"/>
     <use xlink:href="#DejaVuSans-20" transform="translate(2870.59375 0)"/>
     <use xlink:href="#DejaVuSans-31" transform="translate(2902.380859 0)"/>
     <use xlink:href="#DejaVuSans-3a" transform="translate(2966.003906 0)"/>
     <use xlink:href="#DejaVuSans-33" transform="translate(2999.695312 0)"/>
     <use xlink:href="#DejaVuSans-3a" transform="translate(3063.318359 0)"/>
     <use xlink:href="#DejaVuSans-33" transform="translate(3097.009766 0)"/>
     <use xlink:href="#DejaVuSans-3a" transform="translate(3160.632812 0)"/>
     <use xlink:href="#DejaVuSans-31" transform="translate(3194.324219 0)"/>
    </g>
   </g>
  </g>
  <g id="axes_2">
   <g id="patch_7">
    <path d="M 48.660938 388.978125 
L 705.360938 388.978125 
L 705.360938 232.918125 
L 48.660938 232.918125 
z
" style="fill: #ffffff"/>
   </g>
   <g id="matplotlib.axis_3">
    <g id="xtick_10">
     <g id="line2d_32">
      <path d="M 48.660938 388.978125 
L 48.660938 232.918125 
" clip-path="url(#p0cf9dca685)" style="fill: none; stroke: #b0b0b0; stroke-opacity: 0.3; stroke-width: 0.8; stroke-linecap: square"/>
     </g>
     <g id="line2d_33">
      <g>
       <use xlink:href="#mba99e9bb30" x="48.660938" y="388.978125" style="stroke: #000000; stroke-width: 0.8"/>
      </g>
     </g>
     <g id="text_19">
      <!-- 5 -->
      <g transform="translate(45.479688 400.076562) scale(0.1 -0.1)">
       <use xlink:href="#DejaVuSans-35"/>
      </g>
     </g>
    </g>
    <g id="xtick_11">
     <g id="line2d_34">
      <path d="M 191.421807 388.978125 
L 191.421807 232.918125 
" clip-path="url(#p0cf9dca685)" style="fill: none; stroke: #b0b0b0; stroke-opacity: 0.3; stroke-width: 0.8; stroke-linecap: square"/>
     </g>
     <g id="line2d_35">
      <g>
       <use xlink:href="#mba99e9bb30" x="191.421807" y="388.978125" style="stroke: #000000; stroke-width: 0.8"/>
      </g>
     </g>
     <g id="text_20">
      <!-- 10 -->
      <g transform="translate(185.059307 400.076562) scale(0.1 -0.1)">
       <use xlink:href="#DejaVuSans-31"/>
       <use xlink:href="#DejaVuSans-30" transform="translate(63.623047 0)"/>
      </g>
     </g>
    </g>
    <g id="xtick_12">
     <g id="line2d_36">
      <path d="M 334.182677 388.978125 
L 334.182677 232.918125 
" clip-path="url(#p0cf9dca685)" style="fill: none; stroke: #b0b0b0; stroke-opacity: 0.3; stroke-width: 0.8; stroke-linecap: square"/>
     </g>
     <g id="line2d_37">
      <g>
       <use xlink:href="#mba99e9bb30" x="334.182677" y="388.978125" style="stroke: #000000; stroke-width: 0.8"/>
      </g>
     </g>
     <g id="text_21">
      <!-- 15 -->
      <g transform="translate(327.820177 400.076562) scale(0.1 -0.1)">
       <use xlink:href="#DejaVuSans-31"/>
       <use xlink:href="#DejaVuSans-35" transform="translate(63.623047 0)"/>
      </g>
     </g>
    </g>
    <g id="xtick_13">
     <g id="line2d_38">
      <path d="M 476.943546 388.978125 
L 476.943546 232.918125 
" clip-path="url(#p0cf9dca685)" style="fill: none; stroke: #b0b0b0; stroke-opacity: 0.3; stroke-width: 0.8; stroke-linecap: square"/>
     </g>
     <g id="line2d_39">
      <g>
       <use xlink:href="#mba99e9bb30" x="476.943546" y="388.978125" style="stroke: #000000; stroke-width: 0.8"/>
      </g>
     </g>
     <g id="text_22">
      <!-- 20 -->
      <g transform="translate(470.581046 400.076562) scale(0.1 -0.1)">
       <use xlink:href="#DejaVuSans-32"/>
       <use xlink:href="#DejaVuSans-30" transform="translate(63.623047 0)"/>
      </g>
     </g>
    </g>
    <g id="xtick_14">
     <g id="line2d_40">
      <path d="M 619.704416 388.978125 
L 619.704416 232.918125 
" clip-path="url(#p0cf9dca685)" style="fill: none; stroke: #b0b0b0; stroke-opacity: 0.3; stroke-width: 0.8; stroke-linecap: square"/>
     </g>
     <g id="line2d_41">
      <g>
       <use xlink:href="#mba99e9bb30" x="619.704416" y="388.978125" style="stroke: #000000; stroke-width: 0.8"/>
      </g>
     </g>
     <g id="text_23">
      <!-- 25 -->
      <g transform="translate(613.341916 400.076562) scale(0.1 -0.1)">
       <use xlink:href="#DejaVuSans-32"/>
       <use xlink:href="#DejaVuSans-35" transform="translate(63.623047 0)"/>
      </g>
     </g>
    </g>
    <g id="text_24">
     <!-- Frequency (Hz) -->
     <g transform="translate(339.30625 413.754687) scale(0.1 -0.1)">
      <defs>
       <path id="DejaVuSans-46" d="M 628 4666 
L 3309 4666 
L 3309 4134 
L 1259 4134 
L 1259 2759 
L 3109 2759 
L 3109 2228 
L 1259 2228 
L 1259 0 
L 628 0 
L 628 4666 
z
" transform="scale(0.015625)"/>
       <path id="DejaVuSans-6e" d="M 3513 2113 
L 3513 0 
L 2938 0 
L 2938 2094 
Q 2938 2591 2744 2837 
Q 2550 3084 2163 3084 
Q 1697 3084 1428 2787 
Q 1159 2491 1159 1978 
L 1159 0 
L 581 0 
L 581 3500 
L 1159 3500 
L 1159 2956 
Q 1366 3272 1645 3428 
Q 1925 3584 2291 3584 
Q 2894 3584 3203 3211 
Q 3513 2838 3513 2113 
z
" transform="scale(0.015625)"/>
       <path id="DejaVuSans-79" d="M 2059 -325 
Q 1816 -950 1584 -1140 
Q 1353 -1331 966 -1331 
L 506 -1331 
L 506 -850 
L 844 -850 
Q 1081 -850 1212 -737 
Q 1344 -625 1503 -206 
L 1606 56 
L 191 3500 
L 800 3500 
L 1894 763 
L 2988 3500 
L 3597 3500 
L 2059 -325 
z
" transform="scale(0.015625)"/>
      </defs>
      <use xlink:href="#DejaVuSans-46"/>
      <use xlink:href="#DejaVuSans-72" transform="translate(50.269531 0)"/>
      <use xlink:href="#DejaVuSans-65" transform="translate(89.132812 0)"/>
      <use xlink:href="#DejaVuSans-71" transform="translate(150.65625 0)"/>
      <use xlink:href="#DejaVuSans-75" transform="translate(214.132812 0)"/>
      <use xlink:href="#DejaVuSans-65" transform="translate(277.511719 0)"/>
      <use xlink:href="#DejaVuSans-6e" transform="translate(339.035156 0)"/>
      <use xlink:href="#DejaVuSans-63" transform="translate(402.414062 0)"/>
      <use xlink:href="#DejaVuSans-79" transform="translate(457.394531 0)"/>
      <use xlink:href="#DejaVuSans-20" transform="translate(516.574219 0)"/>
      <use xlink:href="#DejaVuSans-28" transform="translate(548.361328 0)"/>
      <use xlink:href="#DejaVuSans-48" transform="translate(587.375 0)"/>
      <use xlink:href="#DejaVuSans-7a" transform="translate(662.570312 0)"/>
      <use xlink:href="#DejaVuSans-29" transform="translate(715.060547 0)"/>
     </g>
    </g>
   </g>
   <g id="matplotlib.axis_4">
    <g id="ytick_7">
     <g id="line2d_42">
      <path d="M 48.660938 384.13393 
L 705.360938 384.13393 
" clip-path="url(#p0cf9dca685)" style="fill: none; stroke: #b0b0b0; stroke-opacity: 0.3; stroke-width: 0.8; stroke-linecap: square"/>
     </g>
     <g id="line2d_43">
      <g>
       <use xlink:href="#m81af5981f1" x="48.660938" y="384.13393" style="stroke: #000000; stroke-width: 0.8"/>
      </g>
     </g>
     <g id="text_25">
      <!-- 0.0 -->
      <g transform="translate(29.257812 387.933149) scale(0.1 -0.1)">
       <use xlink:href="#DejaVuSans-30"/>
       <use xlink:href="#DejaVuSans-2e" transform="translate(63.623047 0)"/>
       <use xlink:href="#DejaVuSans-30" transform="translate(95.410156 0)"/>
      </g>
     </g>
    </g>
    <g id="ytick_8">
     <g id="line2d_44">
      <path d="M 48.660938 356.11837 
L 705.360938 356.11837 
" clip-path="url(#p0cf9dca685)" style="fill: none; stroke: #b0b0b0; stroke-opacity: 0.3; stroke-width: 0.8; stroke-linecap: square"/>
     </g>
     <g id="line2d_45">
      <g>
       <use xlink:href="#m81af5981f1" x="48.660938" y="356.11837" style="stroke: #000000; stroke-width: 0.8"/>
      </g>
     </g>
     <g id="text_26">
      <!-- 0.5 -->
      <g transform="translate(29.257812 359.917589) scale(0.1 -0.1)">
       <use xlink:href="#DejaVuSans-30"/>
       <use xlink:href="#DejaVuSans-2e" transform="translate(63.623047 0)"/>
       <use xlink:href="#DejaVuSans-35" transform="translate(95.410156 0)"/>
      </g>
     </g>
    </g>
    <g id="ytick_9">
     <g id="line2d_46">
      <path d="M 48.660938 328.102811 
L 705.360938 328.102811 
" clip-path="url(#p0cf9dca685)" style="fill: none; stroke: #b0b0b0; stroke-opacity: 0.3; stroke-width: 0.8; stroke-linecap: square"/>
     </g>
     <g id="line2d_47">
      <g>
       <use xlink:href="#m81af5981f1" x="48.660938" y="328.102811" style="stroke: #000000; stroke-width: 0.8"/>
      </g>
     </g>
     <g id="text_27">
      <!-- 1.0 -->
      <g transform="translate(29.257812 331.902029) scale(0.1 -0.1)">
       <use xlink:href="#DejaVuSans-31"/>
       <use xlink:href="#DejaVuSans-2e" transform="translate(63.623047 0)"/>
       <use xlink:href="#DejaVuSans-30" transform="translate(95.410156 0)"/>
      </g>
     </g>
    </g>
    <g id="ytick_10">
     <g id="line2d_48">
      <path d="M 48.660938 300.087251 
L 705.360938 300.087251 
" clip-path="url(#p0cf9dca685)" style="fill: none; stroke: #b0b0b0; stroke-opacity: 0.3; stroke-width: 0.8; stroke-linecap: square"/>
     </g>
     <g id="line2d_49">
      <g>
       <use xlink:href="#m81af5981f1" x="48.660938" y="300.087251" style="stroke: #000000; stroke-width: 0.8"/>
      </g>
     </g>
     <g id="text_28">
      <!-- 1.5 -->
      <g transform="translate(29.257812 303.88647) scale(0.1 -0.1)">
       <use xlink:href="#DejaVuSans-31"/>
       <use xlink:href="#DejaVuSans-2e" transform="translate(63.623047 0)"/>
       <use xlink:href="#DejaVuSans-35" transform="translate(95.410156 0)"/>
      </g>
     </g>
    </g>
    <g id="ytick_11">
     <g id="line2d_50">
      <path d="M 48.660938 272.071691 
L 705.360938 272.071691 
" clip-path="url(#p0cf9dca685)" style="fill: none; stroke: #b0b0b0; stroke-opacity: 0.3; stroke-width: 0.8; stroke-linecap: square"/>
     </g>
     <g id="line2d_51">
      <g>
       <use xlink:href="#m81af5981f1" x="48.660938" y="272.071691" style="stroke: #000000; stroke-width: 0.8"/>
      </g>
     </g>
     <g id="text_29">
      <!-- 2.0 -->
      <g transform="translate(29.257812 275.87091) scale(0.1 -0.1)">
       <use xlink:href="#DejaVuSans-32"/>
       <use xlink:href="#DejaVuSans-2e" transform="translate(63.623047 0)"/>
       <use xlink:href="#DejaVuSans-30" transform="translate(95.410156 0)"/>
      </g>
     </g>
    </g>
    <g id="ytick_12">
     <g id="line2d_52">
      <path d="M 48.660938 244.056132 
L 705.360938 244.056132 
" clip-path="url(#p0cf9dca685)" style="fill: none; stroke: #b0b0b0; stroke-opacity: 0.3; stroke-width: 0.8; stroke-linecap: square"/>
     </g>
     <g id="line2d_53">
      <g>
       <use xlink:href="#m81af5981f1" x="48.660938" y="244.056132" style="stroke: #000000; stroke-width: 0.8"/>
      </g>
     </g>
     <g id="text_30">
      <!-- 2.5 -->
      <g transform="translate(29.257812 247.85535) scale(0.1 -0.1)">
       <use xlink:href="#DejaVuSans-32"/>
       <use xlink:href="#DejaVuSans-2e" transform="translate(63.623047 0)"/>
       <use xlink:href="#DejaVuSans-35" transform="translate(95.410156 0)"/>
      </g>
     </g>
    </g>
    <g id="text_31">
     <!-- ASD (V/√Hz) -->
     <g transform="translate(23.178125 341.558281) rotate(-90) scale(0.1 -0.1)">
      <defs>
       <path id="DejaVuSans-53" d="M 3425 4513 
L 3425 3897 
Q 3066 4069 2747 4153 
Q 2428 4238 2131 4238 
Q 1616 4238 1336 4038 
Q 1056 3838 1056 3469 
Q 1056 3159 1242 3001 
Q 1428 2844 1947 2747 
L 2328 2669 
Q 3034 2534 3370 2195 
Q 3706 1856 3706 1288 
Q 3706 609 3251 259 
Q 2797 -91 1919 -91 
Q 1588 -91 1214 -16 
Q 841 59 441 206 
L 441 856 
Q 825 641 1194 531 
Q 1563 422 1919 422 
Q 2459 422 2753 634 
Q 3047 847 3047 1241 
Q 3047 1584 2836 1778 
Q 2625 1972 2144 2069 
L 1759 2144 
Q 1053 2284 737 2584 
Q 422 2884 422 3419 
Q 422 4038 858 4394 
Q 1294 4750 2059 4750 
Q 2388 4750 2728 4690 
Q 3069 4631 3425 4513 
z
" transform="scale(0.015625)"/>
       <path id="DejaVuSans-44" d="M 1259 4147 
L 1259 519 
L 2022 519 
Q 2988 519 3436 956 
Q 3884 1394 3884 2338 
Q 3884 3275 3436 3711 
Q 2988 4147 2022 4147 
L 1259 4147 
z
M 628 4666 
L 1925 4666 
Q 3281 4666 3915 4102 
Q 4550 3538 4550 2338 
Q 4550 1131 3912 565 
Q 3275 0 1925 0 
L 628 0 
L 628 4666 
z
" transform="scale(0.015625)"/>
       <path id="DejaVuSans-2f" d="M 1625 4666 
L 2156 4666 
L 531 -594 
L 0 -594 
L 1625 4666 
z
" transform="scale(0.015625)"/>
       <path id="DejaVuSans-221a" d="M 3488 5191 
L 4078 5191 
L 4078 4891 
L 3719 4891 
L 1863 -128 
L 1656 -128 
L 659 2631 
L 269 2491 
L 191 2741 
L 1075 3047 
L 1875 831 
L 3488 5191 
z
" transform="scale(0.015625)"/>
      </defs>
      <use xlink:href="#DejaVuSans-41"/>
      <use xlink:href="#DejaVuSans-53" transform="translate(68.408203 0)"/>
      <use xlink:href="#DejaVuSans-44" transform="translate(131.884766 0)"/>
      <use xlink:href="#DejaVuSans-20" transform="translate(208.886719 0)"/>
      <use xlink:href="#DejaVuSans-28" transform="translate(240.673828 0)"/>
      <use xlink:href="#DejaVuSans-56" transform="translate(279.6875 0)"/>
      <use xlink:href="#DejaVuSans-2f" transform="translate(348.095703 0)"/>
      <use xlink:href="#DejaVuSans-221a" transform="translate(381.787109 0)"/>
      <use xlink:href="#DejaVuSans-48" transform="translate(445.507812 0)"/>
      <use xlink:href="#DejaVuSans-7a" transform="translate(520.703125 0)"/>
      <use xlink:href="#DejaVuSans-29" transform="translate(573.193359 0)"/>
     </g>
    </g>
   </g>
   <g id="line2d_54">
    <path d="M -1 380.738436 
L 30.815829 379.986368 
L 59.368003 379.114483 
L 84.351155 378.151756 
L 105.765285 377.119201 
L 123.610394 376.049476 
L 137.886481 374.997691 
L 152.162568 373.693127 
L 162.869633 372.47388 
L 170.007677 371.497806 
L 177.14572 370.341496 
L 184.283764 368.936573 
L 191.421807 367.171759 
L 194.990829 366.099111 
L 198.559851 364.854344 
L 202.128872 363.387756 
L 205.697894 361.631451 
L 209.266916 359.4958 
L 212.835938 356.878154 
L 216.404959 353.727897 
L 219.973981 350.316884 
L 223.543003 347.989234 
L 227.112024 349.565425 
L 230.681046 355.835625 
L 234.250068 363.111776 
L 237.81909 368.403623 
L 241.388111 371.117984 
L 244.957133 371.695793 
L 248.526155 370.899263 
L 252.095177 369.351516 
L 255.664198 367.375469 
L 259.23322 365.082095 
L 262.802242 362.466901 
L 266.371264 359.454608 
L 269.940285 355.906821 
L 273.509307 351.603519 
L 277.078329 346.194669 
L 280.647351 339.100454 
L 284.216372 329.307986 
L 287.785394 314.96739 
L 291.354416 292.846855 
L 294.923438 260.689847 
L 298.492459 240.279199 
L 302.061481 267.586317 
L 305.630503 302.919787 
L 309.199524 326.384617 
L 312.768546 341.452794 
L 316.337568 351.755449 
L 319.90659 359.26876 
L 323.475611 365.022661 
L 327.044633 369.523964 
L 330.613655 372.892438 
L 334.182677 374.814621 
L 337.751698 374.685264 
L 341.32072 372.412139 
L 344.889742 368.44237 
L 348.458764 362.932064 
L 352.027785 355.511174 
L 355.596807 345.192503 
L 359.165829 329.976753 
L 362.734851 306.102332 
L 366.303872 269.683767 
L 369.872894 240.011761 
L 373.441916 258.124944 
L 377.010938 289.278707 
L 380.579959 311.020342 
L 384.148981 325.197973 
L 387.718003 334.911304 
L 391.287024 341.96508 
L 394.856046 347.354942 
L 398.425068 351.654019 
L 401.99409 355.210773 
L 405.563111 358.247389 
L 409.132133 360.908987 
L 412.701155 363.285455 
L 416.270177 365.41155 
L 419.839198 367.236914 
L 423.40822 368.540223 
L 426.977242 368.76768 
L 430.546264 366.946968 
L 434.115285 362.135345 
L 437.684307 354.599747 
L 441.253329 347.449364 
L 444.822351 344.924461 
L 448.391372 346.634312 
L 455.529416 352.698362 
L 459.098437 355.220977 
L 462.667459 357.299194 
L 466.236481 359.017981 
L 469.805503 360.458314 
L 473.374524 361.683579 
L 476.943546 362.740984 
L 484.08159 364.482825 
L 491.219633 365.870327 
L 498.357677 367.012118 
L 509.064742 368.4042 
L 519.771807 369.526874 
L 534.047894 370.737225 
L 548.323981 371.717931 
L 566.16909 372.718084 
L 587.58322 373.685046 
L 612.566372 374.589036 
L 644.687568 375.507759 
L 683.946807 376.379394 
L 713.560937 376.909373 
L 713.560937 376.909373 
" clip-path="url(#p0cf9dca685)" style="fill: none; stroke: #4c72b0; stroke-width: 1.5; stroke-linecap: square"/>
   </g>
   <g id="patch_8">
    <path d="M 48.660938 388.978125 
L 48.660938 232.918125 
" style="fill: none; stroke: #000000; stroke-width: 0.8; stroke-linejoin: miter; stroke-linecap: square"/>
   </g>
   <g id="patch_9">
    <path d="M 705.360938 388.978125 
L 705.360938 232.918125 
" style="fill: none; stroke: #000000; stroke-width: 0.8; stroke-linejoin: miter; stroke-linecap: square"/>
   </g>
   <g id="patch_10">
    <path d="M 48.660938 388.978125 
L 705.360937 388.978125 
" style="fill: none; stroke: #000000; stroke-width: 0.8; stroke-linejoin: miter; stroke-linecap: square"/>
   </g>
   <g id="patch_11">
    <path d="M 48.660938 232.918125 
L 705.360937 232.918125 
" style="fill: none; stroke: #000000; stroke-width: 0.8; stroke-linejoin: miter; stroke-linecap: square"/>
   </g>
   <g id="text_32">
    <!-- Magnitude spectrum — four overlapping Lorentzian lines -->
    <g transform="translate(206.380313 226.918125) scale(0.12 -0.12)">
     <defs>
      <path id="DejaVuSans-4d" d="M 628 4666 
L 1569 4666 
L 2759 1491 
L 3956 4666 
L 4897 4666 
L 4897 0 
L 4281 0 
L 4281 4097 
L 3078 897 
L 2444 897 
L 1241 4097 
L 1241 0 
L 628 0 
L 628 4666 
z
" transform="scale(0.015625)"/>
      <path id="DejaVuSans-67" d="M 2906 1791 
Q 2906 2416 2648 2759 
Q 2391 3103 1925 3103 
Q 1463 3103 1205 2759 
Q 947 2416 947 1791 
Q 947 1169 1205 825 
Q 1463 481 1925 481 
Q 2391 481 2648 825 
Q 2906 1169 2906 1791 
z
M 3481 434 
Q 3481 -459 3084 -895 
Q 2688 -1331 1869 -1331 
Q 1566 -1331 1297 -1286 
Q 1028 -1241 775 -1147 
L 775 -588 
Q 1028 -725 1275 -790 
Q 1522 -856 1778 -856 
Q 2344 -856 2625 -561 
Q 2906 -266 2906 331 
L 2906 616 
Q 2728 306 2450 153 
Q 2172 0 1784 0 
Q 1141 0 747 490 
Q 353 981 353 1791 
Q 353 2603 747 3093 
Q 1141 3584 1784 3584 
Q 2172 3584 2450 3431 
Q 2728 3278 2906 2969 
L 2906 3500 
L 3481 3500 
L 3481 434 
z
" transform="scale(0.015625)"/>
      <path id="DejaVuSans-76" d="M 191 3500 
L 800 3500 
L 1894 563 
L 2988 3500 
L 3597 3500 
L 2284 0 
L 1503 0 
L 191 3500 
z
" transform="scale(0.015625)"/>
      <path id="DejaVuSans-4c" d="M 628 4666 
L 1259 4666 
L 1259 531 
L 3531 531 
L 3531 0 
L 628 0 
L 628 4666 
z
" transform="scale(0.015625)"/>
     </defs>
     <use xlink:href="#DejaVuSans-4d"/>
     <use xlink:href="#DejaVuSans-61" transform="translate(86.279297 0)"/>
     <use xlink:href="#DejaVuSans-67" transform="translate(147.558594 0)"/>
     <use xlink:href="#DejaVuSans-6e" transform="translate(211.035156 0)"/>
     <use xlink:href="#DejaVuSans-69" transform="translate(274.414062 0)"/>
     <use xlink:href="#DejaVuSans-74" transform="translate(302.197266 0)"/>
     <use xlink:href="#DejaVuSans-75" transform="translate(341.40625 0)"/>
     <use xlink:href="#DejaVuSans-64" transform="translate(404.785156 0)"/>
     <use xlink:href="#DejaVuSans-65" transform="translate(468.261719 0)"/>
     <use xlink:href="#DejaVuSans-20" transform="translate(529.785156 0)"/>
     <use xlink:href="#DejaVuSans-73" transform="translate(561.572266 0)"/>
     <use xlink:href="#DejaVuSans-70" transform="translate(613.671875 0)"/>
     <use xlink:href="#DejaVuSans-65" transform="translate(677.148438 0)"/>
     <use xlink:href="#DejaVuSans-63" transform="translate(738.671875 0)"/>
     <use xlink:href="#DejaVuSans-74" transform="translate(793.652344 0)"/>
     <use xlink:href="#DejaVuSans-72" transform="translate(832.861328 0)"/>
     <use xlink:href="#DejaVuSans-75" transform="translate(873.974609 0)"/>
     <use xlink:href="#DejaVuSans-6d" transform="translate(937.353516 0)"/>
     <use xlink:href="#DejaVuSans-20" transform="translate(1034.765625 0)"/>
     <use xlink:href="#DejaVuSans-2014" transform="translate(1066.552734 0)"/>
     <use xlink:href="#DejaVuSans-20" transform="translate(1166.552734 0)"/>
     <use xlink:href="#DejaVuSans-66" transform="translate(1198.339844 0)"/>
     <use xlink:href="#DejaVuSans-6f" transform="translate(1233.544922 0)"/>
     <use xlink:href="#DejaVuSans-75" transform="translate(1294.726562 0)"/>
     <use xlink:href="#DejaVuSans-72" transform="translate(1358.105469 0)"/>
     <use xlink:href="#DejaVuSans-20" transform="translate(1399.21875 0)"/>
     <use xlink:href="#DejaVuSans-6f" transform="translate(1431.005859 0)"/>
     <use xlink:href="#DejaVuSans-76" transform="translate(1492.1875 0)"/>
     <use xlink:href="#DejaVuSans-65" transform="translate(1551.367188 0)"/>
     <use xlink:href="#DejaVuSans-72" transform="translate(1612.890625 0)"/>
     <use xlink:href="#DejaVuSans-6c" transform="translate(1654.003906 0)"/>
     <use xlink:href="#DejaVuSans-61" transform="translate(1681.787109 0)"/>
     <use xlink:href="#DejaVuSans-70" transform="translate(1743.066406 0)"/>
     <use xlink:href="#DejaVuSans-70" transform="translate(1806.542969 0)"/>
     <use xlink:href="#DejaVuSans-69" transform="translate(1870.019531 0)"/>
     <use xlink:href="#DejaVuSans-6e" transform="translate(1897.802734 0)"/>
     <use xlink:href="#DejaVuSans-67" transform="translate(1961.181641 0)"/>
     <use xlink:href="#DejaVuSans-20" transform="translate(2024.658203 0)"/>
     <use xlink:href="#DejaVuSans-4c" transform="translate(2056.445312 0)"/>
     <use xlink:href="#DejaVuSans-6f" transform="translate(2110.408203 0)"/>
     <use xlink:href="#DejaVuSans-72" transform="translate(2171.589844 0)"/>
     <use xlink:href="#DejaVuSans-65" transform="translate(2210.453125 0)"/>
     <use xlink:href="#DejaVuSans-6e" transform="translate(2271.976562 0)"/>
     <use xlink:href="#DejaVuSans-74" transform="translate(2335.355469 0)"/>
     <use xlink:href="#DejaVuSans-7a" transform="translate(2374.564453 0)"/>
     <use xlink:href="#DejaVuSans-69" transform="translate(2427.054688 0)"/>
     <use xlink:href="#DejaVuSans-61" transform="translate(2454.837891 0)"/>
     <use xlink:href="#DejaVuSans-6e" transform="translate(2516.117188 0)"/>
     <use xlink:href="#DejaVuSans-20" transform="translate(2579.496094 0)"/>
     <use xlink:href="#DejaVuSans-6c" transform="translate(2611.283203 0)"/>
     <use xlink:href="#DejaVuSans-69" transform="translate(2639.066406 0)"/>
     <use xlink:href="#DejaVuSans-6e" transform="translate(2666.849609 0)"/>
     <use xlink:href="#DejaVuSans-65" transform="translate(2730.228516 0)"/>
     <use xlink:href="#DejaVuSans-73" transform="translate(2791.751953 0)"/>
    </g>
   </g>
  </g>
 </g>
 <defs>
  <clipPath id="pa4ae576da3">
   <rect x="48.660938" y="22.318125" width="656.7" height="156.06"/>
  </clipPath>
  <clipPath id="p0cf9dca685">
   <rect x="48.660938" y="232.918125" width="656.7" height="156.06"/>
  </clipPath>
 </defs>
</svg>
