<?xml version="1.0" encoding="utf-8" standalone="no"?>
<!DOCTYPE svg PUBLIC "-//W3C//DTD SVG 1.1//EN"
  "http://www.w3.org/Graphics/SVG/1.1/DTD/svg11.dtd">
<svg xmlns:xlink="http://www.w3.org/1999/xlink" width="711.826071pt" height="495.034375pt" viewBox="0 0 711.826071 495.034375" xmlns="http://www.w3.org/2000/svg" version="1.1">
 <metadata>
  <rdf:RDF xmlns:dc="http://purl.org/dc/elements/1.1/" xmlns:cc="http://creativecommons.org/ns#" xmlns:rdf="http://www.w3.org/1999/02/22-rdf-syntax-ns#">
   <cc:Work>
    <dc:type rdf:resource="http://purl.org/dc/dcmitype/StillImage"/>
    <dc:date>2026-04-08T19:16:27.017098</dc:date>
    <dc:format>image/svg+xml</dc:format>
    <dc:creator>
     <cc:Agent>
      <dc:title>Matplotlib v3.10.0, https://matplotlib.org/</dc:title>
     </cc:Agent>
    </dc:creator>
   </cc:Work>
  </rdf:RDF>
 </metadata>
 <defs>
  <style type="text/css">*{stroke-linejoin: round; stroke-linecap: butt}</style>
 </defs>
 <g id="figure_1">
  <g id="patch_1">
   <path d="M 0 495.034375 
L 711.826071 495.034375 
L 711.826071 0 
L 0 0 
z
" style="fill: #ffffff"/>
  </g>
  <g id="axes_1">
   <g id="patch_2">
    <path d="M 47.878125 221.418125 
L 704.626071 221.418125 
L 704.626071 22.318125 
L 47.878125 22.318125 
z
" style="fill: #ffffff"/>
   </g>
   <g id="matplotlib.axis_1">
    <g id="xtick_1">
     <g id="line2d_1">
      <path d="M 93.441978 221.418125 
L 93.441978 22.318125 
" clip-path="url(#p6b553784c6)" style="fill: none; stroke: #b0b0b0; stroke-opacity: 0.3; stroke-width: 0.8; stroke-linecap: square"/>
     </g>
     <g id="line2d_2">
      <defs>
       <path id="mf0b59159bb" d="M 0 0 
L 0 -3.5 
" style="stroke: #000000; stroke-width: 0.8"/>
      </defs>
      <g>
       <use xlink:href="#mf0b59159bb" x="93.441978" y="221.418125" style="stroke: #000000; stroke-width: 0.8"/>
      </g>
     </g>
     <g id="text_1">
      <!-- 7.5 -->
      <g transform="translate(85.490415 232.516563) scale(0.1 -0.1)">
       <defs>
        <path id="DejaVuSans-37" d="M 525 4666 
L 3525 4666 
L 3525 4397 
L 1831 0 
L 1172 0 
L 2766 4134 
L 525 4134 
L 525 4666 
z
" transform="scale(0.015625)"/>
        <path id="DejaVuSans-2e" d="M 684 794 
L 1344 794 
L 1344 0 
L 684 0 
L 684 794 
z
" transform="scale(0.015625)"/>
        <path id="DejaVuSans-35" d="M 691 4666 
L 3169 4666 
L 3169 4134 
L 1269 4134 
L 1269 2991 
Q 1406 3038 1543 3061 
Q 1681 3084 1819 3084 
Q 2600 3084 3056 2656 
Q 3513 2228 3513 1497 
Q 3513 744 3044 326 
Q 2575 -91 1722 -91 
Q 1428 -91 1123 -41 
Q 819 9 494 109 
L 494 744 
Q 775 591 1075 516 
Q 1375 441 1709 441 
Q 2250 441 2565 725 
Q 2881 1009 2881 1497 
Q 2881 1984 2565 2268 
Q 2250 2553 1709 2553 
Q 1456 2553 1204 2497 
Q 953 2441 691 2322 
L 691 4666 
z
" transform="scale(0.015625)"/>
       </defs>
       <use xlink:href="#DejaVuSans-37"/>
       <use xlink:href="#DejaVuSans-2e" transform="translate(63.623047 0)"/>
       <use xlink:href="#DejaVuSans-35" transform="translate(95.410156 0)"/>
      </g>
     </g>
    </g>
    <g id="xtick_2">
     <g id="line2d_3">
      <path d="M 172.000344 221.418125 
L 172.000344 22.318125 
" clip-path="url(#p6b553784c6)" style="fill: none; stroke: #b0b0b0; stroke-opacity: 0.3; stroke-width: 0.8; stroke-linecap: square"/>
     </g>
     <g id="line2d_4">
      <g>
       <use xlink:href="#mf0b59159bb" x="172.000344" y="221.418125" style="stroke: #000000; stroke-width: 0.8"/>
      </g>
     </g>
     <g id="text_2">
      <!-- 10.0 -->
      <g transform="translate(160.867532 232.516563) scale(0.1 -0.1)">
       <defs>
        <path id="DejaVuSans-31" d="M 794 531 
L 1825 531 
L 1825 4091 
L 703 3866 
L 703 4441 
L 1819 4666 
L 2450 4666 
L 2450 531 
L 3481 531 
L 3481 0 
L 794 0 
L 794 531 
z
" transform="scale(0.015625)"/>
        <path id="DejaVuSans-30" d="M 2034 4250 
Q 1547 4250 1301 3770 
Q 1056 3291 1056 2328 
Q 1056 1369 1301 889 
Q 1547 409 2034 409 
Q 2525 409 2770 889 
Q 3016 1369 3016 2328 
Q 3016 3291 2770 3770 
Q 2525 4250 2034 4250 
z
M 2034 4750 
Q 2819 4750 3233 4129 
Q 3647 3509 3647 2328 
Q 3647 1150 3233 529 
Q 2819 -91 2034 -91 
Q 1250 -91 836 529 
Q 422 1150 422 2328 
Q 422 3509 836 4129 
Q 1250 4750 2034 4750 
z
" transform="scale(0.015625)"/>
       </defs>
       <use xlink:href="#DejaVuSans-31"/>
       <use xlink:href="#DejaVuSans-30" transform="translate(63.623047 0)"/>
       <use xlink:href="#DejaVuSans-2e" transform="translate(127.246094 0)"/>
       <use xlink:href="#DejaVuSans-30" transform="translate(159.033203 0)"/>
      </g>
     </g>
    </g>
    <g id="xtick_3">
     <g id="line2d_5">
      <path d="M 250.558711 221.418125 
L 250.558711 22.318125 
" clip-path="url(#p6b553784c6)" style="fill: none; stroke: #b0b0b0; stroke-opacity: 0.3; stroke-width: 0.8; stroke-linecap: square"/>
     </g>
     <g id="line2d_6">
      <g>
       <use xlink:href="#mf0b59159bb" x="250.558711" y="221.418125" style="stroke: #000000; stroke-width: 0.8"/>
      </g>
     </g>
     <g id="text_3">
      <!-- 12.5 -->
      <g transform="translate(239.425899 232.516563) scale(0.1 -0.1)">
       <defs>
        <path id="DejaVuSans-32" d="M 1228 531 
L 3431 531 
L 3431 0 
L 469 0 
L 469 531 
Q 828 903 1448 1529 
Q 2069 2156 2228 2338 
Q 2531 2678 2651 2914 
Q 2772 3150 2772 3378 
Q 2772 3750 2511 3984 
Q 2250 4219 1831 4219 
Q 1534 4219 1204 4116 
Q 875 4013 500 3803 
L 500 4441 
Q 881 4594 1212 4672 
Q 1544 4750 1819 4750 
Q 2544 4750 2975 4387 
Q 3406 4025 3406 3419 
Q 3406 3131 3298 2873 
Q 3191 2616 2906 2266 
Q 2828 2175 2409 1742 
Q 1991 1309 1228 531 
z
" transform="scale(0.015625)"/>
       </defs>
       <use xlink:href="#DejaVuSans-31"/>
       <use xlink:href="#DejaVuSans-32" transform="translate(63.623047 0)"/>
       <use xlink:href="#DejaVuSans-2e" transform="translate(127.246094 0)"/>
       <use xlink:href="#DejaVuSans-35" transform="translate(159.033203 0)"/>
      </g>
     </g>
    </g>
    <g id="xtick_4">
     <g id="line2d_7">
      <path d="M 329.117078 221.418125 
L 329.117078 22.318125 
" clip-path="url(#p6b553784c6)" style="fill: none; stroke: #b0b0b0; stroke-opacity: 0.3; stroke-width: 0.8; stroke-linecap: square"/>
     </g>
     <g id="line2d_8">
      <g>
       <use xlink:href="#mf0b59159bb" x="329.117078" y="221.418125" style="stroke: #000000; stroke-width: 0.8"/>
      </g>
     </g>
     <g id="text_4">
      <!-- 15.0 -->
      <g transform="translate(317.984265 232.516563) scale(0.1 -0.1)">
       <use xlink:href="#DejaVuSans-31"/>
       <use xlink:href="#DejaVuSans-35" transform="translate(63.623047 0)"/>
       <use xlink:href="#DejaVuSans-2e" transform="translate(127.246094 0)"/>
       <use xlink:href="#DejaVuSans-30" transform="translate(159.033203 0)"/>
      </g>
     </g>
    </g>
    <g id="xtick_5">
     <g id="line2d_9">
      <path d="M 407.675445 221.418125 
L 407.675445 22.318125 
" clip-path="url(#p6b553784c6)" style="fill: none; stroke: #b0b0b0; stroke-opacity: 0.3; stroke-width: 0.8; stroke-linecap: square"/>
     </g>
     <g id="line2d_10">
      <g>
       <use xlink:href="#mf0b59159bb" x="407.675445" y="221.418125" style="stroke: #000000; stroke-width: 0.8"/>
      </g>
     </g>
     <g id="text_5">
      <!-- 17.5 -->
      <g transform="translate(396.542632 232.516563) scale(0.1 -0.1)">
       <use xlink:href="#DejaVuSans-31"/>
       <use xlink:href="#DejaVuSans-37" transform="translate(63.623047 0)"/>
       <use xlink:href="#DejaVuSans-2e" transform="translate(127.246094 0)"/>
       <use xlink:href="#DejaVuSans-35" transform="translate(159.033203 0)"/>
      </g>
     </g>
    </g>
    <g id="xtick_6">
     <g id="line2d_11">
      <path d="M 486.233812 221.418125 
L 486.233812 22.318125 
" clip-path="url(#p6b553784c6)" style="fill: none; stroke: #b0b0b0; stroke-opacity: 0.3; stroke-width: 0.8; stroke-linecap: square"/>
     </g>
     <g id="line2d_12">
      <g>
       <use xlink:href="#mf0b59159bb" x="486.233812" y="221.418125" style="stroke: #000000; stroke-width: 0.8"/>
      </g>
     </g>
     <g id="text_6">
      <!-- 20.0 -->
      <g transform="translate(475.100999 232.516563) scale(0.1 -0.1)">
       <use xlink:href="#DejaVuSans-32"/>
       <use xlink:href="#DejaVuSans-30" transform="translate(63.623047 0)"/>
       <use xlink:href="#DejaVuSans-2e" transform="translate(127.246094 0)"/>
       <use xlink:href="#DejaVuSans-30" transform="translate(159.033203 0)"/>
      </g>
     </g>
    </g>
    <g id="xtick_7">
     <g id="line2d_13">
      <path d="M 564.792178 221.418125 
L 564.792178 22.318125 
" clip-path="url(#p6b553784c6)" style="fill: none; stroke: #b0b0b0; stroke-opacity: 0.3; stroke-width: 0.8; stroke-linecap: square"/>
     </g>
     <g id="line2d_14">
      <g>
       <use xlink:href="#mf0b59159bb" x="564.792178" y="221.418125" style="stroke: #000000; stroke-width: 0.8"/>
      </g>
     </g>
     <g id="text_7">
      <!-- 22.5 -->
      <g transform="translate(553.659366 232.516563) scale(0.1 -0.1)">
       <use xlink:href="#DejaVuSans-32"/>
       <use xlink:href="#DejaVuSans-32" transform="translate(63.623047 0)"/>
       <use xlink:href="#DejaVuSans-2e" transform="translate(127.246094 0)"/>
       <use xlink:href="#DejaVuSans-35" transform="translate(159.033203 0)"/>
      </g>
     </g>
    </g>
    <g id="xtick_8">
     <g id="line2d_15">
      <path d="M 643.350545 221.418125 
L 643.350545 22.318125 
" clip-path="url(#p6b553784c6)" style="fill: none; stroke: #b0b0b0; stroke-opacity: 0.3; stroke-width: 0.8; stroke-linecap: square"/>
     </g>
     <g id="line2d_16">
      <g>
       <use xlink:href="#mf0b59159bb" x="643.350545" y="221.418125" style="stroke: #000000; stroke-width: 0.8"/>
      </g>
     </g>
     <g id="text_8">
      <!-- 25.0 -->
      <g transform="translate(632.217733 232.516563) scale(0.1 -0.1)">
       <use xlink:href="#DejaVuSans-32"/>
       <use xlink:href="#DejaVuSans-35" transform="translate(63.623047 0)"/>
       <use xlink:href="#DejaVuSans-2e" transform="translate(127.246094 0)"/>
       <use xlink:href="#DejaVuSans-30" transform="translate(159.033203 0)"/>
      </g>
     </g>
    </g>
   </g>
   <g id="matplotlib.axis_2">
    <g id="ytick_1">
     <g id="line2d_17">
      <path d="M 47.878125 212.990453 
L 704.626071 212.990453 
" clip-path="url(#p6b553784c6)" style="fill: none; stroke: #b0b0b0; stroke-opacity: 0.3; stroke-width: 0.8; stroke-linecap: square"/>
     </g>
     <g id="line2d_18">
      <defs>
       <path id="m0738fc98a5" d="M 0 0 
L 3.5 0 
" style="stroke: #000000; stroke-width: 0.8"/>
      </defs>
      <g>
       <use xlink:href="#m0738fc98a5" x="47.878125" y="212.990453" style="stroke: #000000; stroke-width: 0.8"/>
      </g>
     </g>
     <g id="text_9">
      <!-- 0.0 -->
      <g transform="translate(28.475 216.789672) scale(0.1 -0.1)">
       <use xlink:href="#DejaVuSans-30"/>
       <use xlink:href="#DejaVuSans-2e" transform="translate(63.623047 0)"/>
       <use xlink:href="#DejaVuSans-30" transform="translate(95.410156 0)"/>
      </g>
     </g>
    </g>
    <g id="ytick_2">
     <g id="line2d_19">
      <path d="M 47.878125 179.521477 
L 704.626071 179.521477 
" clip-path="url(#p6b553784c6)" style="fill: none; stroke: #b0b0b0; stroke-opacity: 0.3; stroke-width: 0.8; stroke-linecap: square"/>
     </g>
     <g id="line2d_20">
      <g>
       <use xlink:href="#m0738fc98a5" x="47.878125" y="179.521477" style="stroke: #000000; stroke-width: 0.8"/>
      </g>
     </g>
     <g id="text_10">
      <!-- 0.5 -->
      <g transform="translate(28.475 183.320696) scale(0.1 -0.1)">
       <use xlink:href="#DejaVuSans-30"/>
       <use xlink:href="#DejaVuSans-2e" transform="translate(63.623047 0)"/>
       <use xlink:href="#DejaVuSans-35" transform="translate(95.410156 0)"/>
      </g>
     </g>
    </g>
    <g id="ytick_3">
     <g id="line2d_21">
      <path d="M 47.878125 146.0525 
L 704.626071 146.0525 
" clip-path="url(#p6b553784c6)" style="fill: none; stroke: #b0b0b0; stroke-opacity: 0.3; stroke-width: 0.8; stroke-linecap: square"/>
     </g>
     <g id="line2d_22">
      <g>
       <use xlink:href="#m0738fc98a5" x="47.878125" y="146.0525" style="stroke: #000000; stroke-width: 0.8"/>
      </g>
     </g>
     <g id="text_11">
      <!-- 1.0 -->
      <g transform="translate(28.475 149.851719) scale(0.1 -0.1)">
       <use xlink:href="#DejaVuSans-31"/>
       <use xlink:href="#DejaVuSans-2e" transform="translate(63.623047 0)"/>
       <use xlink:href="#DejaVuSans-30" transform="translate(95.410156 0)"/>
      </g>
     </g>
    </g>
    <g id="ytick_4">
     <g id="line2d_23">
      <path d="M 47.878125 112.583524 
L 704.626071 112.583524 
" clip-path="url(#p6b553784c6)" style="fill: none; stroke: #b0b0b0; stroke-opacity: 0.3; stroke-width: 0.8; stroke-linecap: square"/>
     </g>
     <g id="line2d_24">
      <g>
       <use xlink:href="#m0738fc98a5" x="47.878125" y="112.583524" style="stroke: #000000; stroke-width: 0.8"/>
      </g>
     </g>
     <g id="text_12">
      <!-- 1.5 -->
      <g transform="translate(28.475 116.382742) scale(0.1 -0.1)">
       <use xlink:href="#DejaVuSans-31"/>
       <use xlink:href="#DejaVuSans-2e" transform="translate(63.623047 0)"/>
       <use xlink:href="#DejaVuSans-35" transform="translate(95.410156 0)"/>
      </g>
     </g>
    </g>
    <g id="ytick_5">
     <g id="line2d_25">
      <path d="M 47.878125 79.114547 
L 704.626071 79.114547 
" clip-path="url(#p6b553784c6)" style="fill: none; stroke: #b0b0b0; stroke-opacity: 0.3; stroke-width: 0.8; stroke-linecap: square"/>
     </g>
     <g id="line2d_26">
      <g>
       <use xlink:href="#m0738fc98a5" x="47.878125" y="79.114547" style="stroke: #000000; stroke-width: 0.8"/>
      </g>
     </g>
     <g id="text_13">
      <!-- 2.0 -->
      <g transform="translate(28.475 82.913766) scale(0.1 -0.1)">
       <use xlink:href="#DejaVuSans-32"/>
       <use xlink:href="#DejaVuSans-2e" transform="translate(63.623047 0)"/>
       <use xlink:href="#DejaVuSans-30" transform="translate(95.410156 0)"/>
      </g>
     </g>
    </g>
    <g id="ytick_6">
     <g id="line2d_27">
      <path d="M 47.878125 45.64557 
L 704.626071 45.64557 
" clip-path="url(#p6b553784c6)" style="fill: none; stroke: #b0b0b0; stroke-opacity: 0.3; stroke-width: 0.8; stroke-linecap: square"/>
     </g>
     <g id="line2d_28">
      <g>
       <use xlink:href="#m0738fc98a5" x="47.878125" y="45.64557" style="stroke: #000000; stroke-width: 0.8"/>
      </g>
     </g>
     <g id="text_14">
      <!-- 2.5 -->
      <g transform="translate(28.475 49.444789) scale(0.1 -0.1)">
       <use xlink:href="#DejaVuSans-32"/>
       <use xlink:href="#DejaVuSans-2e" transform="translate(63.623047 0)"/>
       <use xlink:href="#DejaVuSans-35" transform="translate(95.410156 0)"/>
      </g>
     </g>
    </g>
    <g id="text_15">
     <!-- ASD (V/√Hz) -->
     <g transform="translate(22.395312 152.478281) rotate(-90) scale(0.1 -0.1)">
      <defs>
       <path id="DejaVuSans-41" d="M 2188 4044 
L 1331 1722 
L 3047 1722 
L 2188 4044 
z
M 1831 4666 
L 2547 4666 
L 4325 0 
L 3669 0 
L 3244 1197 
L 1141 1197 
L 716 0 
L 50 0 
L 1831 4666 
z
" transform="scale(0.015625)"/>
       <path id="DejaVuSans-53" d="M 3425 4513 
L 3425 3897 
Q 3066 4069 2747 4153 
Q 2428 4238 2131 4238 
Q 1616 4238 1336 4038 
Q 1056 3838 1056 3469 
Q 1056 3159 1242 3001 
Q 1428 2844 1947 2747 
L 2328 2669 
Q 3034 2534 3370 2195 
Q 3706 1856 3706 1288 
Q 3706 609 3251 259 
Q 2797 -91 1919 -91 
Q 1588 -91 1214 -16 
Q 841 59 441 206 
L 441 856 
Q 825 641 1194 531 
Q 1563 422 1919 422 
Q 2459 422 2753 634 
Q 3047 847 3047 1241 
Q 3047 1584 2836 1778 
Q 2625 1972 2144 2069 
L 1759 2144 
Q 1053 2284 737 2584 
Q 422 2884 422 3419 
Q 422 4038 858 4394 
Q 1294 4750 2059 4750 
Q 2388 4750 2728 4690 
Q 3069 4631 3425 4513 
z
" transform="scale(0.015625)"/>
       <path id="DejaVuSans-44" d="M 1259 4147 
L 1259 519 
L 2022 519 
Q 2988 519 3436 956 
Q 3884 1394 3884 2338 
Q 3884 3275 3436 3711 
Q 2988 4147 2022 4147 
L 1259 4147 
z
M 628 4666 
L 1925 4666 
Q 3281 4666 3915 4102 
Q 4550 3538 4550 2338 
Q 4550 1131 3912 565 
Q 3275 0 1925 0 
L 628 0 
L 628 4666 
z
" transform="scale(0.015625)"/>
       <path id="DejaVuSans-20" transform="scale(0.015625)"/>
       <path id="DejaVuSans-28" d="M 1984 4856 
Q 1566 4138 1362 3434 
Q 1159 2731 1159 2009 
Q 1159 1288 1364 580 
Q 1569 -128 1984 -844 
L 1484 -844 
Q 1016 -109 783 600 
Q 550 1309 550 2009 
Q 550 2706 781 3412 
Q 1013 4119 1484 4856 
L 1984 4856 
z
" transform="scale(0.015625)"/>
       <path id="DejaVuSans-56" d="M 1831 0 
L 50 4666 
L 709 4666 
L 2188 738 
L 3669 4666 
L 4325 4666 
L 2547 0 
L 1831 0 
z
" transform="scale(0.015625)"/>
       <path id="DejaVuSans-2f" d="M 1625 4666 
L 2156 4666 
L 531 -594 
L 0 -594 
L 1625 4666 
z
" transform="scale(0.015625)"/>
       <path id="DejaVuSans-221a" d="M 3488 5191 
L 4078 5191 
L 4078 4891 
L 3719 4891 
L 1863 -128 
L 1656 -128 
L 659 2631 
L 269 2491 
L 191 2741 
L 1075 3047 
L 1875 831 
L 3488 5191 
z
" transform="scale(0.015625)"/>
       <path id="DejaVuSans-48" d="M 628 4666 
L 1259 4666 
L 1259 2753 
L 3553 2753 
L 3553 4666 
L 4184 4666 
L 4184 0 
L 3553 0 
L 3553 2222 
L 1259 2222 
L 1259 0 
L 628 0 
L 628 4666 
z
" transform="scale(0.015625)"/>
       <path id="DejaVuSans-7a" d="M 353 3500 
L 3084 3500 
L 3084 2975 
L 922 459 
L 3084 459 
L 3084 0 
L 275 0 
L 275 525 
L 2438 3041 
L 353 3041 
L 353 3500 
z
" transform="scale(0.015625)"/>
       <path id="DejaVuSans-29" d="M 513 4856 
L 1013 4856 
Q 1481 4119 1714 3412 
Q 1947 2706 1947 2009 
Q 1947 1309 1714 600 
Q 1481 -109 1013 -844 
L 513 -844 
Q 928 -128 1133 580 
Q 1338 1288 1338 2009 
Q 1338 2731 1133 3434 
Q 928 4138 513 4856 
z
" transform="scale(0.015625)"/>
      </defs>
      <use xlink:href="#DejaVuSans-41"/>
      <use xlink:href="#DejaVuSans-53" transform="translate(68.408203 0)"/>
      <use xlink:href="#DejaVuSans-44" transform="translate(131.884766 0)"/>
      <use xlink:href="#DejaVuSans-20" transform="translate(208.886719 0)"/>
      <use xlink:href="#DejaVuSans-28" transform="translate(240.673828 0)"/>
      <use xlink:href="#DejaVuSans-56" transform="translate(279.6875 0)"/>
      <use xlink:href="#DejaVuSans-2f" transform="translate(348.095703 0)"/>
      <use xlink:href="#DejaVuSans-221a" transform="translate(381.787109 0)"/>
      <use xlink:href="#DejaVuSans-48" transform="translate(445.507812 0)"/>
      <use xlink:href="#DejaVuSans-7a" transform="translate(520.703125 0)"/>
      <use xlink:href="#DejaVuSans-29" transform="translate(573.193359 0)"/>
     </g>
    </g>
   </g>
   <g id="line2d_29">
    <path d="M 77.730304 197.935585 
L 97.369896 196.736793 
L 113.081569 195.556703 
L 124.865324 194.486771 
L 136.649079 193.191975 
L 144.504916 192.156655 
L 152.360753 190.931827 
L 160.216589 189.447034 
L 168.072426 187.58921 
L 172.000344 186.464926 
L 175.928263 185.165302 
L 179.856181 183.640838 
L 183.784099 181.822861 
L 187.712018 179.615817 
L 191.639936 176.890053 
L 195.567855 173.488516 
L 199.495773 169.30456 
L 203.423691 164.631175 
L 207.35161 161.170509 
L 211.279528 162.657541 
L 215.207446 170.226859 
L 219.135365 179.007991 
L 223.063283 185.160081 
L 226.991201 188.26303 
L 230.91912 189.134756 
L 234.847038 188.610863 
L 238.774956 187.237473 
L 242.702875 185.295862 
L 246.630793 182.893331 
L 250.558711 180.028318 
L 254.48663 176.619582 
L 258.414548 172.507086 
L 262.342466 167.426897 
L 266.270385 160.950946 
L 270.198303 152.363515 
L 274.126221 140.409813 
L 278.05414 122.798943 
L 281.982058 95.551526 
L 285.909976 56.05164 
L 289.837895 31.913907 
L 293.765813 67.399204 
L 297.693731 111.990653 
L 301.62165 141.169193 
L 305.549568 159.540794 
L 309.477486 171.712052 
L 313.405405 180.135151 
L 317.333323 186.038726 
L 321.261241 189.999384 
L 325.18916 192.230577 
L 329.117078 192.777058 
L 333.044996 191.670298 
L 336.972915 188.970297 
L 340.900833 184.66648 
L 344.828751 178.531416 
L 348.75667 169.961134 
L 352.684588 157.706492 
L 356.612506 139.311577 
L 360.540425 110.204841 
L 364.468343 65.938554 
L 368.396261 31.368125 
L 372.32418 56.577314 
L 376.252098 96.615492 
L 380.180016 124.072585 
L 384.107935 141.754882 
L 388.035853 153.713851 
L 391.963771 162.26767 
L 395.89169 168.681988 
L 399.819608 173.676272 
L 403.747526 177.678393 
L 407.675445 180.949103 
L 411.603363 183.642291 
L 415.531281 185.829756 
L 419.4592 187.500545 
L 423.387118 188.53489 
L 427.315036 188.650402 
L 431.242955 187.335123 
L 435.170873 183.843129 
L 439.098791 177.478597 
L 443.02671 168.769161 
L 446.954628 161.594219 
L 450.882546 160.65347 
L 454.810465 164.550185 
L 458.738383 169.478938 
L 462.666301 173.785876 
L 466.59422 177.229605 
L 470.522138 179.949307 
L 474.450056 182.12069 
L 478.377975 183.884142 
L 482.305893 185.341573 
L 486.233812 186.565562 
L 490.16173 187.608092 
L 494.089648 188.506946 
L 501.945485 189.978525 
L 509.801322 191.132335 
L 517.657158 192.059935 
L 529.440913 193.149654 
L 541.224668 193.98169 
L 556.936342 194.814127 
L 572.648015 195.424278 
L 592.287607 195.970214 
L 615.855117 196.405583 
L 647.278463 196.738992 
L 674.773892 196.876984 
L 674.773892 196.876984 
" clip-path="url(#p6b553784c6)" style="fill: none; stroke: #4c72b0; stroke-opacity: 0.8; stroke-width: 1.5; stroke-linecap: square"/>
   </g>
   <g id="line2d_30">
    <path d="M 77.730304 197.935585 
L 97.369896 196.736793 
L 113.081569 195.556703 
L 124.865324 194.486771 
L 136.649079 193.191975 
L 144.504916 192.156655 
L 152.360753 190.931827 
L 160.216589 189.447034 
L 168.072426 187.58921 
L 172.000344 186.464926 
L 175.928263 185.165302 
L 179.856181 183.640838 
L 183.784099 181.822861 
L 187.712018 179.615817 
L 191.639936 176.890053 
L 195.567855 173.488516 
L 199.495773 169.30456 
L 203.423691 164.631175 
L 207.35161 161.170509 
L 211.279528 162.657541 
L 215.207446 170.226859 
L 219.135365 179.007991 
L 223.063283 185.160081 
L 226.991201 188.26303 
L 230.91912 189.134756 
L 234.847038 188.610863 
L 238.774956 187.237473 
L 242.702875 185.295862 
L 246.630793 182.893331 
L 250.558711 180.028318 
L 254.48663 176.619582 
L 258.414548 172.507086 
L 262.342466 167.426897 
L 266.270385 160.950946 
L 270.198303 152.363515 
L 274.126221 140.409813 
L 278.05414 122.798943 
L 281.982058 95.551526 
L 285.909976 56.05164 
L 289.837895 31.913907 
L 293.765813 67.399204 
L 297.693731 111.990653 
L 301.62165 141.169193 
L 305.549568 159.540794 
L 309.477486 171.712052 
L 313.405405 180.135151 
L 317.333323 186.038727 
L 321.261241 189.999384 
L 325.18916 192.230577 
L 329.117078 192.777058 
L 333.044996 191.670298 
L 336.972915 188.970297 
L 340.900833 184.66648 
L 344.828751 178.531416 
L 348.75667 169.961134 
L 352.684588 157.706492 
L 356.612506 139.311577 
L 360.540425 110.204841 
L 364.468343 65.938554 
L 368.396261 31.368125 
L 372.32418 56.577314 
L 376.252098 96.615492 
L 380.180016 124.072585 
L 384.107935 141.754882 
L 388.035853 153.713851 
L 391.963771 162.26767 
L 395.89169 168.681989 
L 399.819608 173.676272 
L 403.747526 177.678393 
L 407.675445 180.949103 
L 411.603363 183.642291 
L 415.531281 185.829756 
L 419.4592 187.500545 
L 423.387118 188.53489 
L 427.315036 188.650402 
L 431.242955 187.335123 
L 435.170873 183.843129 
L 439.098791 177.478597 
L 443.02671 168.769161 
L 446.954628 161.594219 
L 450.882546 160.65347 
L 454.810465 164.550185 
L 458.738383 169.478938 
L 462.666301 173.785876 
L 466.59422 177.229605 
L 470.522138 179.949307 
L 474.450056 182.120691 
L 478.377975 183.884142 
L 482.305893 185.341574 
L 486.233812 186.565562 
L 490.16173 187.608092 
L 494.089648 188.506946 
L 501.945485 189.978525 
L 509.801322 191.132335 
L 517.657158 192.059935 
L 529.440913 193.149654 
L 541.224668 193.98169 
L 556.936342 194.814127 
L 572.648015 195.424278 
L 592.287607 195.970213 
L 615.855117 196.405583 
L 647.278463 196.738992 
L 674.773892 196.876984 
L 674.773892 196.876984 
" clip-path="url(#p6b553784c6)" style="fill: none; stroke-dasharray: 7.4,3.2; stroke-dashoffset: 0; stroke: #55a868; stroke-width: 2"/>
   </g>
   <g id="line2d_31">
    <path d="M 77.730304 210.997323 
L 101.297814 210.442838 
L 120.937406 209.770142 
L 136.649079 208.987842 
L 148.432834 208.15572 
L 156.288671 207.412729 
L 164.144508 206.437299 
L 172.000344 205.103301 
L 175.928263 204.236222 
L 179.856181 203.179392 
L 183.784099 201.867599 
L 187.712018 200.205855 
L 191.639936 198.055078 
L 195.567855 195.217979 
L 199.495773 191.456215 
L 203.423691 186.678247 
L 207.35161 181.681536 
L 211.279528 179.176504 
L 215.207446 181.352754 
L 223.063283 190.770346 
L 226.991201 194.458956 
L 230.91912 197.25313 
L 234.847038 199.37721 
L 238.774956 201.021403 
L 242.702875 202.321074 
L 246.630793 203.369165 
L 250.558711 204.229701 
L 258.414548 205.554587 
L 266.270385 206.523896 
L 274.126221 207.262339 
L 285.909976 208.08914 
L 297.693731 208.697156 
L 313.405405 209.295009 
L 333.044996 209.830154 
L 360.540425 210.347737 
L 399.819608 210.830991 
L 454.810465 211.252219 
L 533.368832 211.612086 
L 655.1343 211.92747 
L 674.773892 211.963604 
L 674.773892 211.963604 
" clip-path="url(#p6b553784c6)" style="fill: none; stroke-dasharray: 1.2,1.98; stroke-dashoffset: 0; stroke: #c44e52; stroke-width: 1.2"/>
   </g>
   <g id="line2d_32">
    <path d="M 77.730304 209.564792 
L 109.153651 208.696049 
L 132.721161 207.8282 
L 152.360753 206.886792 
L 168.072426 205.921898 
L 179.856181 205.021919 
L 191.639936 203.910655 
L 199.495773 203.01186 
L 207.35161 201.944923 
L 215.207446 200.657292 
L 223.063283 199.072087 
L 226.991201 198.133556 
L 230.91912 197.072263 
L 234.847038 195.862447 
L 238.774956 194.470661 
L 242.702875 192.852689 
L 246.630793 190.948885 
L 250.558711 188.676901 
L 254.48663 185.919926 
L 258.414548 182.506972 
L 262.342466 178.178312 
L 266.270385 172.521869 
L 270.198303 164.849829 
L 274.126221 153.947991 
L 278.05414 137.566831 
L 281.982058 111.659878 
L 285.909976 72.725607 
L 289.837895 44.640319 
L 293.765813 71.535829 
L 297.693731 109.933361 
L 301.62165 135.630653 
L 305.549568 151.918013 
L 309.477486 162.771412 
L 313.405405 170.415479 
L 317.333323 176.054326 
L 321.261241 180.371144 
L 325.18916 183.775677 
L 329.117078 186.526374 
L 333.044996 188.793481 
L 336.972915 190.693353 
L 340.900833 192.308049 
L 344.828751 193.697021 
L 348.75667 194.904351 
L 352.684588 195.963398 
L 360.540425 197.733818 
L 368.396261 199.154928 
L 376.252098 200.320871 
L 384.107935 201.294806 
L 395.89169 202.488267 
L 407.675445 203.445788 
L 423.387118 204.462782 
L 443.02671 205.444432 
L 466.59422 206.338615 
L 494.089648 207.125385 
L 529.440913 207.876812 
L 572.648015 208.54601 
L 627.638872 209.156906 
L 674.773892 209.546154 
L 674.773892 209.546154 
" clip-path="url(#p6b553784c6)" style="fill: none; stroke-dasharray: 1.2,1.98; stroke-dashoffset: 0; stroke: #8172b2; stroke-width: 1.2"/>
   </g>
   <g id="line2d_33">
    <path d="M 77.730304 210.61292 
L 124.865324 209.90839 
L 160.216589 209.178606 
L 187.712018 208.420613 
L 211.279528 207.565925 
L 230.91912 206.635105 
L 246.630793 205.678405 
L 258.414548 204.784408 
L 270.198303 203.678992 
L 278.05414 202.784026 
L 285.909976 201.720871 
L 293.765813 200.436983 
L 301.62165 198.8555 
L 305.549568 197.91883 
L 309.477486 196.859403 
L 313.405405 195.651467 
L 317.333323 194.261582 
L 321.261241 192.645544 
L 325.18916 190.74373 
L 329.117078 188.473815 
L 333.044996 185.719034 
L 336.972915 182.308467 
L 340.900833 177.982508 
L 344.828751 172.329294 
L 348.75667 164.661435 
L 352.684588 153.765645 
L 356.612506 137.394638 
L 360.540425 111.508208 
L 364.468343 72.623331 
L 368.396261 44.643739 
L 372.32418 71.642222 
L 376.252098 110.08452 
L 380.180016 135.798107 
L 384.107935 152.091836 
L 388.035853 162.947772 
L 391.963771 170.592675 
L 395.89169 176.231509 
L 399.819608 180.547855 
L 403.747526 183.951648 
L 407.675445 186.701444 
L 411.603363 188.967549 
L 415.531281 190.866354 
L 419.4592 192.479941 
L 423.387118 193.867778 
L 427.315036 195.073958 
L 431.242955 196.131844 
L 439.098791 197.899935 
L 446.954628 199.318725 
L 454.810465 200.482371 
L 462.666301 201.454037 
L 474.450056 202.644161 
L 486.233812 203.598429 
L 501.945485 204.611221 
L 521.585077 205.587833 
L 545.152587 206.476277 
L 572.648015 207.256751 
L 607.99928 208.000666 
L 651.206382 208.661488 
L 674.773892 208.944969 
L 674.773892 208.944969 
" clip-path="url(#p6b553784c6)" style="fill: none; stroke-dasharray: 1.2,1.98; stroke-dashoffset: 0; stroke: #937860; stroke-width: 1.2"/>
   </g>
   <g id="line2d_34">
    <path d="M 77.730304 212.368125 
L 183.784099 211.990362 
L 250.558711 211.546064 
L 293.765813 211.056837 
L 325.18916 210.487241 
L 348.75667 209.825526 
L 364.468343 209.179065 
L 376.252098 208.510949 
L 388.035853 207.585587 
L 395.89169 206.742996 
L 403.747526 205.614272 
L 407.675445 204.894436 
L 411.603363 204.030743 
L 415.531281 202.977823 
L 419.4592 201.670741 
L 423.387118 200.014986 
L 427.315036 197.872334 
L 431.242955 195.047107 
L 435.170873 191.304107 
L 439.098791 186.557717 
L 443.02671 181.613785 
L 446.954628 179.182892 
L 450.882546 181.431211 
L 458.738383 190.923299 
L 462.666301 194.625736 
L 466.59422 197.427207 
L 470.522138 199.555134 
L 474.450056 201.20126 
L 478.377975 202.501748 
L 482.305893 203.549972 
L 486.233812 204.410206 
L 494.089648 205.733722 
L 501.945485 206.701111 
L 509.801322 207.437367 
L 521.585077 208.260669 
L 533.368832 208.865101 
L 549.080505 209.458201 
L 568.720097 209.987564 
L 596.215525 210.497449 
L 635.494708 210.970553 
L 674.773892 211.28225 
L 674.773892 211.28225 
" clip-path="url(#p6b553784c6)" style="fill: none; stroke-dasharray: 1.2,1.98; stroke-dashoffset: 0; stroke: #da8bc3; stroke-width: 1.2"/>
   </g>
   <g id="line2d_35">
    <path d="M 77.730304 205.10382 
L 674.773892 199.898189 
L 674.773892 199.898189 
" clip-path="url(#p6b553784c6)" style="fill: none; stroke-dasharray: 6.4,1.6,1,1.6; stroke-dashoffset: 0; stroke: #808080"/>
   </g>
   <g id="patch_3">
    <path d="M 47.878125 221.418125 
L 47.878125 22.318125 
" style="fill: none; stroke: #000000; stroke-width: 0.8; stroke-linejoin: miter; stroke-linecap: square"/>
   </g>
   <g id="patch_4">
    <path d="M 704.626071 221.418125 
L 704.626071 22.318125 
" style="fill: none; stroke: #000000; stroke-width: 0.8; stroke-linejoin: miter; stroke-linecap: square"/>
   </g>
   <g id="patch_5">
    <path d="M 47.878125 221.418125 
L 704.626071 221.418125 
" style="fill: none; stroke: #000000; stroke-width: 0.8; stroke-linejoin: miter; stroke-linecap: square"/>
   </g>
   <g id="patch_6">
    <path d="M 47.878125 22.318125 
L 704.626071 22.318125 
" style="fill: none; stroke: #000000; stroke-width: 0.8; stroke-linejoin: miter; stroke-linecap: square"/>
   </g>
   <g id="text_16">
    <!-- Composite fit: 1:3:3:1 quartet with linear background -->
    <g transform="translate(215.965848 16.318125) scale(0.12 -0.12)">
     <defs>
      <path id="DejaVuSans-43" d="M 4122 4306 
L 4122 3641 
Q 3803 3938 3442 4084 
Q 3081 4231 2675 4231 
Q 1875 4231 1450 3742 
Q 1025 3253 1025 2328 
Q 1025 1406 1450 917 
Q 1875 428 2675 428 
Q 3081 428 3442 575 
Q 3803 722 4122 1019 
L 4122 359 
Q 3791 134 3420 21 
Q 3050 -91 2638 -91 
Q 1578 -91 968 557 
Q 359 1206 359 2328 
Q 359 3453 968 4101 
Q 1578 4750 2638 4750 
Q 3056 4750 3426 4639 
Q 3797 4528 4122 4306 
z
" transform="scale(0.015625)"/>
      <path id="DejaVuSans-6f" d="M 1959 3097 
Q 1497 3097 1228 2736 
Q 959 2375 959 1747 
Q 959 1119 1226 758 
Q 1494 397 1959 397 
Q 2419 397 2687 759 
Q 2956 1122 2956 1747 
Q 2956 2369 2687 2733 
Q 2419 3097 1959 3097 
z
M 1959 3584 
Q 2709 3584 3137 3096 
Q 3566 2609 3566 1747 
Q 3566 888 3137 398 
Q 2709 -91 1959 -91 
Q 1206 -91 779 398 
Q 353 888 353 1747 
Q 353 2609 779 3096 
Q 1206 3584 1959 3584 
z
" transform="scale(0.015625)"/>
      <path id="DejaVuSans-6d" d="M 3328 2828 
Q 3544 3216 3844 3400 
Q 4144 3584 4550 3584 
Q 5097 3584 5394 3201 
Q 5691 2819 5691 2113 
L 5691 0 
L 5113 0 
L 5113 2094 
Q 5113 2597 4934 2840 
Q 4756 3084 4391 3084 
Q 3944 3084 3684 2787 
Q 3425 2491 3425 1978 
L 3425 0 
L 2847 0 
L 2847 2094 
Q 2847 2600 2669 2842 
Q 2491 3084 2119 3084 
Q 1678 3084 1418 2786 
Q 1159 2488 1159 1978 
L 1159 0 
L 581 0 
L 581 3500 
L 1159 3500 
L 1159 2956 
Q 1356 3278 1631 3431 
Q 1906 3584 2284 3584 
Q 2666 3584 2933 3390 
Q 3200 3197 3328 2828 
z
" transform="scale(0.015625)"/>
      <path id="DejaVuSans-70" d="M 1159 525 
L 1159 -1331 
L 581 -1331 
L 581 3500 
L 1159 3500 
L 1159 2969 
Q 1341 3281 1617 3432 
Q 1894 3584 2278 3584 
Q 2916 3584 3314 3078 
Q 3713 2572 3713 1747 
Q 3713 922 3314 415 
Q 2916 -91 2278 -91 
Q 1894 -91 1617 61 
Q 1341 213 1159 525 
z
M 3116 1747 
Q 3116 2381 2855 2742 
Q 2594 3103 2138 3103 
Q 1681 3103 1420 2742 
Q 1159 2381 1159 1747 
Q 1159 1113 1420 752 
Q 1681 391 2138 391 
Q 2594 391 2855 752 
Q 3116 1113 3116 1747 
z
" transform="scale(0.015625)"/>
      <path id="DejaVuSans-73" d="M 2834 3397 
L 2834 2853 
Q 2591 2978 2328 3040 
Q 2066 3103 1784 3103 
Q 1356 3103 1142 2972 
Q 928 2841 928 2578 
Q 928 2378 1081 2264 
Q 1234 2150 1697 2047 
L 1894 2003 
Q 2506 1872 2764 1633 
Q 3022 1394 3022 966 
Q 3022 478 2636 193 
Q 2250 -91 1575 -91 
Q 1294 -91 989 -36 
Q 684 19 347 128 
L 347 722 
Q 666 556 975 473 
Q 1284 391 1588 391 
Q 1994 391 2212 530 
Q 2431 669 2431 922 
Q 2431 1156 2273 1281 
Q 2116 1406 1581 1522 
L 1381 1569 
Q 847 1681 609 1914 
Q 372 2147 372 2553 
Q 372 3047 722 3315 
Q 1072 3584 1716 3584 
Q 2034 3584 2315 3537 
Q 2597 3491 2834 3397 
z
" transform="scale(0.015625)"/>
      <path id="DejaVuSans-69" d="M 603 3500 
L 1178 3500 
L 1178 0 
L 603 0 
L 603 3500 
z
M 603 4863 
L 1178 4863 
L 1178 4134 
L 603 4134 
L 603 4863 
z
" transform="scale(0.015625)"/>
      <path id="DejaVuSans-74" d="M 1172 4494 
L 1172 3500 
L 2356 3500 
L 2356 3053 
L 1172 3053 
L 1172 1153 
Q 1172 725 1289 603 
Q 1406 481 1766 481 
L 2356 481 
L 2356 0 
L 1766 0 
Q 1100 0 847 248 
Q 594 497 594 1153 
L 594 3053 
L 172 3053 
L 172 3500 
L 594 3500 
L 594 4494 
L 1172 4494 
z
" transform="scale(0.015625)"/>
      <path id="DejaVuSans-65" d="M 3597 1894 
L 3597 1613 
L 953 1613 
Q 991 1019 1311 708 
Q 1631 397 2203 397 
Q 2534 397 2845 478 
Q 3156 559 3463 722 
L 3463 178 
Q 3153 47 2828 -22 
Q 2503 -91 2169 -91 
Q 1331 -91 842 396 
Q 353 884 353 1716 
Q 353 2575 817 3079 
Q 1281 3584 2069 3584 
Q 2775 3584 3186 3129 
Q 3597 2675 3597 1894 
z
M 3022 2063 
Q 3016 2534 2758 2815 
Q 2500 3097 2075 3097 
Q 1594 3097 1305 2825 
Q 1016 2553 972 2059 
L 3022 2063 
z
" transform="scale(0.015625)"/>
      <path id="DejaVuSans-66" d="M 2375 4863 
L 2375 4384 
L 1825 4384 
Q 1516 4384 1395 4259 
Q 1275 4134 1275 3809 
L 1275 3500 
L 2222 3500 
L 2222 3053 
L 1275 3053 
L 1275 0 
L 697 0 
L 697 3053 
L 147 3053 
L 147 3500 
L 697 3500 
L 697 3744 
Q 697 4328 969 4595 
Q 1241 4863 1831 4863 
L 2375 4863 
z
" transform="scale(0.015625)"/>
      <path id="DejaVuSans-3a" d="M 750 794 
L 1409 794 
L 1409 0 
L 750 0 
L 750 794 
z
M 750 3309 
L 1409 3309 
L 1409 2516 
L 750 2516 
L 750 3309 
z
" transform="scale(0.015625)"/>
      <path id="DejaVuSans-33" d="M 2597 2516 
Q 3050 2419 3304 2112 
Q 3559 1806 3559 1356 
Q 3559 666 3084 287 
Q 2609 -91 1734 -91 
Q 1441 -91 1130 -33 
Q 819 25 488 141 
L 488 750 
Q 750 597 1062 519 
Q 1375 441 1716 441 
Q 2309 441 2620 675 
Q 2931 909 2931 1356 
Q 2931 1769 2642 2001 
Q 2353 2234 1838 2234 
L 1294 2234 
L 1294 2753 
L 1863 2753 
Q 2328 2753 2575 2939 
Q 2822 3125 2822 3475 
Q 2822 3834 2567 4026 
Q 2313 4219 1838 4219 
Q 1578 4219 1281 4162 
Q 984 4106 628 3988 
L 628 4550 
Q 988 4650 1302 4700 
Q 1616 4750 1894 4750 
Q 2613 4750 3031 4423 
Q 3450 4097 3450 3541 
Q 3450 3153 3228 2886 
Q 3006 2619 2597 2516 
z
" transform="scale(0.015625)"/>
      <path id="DejaVuSans-71" d="M 947 1747 
Q 947 1113 1208 752 
Q 1469 391 1925 391 
Q 2381 391 2643 752 
Q 2906 1113 2906 1747 
Q 2906 2381 2643 2742 
Q 2381 3103 1925 3103 
Q 1469 3103 1208 2742 
Q 947 2381 947 1747 
z
M 2906 525 
Q 2725 213 2448 61 
Q 2172 -91 1784 -91 
Q 1150 -91 751 415 
Q 353 922 353 1747 
Q 353 2572 751 3078 
Q 1150 3584 1784 3584 
Q 2172 3584 2448 3432 
Q 2725 3281 2906 2969 
L 2906 3500 
L 3481 3500 
L 3481 -1331 
L 2906 -1331 
L 2906 525 
z
" transform="scale(0.015625)"/>
      <path id="DejaVuSans-75" d="M 544 1381 
L 544 3500 
L 1119 3500 
L 1119 1403 
Q 1119 906 1312 657 
Q 1506 409 1894 409 
Q 2359 409 2629 706 
Q 2900 1003 2900 1516 
L 2900 3500 
L 3475 3500 
L 3475 0 
L 2900 0 
L 2900 538 
Q 2691 219 2414 64 
Q 2138 -91 1772 -91 
Q 1169 -91 856 284 
Q 544 659 544 1381 
z
M 1991 3584 
L 1991 3584 
z
" transform="scale(0.015625)"/>
      <path id="DejaVuSans-61" d="M 2194 1759 
Q 1497 1759 1228 1600 
Q 959 1441 959 1056 
Q 959 750 1161 570 
Q 1363 391 1709 391 
Q 2188 391 2477 730 
Q 2766 1069 2766 1631 
L 2766 1759 
L 2194 1759 
z
M 3341 1997 
L 3341 0 
L 2766 0 
L 2766 531 
Q 2569 213 2275 61 
Q 1981 -91 1556 -91 
Q 1019 -91 701 211 
Q 384 513 384 1019 
Q 384 1609 779 1909 
Q 1175 2209 1959 2209 
L 2766 2209 
L 2766 2266 
Q 2766 2663 2505 2880 
Q 2244 3097 1772 3097 
Q 1472 3097 1187 3025 
Q 903 2953 641 2809 
L 641 3341 
Q 956 3463 1253 3523 
Q 1550 3584 1831 3584 
Q 2591 3584 2966 3190 
Q 3341 2797 3341 1997 
z
" transform="scale(0.015625)"/>
      <path id="DejaVuSans-72" d="M 2631 2963 
Q 2534 3019 2420 3045 
Q 2306 3072 2169 3072 
Q 1681 3072 1420 2755 
Q 1159 2438 1159 1844 
L 1159 0 
L 581 0 
L 581 3500 
L 1159 3500 
L 1159 2956 
Q 1341 3275 1631 3429 
Q 1922 3584 2338 3584 
Q 2397 3584 2469 3576 
Q 2541 3569 2628 3553 
L 2631 2963 
z
" transform="scale(0.015625)"/>
      <path id="DejaVuSans-77" d="M 269 3500 
L 844 3500 
L 1563 769 
L 2278 3500 
L 2956 3500 
L 3675 769 
L 4391 3500 
L 4966 3500 
L 4050 0 
L 3372 0 
L 2619 2869 
L 1863 0 
L 1184 0 
L 269 3500 
z
" transform="scale(0.015625)"/>
      <path id="DejaVuSans-68" d="M 3513 2113 
L 3513 0 
L 2938 0 
L 2938 2094 
Q 2938 2591 2744 2837 
Q 2550 3084 2163 3084 
Q 1697 3084 1428 2787 
Q 1159 2491 1159 1978 
L 1159 0 
L 581 0 
L 581 4863 
L 1159 4863 
L 1159 2956 
Q 1366 3272 1645 3428 
Q 1925 3584 2291 3584 
Q 2894 3584 3203 3211 
Q 3513 2838 3513 2113 
z
" transform="scale(0.015625)"/>
      <path id="DejaVuSans-6c" d="M 603 4863 
L 1178 4863 
L 1178 0 
L 603 0 
L 603 4863 
z
" transform="scale(0.015625)"/>
      <path id="DejaVuSans-6e" d="M 3513 2113 
L 3513 0 
L 2938 0 
L 2938 2094 
Q 2938 2591 2744 2837 
Q 2550 3084 2163 3084 
Q 1697 3084 1428 2787 
Q 1159 2491 1159 1978 
L 1159 0 
L 581 0 
L 581 3500 
L 1159 3500 
L 1159 2956 
Q 1366 3272 1645 3428 
Q 1925 3584 2291 3584 
Q 2894 3584 3203 3211 
Q 3513 2838 3513 2113 
z
" transform="scale(0.015625)"/>
      <path id="DejaVuSans-62" d="M 3116 1747 
Q 3116 2381 2855 2742 
Q 2594 3103 2138 3103 
Q 1681 3103 1420 2742 
Q 1159 2381 1159 1747 
Q 1159 1113 1420 752 
Q 1681 391 2138 391 
Q 2594 391 2855 752 
Q 3116 1113 3116 1747 
z
M 1159 2969 
Q 1341 3281 1617 3432 
Q 1894 3584 2278 3584 
Q 2916 3584 3314 3078 
Q 3713 2572 3713 1747 
Q 3713 922 3314 415 
Q 2916 -91 2278 -91 
Q 1894 -91 1617 61 
Q 1341 213 1159 525 
L 1159 0 
L 581 0 
L 581 4863 
L 1159 4863 
L 1159 2969 
z
" transform="scale(0.015625)"/>
      <path id="DejaVuSans-63" d="M 3122 3366 
L 3122 2828 
Q 2878 2963 2633 3030 
Q 2388 3097 2138 3097 
Q 1578 3097 1268 2742 
Q 959 2388 959 1747 
Q 959 1106 1268 751 
Q 1578 397 2138 397 
Q 2388 397 2633 464 
Q 2878 531 3122 666 
L 3122 134 
Q 2881 22 2623 -34 
Q 2366 -91 2075 -91 
Q 1284 -91 818 406 
Q 353 903 353 1747 
Q 353 2603 823 3093 
Q 1294 3584 2113 3584 
Q 2378 3584 2631 3529 
Q 2884 3475 3122 3366 
z
" transform="scale(0.015625)"/>
      <path id="DejaVuSans-6b" d="M 581 4863 
L 1159 4863 
L 1159 1991 
L 2875 3500 
L 3609 3500 
L 1753 1863 
L 3688 0 
L 2938 0 
L 1159 1709 
L 1159 0 
L 581 0 
L 581 4863 
z
" transform="scale(0.015625)"/>
      <path id="DejaVuSans-67" d="M 2906 1791 
Q 2906 2416 2648 2759 
Q 2391 3103 1925 3103 
Q 1463 3103 1205 2759 
Q 947 2416 947 1791 
Q 947 1169 1205 825 
Q 1463 481 1925 481 
Q 2391 481 2648 825 
Q 2906 1169 2906 1791 
z
M 3481 434 
Q 3481 -459 3084 -895 
Q 2688 -1331 1869 -1331 
Q 1566 -1331 1297 -1286 
Q 1028 -1241 775 -1147 
L 775 -588 
Q 1028 -725 1275 -790 
Q 1522 -856 1778 -856 
Q 2344 -856 2625 -561 
Q 2906 -266 2906 331 
L 2906 616 
Q 2728 306 2450 153 
Q 2172 0 1784 0 
Q 1141 0 747 490 
Q 353 981 353 1791 
Q 353 2603 747 3093 
Q 1141 3584 1784 3584 
Q 2172 3584 2450 3431 
Q 2728 3278 2906 2969 
L 2906 3500 
L 3481 3500 
L 3481 434 
z
" transform="scale(0.015625)"/>
      <path id="DejaVuSans-64" d="M 2906 2969 
L 2906 4863 
L 3481 4863 
L 3481 0 
L 2906 0 
L 2906 525 
Q 2725 213 2448 61 
Q 2172 -91 1784 -91 
Q 1150 -91 751 415 
Q 353 922 353 1747 
Q 353 2572 751 3078 
Q 1150 3584 1784 3584 
Q 2172 3584 2448 3432 
Q 2725 3281 2906 2969 
z
M 947 1747 
Q 947 1113 1208 752 
Q 1469 391 1925 391 
Q 2381 391 2643 752 
Q 2906 1113 2906 1747 
Q 2906 2381 2643 2742 
Q 2381 3103 1925 3103 
Q 1469 3103 1208 2742 
Q 947 2381 947 1747 
z
" transform="scale(0.015625)"/>
     </defs>
     <use xlink:href="#DejaVuSans-43"/>
     <use xlink:href="#DejaVuSans-6f" transform="translate(69.824219 0)"/>
     <use xlink:href="#DejaVuSans-6d" transform="translate(131.005859 0)"/>
     <use xlink:href="#DejaVuSans-70" transform="translate(228.417969 0)"/>
     <use xlink:href="#DejaVuSans-6f" transform="translate(291.894531 0)"/>
     <use xlink:href="#DejaVuSans-73" transform="translate(353.076172 0)"/>
     <use xlink:href="#DejaVuSans-69" transform="translate(405.175781 0)"/>
     <use xlink:href="#DejaVuSans-74" transform="translate(432.958984 0)"/>
     <use xlink:href="#DejaVuSans-65" transform="translate(472.167969 0)"/>
     <use xlink:href="#DejaVuSans-20" transform="translate(533.691406 0)"/>
     <use xlink:href="#DejaVuSans-66" transform="translate(565.478516 0)"/>
     <use xlink:href="#DejaVuSans-69" transform="translate(600.683594 0)"/>
     <use xlink:href="#DejaVuSans-74" transform="translate(628.466797 0)"/>
     <use xlink:href="#DejaVuSans-3a" transform="translate(667.675781 0)"/>
     <use xlink:href="#DejaVuSans-20" transform="translate(701.367188 0)"/>
     <use xlink:href="#DejaVuSans-31" transform="translate(733.154297 0)"/>
     <use xlink:href="#DejaVuSans-3a" transform="translate(796.777344 0)"/>
     <use xlink:href="#DejaVuSans-33" transform="translate(830.46875 0)"/>
     <use xlink:href="#DejaVuSans-3a" transform="translate(894.091797 0)"/>
     <use xlink:href="#DejaVuSans-33" transform="translate(927.783203 0)"/>
     <use xlink:href="#DejaVuSans-3a" transform="translate(991.40625 0)"/>
     <use xlink:href="#DejaVuSans-31" transform="translate(1025.097656 0)"/>
     <use xlink:href="#DejaVuSans-20" transform="translate(1088.720703 0)"/>
     <use xlink:href="#DejaVuSans-71" transform="translate(1120.507812 0)"/>
     <use xlink:href="#DejaVuSans-75" transform="translate(1183.984375 0)"/>
     <use xlink:href="#DejaVuSans-61" transform="translate(1247.363281 0)"/>
     <use xlink:href="#DejaVuSans-72" transform="translate(1308.642578 0)"/>
     <use xlink:href="#DejaVuSans-74" transform="translate(1349.755859 0)"/>
     <use xlink:href="#DejaVuSans-65" transform="translate(1388.964844 0)"/>
     <use xlink:href="#DejaVuSans-74" transform="translate(1450.488281 0)"/>
     <use xlink:href="#DejaVuSans-20" transform="translate(1489.697266 0)"/>
     <use xlink:href="#DejaVuSans-77" transform="translate(1521.484375 0)"/>
     <use xlink:href="#DejaVuSans-69" transform="translate(1603.271484 0)"/>
     <use xlink:href="#DejaVuSans-74" transform="translate(1631.054688 0)"/>
     <use xlink:href="#DejaVuSans-68" transform="translate(1670.263672 0)"/>
     <use xlink:href="#DejaVuSans-20" transform="translate(1733.642578 0)"/>
     <use xlink:href="#DejaVuSans-6c" transform="translate(1765.429688 0)"/>
     <use xlink:href="#DejaVuSans-69" transform="translate(1793.212891 0)"/>
     <use xlink:href="#DejaVuSans-6e" transform="translate(1820.996094 0)"/>
     <use xlink:href="#DejaVuSans-65" transform="translate(1884.375 0)"/>
     <use xlink:href="#DejaVuSans-61" transform="translate(1945.898438 0)"/>
     <use xlink:href="#DejaVuSans-72" transform="translate(2007.177734 0)"/>
     <use xlink:href="#DejaVuSans-20" transform="translate(2048.291016 0)"/>
     <use xlink:href="#DejaVuSans-62" transform="translate(2080.078125 0)"/>
     <use xlink:href="#DejaVuSans-61" transform="translate(2143.554688 0)"/>
     <use xlink:href="#DejaVuSans-63" transform="translate(2204.833984 0)"/>
     <use xlink:href="#DejaVuSans-6b" transform="translate(2259.814453 0)"/>
     <use xlink:href="#DejaVuSans-67" transform="translate(2317.724609 0)"/>
     <use xlink:href="#DejaVuSans-72" transform="translate(2381.201172 0)"/>
     <use xlink:href="#DejaVuSans-6f" transform="translate(2420.064453 0)"/>
     <use xlink:href="#DejaVuSans-75" transform="translate(2481.246094 0)"/>
     <use xlink:href="#DejaVuSans-6e" transform="translate(2544.625 0)"/>
     <use xlink:href="#DejaVuSans-64" transform="translate(2608.003906 0)"/>
    </g>
   </g>
   <g id="legend_1">
    <g id="patch_7">
     <path d="M 458.009196 82.359375 
L 698.326071 82.359375 
Q 700.126071 82.359375 700.126071 80.559375 
L 700.126071 28.618125 
Q 700.126071 26.818125 698.326071 26.818125 
L 458.009196 26.818125 
Q 456.209196 26.818125 456.209196 28.618125 
L 456.209196 80.559375 
Q 456.209196 82.359375 458.009196 82.359375 
z
" style="fill: #ffffff; opacity: 0.8; stroke: #cccccc; stroke-linejoin: miter"/>
    </g>
    <g id="line2d_36">
     <path d="M 459.809196 34.106719 
L 468.809196 34.106719 
L 477.809196 34.106719 
" style="fill: none; stroke: #4c72b0; stroke-opacity: 0.8; stroke-width: 1.5; stroke-linecap: square"/>
    </g>
    <g id="text_17">
     <!-- DFT (with background) -->
     <g transform="translate(485.009196 37.256719) scale(0.09 -0.09)">
      <defs>
       <path id="DejaVuSans-46" d="M 628 4666 
L 3309 4666 
L 3309 4134 
L 1259 4134 
L 1259 2759 
L 3109 2759 
L 3109 2228 
L 1259 2228 
L 1259 0 
L 628 0 
L 628 4666 
z
" transform="scale(0.015625)"/>
       <path id="DejaVuSans-54" d="M -19 4666 
L 3928 4666 
L 3928 4134 
L 2272 4134 
L 2272 0 
L 1638 0 
L 1638 4134 
L -19 4134 
L -19 4666 
z
" transform="scale(0.015625)"/>
      </defs>
      <use xlink:href="#DejaVuSans-44"/>
      <use xlink:href="#DejaVuSans-46" transform="translate(77.001953 0)"/>
      <use xlink:href="#DejaVuSans-54" transform="translate(132.771484 0)"/>
      <use xlink:href="#DejaVuSans-20" transform="translate(193.855469 0)"/>
      <use xlink:href="#DejaVuSans-28" transform="translate(225.642578 0)"/>
      <use xlink:href="#DejaVuSans-77" transform="translate(264.65625 0)"/>
      <use xlink:href="#DejaVuSans-69" transform="translate(346.443359 0)"/>
      <use xlink:href="#DejaVuSans-74" transform="translate(374.226562 0)"/>
      <use xlink:href="#DejaVuSans-68" transform="translate(413.435547 0)"/>
      <use xlink:href="#DejaVuSans-20" transform="translate(476.814453 0)"/>
      <use xlink:href="#DejaVuSans-62" transform="translate(508.601562 0)"/>
      <use xlink:href="#DejaVuSans-61" transform="translate(572.078125 0)"/>
      <use xlink:href="#DejaVuSans-63" transform="translate(633.357422 0)"/>
      <use xlink:href="#DejaVuSans-6b" transform="translate(688.337891 0)"/>
      <use xlink:href="#DejaVuSans-67" transform="translate(746.248047 0)"/>
      <use xlink:href="#DejaVuSans-72" transform="translate(809.724609 0)"/>
      <use xlink:href="#DejaVuSans-6f" transform="translate(848.587891 0)"/>
      <use xlink:href="#DejaVuSans-75" transform="translate(909.769531 0)"/>
      <use xlink:href="#DejaVuSans-6e" transform="translate(973.148438 0)"/>
      <use xlink:href="#DejaVuSans-64" transform="translate(1036.527344 0)"/>
      <use xlink:href="#DejaVuSans-29" transform="translate(1100.003906 0)"/>
     </g>
    </g>
    <g id="line2d_37">
     <path d="M 459.809196 47.317031 
L 468.809196 47.317031 
L 477.809196 47.317031 
" style="fill: none; stroke-dasharray: 7.4,3.2; stroke-dashoffset: 0; stroke: #55a868; stroke-width: 2"/>
    </g>
    <g id="text_18">
     <!-- Total fit -->
     <g transform="translate(485.009196 50.467031) scale(0.09 -0.09)">
      <use xlink:href="#DejaVuSans-54"/>
      <use xlink:href="#DejaVuSans-6f" transform="translate(44.083984 0)"/>
      <use xlink:href="#DejaVuSans-74" transform="translate(105.265625 0)"/>
      <use xlink:href="#DejaVuSans-61" transform="translate(144.474609 0)"/>
      <use xlink:href="#DejaVuSans-6c" transform="translate(205.753906 0)"/>
      <use xlink:href="#DejaVuSans-20" transform="translate(233.537109 0)"/>
      <use xlink:href="#DejaVuSans-66" transform="translate(265.324219 0)"/>
      <use xlink:href="#DejaVuSans-69" transform="translate(300.529297 0)"/>
      <use xlink:href="#DejaVuSans-74" transform="translate(328.3125 0)"/>
     </g>
    </g>
    <g id="line2d_38">
     <path d="M 459.809196 60.527344 
L 468.809196 60.527344 
L 477.809196 60.527344 
" style="fill: none; stroke-dasharray: 1.2,1.98; stroke-dashoffset: 0; stroke: #c44e52; stroke-width: 1.2"/>
    </g>
    <g id="text_19">
     <!-- p1: A = 1.00 V -->
     <g transform="translate(485.009196 63.677344) scale(0.09 -0.09)">
      <defs>
       <path id="DejaVuSans-3d" d="M 678 2906 
L 4684 2906 
L 4684 2381 
L 678 2381 
L 678 2906 
z
M 678 1631 
L 4684 1631 
L 4684 1100 
L 678 1100 
L 678 1631 
z
" transform="scale(0.015625)"/>
      </defs>
      <use xlink:href="#DejaVuSans-70"/>
      <use xlink:href="#DejaVuSans-31" transform="translate(63.476562 0)"/>
      <use xlink:href="#DejaVuSans-3a" transform="translate(127.099609 0)"/>
      <use xlink:href="#DejaVuSans-20" transform="translate(160.791016 0)"/>
      <use xlink:href="#DejaVuSans-41" transform="translate(192.578125 0)"/>
      <use xlink:href="#DejaVuSans-20" transform="translate(260.986328 0)"/>
      <use xlink:href="#DejaVuSans-3d" transform="translate(292.773438 0)"/>
      <use xlink:href="#DejaVuSans-20" transform="translate(376.5625 0)"/>
      <use xlink:href="#DejaVuSans-31" transform="translate(408.349609 0)"/>
      <use xlink:href="#DejaVuSans-2e" transform="translate(471.972656 0)"/>
      <use xlink:href="#DejaVuSans-30" transform="translate(503.759766 0)"/>
      <use xlink:href="#DejaVuSans-30" transform="translate(567.382812 0)"/>
      <use xlink:href="#DejaVuSans-20" transform="translate(631.005859 0)"/>
      <use xlink:href="#DejaVuSans-56" transform="translate(662.792969 0)"/>
     </g>
    </g>
    <g id="line2d_39">
     <path d="M 459.809196 73.737656 
L 468.809196 73.737656 
L 477.809196 73.737656 
" style="fill: none; stroke-dasharray: 1.2,1.98; stroke-dashoffset: 0; stroke: #8172b2; stroke-width: 1.2"/>
    </g>
    <g id="text_20">
     <!-- p2: A = 3.00 V -->
     <g transform="translate(485.009196 76.887656) scale(0.09 -0.09)">
      <use xlink:href="#DejaVuSans-70"/>
      <use xlink:href="#DejaVuSans-32" transform="translate(63.476562 0)"/>
      <use xlink:href="#DejaVuSans-3a" transform="translate(127.099609 0)"/>
      <use xlink:href="#DejaVuSans-20" transform="translate(160.791016 0)"/>
      <use xlink:href="#DejaVuSans-41" transform="translate(192.578125 0)"/>
      <use xlink:href="#DejaVuSans-20" transform="translate(260.986328 0)"/>
      <use xlink:href="#DejaVuSans-3d" transform="translate(292.773438 0)"/>
      <use xlink:href="#DejaVuSans-20" transform="translate(376.5625 0)"/>
      <use xlink:href="#DejaVuSans-33" transform="translate(408.349609 0)"/>
      <use xlink:href="#DejaVuSans-2e" transform="translate(471.972656 0)"/>
      <use xlink:href="#DejaVuSans-30" transform="translate(503.759766 0)"/>
      <use xlink:href="#DejaVuSans-30" transform="translate(567.382812 0)"/>
      <use xlink:href="#DejaVuSans-20" transform="translate(631.005859 0)"/>
      <use xlink:href="#DejaVuSans-56" transform="translate(662.792969 0)"/>
     </g>
    </g>
    <g id="line2d_40">
     <path d="M 605.519196 34.106719 
L 614.519196 34.106719 
L 623.519196 34.106719 
" style="fill: none; stroke-dasharray: 1.2,1.98; stroke-dashoffset: 0; stroke: #937860; stroke-width: 1.2"/>
    </g>
    <g id="text_21">
     <!-- p3: A = 3.00 V -->
     <g transform="translate(630.719196 37.256719) scale(0.09 -0.09)">
      <use xlink:href="#DejaVuSans-70"/>
      <use xlink:href="#DejaVuSans-33" transform="translate(63.476562 0)"/>
      <use xlink:href="#DejaVuSans-3a" transform="translate(127.099609 0)"/>
      <use xlink:href="#DejaVuSans-20" transform="translate(160.791016 0)"/>
      <use xlink:href="#DejaVuSans-41" transform="translate(192.578125 0)"/>
      <use xlink:href="#DejaVuSans-20" transform="translate(260.986328 0)"/>
      <use xlink:href="#DejaVuSans-3d" transform="translate(292.773438 0)"/>
      <use xlink:href="#DejaVuSans-20" transform="translate(376.5625 0)"/>
      <use xlink:href="#DejaVuSans-33" transform="translate(408.349609 0)"/>
      <use xlink:href="#DejaVuSans-2e" transform="translate(471.972656 0)"/>
      <use xlink:href="#DejaVuSans-30" transform="translate(503.759766 0)"/>
      <use xlink:href="#DejaVuSans-30" transform="translate(567.382812 0)"/>
      <use xlink:href="#DejaVuSans-20" transform="translate(631.005859 0)"/>
      <use xlink:href="#DejaVuSans-56" transform="translate(662.792969 0)"/>
     </g>
    </g>
    <g id="line2d_41">
     <path d="M 605.519196 47.317031 
L 614.519196 47.317031 
L 623.519196 47.317031 
" style="fill: none; stroke-dasharray: 1.2,1.98; stroke-dashoffset: 0; stroke: #da8bc3; stroke-width: 1.2"/>
    </g>
    <g id="text_22">
     <!-- p4: A = 1.00 V -->
     <g transform="translate(630.719196 50.467031) scale(0.09 -0.09)">
      <defs>
       <path id="DejaVuSans-34" d="M 2419 4116 
L 825 1625 
L 2419 1625 
L 2419 4116 
z
M 2253 4666 
L 3047 4666 
L 3047 1625 
L 3713 1625 
L 3713 1100 
L 3047 1100 
L 3047 0 
L 2419 0 
L 2419 1100 
L 313 1100 
L 313 1709 
L 2253 4666 
z
" transform="scale(0.015625)"/>
      </defs>
      <use xlink:href="#DejaVuSans-70"/>
      <use xlink:href="#DejaVuSans-34" transform="translate(63.476562 0)"/>
      <use xlink:href="#DejaVuSans-3a" transform="translate(127.099609 0)"/>
      <use xlink:href="#DejaVuSans-20" transform="translate(160.791016 0)"/>
      <use xlink:href="#DejaVuSans-41" transform="translate(192.578125 0)"/>
      <use xlink:href="#DejaVuSans-20" transform="translate(260.986328 0)"/>
      <use xlink:href="#DejaVuSans-3d" transform="translate(292.773438 0)"/>
      <use xlink:href="#DejaVuSans-20" transform="translate(376.5625 0)"/>
      <use xlink:href="#DejaVuSans-31" transform="translate(408.349609 0)"/>
      <use xlink:href="#DejaVuSans-2e" transform="translate(471.972656 0)"/>
      <use xlink:href="#DejaVuSans-30" transform="translate(503.759766 0)"/>
      <use xlink:href="#DejaVuSans-30" transform="translate(567.382812 0)"/>
      <use xlink:href="#DejaVuSans-20" transform="translate(631.005859 0)"/>
      <use xlink:href="#DejaVuSans-56" transform="translate(662.792969 0)"/>
     </g>
    </g>
    <g id="line2d_42">
     <path d="M 605.519196 60.527344 
L 614.519196 60.527344 
L 623.519196 60.527344 
" style="fill: none; stroke-dasharray: 6.4,1.6,1,1.6; stroke-dashoffset: 0; stroke: #808080"/>
    </g>
    <g id="text_23">
     <!-- background -->
     <g transform="translate(630.719196 63.677344) scale(0.09 -0.09)">
      <use xlink:href="#DejaVuSans-62"/>
      <use xlink:href="#DejaVuSans-61" transform="translate(63.476562 0)"/>
      <use xlink:href="#DejaVuSans-63" transform="translate(124.755859 0)"/>
      <use xlink:href="#DejaVuSans-6b" transform="translate(179.736328 0)"/>
      <use xlink:href="#DejaVuSans-67" transform="translate(237.646484 0)"/>
      <use xlink:href="#DejaVuSans-72" transform="translate(301.123047 0)"/>
      <use xlink:href="#DejaVuSans-6f" transform="translate(339.986328 0)"/>
      <use xlink:href="#DejaVuSans-75" transform="translate(401.167969 0)"/>
      <use xlink:href="#DejaVuSans-6e" transform="translate(464.546875 0)"/>
      <use xlink:href="#DejaVuSans-64" transform="translate(527.925781 0)"/>
     </g>
    </g>
   </g>
  </g>
  <g id="axes_2">
   <g id="patch_8">
    <path d="M 47.878125 460.978125 
L 704.626071 460.978125 
L 704.626071 261.878125 
L 47.878125 261.878125 
z
" style="fill: #ffffff"/>
   </g>
   <g id="matplotlib.axis_3">
    <g id="xtick_9">
     <g id="line2d_43">
      <path d="M 93.441978 460.978125 
L 93.441978 261.878125 
" clip-path="url(#p7385ff96c2)" style="fill: none; stroke: #b0b0b0; stroke-opacity: 0.3; stroke-width: 0.8; stroke-linecap: square"/>
     </g>
     <g id="line2d_44">
      <g>
       <use xlink:href="#mf0b59159bb" x="93.441978" y="460.978125" style="stroke: #000000; stroke-width: 0.8"/>
      </g>
     </g>
     <g id="text_24">
      <!-- 7.5 -->
      <g transform="translate(85.490415 472.076563) scale(0.1 -0.1)">
       <use xlink:href="#DejaVuSans-37"/>
       <use xlink:href="#DejaVuSans-2e" transform="translate(63.623047 0)"/>
       <use xlink:href="#DejaVuSans-35" transform="translate(95.410156 0)"/>
      </g>
     </g>
    </g>
    <g id="xtick_10">
     <g id="line2d_45">
      <path d="M 172.000344 460.978125 
L 172.000344 261.878125 
" clip-path="url(#p7385ff96c2)" style="fill: none; stroke: #b0b0b0; stroke-opacity: 0.3; stroke-width: 0.8; stroke-linecap: square"/>
     </g>
     <g id="line2d_46">
      <g>
       <use xlink:href="#mf0b59159bb" x="172.000344" y="460.978125" style="stroke: #000000; stroke-width: 0.8"/>
      </g>
     </g>
     <g id="text_25">
      <!-- 10.0 -->
      <g transform="translate(160.867532 472.076563) scale(0.1 -0.1)">
       <use xlink:href="#DejaVuSans-31"/>
       <use xlink:href="#DejaVuSans-30" transform="translate(63.623047 0)"/>
       <use xlink:href="#DejaVuSans-2e" transform="translate(127.246094 0)"/>
       <use xlink:href="#DejaVuSans-30" transform="translate(159.033203 0)"/>
      </g>
     </g>
    </g>
    <g id="xtick_11">
     <g id="line2d_47">
      <path d="M 250.558711 460.978125 
L 250.558711 261.878125 
" clip-path="url(#p7385ff96c2)" style="fill: none; stroke: #b0b0b0; stroke-opacity: 0.3; stroke-width: 0.8; stroke-linecap: square"/>
     </g>
     <g id="line2d_48">
      <g>
       <use xlink:href="#mf0b59159bb" x="250.558711" y="460.978125" style="stroke: #000000; stroke-width: 0.8"/>
      </g>
     </g>
     <g id="text_26">
      <!-- 12.5 -->
      <g transform="translate(239.425899 472.076563) scale(0.1 -0.1)">
       <use xlink:href="#DejaVuSans-31"/>
       <use xlink:href="#DejaVuSans-32" transform="translate(63.623047 0)"/>
       <use xlink:href="#DejaVuSans-2e" transform="translate(127.246094 0)"/>
       <use xlink:href="#DejaVuSans-35" transform="translate(159.033203 0)"/>
      </g>
     </g>
    </g>
    <g id="xtick_12">
     <g id="line2d_49">
      <path d="M 329.117078 460.978125 
L 329.117078 261.878125 
" clip-path="url(#p7385ff96c2)" style="fill: none; stroke: #b0b0b0; stroke-opacity: 0.3; stroke-width: 0.8; stroke-linecap: square"/>
     </g>
     <g id="line2d_50">
      <g>
       <use xlink:href="#mf0b59159bb" x="329.117078" y="460.978125" style="stroke: #000000; stroke-width: 0.8"/>
      </g>
     </g>
     <g id="text_27">
      <!-- 15.0 -->
      <g transform="translate(317.984265 472.076563) scale(0.1 -0.1)">
       <use xlink:href="#DejaVuSans-31"/>
       <use xlink:href="#DejaVuSans-35" transform="translate(63.623047 0)"/>
       <use xlink:href="#DejaVuSans-2e" transform="translate(127.246094 0)"/>
       <use xlink:href="#DejaVuSans-30" transform="translate(159.033203 0)"/>
      </g>
     </g>
    </g>
    <g id="xtick_13">
     <g id="line2d_51">
      <path d="M 407.675445 460.978125 
L 407.675445 261.878125 
" clip-path="url(#p7385ff96c2)" style="fill: none; stroke: #b0b0b0; stroke-opacity: 0.3; stroke-width: 0.8; stroke-linecap: square"/>
     </g>
     <g id="line2d_52">
      <g>
       <use xlink:href="#mf0b59159bb" x="407.675445" y="460.978125" style="stroke: #000000; stroke-width: 0.8"/>
      </g>
     </g>
     <g id="text_28">
      <!-- 17.5 -->
      <g transform="translate(396.542632 472.076563) scale(0.1 -0.1)">
       <use xlink:href="#DejaVuSans-31"/>
       <use xlink:href="#DejaVuSans-37" transform="translate(63.623047 0)"/>
       <use xlink:href="#DejaVuSans-2e" transform="translate(127.246094 0)"/>
       <use xlink:href="#DejaVuSans-35" transform="translate(159.033203 0)"/>
      </g>
     </g>
    </g>
    <g id="xtick_14">
     <g id="line2d_53">
      <path d="M 486.233812 460.978125 
L 486.233812 261.878125 
" clip-path="url(#p7385ff96c2)" style="fill: none; stroke: #b0b0b0; stroke-opacity: 0.3; stroke-width: 0.8; stroke-linecap: square"/>
     </g>
     <g id="line2d_54">
      <g>
       <use xlink:href="#mf0b59159bb" x="486.233812" y="460.978125" style="stroke: #000000; stroke-width: 0.8"/>
      </g>
     </g>
     <g id="text_29">
      <!-- 20.0 -->
      <g transform="translate(475.100999 472.076563) scale(0.1 -0.1)">
       <use xlink:href="#DejaVuSans-32"/>
       <use xlink:href="#DejaVuSans-30" transform="translate(63.623047 0)"/>
       <use xlink:href="#DejaVuSans-2e" transform="translate(127.246094 0)"/>
       <use xlink:href="#DejaVuSans-30" transform="translate(159.033203 0)"/>
      </g>
     </g>
    </g>
    <g id="xtick_15">
     <g id="line2d_55">
      <path d="M 564.792178 460.978125 
L 564.792178 261.878125 
" clip-path="url(#p7385ff96c2)" style="fill: none; stroke: #b0b0b0; stroke-opacity: 0.3; stroke-width: 0.8; stroke-linecap: square"/>
     </g>
     <g id="line2d_56">
      <g>
       <use xlink:href="#mf0b59159bb" x="564.792178" y="460.978125" style="stroke: #000000; stroke-width: 0.8"/>
      </g>
     </g>
     <g id="text_30">
      <!-- 22.5 -->
      <g transform="translate(553.659366 472.076563) scale(0.1 -0.1)">
       <use xlink:href="#DejaVuSans-32"/>
       <use xlink:href="#DejaVuSans-32" transform="translate(63.623047 0)"/>
       <use xlink:href="#DejaVuSans-2e" transform="translate(127.246094 0)"/>
       <use xlink:href="#DejaVuSans-35" transform="translate(159.033203 0)"/>
      </g>
     </g>
    </g>
    <g id="xtick_16">
     <g id="line2d_57">
      <path d="M 643.350545 460.978125 
L 643.350545 261.878125 
" clip-path="url(#p7385ff96c2)" style="fill: none; stroke: #b0b0b0; stroke-opacity: 0.3; stroke-width: 0.8; stroke-linecap: square"/>
     </g>
     <g id="line2d_58">
      <g>
       <use xlink:href="#mf0b59159bb" x="643.350545" y="460.978125" style="stroke: #000000; stroke-width: 0.8"/>
      </g>
     </g>
     <g id="text_31">
      <!-- 25.0 -->
      <g transform="translate(632.217733 472.076563) scale(0.1 -0.1)">
       <use xlink:href="#DejaVuSans-32"/>
       <use xlink:href="#DejaVuSans-35" transform="translate(63.623047 0)"/>
       <use xlink:href="#DejaVuSans-2e" transform="translate(127.246094 0)"/>
       <use xlink:href="#DejaVuSans-30" transform="translate(159.033203 0)"/>
      </g>
     </g>
    </g>
    <g id="text_32">
     <!-- Frequency (Hz) -->
     <g transform="translate(338.547411 485.754688) scale(0.1 -0.1)">
      <defs>
       <path id="DejaVuSans-79" d="M 2059 -325 
Q 1816 -950 1584 -1140 
Q 1353 -1331 966 -1331 
L 506 -1331 
L 506 -850 
L 844 -850 
Q 1081 -850 1212 -737 
Q 1344 -625 1503 -206 
L 1606 56 
L 191 3500 
L 800 3500 
L 1894 763 
L 2988 3500 
L 3597 3500 
L 2059 -325 
z
" transform="scale(0.015625)"/>
      </defs>
      <use xlink:href="#DejaVuSans-46"/>
      <use xlink:href="#DejaVuSans-72" transform="translate(50.269531 0)"/>
      <use xlink:href="#DejaVuSans-65" transform="translate(89.132812 0)"/>
      <use xlink:href="#DejaVuSans-71" transform="translate(150.65625 0)"/>
      <use xlink:href="#DejaVuSans-75" transform="translate(214.132812 0)"/>
      <use xlink:href="#DejaVuSans-65" transform="translate(277.511719 0)"/>
      <use xlink:href="#DejaVuSans-6e" transform="translate(339.035156 0)"/>
      <use xlink:href="#DejaVuSans-63" transform="translate(402.414062 0)"/>
      <use xlink:href="#DejaVuSans-79" transform="translate(457.394531 0)"/>
      <use xlink:href="#DejaVuSans-20" transform="translate(516.574219 0)"/>
      <use xlink:href="#DejaVuSans-28" transform="translate(548.361328 0)"/>
      <use xlink:href="#DejaVuSans-48" transform="translate(587.375 0)"/>
      <use xlink:href="#DejaVuSans-7a" transform="translate(662.570312 0)"/>
      <use xlink:href="#DejaVuSans-29" transform="translate(715.060547 0)"/>
     </g>
    </g>
   </g>
   <g id="matplotlib.axis_4">
    <g id="ytick_7">
     <g id="line2d_59">
      <path d="M 47.878125 425.437248 
L 704.626071 425.437248 
" clip-path="url(#p7385ff96c2)" style="fill: none; stroke: #b0b0b0; stroke-opacity: 0.3; stroke-width: 0.8; stroke-linecap: square"/>
     </g>
     <g id="line2d_60">
      <g>
       <use xlink:href="#m0738fc98a5" x="47.878125" y="425.437248" style="stroke: #000000; stroke-width: 0.8"/>
      </g>
     </g>
     <g id="text_33">
      <!-- $\mathdefault{10^{-9}}$ -->
      <g transform="translate(20.878125 429.236467) scale(0.1 -0.1)">
       <defs>
        <path id="DejaVuSans-2212" d="M 678 2272 
L 4684 2272 
L 4684 1741 
L 678 1741 
L 678 2272 
z
" transform="scale(0.015625)"/>
        <path id="DejaVuSans-39" d="M 703 97 
L 703 672 
Q 941 559 1184 500 
Q 1428 441 1663 441 
Q 2288 441 2617 861 
Q 2947 1281 2994 2138 
Q 2813 1869 2534 1725 
Q 2256 1581 1919 1581 
Q 1219 1581 811 2004 
Q 403 2428 403 3163 
Q 403 3881 828 4315 
Q 1253 4750 1959 4750 
Q 2769 4750 3195 4129 
Q 3622 3509 3622 2328 
Q 3622 1225 3098 567 
Q 2575 -91 1691 -91 
Q 1453 -91 1209 -44 
Q 966 3 703 97 
z
M 1959 2075 
Q 2384 2075 2632 2365 
Q 2881 2656 2881 3163 
Q 2881 3666 2632 3958 
Q 2384 4250 1959 4250 
Q 1534 4250 1286 3958 
Q 1038 3666 1038 3163 
Q 1038 2656 1286 2365 
Q 1534 2075 1959 2075 
z
" transform="scale(0.015625)"/>
       </defs>
       <use xlink:href="#DejaVuSans-31" transform="translate(0 0.765625)"/>
       <use xlink:href="#DejaVuSans-30" transform="translate(63.623047 0.765625)"/>
       <use xlink:href="#DejaVuSans-2212" transform="translate(128.203125 39.046875) scale(0.7)"/>
       <use xlink:href="#DejaVuSans-39" transform="translate(186.855469 39.046875) scale(0.7)"/>
      </g>
     </g>
    </g>
    <g id="ytick_8">
     <g id="line2d_61">
      <path d="M 47.878125 389.625501 
L 704.626071 389.625501 
" clip-path="url(#p7385ff96c2)" style="fill: none; stroke: #b0b0b0; stroke-opacity: 0.3; stroke-width: 0.8; stroke-linecap: square"/>
     </g>
     <g id="line2d_62">
      <g>
       <use xlink:href="#m0738fc98a5" x="47.878125" y="389.625501" style="stroke: #000000; stroke-width: 0.8"/>
      </g>
     </g>
     <g id="text_34">
      <!-- $\mathdefault{10^{-7}}$ -->
      <g transform="translate(20.878125 393.424719) scale(0.1 -0.1)">
       <use xlink:href="#DejaVuSans-31" transform="translate(0 0.684375)"/>
       <use xlink:href="#DejaVuSans-30" transform="translate(63.623047 0.684375)"/>
       <use xlink:href="#DejaVuSans-2212" transform="translate(128.203125 38.965625) scale(0.7)"/>
       <use xlink:href="#DejaVuSans-37" transform="translate(186.855469 38.965625) scale(0.7)"/>
      </g>
     </g>
    </g>
    <g id="ytick_9">
     <g id="line2d_63">
      <path d="M 47.878125 353.813753 
L 704.626071 353.813753 
" clip-path="url(#p7385ff96c2)" style="fill: none; stroke: #b0b0b0; stroke-opacity: 0.3; stroke-width: 0.8; stroke-linecap: square"/>
     </g>
     <g id="line2d_64">
      <g>
       <use xlink:href="#m0738fc98a5" x="47.878125" y="353.813753" style="stroke: #000000; stroke-width: 0.8"/>
      </g>
     </g>
     <g id="text_35">
      <!-- $\mathdefault{10^{-5}}$ -->
      <g transform="translate(20.878125 357.612972) scale(0.1 -0.1)">
       <use xlink:href="#DejaVuSans-31" transform="translate(0 0.684375)"/>
       <use xlink:href="#DejaVuSans-30" transform="translate(63.623047 0.684375)"/>
       <use xlink:href="#DejaVuSans-2212" transform="translate(128.203125 38.965625) scale(0.7)"/>
       <use xlink:href="#DejaVuSans-35" transform="translate(186.855469 38.965625) scale(0.7)"/>
      </g>
     </g>
    </g>
    <g id="ytick_10">
     <g id="line2d_65">
      <path d="M 47.878125 318.002005 
L 704.626071 318.002005 
" clip-path="url(#p7385ff96c2)" style="fill: none; stroke: #b0b0b0; stroke-opacity: 0.3; stroke-width: 0.8; stroke-linecap: square"/>
     </g>
     <g id="line2d_66">
      <g>
       <use xlink:href="#m0738fc98a5" x="47.878125" y="318.002005" style="stroke: #000000; stroke-width: 0.8"/>
      </g>
     </g>
     <g id="text_36">
      <!-- $\mathdefault{10^{-3}}$ -->
      <g transform="translate(20.878125 321.801224) scale(0.1 -0.1)">
       <use xlink:href="#DejaVuSans-31" transform="translate(0 0.765625)"/>
       <use xlink:href="#DejaVuSans-30" transform="translate(63.623047 0.765625)"/>
       <use xlink:href="#DejaVuSans-2212" transform="translate(128.203125 39.046875) scale(0.7)"/>
       <use xlink:href="#DejaVuSans-33" transform="translate(186.855469 39.046875) scale(0.7)"/>
      </g>
     </g>
    </g>
    <g id="ytick_11">
     <g id="line2d_67">
      <path d="M 47.878125 282.190258 
L 704.626071 282.190258 
" clip-path="url(#p7385ff96c2)" style="fill: none; stroke: #b0b0b0; stroke-opacity: 0.3; stroke-width: 0.8; stroke-linecap: square"/>
     </g>
     <g id="line2d_68">
      <g>
       <use xlink:href="#m0738fc98a5" x="47.878125" y="282.190258" style="stroke: #000000; stroke-width: 0.8"/>
      </g>
     </g>
     <g id="text_37">
      <!-- $\mathdefault{10^{-1}}$ -->
      <g transform="translate(20.878125 285.989476) scale(0.1 -0.1)">
       <use xlink:href="#DejaVuSans-31" transform="translate(0 0.684375)"/>
       <use xlink:href="#DejaVuSans-30" transform="translate(63.623047 0.684375)"/>
       <use xlink:href="#DejaVuSans-2212" transform="translate(128.203125 38.965625) scale(0.7)"/>
       <use xlink:href="#DejaVuSans-31" transform="translate(186.855469 38.965625) scale(0.7)"/>
      </g>
     </g>
    </g>
    <g id="text_38">
     <!-- Residual (V/√Hz) -->
     <g transform="translate(14.798438 402.709375) rotate(-90) scale(0.1 -0.1)">
      <defs>
       <path id="DejaVuSans-52" d="M 2841 2188 
Q 3044 2119 3236 1894 
Q 3428 1669 3622 1275 
L 4263 0 
L 3584 0 
L 2988 1197 
Q 2756 1666 2539 1819 
Q 2322 1972 1947 1972 
L 1259 1972 
L 1259 0 
L 628 0 
L 628 4666 
L 2053 4666 
Q 2853 4666 3247 4331 
Q 3641 3997 3641 3322 
Q 3641 2881 3436 2590 
Q 3231 2300 2841 2188 
z
M 1259 4147 
L 1259 2491 
L 2053 2491 
Q 2509 2491 2742 2702 
Q 2975 2913 2975 3322 
Q 2975 3731 2742 3939 
Q 2509 4147 2053 4147 
L 1259 4147 
z
" transform="scale(0.015625)"/>
      </defs>
      <use xlink:href="#DejaVuSans-52"/>
      <use xlink:href="#DejaVuSans-65" transform="translate(64.982422 0)"/>
      <use xlink:href="#DejaVuSans-73" transform="translate(126.505859 0)"/>
      <use xlink:href="#DejaVuSans-69" transform="translate(178.605469 0)"/>
      <use xlink:href="#DejaVuSans-64" transform="translate(206.388672 0)"/>
      <use xlink:href="#DejaVuSans-75" transform="translate(269.865234 0)"/>
      <use xlink:href="#DejaVuSans-61" transform="translate(333.244141 0)"/>
      <use xlink:href="#DejaVuSans-6c" transform="translate(394.523438 0)"/>
      <use xlink:href="#DejaVuSans-20" transform="translate(422.306641 0)"/>
      <use xlink:href="#DejaVuSans-28" transform="translate(454.09375 0)"/>
      <use xlink:href="#DejaVuSans-56" transform="translate(493.107422 0)"/>
      <use xlink:href="#DejaVuSans-2f" transform="translate(561.515625 0)"/>
      <use xlink:href="#DejaVuSans-221a" transform="translate(595.207031 0)"/>
      <use xlink:href="#DejaVuSans-48" transform="translate(658.927734 0)"/>
      <use xlink:href="#DejaVuSans-7a" transform="translate(734.123047 0)"/>
      <use xlink:href="#DejaVuSans-29" transform="translate(786.613281 0)"/>
     </g>
    </g>
   </g>
   <g id="line2d_69">
    <path d="M 77.730304 293.897711 
L 97.369896 294.698373 
L 113.081569 295.512853 
L 124.865324 296.279314 
L 136.649079 297.247616 
L 144.504916 298.057036 
L 152.360753 299.056862 
L 160.216589 300.32581 
L 168.072426 301.954184 
L 175.928263 303.811359 
L 179.856181 304.430001 
L 183.784099 304.28219 
L 187.712018 303.120101 
L 191.639936 301.271563 
L 195.567855 299.235841 
L 199.495773 297.404536 
L 203.423691 296.303892 
L 207.35161 297.29351 
L 211.279528 304.238571 
L 215.207446 299.710201 
L 219.135365 296.246175 
L 223.063283 295.947978 
L 226.991201 296.738157 
L 230.91912 298.01205 
L 234.847038 299.617864 
L 238.774956 301.592917 
L 242.702875 304.124609 
L 246.630793 307.631949 
L 250.558711 312.401635 
L 254.48663 311.620461 
L 258.414548 306.680709 
L 262.342466 303.085377 
L 266.270385 300.362612 
L 270.198303 298.114598 
L 274.126221 296.151674 
L 278.05414 294.439434 
L 281.982058 293.296513 
L 285.909976 294.908347 
L 289.837895 301.716813 
L 293.765813 292.704968 
L 297.693731 294.540797 
L 301.62165 298.288938 
L 305.549568 302.514146 
L 309.477486 304.089518 
L 313.405405 301.723596 
L 317.333323 299.194344 
L 321.261241 297.219696 
L 325.18916 295.648899 
L 329.117078 294.341126 
L 333.044996 293.208311 
L 340.900833 291.270396 
L 348.75667 289.6203 
L 352.684588 288.926857 
L 356.612506 288.471178 
L 360.540425 288.814151 
L 364.468343 292.257195 
L 368.396261 288.875651 
L 372.32418 287.682502 
L 376.252098 289.994291 
L 380.180016 289.999152 
L 391.963771 286.2876 
L 399.819608 284.305115 
L 415.531281 280.538535 
L 423.387118 278.376249 
L 427.315036 277.148423 
L 431.242955 275.795342 
L 443.02671 271.476171 
L 446.954628 270.928125 
L 450.882546 271.504232 
L 454.810465 272.84033 
L 462.666301 275.871212 
L 466.59422 277.214895 
L 470.522138 278.413038 
L 478.377975 280.432043 
L 486.233812 282.046416 
L 494.089648 283.335955 
L 501.945485 284.346575 
L 509.801322 285.107642 
L 517.657158 285.64461 
L 525.512995 285.9856 
L 537.29675 286.199985 
L 549.080505 286.156204 
L 564.792178 285.858137 
L 592.287607 285.067477 
L 651.206382 283.352176 
L 674.773892 282.76805 
L 674.773892 282.76805 
" clip-path="url(#p7385ff96c2)" style="fill: none; stroke: #55a868; stroke-width: 1.2; stroke-linecap: square"/>
   </g>
   <g id="line2d_70">
    <path d="M 77.730304 418.753484 
L 93.441978 420.366084 
L 105.225733 421.816233 
L 113.081569 422.94825 
L 120.937406 424.266828 
L 128.793243 425.852877 
L 132.721161 426.787916 
L 136.649079 427.853926 
L 140.576998 429.095865 
L 144.504916 430.585087 
L 148.432834 432.446887 
L 152.360753 434.933347 
L 156.288671 438.680896 
L 160.216589 446.408527 
L 164.144508 448.517946 
L 168.072426 439.118951 
L 172.000344 434.863022 
L 175.928263 432.031516 
L 179.856181 429.874581 
L 183.784099 428.11222 
L 187.712018 426.619953 
L 191.639936 425.356501 
L 195.567855 424.365431 
L 199.495773 423.861523 
L 203.423691 424.54726 
L 207.35161 429.10214 
L 211.279528 434.162302 
L 215.207446 425.306759 
L 219.135365 424.512655 
L 223.063283 426.09479 
L 226.991201 428.837866 
L 230.91912 432.637246 
L 234.847038 437.814996 
L 238.774956 439.82663 
L 242.702875 435.621235 
L 246.630793 432.454251 
L 250.558711 430.294754 
L 254.48663 428.705175 
L 258.414548 427.463493 
L 262.342466 426.455138 
L 266.270385 425.622242 
L 270.198303 424.950588 
L 274.126221 424.490178 
L 278.05414 424.466626 
L 281.982058 425.857461 
L 285.909976 438.038554 
L 289.837895 423.725386 
L 293.765813 423.563781 
L 297.693731 430.899342 
L 301.62165 441.277688 
L 305.549568 431.907066 
L 309.477486 428.680607 
L 313.405405 426.994615 
L 317.333323 425.93593 
L 321.261241 425.204209 
L 325.18916 424.671265 
L 333.044996 423.984289 
L 340.900833 423.689297 
L 344.828751 423.71611 
L 348.75667 423.938112 
L 352.684588 424.538011 
L 356.612506 426.079303 
L 360.540425 431.188194 
L 364.468343 428.737805 
L 368.396261 421.454433 
L 372.32418 426.843591 
L 376.252098 436.217474 
L 380.180016 427.652923 
L 384.107935 425.391159 
L 388.035853 424.439324 
L 391.963771 423.98917 
L 395.89169 423.794039 
L 399.819608 423.760156 
L 403.747526 423.851676 
L 407.675445 424.062071 
L 411.603363 424.40689 
L 415.531281 424.927903 
L 419.4592 425.710812 
L 423.387118 426.935434 
L 427.315036 429.032906 
L 431.242955 433.351847 
L 435.170873 439.200958 
L 439.098791 429.032503 
L 443.02671 424.45395 
L 446.954628 424.433201 
L 450.882546 431.448781 
L 454.810465 432.773981 
L 458.738383 426.551025 
L 462.666301 424.520195 
L 466.59422 423.707362 
L 470.522138 423.400465 
L 474.450056 423.345396 
L 482.305893 423.614705 
L 490.16173 424.162858 
L 498.017567 424.907264 
L 505.873403 425.845681 
L 513.72924 427.019288 
L 521.585077 428.516598 
L 525.512995 429.435327 
L 529.440913 430.511681 
L 533.368832 431.801398 
L 537.29675 433.396405 
L 541.224668 435.465418 
L 545.152587 438.36968 
L 549.080505 443.114795 
L 553.008423 451.928125 
L 556.936342 443.883486 
L 560.86426 438.501617 
L 564.792178 435.230459 
L 568.720097 432.876384 
L 572.648015 431.030288 
L 576.575933 429.506497 
L 580.503852 428.20537 
L 584.43177 427.067338 
L 592.287607 425.138961 
L 600.143443 423.534244 
L 607.99928 422.153398 
L 619.783035 420.377745 
L 631.56679 418.855657 
L 647.278463 417.103681 
L 662.990137 415.581231 
L 674.773892 414.553227 
L 674.773892 414.553227 
" clip-path="url(#p7385ff96c2)" style="fill: none; stroke: #4c72b0; stroke-width: 1.2; stroke-linecap: square"/>
   </g>
   <g id="patch_9">
    <path d="M 47.878125 460.978125 
L 47.878125 261.878125 
" style="fill: none; stroke: #000000; stroke-width: 0.8; stroke-linejoin: miter; stroke-linecap: square"/>
   </g>
   <g id="patch_10">
    <path d="M 704.626071 460.978125 
L 704.626071 261.878125 
" style="fill: none; stroke: #000000; stroke-width: 0.8; stroke-linejoin: miter; stroke-linecap: square"/>
   </g>
   <g id="patch_11">
    <path d="M 47.878125 460.978125 
L 704.626071 460.978125 
" style="fill: none; stroke: #000000; stroke-width: 0.8; stroke-linejoin: miter; stroke-linecap: square"/>
   </g>
   <g id="patch_12">
    <path d="M 47.878125 261.878125 
L 704.626071 261.878125 
" style="fill: none; stroke: #000000; stroke-width: 0.8; stroke-linejoin: miter; stroke-linecap: square"/>
   </g>
   <g id="text_39">
    <!-- Fit residuals -->
    <g transform="translate(340.413348 255.878125) scale(0.12 -0.12)">
     <use xlink:href="#DejaVuSans-46"/>
     <use xlink:href="#DejaVuSans-69" transform="translate(50.269531 0)"/>
     <use xlink:href="#DejaVuSans-74" transform="translate(78.052734 0)"/>
     <use xlink:href="#DejaVuSans-20" transform="translate(117.261719 0)"/>
     <use xlink:href="#DejaVuSans-72" transform="translate(149.048828 0)"/>
     <use xlink:href="#DejaVuSans-65" transform="translate(187.912109 0)"/>
     <use xlink:href="#DejaVuSans-73" transform="translate(249.435547 0)"/>
     <use xlink:href="#DejaVuSans-69" transform="translate(301.535156 0)"/>
     <use xlink:href="#DejaVuSans-64" transform="translate(329.318359 0)"/>
     <use xlink:href="#DejaVuSans-75" transform="translate(392.794922 0)"/>
     <use xlink:href="#DejaVuSans-61" transform="translate(456.173828 0)"/>
     <use xlink:href="#DejaVuSans-6c" transform="translate(517.453125 0)"/>
     <use xlink:href="#DejaVuSans-73" transform="translate(545.236328 0)"/>
    </g>
   </g>
   <g id="legend_2">
    <g id="patch_13">
     <path d="M 485.571384 377.60625 
L 697.626071 377.60625 
Q 699.626071 377.60625 699.626071 375.60625 
L 699.626071 347.25 
Q 699.626071 345.25 697.626071 345.25 
L 485.571384 345.25 
Q 483.571384 345.25 483.571384 347.25 
L 483.571384 375.60625 
Q 483.571384 377.60625 485.571384 377.60625 
z
" style="fill: #ffffff; opacity: 0.8; stroke: #cccccc; stroke-linejoin: miter"/>
    </g>
    <g id="line2d_71">
     <path d="M 487.571384 353.348438 
L 497.571384 353.348438 
L 507.571384 353.348438 
" style="fill: none; stroke: #55a868; stroke-width: 1.2; stroke-linecap: square"/>
    </g>
    <g id="text_40">
     <!-- 4 peaks, no background component -->
     <g transform="translate(515.571384 356.848438) scale(0.1 -0.1)">
      <defs>
       <path id="DejaVuSans-2c" d="M 750 794 
L 1409 794 
L 1409 256 
L 897 -744 
L 494 -744 
L 750 256 
L 750 794 
z
" transform="scale(0.015625)"/>
      </defs>
      <use xlink:href="#DejaVuSans-34"/>
      <use xlink:href="#DejaVuSans-20" transform="translate(63.623047 0)"/>
      <use xlink:href="#DejaVuSans-70" transform="translate(95.410156 0)"/>
      <use xlink:href="#DejaVuSans-65" transform="translate(158.886719 0)"/>
      <use xlink:href="#DejaVuSans-61" transform="translate(220.410156 0)"/>
      <use xlink:href="#DejaVuSans-6b" transform="translate(281.689453 0)"/>
      <use xlink:href="#DejaVuSans-73" transform="translate(339.599609 0)"/>
      <use xlink:href="#DejaVuSans-2c" transform="translate(391.699219 0)"/>
      <use xlink:href="#DejaVuSans-20" transform="translate(423.486328 0)"/>
      <use xlink:href="#DejaVuSans-6e" transform="translate(455.273438 0)"/>
      <use xlink:href="#DejaVuSans-6f" transform="translate(518.652344 0)"/>
      <use xlink:href="#DejaVuSans-20" transform="translate(579.833984 0)"/>
      <use xlink:href="#DejaVuSans-62" transform="translate(611.621094 0)"/>
      <use xlink:href="#DejaVuSans-61" transform="translate(675.097656 0)"/>
      <use xlink:href="#DejaVuSans-63" transform="translate(736.376953 0)"/>
      <use xlink:href="#DejaVuSans-6b" transform="translate(791.357422 0)"/>
      <use xlink:href="#DejaVuSans-67" transform="translate(849.267578 0)"/>
      <use xlink:href="#DejaVuSans-72" transform="translate(912.744141 0)"/>
      <use xlink:href="#DejaVuSans-6f" transform="translate(951.607422 0)"/>
      <use xlink:href="#DejaVuSans-75" transform="translate(1012.789062 0)"/>
      <use xlink:href="#DejaVuSans-6e" transform="translate(1076.167969 0)"/>
      <use xlink:href="#DejaVuSans-64" transform="translate(1139.546875 0)"/>
      <use xlink:href="#DejaVuSans-20" transform="translate(1203.023438 0)"/>
      <use xlink:href="#DejaVuSans-63" transform="translate(1234.810547 0)"/>
      <use xlink:href="#DejaVuSans-6f" transform="translate(1289.791016 0)"/>
      <use xlink:href="#DejaVuSans-6d" transform="translate(1350.972656 0)"/>
      <use xlink:href="#DejaVuSans-70" transform="translate(1448.384766 0)"/>
      <use xlink:href="#DejaVuSans-6f" transform="translate(1511.861328 0)"/>
      <use xlink:href="#DejaVuSans-6e" transform="translate(1573.042969 0)"/>
      <use xlink:href="#DejaVuSans-65" transform="translate(1636.421875 0)"/>
      <use xlink:href="#DejaVuSans-6e" transform="translate(1697.945312 0)"/>
      <use xlink:href="#DejaVuSans-74" transform="translate(1761.324219 0)"/>
     </g>
    </g>
    <g id="line2d_72">
     <path d="M 487.571384 368.026563 
L 497.571384 368.026563 
L 507.571384 368.026563 
" style="fill: none; stroke: #4c72b0; stroke-width: 1.2; stroke-linecap: square"/>
    </g>
    <g id="text_41">
     <!-- 4 peaks + background component -->
     <g transform="translate(515.571384 371.526563) scale(0.1 -0.1)">
      <defs>
       <path id="DejaVuSans-2b" d="M 2944 4013 
L 2944 2272 
L 4684 2272 
L 4684 1741 
L 2944 1741 
L 2944 0 
L 2419 0 
L 2419 1741 
L 678 1741 
L 678 2272 
L 2419 2272 
L 2419 4013 
L 2944 4013 
z
" transform="scale(0.015625)"/>
      </defs>
      <use xlink:href="#DejaVuSans-34"/>
      <use xlink:href="#DejaVuSans-20" transform="translate(63.623047 0)"/>
      <use xlink:href="#DejaVuSans-70" transform="translate(95.410156 0)"/>
      <use xlink:href="#DejaVuSans-65" transform="translate(158.886719 0)"/>
      <use xlink:href="#DejaVuSans-61" transform="translate(220.410156 0)"/>
      <use xlink:href="#DejaVuSans-6b" transform="translate(281.689453 0)"/>
      <use xlink:href="#DejaVuSans-73" transform="translate(339.599609 0)"/>
      <use xlink:href="#DejaVuSans-20" transform="translate(391.699219 0)"/>
      <use xlink:href="#DejaVuSans-2b" transform="translate(423.486328 0)"/>
      <use xlink:href="#DejaVuSans-20" transform="translate(507.275391 0)"/>
      <use xlink:href="#DejaVuSans-62" transform="translate(539.0625 0)"/>
      <use xlink:href="#DejaVuSans-61" transform="translate(602.539062 0)"/>
      <use xlink:href="#DejaVuSans-63" transform="translate(663.818359 0)"/>
      <use xlink:href="#DejaVuSans-6b" transform="translate(718.798828 0)"/>
      <use xlink:href="#DejaVuSans-67" transform="translate(776.708984 0)"/>
      <use xlink:href="#DejaVuSans-72" transform="translate(840.185547 0)"/>
      <use xlink:href="#DejaVuSans-6f" transform="translate(879.048828 0)"/>
      <use xlink:href="#DejaVuSans-75" transform="translate(940.230469 0)"/>
      <use xlink:href="#DejaVuSans-6e" transform="translate(1003.609375 0)"/>
      <use xlink:href="#DejaVuSans-64" transform="translate(1066.988281 0)"/>
      <use xlink:href="#DejaVuSans-20" transform="translate(1130.464844 0)"/>
      <use xlink:href="#DejaVuSans-63" transform="translate(1162.251953 0)"/>
      <use xlink:href="#DejaVuSans-6f" transform="translate(1217.232422 0)"/>
      <use xlink:href="#DejaVuSans-6d" transform="translate(1278.414062 0)"/>
      <use xlink:href="#DejaVuSans-70" transform="translate(1375.826172 0)"/>
      <use xlink:href="#DejaVuSans-6f" transform="translate(1439.302734 0)"/>
      <use xlink:href="#DejaVuSans-6e" transform="translate(1500.484375 0)"/>
      <use xlink:href="#DejaVuSans-65" transform="translate(1563.863281 0)"/>
      <use xlink:href="#DejaVuSans-6e" transform="translate(1625.386719 0)"/>
      <use xlink:href="#DejaVuSans-74" transform="translate(1688.765625 0)"/>
     </g>
    </g>
   </g>
  </g>
 </g>
 <defs>
  <clipPath id="p6b553784c6">
   <rect x="47.878125" y="22.318125" width="656.747946" height="199.1"/>
  </clipPath>
  <clipPath id="p7385ff96c2">
   <rect x="47.878125" y="261.878125" width="656.747946" height="199.1"/>
  </clipPath>
 </defs>
</svg>
